<svg xmlns="http://www.w3.org/2000/svg" width="237.996" height="233.904" viewBox="0 0 237.996 233.904">
    <defs>
        <style>
            .cls-1{fill:url(#linear-gradient)}.cls-2{fill:url(#linear-gradient-2)}.cls-11,.cls-12,.cls-3{fill:none}.cls-3{stroke:#2f2e41}.cls-3,.cls-7{stroke-miterlimit:10}.cls-11,.cls-12,.cls-3,.cls-7{stroke-width:2px}.cls-4{fill:#2f2e41}.cls-5{opacity:.7;fill:url(#linear-gradient-3)}.cls-6{fill:url(#linear-gradient-4)}.cls-7{fill:#4f2da7;stroke:#4f2da7}.cls-8{opacity:.2}.cls-9{fill:url(#linear-gradient-5)}.cls-10{fill:url(#linear-gradient-6)}.cls-11,.cls-12{stroke:#aacffc;stroke-linecap:round}.cls-12{stroke:#9fbefb}.cls-13{filter:url(#features)}.cls-14{filter:url(#Path_10523)}.cls-15{filter:url(#Path_10583)}.cls-16{filter:url(#Path_9411)}
        </style>
        <linearGradient id="linear-gradient" x1=".5" x2=".5" y2="1" gradientUnits="objectBoundingBox">
            <stop offset="0" stop-color="#3f3d56"/>
            <stop offset="1" stop-color="#0d0c11"/>
        </linearGradient>
        <filter id="Path_9411" width="168.348" height="188.129" x="0" y="11.902" filterUnits="userSpaceOnUse">
            <feOffset dy="10"/>
            <feGaussianBlur result="blur" stdDeviation="10"/>
            <feFlood flood-opacity=".502"/>
            <feComposite in2="blur" operator="in"/>
            <feComposite in="SourceGraphic"/>
        </filter>
        <linearGradient id="linear-gradient-2" x1=".431" x2=".5" y1=".015" y2="1" gradientUnits="objectBoundingBox">
            <stop offset="0" stop-color="#0fe"/>
            <stop offset="1" stop-color="#4a3ad9"/>
        </linearGradient>
        <linearGradient id="linear-gradient-3" x1=".025" x2=".537" y1=".098" y2=".413" gradientUnits="objectBoundingBox">
            <stop offset="0" stop-color="#fff"/>
            <stop offset="1" stop-color="#9cfcff" stop-opacity="0"/>
        </linearGradient>
        <filter id="Path_10583" width="229.023" height="233.904" x="8.973" y="0" filterUnits="userSpaceOnUse">
            <feOffset dy="5"/>
            <feGaussianBlur result="blur-2" stdDeviation="15"/>
            <feFlood flood-color="#fff" flood-opacity=".8"/>
            <feComposite in2="blur-2" operator="in"/>
            <feComposite in="SourceGraphic"/>
        </filter>
        <linearGradient id="linear-gradient-4" x1=".237" x2=".748" y1=".035" y2=".912" gradientUnits="objectBoundingBox">
            <stop offset="0" stop-color="#fff"/>
            <stop offset="1" stop-color="#9cfcff"/>
        </linearGradient>
        <filter id="Path_10523" width="195.322" height="200.768" x="21.716" y="8.766" filterUnits="userSpaceOnUse">
            <feOffset dy="5"/>
            <feGaussianBlur result="blur-3" stdDeviation="15"/>
            <feFlood flood-color="#fff" flood-opacity=".8"/>
            <feComposite in2="blur-3" operator="in"/>
            <feComposite in="SourceGraphic"/>
        </filter>
        <linearGradient id="linear-gradient-5" x1=".224" x2=".733" y1=".105" y2="1" gradientUnits="objectBoundingBox">
            <stop offset="0" stop-color="#be95ff"/>
            <stop offset="1" stop-color="#6353f4"/>
        </linearGradient>
        <linearGradient id="linear-gradient-6" x1=".596" x2=".5" y1=".03" y2="1" gradientUnits="objectBoundingBox">
            <stop offset="0" stop-color="#fff"/>
            <stop offset="1" stop-color="#9669f6"/>
        </linearGradient>
        <filter id="features" width="40.97" height="41.936" x="91.412" y="66.633" filterUnits="userSpaceOnUse">
            <feOffset dy="3"/>
            <feGaussianBlur result="blur-4" stdDeviation="3"/>
            <feFlood flood-opacity=".161"/>
            <feComposite in2="blur-4" operator="in"/>
            <feComposite in="SourceGraphic"/>
        </filter>
    </defs>
    <g id="phone" transform="translate(-1.484 -16.834)">
        <g class="cls-16" transform="translate(1.48 16.83)">
            <path id="Path_9411-2" d="M286.569 308.257l-39.132 8.1a7.58 7.58 0 0 0-5.2 3.986 7.763 7.763 0 0 0-.212 6.607l44.611 103.168a9.9 9.9 0 0 0 12.019 5.588l45.088-14.069a8.537 8.537 0 0 0 5.351-4.941 8.713 8.713 0 0 0-.351-7.328l-50.3-95.859a11.191 11.191 0 0 0-11.874-5.252z" class="cls-1" data-name="Path 9411" transform="translate(-211.39 -276.12)"/>
        </g>
        <path id="Path_9412" d="M254.435 320.105l6.434-1.286c.89 1.872 3.072 3.55 5.091 3.183l23.081-4.865a1.631 1.631 0 0 0 1.114-.783 1.672 1.672 0 0 0 .145-1.366l-.632-1.923 6.4-1.28a6.317 6.317 0 0 1 6.8 3.238l52.09 97.144a6.484 6.484 0 0 1 .3 5.488 6.354 6.354 0 0 1-4.011 3.7l-44.393 13.685a7.918 7.918 0 0 1-9.565-4.4l-46.177-104.01a4.743 4.743 0 0 1 .108-4.074 4.632 4.632 0 0 1 3.215-2.451z" class="cls-2" data-name="Path 9412" transform="translate(-216.949 -262.029)"/>
        <path id="Line_37" d="M9.507 0L0 1.976" class="cls-3" data-name="Line 37" transform="translate(55.664 53.783)"/>
        <ellipse id="Ellipse_232" cx=".975" cy=".865" class="cls-4" data-name="Ellipse 232" rx=".975" ry=".865" transform="translate(52.252 55.266)"/>
        <g class="cls-15" transform="translate(1.48 16.83)">
            <path id="Path_10583-2" d="M53.664.525L8.719 11.222c-2.8.482-6.12 1.883-7.434 4.023A7.455 7.455 0 0 0 .649 22.4l56.716 110.524c2.532 4.875 8.264 7.487 14.292 5.928l55.1-17.717A10.148 10.148 0 0 0 133.44 116a7.716 7.716 0 0 0-.441-7.625L68.292 3.887C65.211-.4 59.48-.477 53.664.525z" class="cls-5" data-name="Path 10583" transform="translate(58.83 40)"/>
        </g>
        <g class="cls-14" transform="translate(1.48 16.83)">
            <path id="Path_10523-2" d="M41.146.406L5.674 8.905A7.059 7.059 0 0 0 .795 12.1a5.411 5.411 0 0 0-.2 5.294l43.339 84.98a9.154 9.154 0 0 0 10.729 4.567L96.021 93.3a7.647 7.647 0 0 0 5.017-3.957 6.076 6.076 0 0 0-.332-5.872L52.126 3C49.813-.3 45.511-.365 41.146.406z" class="cls-6" data-name="Path 10523" transform="translate(70.46 48.76)"/>
        </g>
        <path id="Path_9417" d="M496.186 424.427c-3.607-9.525-13.567-14.983-21.563-12.411-7.329 2.357-10.34 10.723-7.26 18.857s11.462 13.952 19.293 12.919c8.544-1.127 13.137-9.84 9.53-19.365z" class="cls-7" data-name="Path 9417" transform="translate(-370.306 -324.577)"/>
        <path id="Path_9418" d="M496.186 424.427c-3.607-9.525-13.567-14.983-21.563-12.411-7.329 2.357-10.34 10.723-7.26 18.857s11.462 13.952 19.293 12.919c8.544-1.127 13.137-9.84 9.53-19.365z" class="cls-8" data-name="Path 9418" transform="translate(-370.306 -324.577)"/>
        <path id="Path_9419" d="M501.186 419.427c-3.607-9.525-13.567-14.983-21.563-12.411-7.329 2.357-10.34 10.723-7.26 18.857s11.462 13.952 19.293 12.919c8.544-1.128 13.137-9.84 9.53-19.365z" class="cls-9" data-name="Path 9419" transform="translate(-373.727 -321.167)"/>
        <g class="cls-13" transform="translate(1.48 16.83)">
            <path id="features-2" d="M7.614 18.8a.874.874 0 0 1-.653-.294.834.834 0 0 1-.195-.666l.751-5.874-6.672.025A.832.832 0 0 1 .08 11.5a.853.853 0 0 1 .12-.909L8.718.312A.83.83 0 0 1 9.36 0a.875.875 0 0 1 .653.294.834.834 0 0 1 .2.666l-.755 5.873 6.671-.025a.833.833 0 0 1 .771.492.853.853 0 0 1-.12.91L8.257 18.484a.831.831 0 0 1-.643.316zm.543-15.155l-5.494 6.629 5.821-.022a.84.84 0 0 1 .635.287.853.853 0 0 1 .2.67l-.5 3.943 5.494-6.629-5.823.022a.839.839 0 0 1-.634-.286.853.853 0 0 1-.2-.67z" class="cls-10" data-name="features" transform="rotate(-23 245.705 -207.06)"/>
        </g>
        <path id="Line_213" d="M0 9l33.5-9" class="cls-11" data-name="Line 213" transform="translate(113.417 134.028)"/>
        <path id="Line_214" d="M0 9l33.5-9" class="cls-12" data-name="Line 214" transform="translate(116.958 140.931)"/>
        <path id="Line_216" d="M0 8l29.5-8" class="cls-12" data-name="Line 216" transform="translate(128.279 146.585)"/>
    </g>
</svg>
