<svg xmlns="http://www.w3.org/2000/svg" xmlns:xlink="http://www.w3.org/1999/xlink" width="155" height="170.002" viewBox="0 0 155 170.002">
    <defs>
        <style>
            .cls-1{opacity:.3}.cls-2{fill:url(#linear-gradient)}.cls-3{fill:url(#linear-gradient-2)}.cls-4{fill:#00e7ff}.cls-5{fill:url(#linear-gradient-3)}.cls-6{fill:url(#linear-gradient-4)}.cls-7{fill:#1a0033}.cls-8{fill:url(#linear-gradient-5)}.cls-9{fill:url(#linear-gradient-7)}.cls-10{fill:url(#linear-gradient-8)}.cls-11{fill:url(#linear-gradient-9)}.cls-12{fill:url(#linear-gradient-11)}.cls-13{fill:url(#linear-gradient-12)}.cls-14{fill:url(#linear-gradient-13)}.cls-15{fill:url(#linear-gradient-18)}.cls-16{fill:url(#linear-gradient-19)}.cls-17{fill:url(#linear-gradient-21)}.cls-18{fill:url(#linear-gradient-26)}.cls-19{fill:#290049}.cls-20{fill:url(#linear-gradient-30)}.cls-21{opacity:.8}.cls-22{fill:#8150cf}.cls-23{fill:#bd71ff}.cls-24{fill:#5826b0}.cls-25,.cls-26{fill:#52fff2}.cls-26{opacity:.58}.cls-27{fill:url(#linear-gradient-31)}.cls-28{fill:url(#linear-gradient-33)}.cls-29{fill:url(#linear-gradient-37)}.cls-30{fill:url(#linear-gradient-39)}.cls-31{fill:url(#linear-gradient-40)}.cls-32{fill:url(#linear-gradient-41)}.cls-33{fill:url(#linear-gradient-46)}.cls-34{fill:url(#linear-gradient-47)}.cls-35{fill:url(#linear-gradient-49)}.cls-36{fill:url(#linear-gradient-54)}.cls-37{fill:url(#linear-gradient-58)}.cls-38{fill:url(#linear-gradient-59)}.cls-39{fill:url(#linear-gradient-62)}.cls-40{fill:#ffa6a6}.cls-41{fill:url(#linear-gradient-67)}.cls-42{fill:#fff}.cls-43{fill:url(#linear-gradient-69)}.cls-44{fill:url(#linear-gradient-71)}.cls-45{fill:url(#linear-gradient-74)}.cls-46{fill:url(#linear-gradient-85)}.cls-47{fill:url(#linear-gradient-86)}.cls-48{fill:url(#linear-gradient-89)}.cls-49{fill:url(#linear-gradient-97)}.cls-50{fill:url(#linear-gradient-98)}
        </style>
        <linearGradient id="linear-gradient" x1=".5" x2=".5" y2="1" gradientUnits="objectBoundingBox">
            <stop offset="0" stop-color="#5a0971"/>
            <stop offset=".07" stop-color="#620a72"/>
            <stop offset=".183" stop-color="#7a0f75"/>
            <stop offset=".325" stop-color="#a1177b"/>
            <stop offset=".452" stop-color="#ca2082"/>
            <stop offset=".991" stop-color="#ffa443"/>
        </linearGradient>
        <linearGradient id="linear-gradient-2" x1="1.066" x2="-.031" y1=".524" y2=".49" gradientUnits="objectBoundingBox">
            <stop offset="0" stop-color="#5c0057"/>
            <stop offset=".241" stop-color="#310053"/>
            <stop offset=".316" stop-color="#300157"/>
            <stop offset=".393" stop-color="#2d0563"/>
            <stop offset=".473" stop-color="#280c78"/>
            <stop offset=".552" stop-color="#211695"/>
            <stop offset=".592" stop-color="#1d1ca7"/>
            <stop offset=".648" stop-color="#1d21aa"/>
            <stop offset=".72" stop-color="#1e31b4"/>
            <stop offset=".801" stop-color="#214cc4"/>
            <stop offset=".888" stop-color="#2471db"/>
            <stop offset=".979" stop-color="#28a0f7"/>
            <stop offset="1" stop-color="#29acff"/>
        </linearGradient>
        <linearGradient id="linear-gradient-3" x1="1" x2="0" y1=".5" y2=".5" gradientUnits="objectBoundingBox">
            <stop offset="0" stop-color="#420052"/>
            <stop offset=".964" stop-color="#000021"/>
        </linearGradient>
        <linearGradient id="linear-gradient-4" x1=".5" x2=".5" y2="1" xlink:href="#linear-gradient-3"/>
        <linearGradient id="linear-gradient-5" x1="1" x2="0" y1=".5" y2=".5" gradientUnits="objectBoundingBox">
            <stop offset=".035" stop-color="#40fff1"/>
            <stop offset="1" stop-color="#40a2f1"/>
        </linearGradient>
        <linearGradient id="linear-gradient-7" x1=".5" x2=".5" y1="1" gradientUnits="objectBoundingBox">
            <stop offset="0" stop-color="#a037d5"/>
            <stop offset="1" stop-color="#c200c2"/>
        </linearGradient>
        <linearGradient id="linear-gradient-8" x1=".5" x2=".5" y1="1" gradientUnits="objectBoundingBox">
            <stop offset=".022" stop-color="#55aeff"/>
            <stop offset=".425" stop-color="#554dff"/>
            <stop offset="1" stop-color="#c200c2"/>
        </linearGradient>
        <linearGradient id="linear-gradient-9" x1="-347.265" x2="-347.265" y2="1" gradientUnits="objectBoundingBox">
            <stop offset=".181" stop-color="#3e006f"/>
            <stop offset="1" stop-color="#822389"/>
        </linearGradient>
        <linearGradient id="linear-gradient-11" x1="-347.341" x2="-347.341" xlink:href="#linear-gradient-9"/>
        <linearGradient id="linear-gradient-12" x1="-347.297" x2="-347.297" xlink:href="#linear-gradient-9"/>
        <linearGradient id="linear-gradient-13" x1="-347.254" x2="-347.254" xlink:href="#linear-gradient-9"/>
        <linearGradient id="linear-gradient-18" x1="-347.297" x2="-347.297" y2="1" gradientUnits="objectBoundingBox">
            <stop offset=".141" stop-color="#500976"/>
            <stop offset="1" stop-color="#822389"/>
        </linearGradient>
        <linearGradient id="linear-gradient-19" x1="-347.265" x2="-347.265" xlink:href="#linear-gradient-18"/>
        <linearGradient id="linear-gradient-21" x1="-347.298" x2="-347.298" xlink:href="#linear-gradient-18"/>
        <linearGradient id="linear-gradient-26" x1="-347.26" x2="-347.26" xlink:href="#linear-gradient-18"/>
        <linearGradient id="linear-gradient-30" x1=".5" x2=".5" y1="1" xlink:href="#linear-gradient-3"/>
        <linearGradient id="linear-gradient-31" x2="1" xlink:href="#linear-gradient-3"/>
        <linearGradient id="linear-gradient-33" x2="1" xlink:href="#linear-gradient-5"/>
        <linearGradient id="linear-gradient-37" x1="348.265" x2="348.265" xlink:href="#linear-gradient-9"/>
        <linearGradient id="linear-gradient-39" x1="348.341" x2="348.341" xlink:href="#linear-gradient-9"/>
        <linearGradient id="linear-gradient-40" x1="348.297" x2="348.297" xlink:href="#linear-gradient-9"/>
        <linearGradient id="linear-gradient-41" x1="348.254" x2="348.254" xlink:href="#linear-gradient-9"/>
        <linearGradient id="linear-gradient-46" x1="348.297" x2="348.297" xlink:href="#linear-gradient-18"/>
        <linearGradient id="linear-gradient-47" x1="348.265" x2="348.265" xlink:href="#linear-gradient-18"/>
        <linearGradient id="linear-gradient-49" x1="348.298" x2="348.298" xlink:href="#linear-gradient-18"/>
        <linearGradient id="linear-gradient-54" x1="348.26" x2="348.26" xlink:href="#linear-gradient-18"/>
        <linearGradient id="linear-gradient-58" x1=".5" x2=".5" y1="1" gradientUnits="objectBoundingBox">
            <stop offset="0" stop-color="#ff01f7"/>
            <stop offset=".713" stop-color="#0a2765"/>
            <stop offset=".999" stop-color="#0a61bb"/>
        </linearGradient>
        <linearGradient id="linear-gradient-59" x2="1" y1=".5" y2=".5" gradientUnits="objectBoundingBox">
            <stop offset=".224" stop-color="#0a7eff"/>
            <stop offset="1" stop-color="#896bf7"/>
        </linearGradient>
        <linearGradient id="linear-gradient-62" x2="1" y1=".5" y2=".5" xlink:href="#linear-gradient-58"/>
        <linearGradient id="linear-gradient-67" x2="1" y1=".5" y2=".5" gradientUnits="objectBoundingBox">
            <stop offset="0" stop-color="#c701f7"/>
            <stop offset=".698" stop-color="#0a1941"/>
            <stop offset=".999" stop-color="#0a3ea0"/>
        </linearGradient>
        <linearGradient id="linear-gradient-69" x2="1" y1=".5" y2=".5" gradientUnits="objectBoundingBox">
            <stop offset=".03" stop-color="#0a7eff"/>
            <stop offset="1" stop-color="#896bf7"/>
        </linearGradient>
        <linearGradient id="linear-gradient-71" x2="1" y1=".5" y2=".5" gradientUnits="objectBoundingBox">
            <stop offset=".03" stop-color="#0accff"/>
            <stop offset="1" stop-color="#b16bf7"/>
        </linearGradient>
        <linearGradient id="linear-gradient-74" x2="1" y1=".5" y2=".5" gradientUnits="objectBoundingBox">
            <stop offset=".03" stop-color="#ffccd9"/>
            <stop offset="1" stop-color="#b16bf7"/>
        </linearGradient>
        <linearGradient id="linear-gradient-85" x1=".5" x2=".5" y1=".985" y2=".018" gradientUnits="objectBoundingBox">
            <stop offset="0" stop-color="#ea6df7"/>
            <stop offset=".224" stop-color="#3e79fc"/>
            <stop offset=".728" stop-color="#378cfc"/>
            <stop offset="1" stop-color="#13efff"/>
        </linearGradient>
        <linearGradient id="linear-gradient-86" x1=".499" x2=".499" y2="1" gradientUnits="objectBoundingBox">
            <stop offset=".03" stop-color="#beffd9"/>
            <stop offset="1" stop-color="#b16bf7"/>
        </linearGradient>
        <linearGradient id="linear-gradient-89" x1=".5" x2=".5" xlink:href="#linear-gradient-86"/>
        <linearGradient id="linear-gradient-97" x1=".501" x2=".501" xlink:href="#linear-gradient-86"/>
        <linearGradient id="linear-gradient-98" x1=".5" x2=".5" y1="1" gradientUnits="objectBoundingBox">
            <stop offset="0" stop-color="#ff01f7"/>
            <stop offset=".713" stop-color="#0a4490"/>
            <stop offset=".999" stop-color="#0a61bb"/>
            <stop offset="1" stop-color="#0a61bb"/>
        </linearGradient>
    </defs>
    <g id="city" transform="translate(-225.09 -144.994)">
        <g id="Group_3888" class="cls-1" data-name="Group 3888" transform="translate(225.09 181.734)">
            <path id="Path_12942" d="M245.537 181.854l1.337-.1c9.154.516 16.19 3.6 16.19 7.317v90.5h-2.671v-90.5c0-3.535-6.361-6.49-14.854-7.211z" class="cls-2" data-name="Path 12942" transform="translate(-225.143 -181.677)"/>
            <path id="Path_12943" d="M225.2 189.071c0-4.083 8.466-7.394 18.911-7.394q1.386 0 2.72.077c-.446.025-.883.06-1.317.1 8.484.729 14.835 3.682 14.835 7.218v122.322H225.09l.1-122.322z" class="cls-3" data-name="Path 12943" transform="translate(-225.09 -181.677)"/>
            <g id="Group_3881" data-name="Group 3881" transform="translate(.658 3.32)">
                <path id="Path_12944" d="M246.56 192.145a.638.638 0 1 0 .638-.641.641.641 0 0 0-.638.641z" class="cls-4" data-name="Path 12944" transform="translate(-225.804 -184.982)"/>
                <path id="Path_12945" d="M240.37 195.473a.636.636 0 1 0 .187-.453.64.64 0 0 0-.187.453z" class="cls-4" data-name="Path 12945" transform="translate(-225.788 -184.977)"/>
                <path id="Path_12946" d="M240.37 202.073a.636.636 0 1 0 .187-.453.64.64 0 0 0-.187.453z" class="cls-4" data-name="Path 12946" transform="translate(-225.788 -184.967)"/>
                <path id="Path_12947" d="M234.32 215.958a.639.639 0 1 0 .187-.454.64.64 0 0 0-.187.454z" class="cls-4" data-name="Path 12947" transform="translate(-225.772 -184.945)"/>
                <path id="Path_12948" d="M249.552 205.626a.637.637 0 1 0 .637-.641.64.64 0 0 0-.637.641zm-18.417-2.026a.64.64 0 1 0 .187-.454.64.64 0 0 0-.187.454z" class="cls-4" data-name="Path 12948" transform="translate(-225.764 -184.964)"/>
                <path id="Path_12949" d="M246.56 192.145a.638.638 0 1 0 .638-.641.641.641 0 0 0-.638.641z" class="cls-4" data-name="Path 12949" transform="translate(-241.097 -189.853)"/>
                <ellipse id="Ellipse_464" cx=".637" cy=".64" class="cls-4" data-name="Ellipse 464" rx=".637" ry=".64" transform="translate(17.741)"/>
                <path id="Path_12950" d="M252.584 189.771a.637.637 0 1 0 .638-.64.64.64 0 0 0-.638.64z" class="cls-4" data-name="Path 12950" transform="translate(-225.82 -184.986)"/>
                <path id="Path_12951" d="M252.584 189.771a.637.637 0 1 0 .638-.64.64.64 0 0 0-.638.64z" class="cls-4" data-name="Path 12951" transform="translate(-252.584 -168.275)"/>
                <path id="Path_12952" d="M234.32 215.958a.639.639 0 1 0 .187-.454.64.64 0 0 0-.187.454z" class="cls-4" data-name="Path 12952" transform="translate(-231.866 -189.475)"/>
                <ellipse id="Ellipse_465" cx=".637" cy=".64" class="cls-4" data-name="Ellipse 465" rx=".637" ry=".64" transform="translate(2.555 41.98)"/>
                <path id="Path_12953" d="M246.56 192.145a.638.638 0 1 0 .638-.641.641.641 0 0 0-.638.641z" class="cls-4" data-name="Path 12953" transform="translate(-241.056 -140.587)"/>
                <path id="Path_12954" d="M228.21 250.721a.638.638 0 1 0 .638-.64.641.641 0 0 0-.638.64z" class="cls-4" data-name="Path 12954" transform="translate(-225.756 -184.891)"/>
                <path id="Path_12955" d="M246.56 192.145a.638.638 0 1 0 .638-.641.641.641 0 0 0-.638.641z" class="cls-4" data-name="Path 12955" transform="translate(-234.964 -128.851)"/>
                <ellipse id="Ellipse_466" cx=".637" cy=".64" class="cls-4" data-name="Ellipse 466" rx=".637" ry=".64" transform="translate(20.866 55.812)"/>
                <path id="Path_12956" d="M240.37 202.073a.636.636 0 1 0 .187-.453.64.64 0 0 0-.187.453z" class="cls-4" data-name="Path 12956" transform="translate(-216.44 -155.188)"/>
            </g>
            <path id="Path_12957" d="M287.257 259.686l9.475-1.743v13.437l-10.625 1.59z" class="cls-5" data-name="Path 12957" transform="translate(-225.248 -181.559)"/>
            <path id="Path_12958" d="M275.55 254.515V245.9l6.309-1.162v67.988h-9.475V255.1z" class="cls-6" data-name="Path 12958" transform="translate(-225.213 -181.579)"/>
            <path id="Path_12959" d="M281.867 238.356v6.392l-6.309 1.162z" class="cls-7" data-name="Path 12959" transform="translate(-225.221 -181.589)"/>
            <g id="Group_3882" data-name="Group 3882" transform="translate(56.646 56.767)">
                <path id="Path_12960" d="M281.883 238.356v6.392l6.309 1.162z" class="cls-8" data-name="Path 12960" transform="translate(-281.883 -238.356)"/>
                <path id="Path_12961" d="M296.763 251.537v6.41l6.174 1.129z" class="cls-8" data-name="Path 12961" transform="translate(-281.922 -238.336)"/>
            </g>
            <path id="Path_12962" d="M296.747 251.537v6.41l-6.184 1.129z" class="cls-7" data-name="Path 12962" transform="translate(-225.26 -181.569)"/>
            <path id="Path_12963" d="M288.192 255.05l-6.309-1.285v-9.027l6.309 1.162z" class="cls-9" data-name="Path 12963" transform="translate(-225.237 -181.579)"/>
            <path id="Path_12964" d="M302.9 314.826l-21.015-2.1v-58.5l8.9 1.633V271.3l5.931.817v-14.171l6.184 1.132z" class="cls-10" data-name="Path 12964" transform="translate(-225.237 -181.565)"/>
            <g id="Group_3883" data-name="Group 3883" transform="translate(57.141 72.744)">
                <path id="Path_12965" d="M282.38 312.66h.5V254.4l-.5-.09z" class="cls-11" data-name="Path 12965" transform="translate(-282.38 -254.308)"/>
                <path id="Path_12966" d="M283.37 312.847h.5v-58.26l-.5-.09z" class="cls-11" data-name="Path 12966" transform="translate(-282.383 -254.308)"/>
            </g>
            <path id="Path_12967" d="M284.362 313.03h.5v-58.264l-.5-.09z" class="cls-12" data-name="Path 12967" transform="translate(-225.244 -181.564)"/>
            <path id="Path_12968" d="M285.35 313.21h.5v-58.26l-.5-.09z" class="cls-13" data-name="Path 12968" transform="translate(-225.246 -181.564)"/>
            <path id="Path_12969" d="M286.346 313.39h.5v-58.264l-.5-.09z" class="cls-14" data-name="Path 12969" transform="translate(-225.249 -181.563)"/>
            <path id="Path_12970" d="M287.337 313.574h.5V255.3l-.5-.09z" class="cls-11" data-name="Path 12970" transform="translate(-225.251 -181.563)"/>
            <path id="Path_12971" d="M288.327 313.758h.5v-58.264l-.5-.09z" class="cls-13" data-name="Path 12971" transform="translate(-225.254 -181.563)"/>
            <g id="Group_3884" data-name="Group 3884" transform="translate(64.061 74.028)">
                <path id="Path_12972" d="M289.318 313.943h.5V255.68l-.5-.09z" class="cls-11" data-name="Path 12972" transform="translate(-289.318 -255.59)"/>
                <path id="Path_12973" d="M290.308 314.127h.5v-58.264l-.5-.09z" class="cls-11" data-name="Path 12973" transform="translate(-289.321 -255.59)"/>
            </g>
            <path id="Path_12974" d="M291.3 312.727h.5v-41.264l-.5-.09z" class="cls-15" data-name="Path 12974" transform="translate(-225.262 -181.538)"/>
            <path id="Path_12975" d="M292.288 312.907h.5v-41.264l-.5-.09z" class="cls-16" data-name="Path 12975" transform="translate(-225.264 -181.538)"/>
            <path id="Path_12976" d="M293.28 313.092h.5v-41.264l-.5-.09z" class="cls-16" data-name="Path 12976" transform="translate(-225.267 -181.538)"/>
            <path id="Path_12977" d="M294.27 313.279h.5v-41.264l-.5-.09z" class="cls-17" data-name="Path 12977" transform="translate(-225.269 -181.537)"/>
            <path id="Path_12978" d="M295.263 313.45h.5v-41.264l-.5-.09z" class="cls-16" data-name="Path 12978" transform="translate(-225.272 -181.537)"/>
            <path id="Path_12979" d="M296.254 313.634h.5V272.36l-.5-.09z" class="cls-17" data-name="Path 12979" transform="translate(-225.275 -181.537)"/>
            <g id="Group_3885" data-name="Group 3885" transform="translate(71.967 90.929)">
                <path id="Path_12980" d="M297.244 313.819h.5v-41.264l-.5-.09z" class="cls-16" data-name="Path 12980" transform="translate(-297.244 -272.465)"/>
                <path id="Path_12981" d="M298.235 314h.5v-41.26l-.5-.09z" class="cls-16" data-name="Path 12981" transform="translate(-297.247 -272.465)"/>
            </g>
            <path id="Path_12982" d="M299.225 314.188h.5V272.9l-.5-.09z" class="cls-18" data-name="Path 12982" transform="translate(-225.282 -181.536)"/>
            <path id="Path_12983" d="M300.242 314.374h.5V273.11l-.5-.09z" class="cls-16" data-name="Path 12983" transform="translate(-225.285 -181.535)"/>
            <path id="Path_12984" d="M301.233 314.557h.5v-41.264l-.5-.09z" class="cls-18" data-name="Path 12984" transform="translate(-225.287 -181.535)"/>
            <path id="Path_12985" d="M302.22 314.742h.5v-41.264l-.5-.09z" class="cls-16" data-name="Path 12985" transform="translate(-225.29 -181.535)"/>
            <path id="Path_12986" d="M290.783 254.9l-8.9-1.633v.956l8.9 1.633zm12.117 17.667l-12.118-2.223v.956l12.118 2.223z" class="cls-19" data-name="Path 12986" transform="translate(-225.237 -181.566)"/>
            <path id="Path_12987" d="M247.9 213h22.92v99.2H247.9z" class="cls-20" data-name="Path 12987" transform="translate(-225.149 -181.628)"/>
            <g id="Group_3886" class="cls-21" data-name="Group 3886" transform="translate(22.851 32.874)">
                <path id="Path_12988" d="M248 214.5h22.691v.5H248z" class="cls-22" data-name="Path 12988" transform="translate(-248 -214.5)"/>
                <path id="Path_12989" d="M248 214.5h22.691v.5H248z" class="cls-22" data-name="Path 12989" transform="translate(-248 -212.497)"/>
                <path id="Path_12990" d="M248 214.5h22.691v.5H248z" class="cls-22" data-name="Path 12990" transform="translate(-248 -210.494)"/>
                <path id="Path_12991" d="M248 214.5h22.691v.5H248z" class="cls-22" data-name="Path 12991" transform="translate(-248 -208.491)"/>
                <path id="Path_12992" d="M248 214.5h22.691v.5H248z" class="cls-22" data-name="Path 12992" transform="translate(-248 -206.488)"/>
                <path id="Path_12993" d="M248 214.5h22.691v.5H248z" class="cls-22" data-name="Path 12993" transform="translate(-248 -204.484)"/>
                <path id="Path_12994" d="M248 214.5h22.691v.5H248z" class="cls-22" data-name="Path 12994" transform="translate(-248 -202.481)"/>
                <path id="Path_12995" d="M248 214.5h22.691v.5H248z" class="cls-22" data-name="Path 12995" transform="translate(-248 -200.478)"/>
                <path id="Path_12996" d="M248 214.5h22.691v.5H248z" class="cls-22" data-name="Path 12996" transform="translate(-248 -198.475)"/>
                <path id="Path_12997" d="M248 214.5h22.691v.5H248z" class="cls-22" data-name="Path 12997" transform="translate(-248 -196.472)"/>
                <path id="Path_12998" d="M248 214.5h22.691v.5H248z" class="cls-22" data-name="Path 12998" transform="translate(-248 -194.469)"/>
                <path id="Path_12999" d="M248 214.5h22.691v.5H248z" class="cls-22" data-name="Path 12999" transform="translate(-248 -192.466)"/>
                <path id="Path_13000" d="M248 214.5h22.691v.5H248z" class="cls-22" data-name="Path 13000" transform="translate(-248 -190.463)"/>
                <path id="Path_13001" d="M248 214.5h22.691v.5H248z" class="cls-22" data-name="Path 13001" transform="translate(-248 -188.46)"/>
                <path id="Path_13002" d="M248 214.5h22.691v.5H248z" class="cls-22" data-name="Path 13002" transform="translate(-248 -186.457)"/>
                <path id="Path_13003" d="M248 214.5h22.691v.5H248z" class="cls-22" data-name="Path 13003" transform="translate(-248 -184.454)"/>
                <path id="Path_13004" d="M248 214.5h22.691v.5H248z" class="cls-22" data-name="Path 13004" transform="translate(-248 -182.45)"/>
                <path id="Path_13005" d="M248 214.5h22.691v.5H248z" class="cls-22" data-name="Path 13005" transform="translate(-248 -180.447)"/>
                <path id="Path_13006" d="M248 214.5h22.691v.5H248z" class="cls-22" data-name="Path 13006" transform="translate(-248 -178.444)"/>
                <path id="Path_13007" d="M248 214.5h22.691v.5H248z" class="cls-22" data-name="Path 13007" transform="translate(-248 -176.441)"/>
                <path id="Path_13008" d="M248 214.5h22.691v.5H248z" class="cls-22" data-name="Path 13008" transform="translate(-248 -174.438)"/>
                <path id="Path_13009" d="M248 214.5h22.691v.5H248z" class="cls-22" data-name="Path 13009" transform="translate(-248 -172.435)"/>
                <path id="Path_13010" d="M248 214.5h22.691v.5H248z" class="cls-22" data-name="Path 13010" transform="translate(-248 -170.432)"/>
                <path id="Path_13011" d="M248 214.5h22.691v.5H248z" class="cls-22" data-name="Path 13011" transform="translate(-248 -168.429)"/>
                <path id="Path_13012" d="M248 214.5h22.691v.5H248z" class="cls-22" data-name="Path 13012" transform="translate(-248 -142.388)"/>
                <path id="Path_13013" d="M248 214.5h22.691v.5H248z" class="cls-22" data-name="Path 13013" transform="translate(-248 -140.385)"/>
                <path id="Path_13014" d="M248 214.5h22.691v.5H248z" class="cls-22" data-name="Path 13014" transform="translate(-248 -138.382)"/>
                <path id="Path_13015" d="M248 214.5h22.691v.5H248z" class="cls-22" data-name="Path 13015" transform="translate(-248 -136.379)"/>
                <path id="Path_13016" d="M248 214.5h22.691v.5H248z" class="cls-22" data-name="Path 13016" transform="translate(-248 -134.376)"/>
                <path id="Path_13017" d="M248 214.5h22.691v.5H248z" class="cls-22" data-name="Path 13017" transform="translate(-248 -132.373)"/>
                <path id="Path_13018" d="M248 214.5h22.691v.5H248z" class="cls-22" data-name="Path 13018" transform="translate(-248 -130.37)"/>
                <path id="Path_13019" d="M248 214.5h22.691v.5H248z" class="cls-22" data-name="Path 13019" transform="translate(-248 -128.367)"/>
                <path id="Path_13020" d="M248 214.5h22.691v.5H248z" class="cls-22" data-name="Path 13020" transform="translate(-248 -126.364)"/>
                <path id="Path_13021" d="M248 214.5h22.691v.5H248z" class="cls-22" data-name="Path 13021" transform="translate(-248 -124.361)"/>
                <path id="Path_13022" d="M248 214.5h22.691v.5H248z" class="cls-22" data-name="Path 13022" transform="translate(-248 -166.426)"/>
                <path id="Path_13023" d="M248 214.5h22.691v.5H248z" class="cls-22" data-name="Path 13023" transform="translate(-248 -164.423)"/>
                <path id="Path_13024" d="M248 214.5h22.691v.5H248z" class="cls-22" data-name="Path 13024" transform="translate(-248 -162.419)"/>
                <path id="Path_13025" d="M248 214.5h22.691v.5H248z" class="cls-22" data-name="Path 13025" transform="translate(-248 -160.416)"/>
                <path id="Path_13026" d="M248 214.5h22.691v.5H248z" class="cls-22" data-name="Path 13026" transform="translate(-248 -158.413)"/>
                <path id="Path_13027" d="M248 214.5h22.691v.5H248z" class="cls-22" data-name="Path 13027" transform="translate(-248 -156.41)"/>
                <path id="Path_13028" d="M248 214.5h22.691v.5H248z" class="cls-22" data-name="Path 13028" transform="translate(-248 -154.407)"/>
                <path id="Path_13029" d="M248 214.5h22.691v.5H248z" class="cls-22" data-name="Path 13029" transform="translate(-248 -152.404)"/>
                <path id="Path_13030" d="M248 214.5h22.691v.5H248z" class="cls-22" data-name="Path 13030" transform="translate(-248 -150.401)"/>
                <path id="Path_13031" d="M248 214.5h22.691v.5H248z" class="cls-22" data-name="Path 13031" transform="translate(-248 -148.398)"/>
                <path id="Path_13032" d="M248 214.5h22.691v.5H248z" class="cls-22" data-name="Path 13032" transform="translate(-248 -146.395)"/>
                <path id="Path_13033" d="M248 214.5h22.691v.5H248z" class="cls-22" data-name="Path 13033" transform="translate(-248 -144.392)"/>
                <path id="Path_13034" d="M248 306.5h22.691L248 307z" class="cls-22" data-name="Path 13034" transform="translate(-248 -214.357)"/>
            </g>
            <path id="Path_13035" d="M247.777 312.334h23.17V212.88h-23.17zm22.92-.25h-22.671V213.14H270.7z" class="cls-23" data-name="Path 13035" transform="translate(-225.149 -181.629)"/>
            <path id="Path_13036" d="M277.5 312.208h-6.613V213l6.613 1.029z" class="cls-24" data-name="Path 13036" transform="translate(-225.209 -181.628)"/>
            <path id="Path_13037" d="M270.757 312.334h6.864v-98.4l-6.864-1.072zm6.613-.25h-6.363V213.16l6.363.99z" class="cls-23" data-name="Path 13037" transform="translate(-225.208 -181.629)"/>
            <g id="Group_3887" data-name="Group 3887" transform="translate(24.314 35.701)">
                <ellipse id="Ellipse_467" cx=".498" cy=".5" class="cls-25" data-name="Ellipse 467" rx=".498" ry=".5" transform="translate(19.353)"/>
                <path id="Path_13038" d="M257.116 219.928a.5.5 0 1 0 .5-.5.5.5 0 0 0-.5.5z" class="cls-26" data-name="Path 13038" transform="translate(-249.487 -217.32)"/>
                <path id="Path_13039" d="M257.116 219.928a.5.5 0 1 0 .5-.5.5.5 0 0 0-.5.5z" class="cls-25" data-name="Path 13039" transform="translate(-251.213 -217.32)"/>
                <ellipse id="Ellipse_468" cx=".498" cy=".5" class="cls-26" data-name="Ellipse 468" rx=".498" ry=".5" transform="translate(3.821 2.108)"/>
                <path id="Path_13040" d="M257.116 219.928a.5.5 0 1 0 .5-.5.5.5 0 0 0-.5.5z" class="cls-25" data-name="Path 13040" transform="translate(-254.138 -217.32)"/>
                <ellipse id="Ellipse_469" cx=".498" cy=".5" class="cls-26" data-name="Ellipse 469" rx=".498" ry=".5" transform="translate(13.405 21.084)"/>
                <ellipse id="Ellipse_470" cx=".498" cy=".5" class="cls-25" data-name="Ellipse 470" rx=".498" ry=".5" transform="translate(15.132 21.084)"/>
                <ellipse id="Ellipse_471" cx=".498" cy=".5" class="cls-26" data-name="Ellipse 471" rx=".498" ry=".5" transform="translate(17.212 21.084)"/>
                <ellipse id="Ellipse_472" cx=".498" cy=".5" class="cls-25" data-name="Ellipse 472" rx=".498" ry=".5" transform="translate(18.056 21.084)"/>
                <path id="Path_13041" d="M256.534 264.135a.5.5 0 1 1-.5-.5.5.5 0 0 1 .5.5z" class="cls-26" data-name="Path 13041" transform="translate(-249.483 -217.251)"/>
                <path id="Path_13042" d="M256.534 264.135a.5.5 0 1 1-.5-.5.5.5 0 0 1 .5.5z" class="cls-25" data-name="Path 13042" transform="translate(-247.754 -217.251)"/>
                <path id="Path_13043" d="M256.534 264.135a.5.5 0 1 1-.5-.5.5.5 0 0 1 .5.5z" class="cls-26" data-name="Path 13043" transform="translate(-250.838 -217.251)"/>
                <path id="Path_13044" d="M256.534 264.135a.5.5 0 1 1-.5-.5.5.5 0 0 1 .5.5z" class="cls-26" data-name="Path 13044" transform="translate(-254.03 -217.251)"/>
                <path id="Path_13045" d="M256.534 264.135a.5.5 0 1 1-.5-.5.5.5 0 0 1 .5.5z" class="cls-26" data-name="Path 13045" transform="translate(-244.056 -217.251)"/>
                <path id="Path_13046" d="M256.534 264.135a.5.5 0 1 1-.5-.5.5.5 0 0 1 .5.5z" class="cls-26" data-name="Path 13046" transform="translate(-241.227 -217.251)"/>
                <path id="Path_13047" d="M256.534 264.135a.5.5 0 1 1-.5-.5.5.5 0 0 1 .5.5z" class="cls-25" data-name="Path 13047" transform="translate(-245.783 -217.251)"/>
                <path id="Path_13048" d="M256.534 264.135a.5.5 0 1 1-.5-.5.5.5 0 0 1 .5.5z" class="cls-25" data-name="Path 13048" transform="translate(-246.783 -217.251)"/>
                <ellipse id="Ellipse_473" cx=".498" cy=".5" class="cls-25" data-name="Ellipse 473" rx=".498" ry=".5" transform="translate(2.054 2.108)"/>
                <ellipse id="Ellipse_474" cx=".498" cy=".5" class="cls-26" data-name="Ellipse 474" rx=".498" ry=".5" transform="translate(0 2.108)"/>
            </g>
        </g>
        <path id="Path_13049" d="M351.158 203l-18.652-3.432v26.451l20.916 3.13z" class="cls-27" data-name="Path 13049" transform="translate(-.279 .085)"/>
        <path id="Path_13050" d="M374.208 192.827v-16.963l-12.415-2.286v133.831h18.652V193.974z" class="cls-6" data-name="Path 13050" transform="translate(-.355 .044)"/>
        <path id="Path_13051" d="M361.794 161.016V173.6l12.418 2.284z" class="cls-7" data-name="Path 13051" transform="translate(-.355 .025)"/>
        <g id="Group_3889" data-name="Group 3889" transform="translate(320.069 161.041)">
            <path id="Path_13052" d="M361.758 161.016V173.6l-12.418 2.286z" class="cls-28" data-name="Path 13052" transform="translate(-320.391 -161.016)"/>
            <path id="Path_13053" d="M332.468 186.962v12.627l-12.152 2.223z" class="cls-28" data-name="Path 13053" transform="translate(-320.316 -160.976)"/>
        </g>
        <path id="Path_13054" d="M332.5 186.962v12.627l12.152 2.223z" class="cls-7" data-name="Path 13054" transform="translate(-.279 .065)"/>
        <path id="Path_13055" d="M349.34 193.877l12.418-2.53V173.58l-12.418 2.286z" class="cls-9" data-name="Path 13055" transform="translate(-.322 .044)"/>
        <path id="Path_13056" d="M320.318 311.542l41.365-4.16V192.23l-17.519 3.215.006 30.412-11.67 1.61v-27.889l-12.175 2.222z" class="cls-10" data-name="Path 13056" transform="translate(-.247 .073)"/>
        <g id="Group_3890" data-name="Group 3890" transform="translate(357.543 192.487)">
            <path id="Path_13057" d="M360.807 307.283h-.972V192.592l.972-.178z" class="cls-29" data-name="Path 13057" transform="translate(-357.892 -192.414)"/>
            <path id="Path_13058" d="M358.859 307.65h-.972V192.956l.972-.18z" class="cls-29" data-name="Path 13058" transform="translate(-357.887 -192.413)"/>
        </g>
        <path id="Path_13059" d="M356.909 308.01h-.972V193.32l.972-.18z" class="cls-30" data-name="Path 13059" transform="translate(-.339 .075)"/>
        <path id="Path_13060" d="M354.96 308.373h-.974v-114.69l.973-.18z" class="cls-31" data-name="Path 13060" transform="translate(-.334 .075)"/>
        <path id="Path_13061" d="M353.007 308.716h-.972V194.025l.972-.18z" class="cls-32" data-name="Path 13061" transform="translate(-.329 .076)"/>
        <path id="Path_13062" d="M351.055 309.078h-.972V194.387l.972-.18z" class="cls-29" data-name="Path 13062" transform="translate(-.324 .076)"/>
        <path id="Path_13063" d="M349.1 309.442h-.972V194.75l.972-.18z" class="cls-31" data-name="Path 13063" transform="translate(-.319 .077)"/>
        <g id="Group_3891" data-name="Group 3891" transform="translate(343.923 195.011)">
            <path id="Path_13064" d="M347.155 309.8h-.972V195.114l.972-.18z" class="cls-29" data-name="Path 13064" transform="translate(-344.237 -194.934)"/>
            <path id="Path_13065" d="M345.2 310.168h-.972v-114.69l.972-.18z" class="cls-29" data-name="Path 13065" transform="translate(-344.232 -194.933)"/>
        </g>
        <path id="Path_13066" d="M343.255 307.4h-.972v-81.243l.972-.18z" class="cls-33" data-name="Path 13066" transform="translate(-.304 .125)"/>
        <path id="Path_13067" d="M341.306 307.766h-.972V226.52l.972-.18z" class="cls-34" data-name="Path 13067" transform="translate(-.299 .126)"/>
        <path id="Path_13068" d="M339.355 308.129h-.973v-81.246l.973-.18z" class="cls-34" data-name="Path 13068" transform="translate(-.294 .127)"/>
        <path id="Path_13069" d="M337.405 308.5h-.973v-81.25l.973-.18z" class="cls-35" data-name="Path 13069" transform="translate(-.289 .127)"/>
        <path id="Path_13070" d="M335.449 308.834h-.972v-81.246l.972-.18z" class="cls-34" data-name="Path 13070" transform="translate(-.284 .128)"/>
        <path id="Path_13071" d="M333.5 309.2h-.973v-81.248l.973-.18z" class="cls-35" data-name="Path 13071" transform="translate(-.279 .128)"/>
        <g id="Group_3892" data-name="Group 3892" transform="translate(328.358 228.263)">
            <path id="Path_13072" d="M331.551 309.56h-.972v-81.246l.972-.18z" class="cls-34" data-name="Path 13072" transform="translate(-328.632 -228.134)"/>
            <path id="Path_13073" d="M329.6 309.926h-.972V228.68l.972-.18z" class="cls-34" data-name="Path 13073" transform="translate(-328.627 -228.133)"/>
        </g>
        <path id="Path_13074" d="M327.65 310.286h-.972V229.04l.972-.18z" class="cls-36" data-name="Path 13074" transform="translate(-.264 .13)"/>
        <path id="Path_13075" d="M325.648 310.651h-.973v-81.246l.973-.18z" class="cls-34" data-name="Path 13075" transform="translate(-.258 .13)"/>
        <path id="Path_13076" d="M323.7 311.013h-.973v-81.246l.973-.178z" class="cls-36" data-name="Path 13076" transform="translate(-.253 .131)"/>
        <path id="Path_13077" d="M321.75 311.378h-.974v-81.246l.972-.18z" class="cls-34" data-name="Path 13077" transform="translate(-.248 .132)"/>
        <path id="Path_13078" d="M344.164 193.565l17.519-3.2v1.883l-17.519 3.2zm-23.846 34.774l23.853-4.379v1.883l-23.853 4.377z" class="cls-19" data-name="Path 13078" transform="translate(-.247 .07)"/>
        <path id="Path_13079" d="M309.817 145.727h.364v16.365h-.364z" class="cls-37" data-name="Path 13079" transform="translate(-.22 .001)"/>
        <path id="Path_13080" d="M310.723 145.723a.727.727 0 1 1-.212-.515.731.731 0 0 1 .212.515z" class="cls-38" data-name="Path 13080" transform="translate(-.218)"/>
        <path id="Path_13081" d="M310 161.137a2.225 2.225 0 0 0-1.656 1.009l.427.083v15.7h2.457v-15.747l.417-.04a2.2 2.2 0 0 0-1.645-1.008z" class="cls-38" data-name="Path 13081" transform="translate(-.216 .025)"/>
        <path id="Path_13082" d="M310 176.76c-1.01 0-1.828.316-1.828.7v8.38h3.658v-8.373c0-.391-.818-.709-1.83-.709z" class="cls-38" data-name="Path 13082" transform="translate(-.215 .049)"/>
        <path id="Path_13083" d="M314.216 183.291h-.022a.73.73 0 0 0 .048-.18c0-.9-1.9-1.638-4.249-1.638s-4.249.733-4.249 1.638a.7.7 0 0 0 .048.18h-.022l.056.133a.035.035 0 0 0 .01.02l1.011 2.4h6.294l1.011-2.4a.035.035 0 0 1 .01-.02z" class="cls-39" data-name="Path 13083" transform="translate(-.209 .057)"/>
        <path id="Path_13084" d="M313.142 185.836c0 .669-1.408 1.2-3.145 1.2s-3.145-.543-3.145-1.2 1.408-1.2 3.145-1.2 3.145.541 3.145 1.2z" class="cls-40" data-name="Path 13084" transform="translate(-.212 .061)"/>
        <path id="Path_13085" d="M310 184.982c-1.223 0-2.214.383-2.214.853v10.14h4.426v-10.14c0-.471-.99-.853-2.214-.853z" class="cls-38" data-name="Path 13085" transform="translate(-.214 .062)"/>
        <path id="Path_13086" d="M315.024 197.563H315a.794.794 0 0 0 .057-.216c0-1.078-2.266-1.951-5.062-1.951s-5.063.873-5.063 1.951a.857.857 0 0 0 .057.216h-.026l.067.158a.059.059 0 0 0 .01.026l1.2 2.854h7.5l1.2-2.854a.062.062 0 0 1 .01-.024z" class="cls-39" data-name="Path 13086" transform="translate(-.207 .078)"/>
        <path id="Path_13087" d="M313.741 200.6c0 .8-1.678 1.444-3.747 1.444s-3.747-.646-3.747-1.444 1.678-1.442 3.747-1.442 3.747.642 3.747 1.442z" class="cls-40" data-name="Path 13087" transform="translate(-.211 .084)"/>
        <path id="Path_13088" d="M310 199.58c-1.456 0-2.637.455-2.637 1.016v12.082h5.274v-12.083c0-.561-1.182-1.015-2.637-1.015z" class="cls-38" data-name="Path 13088" transform="translate(-.213 .085)"/>
        <path id="Path_13089" d="M315.024 213.761H315a.794.794 0 0 0 .057-.216c0-1.078-2.266-1.951-5.062-1.951s-5.063.873-5.063 1.951a.857.857 0 0 0 .057.216h-.026l.067.158a.064.064 0 0 0 .01.026l1.2 2.854h7.5l1.2-2.854a.062.062 0 0 1 .01-.024z" class="cls-39" data-name="Path 13089" transform="translate(-.207 .103)"/>
        <path id="Path_13090" d="M316.7 217.9a1.046 1.046 0 0 0 .044-.288c0-1.437-3.022-2.6-6.75-2.6s-6.75 1.165-6.75 2.6a1.046 1.046 0 0 0 .044.288l.037.088c.02.056.042.1.07.163l1.606 3.8h10l1.606-3.8a1.1 1.1 0 0 0 .066-.155z" class="cls-41" data-name="Path 13090" transform="translate(-.203 .108)"/>
        <ellipse id="Ellipse_475" cx="4.998" cy="1.926" class="cls-42" data-name="Ellipse 475" rx="4.998" ry="1.926" transform="translate(304.786 223.307)"/>
        <path id="Path_13091" d="M317.178 219.928a1.013 1.013 0 0 0 .06-.344c0-1.542-3.245-2.794-7.247-2.794s-7.248 1.252-7.248 2.794a1.146 1.146 0 0 0 .06.344l.08.19c.005.01.008.022.014.033l2.1 4.971h9.987l2.095-4.968c.013-.025.02-.05.032-.075z" class="cls-41" data-name="Path 13091" transform="translate(-.201 .111)"/>
        <g id="Group_3893" data-name="Group 3893" transform="translate(302.535 215.004)">
            <path id="Path_13092" d="M309.981 217.914c3.509 0 6.433.961 7.1 2.237l.024-.057.064-.15a1.136 1.136 0 0 0 .061-.344c0-1.542-3.245-2.794-7.247-2.794s-7.248 1.25-7.248 2.794a1.135 1.135 0 0 0 .061.344h-.005l.08.19a.2.2 0 0 1 .008.02c.664-1.278 3.591-2.239 7.1-2.239z" class="cls-43" data-name="Path 13092" transform="translate(-302.736 -214.893)"/>
            <path id="Path_13093" d="M309.982 215.936c3.291 0 6.044.9 6.671 2.1l.083-.2a1.052 1.052 0 0 0 .057-.323c0-1.449-3.047-2.624-6.806-2.624s-6.807 1.174-6.807 2.624a1.075 1.075 0 0 0 .057.323l.075.178c.626-1.182 3.374-2.086 6.673-2.086z" class="cls-43" data-name="Path 13093" transform="translate(-302.737 -214.896)"/>
        </g>
        <g id="Group_3894" data-name="Group 3894" transform="translate(304.716 195.48)">
            <path id="Path_13094" d="M309.987 212.344c2.454 0 4.488.671 4.967 1.564l.017-.04.044-.1a.8.8 0 0 0 .042-.241c0-1.078-2.268-1.953-5.067-1.953s-5.067.874-5.067 1.953a.793.793 0 0 0 .042.241l.056.132.006.013c.462-.894 2.507-1.569 4.962-1.569z" class="cls-44" data-name="Path 13094" transform="translate(-304.923 -195.377)"/>
            <path id="Path_13095" d="M309.987 196.171c2.454 0 4.488.671 4.967 1.564l.017-.04.044-.1a.794.794 0 0 0 .042-.24c0-1.079-2.268-1.953-5.067-1.953s-5.067.874-5.067 1.953a.792.792 0 0 0 .042.24l.056.132.006.014c.462-.9 2.507-1.57 4.962-1.57z" class="cls-44" data-name="Path 13095" transform="translate(-304.923 -195.402)"/>
        </g>
        <path id="Path_13096" d="M309.989 182.1c2.042 0 3.745.559 4.134 1.3 0-.01.01-.022.014-.034l.037-.087a.653.653 0 0 0 .036-.2c0-.9-1.888-1.626-4.219-1.626s-4.219.727-4.219 1.626a.653.653 0 0 0 .036.2l.046.1.005.01c.383-.743 2.085-1.3 4.129-1.3z" class="cls-44" data-name="Path 13096" transform="translate(-.209 .056)"/>
        <path id="Path_13097" d="M310 177.038c.9 0 1.65.246 1.821.574l.006-.014.016-.04a.3.3 0 0 0 .016-.088c0-.4-.832-.716-1.858-.716s-1.858.32-1.858.716a.292.292 0 0 0 .016.088l.02.05v.005c.17-.329.921-.575 1.82-.575z" class="cls-45" data-name="Path 13097" transform="translate(-.215 .049)"/>
        <path id="Path_13098" d="M310 173.135a1.489 1.489 0 0 1 1.2.376v-.01l.01-.025c.006-.02.01-.327.01-.348 0-.258-.545-.469-1.217-.469s-1.217.2-1.217.469l.01.348.014.03a1.545 1.545 0 0 1 1.193-.373z" class="cls-45" data-name="Path 13098" transform="translate(-.217 .043)"/>
        <path id="Path_13099" d="M310 171.887a1.489 1.489 0 0 1 1.2.376v-.01l.01-.025c.006-.02.01-.327.01-.348 0-.26-.545-.469-1.217-.469s-1.217.2-1.217.469l.01.348.014.03a1.507 1.507 0 0 1 1.193-.373z" class="cls-45" data-name="Path 13099" transform="translate(-.217 .041)"/>
        <path id="Path_13100" d="M310 170.638a1.489 1.489 0 0 1 1.2.376V171l.01-.025c.006-.02.01-.327.01-.348 0-.26-.545-.469-1.217-.469s-1.217.2-1.217.469l.01.348.014.03a1.507 1.507 0 0 1 1.193-.373z" class="cls-45" data-name="Path 13100" transform="translate(-.217 .039)"/>
        <g id="Group_3895" data-name="Group 3895" transform="translate(308.563 167.7)">
            <path id="Path_13101" d="M310 169.389a1.489 1.489 0 0 1 1.2.376v-.01l.01-.025c.006-.02.01-.328.01-.348 0-.26-.545-.469-1.217-.469s-1.217.2-1.217.469l.01.348.014.03a1.546 1.546 0 0 1 1.193-.371z" class="cls-45" data-name="Path 13101" transform="translate(-308.78 -167.663)"/>
            <path id="Path_13102" d="M310 168.141a1.489 1.489 0 0 1 1.2.376v-.01l.01-.025c.006-.02.01-.327.01-.348 0-.26-.545-.469-1.217-.469s-1.217.2-1.217.469l.01.348.014.032a1.507 1.507 0 0 1 1.193-.373z" class="cls-45" data-name="Path 13102" transform="translate(-308.78 -167.665)"/>
        </g>
        <path id="Path_13103" d="M310 166.9a1.489 1.489 0 0 1 1.2.376v-.01l.01-.025q.009-.173.01-.347c0-.26-.545-.469-1.217-.469s-1.217.2-1.217.469l.01.347.014.032a1.522 1.522 0 0 1 1.19-.373z" class="cls-45" data-name="Path 13103" transform="translate(-.217 .033)"/>
        <g id="Group_3896" data-name="Group 3896" transform="translate(308.563 163.951)">
            <path id="Path_13104" d="M310 165.641a1.489 1.489 0 0 1 1.2.376v-.01l.01-.025q.009-.173.01-.347c0-.26-.545-.469-1.217-.469s-1.217.2-1.217.469l.01.347.014.032a1.545 1.545 0 0 1 1.193-.373z" class="cls-45" data-name="Path 13104" transform="translate(-308.78 -163.92)"/>
            <path id="Path_13105" d="M310 164.4a1.489 1.489 0 0 1 1.2.376v-.01l.01-.025q.009-.173.01-.347c0-.26-.545-.469-1.217-.469s-1.217.2-1.217.469l.01.347.014.032c.113-.214.6-.373 1.193-.373z" class="cls-45" data-name="Path 13105" transform="translate(-308.78 -163.922)"/>
        </g>
        <path id="Path_13106" d="M310 163.144a1.489 1.489 0 0 1 1.2.376v-.01l.01-.025q.009-.173.01-.347c0-.26-.545-.469-1.217-.469s-1.217.2-1.217.469l.01.347.014.032a1.545 1.545 0 0 1 1.193-.373z" class="cls-45" data-name="Path 13106" transform="translate(-.217 .027)"/>
        <path id="Path_13107" d="M310 161.627c.815 0 1.5.223 1.65.521l.006-.013.014-.035q.013-.24.014-.481c0-.359-.754-.649-1.684-.649s-1.688.29-1.688.649l.014.481.02.044a2.1 2.1 0 0 1 1.656-.516z" class="cls-45" data-name="Path 13107" transform="translate(-.216 .025)"/>
        <path id="Path_13108" d="M314.97 225.143c0-.01.008-.02.008-.032 0-1.064-2.237-1.926-5-1.926s-5 .861-5 1.926l-4.089 81.282h18.191z" class="cls-46" data-name="Path 13108" transform="translate(-.197 .121)"/>
        <path id="Path_13109" d="M311.038 211.564a.092.092 0 0 1-.091-.091v-11.648a.09.09 0 1 1 .18 0v11.648a.09.09 0 0 1-.09.09z" class="cls-47" data-name="Path 13109" transform="translate(-.223 .085)"/>
        <g id="Group_3897" data-name="Group 3897" transform="translate(307.056 200.588)">
            <path id="Path_13110" d="M312.648 211.833a.092.092 0 0 1-.091-.091v-11.148a.09.09 0 1 1 .18 0v11.137a.091.091 0 0 1-.023.07.088.088 0 0 1-.068.03z" class="cls-47" data-name="Path 13110" transform="translate(-307.283 -200.502)"/>
            <path id="Path_13111" d="M307.36 211.833a.092.092 0 0 1-.091-.091v-11.148a.093.093 0 0 1 .045-.08.088.088 0 0 1 .09 0 .091.091 0 0 1 .045.08v11.137a.091.091 0 0 1-.023.07.088.088 0 0 1-.068.03z" class="cls-47" data-name="Path 13111" transform="translate(-307.269 -200.502)"/>
        </g>
        <path id="Path_13112" d="M308.98 211.564a.09.09 0 0 1-.09-.09v-11.648a.09.09 0 1 1 .18 0v11.648a.092.092 0 0 1-.091.091z" class="cls-48" data-name="Path 13112" transform="translate(-.217 .085)"/>
        <path id="Path_13113" d="M311.038 195.472a.092.092 0 0 1-.091-.091v-10.173a.09.09 0 1 1 .18 0v10.173a.09.09 0 0 1-.09.09z" class="cls-47" data-name="Path 13113" transform="translate(-.223 .062)"/>
        <path id="Path_13114" d="M312.223 195.7a.092.092 0 0 1-.091-.091v-9.775a.09.09 0 1 1 .18 0v9.775a.092.092 0 0 1-.091.091z" class="cls-48" data-name="Path 13114" transform="translate(-.226 .063)"/>
        <path id="Path_13115" d="M307.784 195.7a.092.092 0 0 1-.091-.091v-9.775a.09.09 0 1 1 .18 0v9.775c0 .05-.04.1-.09.09z" class="cls-47" data-name="Path 13115" transform="translate(-.214 .063)"/>
        <path id="Path_13116" d="M308.98 195.472a.09.09 0 0 1-.09-.09v-10.173a.09.09 0 1 1 .18 0v10.173a.092.092 0 0 1-.091.091z" class="cls-48" data-name="Path 13116" transform="translate(-.217 .062)"/>
        <path id="Path_13117" d="M310.7 181.52a.092.092 0 0 1-.091-.091v-4.279a.093.093 0 0 1 .045-.08.087.087 0 0 1 .09 0 .091.091 0 0 1 .045.08v4.277a.093.093 0 0 1-.09.092z" class="cls-48" data-name="Path 13117" transform="translate(-.222 .05)"/>
        <path id="Path_13118" d="M311.838 181.714a.09.09 0 0 1-.09-.09v-4.156a.093.093 0 0 1 .045-.08.087.087 0 0 1 .09 0 .091.091 0 0 1 .045.08v4.156c-.001.05-.04.1-.09.09z" class="cls-47" data-name="Path 13118" transform="translate(-.225 .05)"/>
        <path id="Path_13119" d="M308.17 181.714a.1.1 0 0 1-.065-.026.09.09 0 0 1-.027-.065v-4.156a.093.093 0 0 1 .045-.08.087.087 0 0 1 .09 0 .091.091 0 0 1 .045.08v4.156a.087.087 0 0 1-.1.09z" class="cls-48" data-name="Path 13119" transform="translate(-.215 .05)"/>
        <path id="Path_13120" d="M309.334 181.52a.093.093 0 0 1-.092-.09v-4.279a.09.09 0 1 1 .18 0v4.277a.1.1 0 0 1-.026.065.085.085 0 0 1-.064.027z" class="cls-49" data-name="Path 13120" transform="translate(-.218 .05)"/>
        <path id="Path_13121" d="M318.663 295.509l.035-1.79a1.406 1.406 0 0 0-.157-.623l-.265-5.273.016-1.036a1.306 1.306 0 0 0-.091-.449l-3.092-61.292c-.037-.082-.975-2.01-5.13-2.01s-5.087 1.928-5.127 2.01l-3.1 61.385a1.334 1.334 0 0 0-.052.351l.007.534-.3 5.879a1.389 1.389 0 0 0-.115.519l.022 1.316-.582 11.5h18.489zm-.249.8l.193 3.826c-.658-.965-2.374-1.76-4.644-2.2l-.082-3.806c2.236.431 3.914 1.218 4.534 2.176zm-11.73 5.008a21.593 21.593 0 0 1 6.709.014l.106 4.924h-6.924zm.716-33.117a17.412 17.412 0 0 1 5.286.013l.066 3.039a18.607 18.607 0 0 0-5.415-.011zm.127-5.882a16.539 16.539 0 0 1 5.029.013l.067 3.075a17.651 17.651 0 0 0-5.162-.01zm2.454-30.693a13.062 13.062 0 0 1 1.927.14l.05 2.311a13.673 13.673 0 0 0-1.976-.143 13.96 13.96 0 0 0-1.843.12l.05-2.31a13.413 13.413 0 0 1 1.793-.123zm-1.747-2.013l.05-2.243a12.91 12.91 0 0 1 1.7-.11 12.711 12.711 0 0 1 1.832.131l.05 2.245a13.222 13.222 0 0 0-1.881-.134 13.367 13.367 0 0 0-1.744.106zm-.463 21.551a15.863 15.863 0 0 1 4.547.02l.06 2.8a16.3 16.3 0 0 0-4.668-.017zm.1-5.108a15.155 15.155 0 0 1 4.325.02l.057 2.6a15.881 15.881 0 0 0-4.437-.016zm.116-5.028a14.376 14.376 0 0 1 4.109.02l.057 2.637a14.547 14.547 0 0 0-4.222-.014zm.1-4.747a14.189 14.189 0 0 1 3.9.017l.054 2.474a13.887 13.887 0 0 0-4.01-.014zm4.937 47.542a20.613 20.613 0 0 0-5.957-.012l.072-3.327a18.592 18.592 0 0 1 5.815.014zm-3.025 3.021a20.222 20.222 0 0 1 3.092.237l.076 3.528a21.908 21.908 0 0 0-6.248-.01l.076-3.53a20.27 20.27 0 0 1 3.006-.236zm-2.346-30.291a16.129 16.129 0 0 1 4.78.02l.068 3.093a16.889 16.889 0 0 0-4.914-.011zm2.346 17.427a18.261 18.261 0 0 1 2.819.219l.069 3.28a19.146 19.146 0 0 0-5.685-.012l.07-3.282a18.22 18.22 0 0 1 2.728-.214zm-3.152 20.031a21.226 21.226 0 0 1 6.4.014l.082 3.806a22.21 22.21 0 0 0-6.558-.012zm11.386-1.36a8.162 8.162 0 0 0-4.422-1.932l-.076-3.522c2.157.423 3.77 1.19 4.329 2.12zm-.574-11.4l.229 4.563a7.615 7.615 0 0 0-4.224-1.878l-.07-3.318c1.99.409 3.469 1.138 3.93 2.015l.026-.06.067-.158c.018-.073.037-.634.047-1.174zm-.291-5.013l.035-.082.183 3.638c-.362-.957-1.911-1.765-4.056-2.193l-.07-3.279c1.968.4 3.433 1.114 3.89 1.977a.261.261 0 0 1 .023-.07zm-.343-6.076l.063-.148q0-.03.007-.061l.166 3.282c-.535-.814-1.963-1.488-3.862-1.863l-.065-3.033c1.859.381 3.242 1.06 3.67 1.878a.333.333 0 0 1 .024-.066zm-.285-6.12a4.9 4.9 0 0 0 .028-.495l.192 3.812c-.472-.8-1.848-1.464-3.69-1.833l-.066-3.072c1.751.363 3.052 1 3.458 1.78l.023-.054.06-.14zm-.3-5.684l.058-.136a.717.717 0 0 0 .01-.093l.175 3.475c-.4-.793-1.726-1.456-3.526-1.821l-.066-3.09c1.686.351 2.939.972 3.331 1.717l.023-.06zm-.053-2.562c-.424-.733-1.676-1.342-3.354-1.683l-.06-2.8c1.646.337 2.873.935 3.272 1.658zm-.4-8.022l.126 2.481a5.665 5.665 0 0 0-3.192-1.463l-.056-2.594c1.576.327 2.747.9 3.112 1.6zm-.281-5.133l.02-.05.135 2.674a5.067 5.067 0 0 0-3.046-1.459l-.057-2.634c1.483.31 2.593.859 2.927 1.516a.272.272 0 0 1 .02-.058zm-.093-2.32a4.67 4.67 0 0 0-2.9-1.427l-.053-2.474a4.517 4.517 0 0 1 2.831 1.4zm-.246-4.871a5.017 5.017 0 0 0-2.76-1.273l-.05-2.3a4.329 4.329 0 0 1 2.693 1.342zm-.225-4.5a4.8 4.8 0 0 0-2.629-1.212l-.048-2.24a4.172 4.172 0 0 1 2.567 1.276zm-.292-5.8l.073 1.448a4.64 4.64 0 0 0-2.5-1.151l-.04-1.841a3.828 3.828 0 0 1 2.469 1.543zm-3.112-1.683l.04 1.87a13.2 13.2 0 0 0-3.444-.026l.04-1.867a10.891 10.891 0 0 1 3.364.018zm-6.6 1.683a3.9 3.9 0 0 1 2.593-1.575l-.04 1.848a4.838 4.838 0 0 0-2.625 1.163zm-.182 3.606a4.374 4.374 0 0 1 2.693-1.286l-.048 2.24a5.017 5.017 0 0 0-2.753 1.225zm-.223 4.444a4.518 4.518 0 0 1 2.821-1.354l-.05 2.3a5.216 5.216 0 0 0-2.885 1.284zm-.232 4.6a4.69 4.69 0 0 1 2.955-1.418l-.053 2.471a4.838 4.838 0 0 0-3.028 1.444zm-.241 4.8l.026.062.007.015c.354-.677 1.511-1.237 3.062-1.542l-.056 2.632a5.237 5.237 0 0 0-3.172 1.478zm-.261 5.181v.01c.374-.716 1.6-1.307 3.245-1.628l-.056 2.594a5.848 5.848 0 0 0-3.316 1.479zm-.259 5.168c.417-.738 1.7-1.345 3.4-1.675l-.06 2.8c-1.739.332-3.04.951-3.481 1.7zm-.263 5.208a.137.137 0 0 0 .006.055l.072.17c.407-.748 1.718-1.384 3.471-1.727l-.067 3.1c-1.923.375-3.318 1.088-3.658 1.939zm-.249 4.941l.04.934.075.178a.092.092 0 0 1 .008.02c.412-.788 1.752-1.442 3.553-1.8l-.066 3.072c-1.935.371-3.376 1.069-3.822 1.9zm-.329 6.524a3.32 3.32 0 0 0 .025.381l.08.186.008.02c.436-.833 1.858-1.522 3.766-1.9l-.066 3.035c-1.995.378-3.481 1.085-3.99 1.938zm-.324 6.41v.03zm0 .03l.083.2a.129.129 0 0 1 .01.02c.459-.878 1.965-1.6 3.99-2l-.07 3.278c-2.274.441-3.9 1.3-4.189 2.319zm-.234 4.639l.058 1.693h-.005l.085.2a.192.192 0 0 1 .009.021c.467-.891 1.995-1.631 4.024-2.036l-.07 3.318c-2.071.383-3.67 1.082-4.357 1.939zm-.436 8.651c.537-.969 2.217-1.767 4.464-2.193l-.076 3.521c-2.147.393-3.813 1.112-4.556 2zm-.353 7.011c.6-.995 2.342-1.813 4.668-2.249l-.082 3.806c-2.367.441-4.145 1.272-4.78 2.278zm-.5 9.888l.134-2.646.078.183c0 .008.007.016.01.024.551-1.052 2.364-1.92 4.788-2.386l-.1 4.817h.008v.007zm13.051-.006h.057l-.1-4.8c2.376.469 4.149 1.327 4.694 2.364l.03-.07.023-.055.13 2.566H314.1z" class="cls-50" data-name="Path 13121" transform="translate(-.196 .121)"/>
    </g>
</svg>
