<svg xmlns="http://www.w3.org/2000/svg" xmlns:xlink="http://www.w3.org/1999/xlink" width="247.442" height="203.5" viewBox="0 0 247.442 203.5">
    <defs>
        <style>
            .cls-1{fill:#180728}.cls-2{fill:#002c56}.cls-3{fill:#f2a181}.cls-4{fill:url(#linear-gradient)}.cls-5{fill:url(#linear-gradient-2)}.cls-6{fill:url(#linear-gradient-3)}.cls-7{fill:rgba(0,0,0,.1)}.cls-8{fill:#170d54}.cls-9{fill:url(#linear-gradient-4)}.cls-10{fill:#ffbe9d}.cls-11{fill:url(#linear-gradient-5)}.cls-12{fill:#154f87}.cls-13{fill:#fff}.cls-14{fill:url(#linear-gradient-6)}.cls-15{fill:url(#linear-gradient-8)}.cls-16{stroke:#46455b;stroke-linecap:round;stroke-linejoin:round;stroke-width:2.5px;fill:url(#linear-gradient-9)}.cls-17{fill:url(#linear-gradient-10)}.cls-18{fill:#5083e9}.cls-19{fill:none;stroke:#5489f4;stroke-miterlimit:10;stroke-width:.925px}.cls-20{fill:url(#linear-gradient-11)}.cls-21{fill:url(#linear-gradient-12)}.cls-22{fill:url(#linear-gradient-13)}.cls-23{fill:url(#linear-gradient-14)}.cls-24{fill:url(#linear-gradient-15)}.cls-25{fill:url(#linear-gradient-16)}.cls-26{filter:url(#Path_9826)}.cls-27{filter:url(#Path_9825)}.cls-28{filter:url(#Path_9552)}.cls-29{filter:url(#Path_9551)}
        </style>
        <linearGradient id="linear-gradient" x1=".5" x2=".5" y2="1" gradientUnits="objectBoundingBox">
            <stop offset="0" stop-color="#071828"/>
            <stop offset="1" stop-color="#003365"/>
        </linearGradient>
        <linearGradient id="linear-gradient-2" x1=".5" x2=".5" y2="1" gradientUnits="objectBoundingBox">
            <stop offset="0" stop-color="#be95ff"/>
            <stop offset="1" stop-color="#fff"/>
        </linearGradient>
        <linearGradient id="linear-gradient-3" x1=".207" x2="1" y1=".612" y2=".913" gradientUnits="objectBoundingBox">
            <stop offset="0" stop-color="#d0e7fe"/>
            <stop offset="1" stop-color="#4691db"/>
        </linearGradient>
        <linearGradient id="linear-gradient-4" x1=".5" x2=".5" y2="1" xlink:href="#linear-gradient-3"/>
        <linearGradient id="linear-gradient-5" x1=".5" x2=".5" y2="1" gradientUnits="objectBoundingBox">
            <stop offset="0" stop-color="#165088"/>
            <stop offset="1" stop-color="#003365"/>
        </linearGradient>
        <filter id="Path_9551" width="10.08" height="10.631" x="21.437" y="74.512" filterUnits="userSpaceOnUse">
            <feOffset dy="1"/>
            <feGaussianBlur result="blur" stdDeviation=".5"/>
            <feFlood flood-opacity=".2"/>
            <feComposite in2="blur" operator="in"/>
            <feComposite in="SourceGraphic"/>
        </filter>
        <filter id="Path_9552" width="5.903" height="9.498" x="28.516" y="74.725" filterUnits="userSpaceOnUse">
            <feOffset dy="1"/>
            <feGaussianBlur result="blur-2" stdDeviation=".5"/>
            <feFlood flood-opacity=".302"/>
            <feComposite in2="blur-2" operator="in"/>
            <feComposite in="SourceGraphic"/>
        </filter>
        <linearGradient id="linear-gradient-6" x1=".806" x2=".5" y1="-.017" y2="1" gradientUnits="objectBoundingBox">
            <stop offset="0" stop-color="#fff"/>
            <stop offset="1" stop-color="#d1b4ff"/>
        </linearGradient>
        <linearGradient id="linear-gradient-8" x1=".5" x2=".5" y2="1" gradientUnits="objectBoundingBox">
            <stop offset="0" stop-color="#1e173d"/>
            <stop offset="1" stop-color="#071828"/>
        </linearGradient>
        <linearGradient id="linear-gradient-9" x2="1" y1=".202" y2="1" gradientUnits="objectBoundingBox">
            <stop offset="0" stop-color="#c9fbf9"/>
            <stop offset="1" stop-color="#0097fd"/>
        </linearGradient>
        <filter id="Path_9825" width="218.577" height="203.5" x="28.865" y="0" filterUnits="userSpaceOnUse">
            <feOffset dy="5"/>
            <feGaussianBlur result="blur-3" stdDeviation="12.5"/>
            <feFlood flood-color="#fff" flood-opacity=".502"/>
            <feComposite in2="blur-3" operator="in"/>
            <feComposite in="SourceGraphic"/>
        </filter>
        <linearGradient id="linear-gradient-10" x1=".039" x2="1" y1=".056" y2="1" gradientUnits="objectBoundingBox">
            <stop offset="0" stop-color="#fff" stop-opacity=".8"/>
            <stop offset="1" stop-color="#0097fd"/>
        </linearGradient>
        <filter id="Path_9826" width="166.423" height="126.475" x="50" y="35.221" filterUnits="userSpaceOnUse">
            <feOffset dy="3"/>
            <feGaussianBlur result="blur-4" stdDeviation="3"/>
            <feFlood flood-color="#fff" flood-opacity=".2"/>
            <feComposite in2="blur-4" operator="in"/>
            <feComposite in="SourceGraphic"/>
        </filter>
        <linearGradient id="linear-gradient-11" x1=".009" x2="1.009" y1=".501" y2=".501" gradientUnits="objectBoundingBox">
            <stop offset="0" stop-color="#bdf7a3"/>
            <stop offset="1" stop-color="#009ee0"/>
        </linearGradient>
        <linearGradient id="linear-gradient-12" x1=".48" x2=".713" y1=".085" y2="2.184" gradientUnits="objectBoundingBox">
            <stop offset="0" stop-color="#ffe900"/>
            <stop offset="1" stop-color="#ff13bd"/>
        </linearGradient>
        <linearGradient id="linear-gradient-13" x1=".574" x2=".464" y1="1.144" y2="-.627" xlink:href="#linear-gradient-12"/>
        <linearGradient id="linear-gradient-14" x1=".567" x2=".396" y1="1.145" y2="-1.597" xlink:href="#linear-gradient-12"/>
        <linearGradient id="linear-gradient-15" x1=".562" x2=".562" y1="-.547" y2=".662" xlink:href="#linear-gradient-12"/>
        <linearGradient id="linear-gradient-16" x1=".585" x2=".585" y1=".111" y2="1.889" xlink:href="#linear-gradient-12"/>
    </defs>
    <g id="ill_pricing" transform="translate(-170 -126.25)">
        <path id="Path_9532" d="M579.655 368.817a7.965 7.965 0 0 0 3.31 2.506c1.765.789 5.51 1.16 3.43 1.855a12.475 12.475 0 0 1-5.734.077 24.765 24.765 0 0 0-3.868-.234c-1.911-.012-1.927-.13-1.669-2.285.355-2.966 3.676-3.595 4.531-1.919z" class="cls-1" data-name="Path 9532" transform="translate(-374.507 -57.132)"/>
        <path id="Path_9533" d="M614.133 367.83c.1.571-.709 2.3.742 3.572s4.744 2.608 2.56 2.657a12.713 12.713 0 0 1-5.39-1c-1.109-.549-.224-1.412-1.6-1.846-1.814-.573-1.439-1.907-.5-2.732 1.211-2.722 3.861-2.499 4.188-.651z" class="cls-1" data-name="Path 9533" transform="translate(-439.162 -57.063)"/>
        <path id="Path_9534" d="M581.91 312.113s-3.927-11.546 7.215-21.057a42.364 42.364 0 0 0 10.752 2.664 26.543 26.543 0 0 0 5.677-.121s.317 10.257.331 15.786z" class="cls-2" data-name="Path 9534" transform="translate(-400.64 -53.712)"/>
        <path id="Path_9535" d="M589.278 333.084c.215-5.162-5.382-4.486-7.446-.629-4.268 7.974 1.575 26.34 2.347 35.043a4.432 4.432 0 0 0 2.955.184 2.063 2.063 0 0 0 .859-.949c-.125-10.676 1.054-28.133 1.285-33.649z" class="cls-2" data-name="Path 9535" transform="translate(-383.13 -55.329)"/>
        <path id="Path_9536" d="M586.56 332.493c.644 2.108 7.789 4.326 7.21-3.348-.256-3.4-.941-22.194-1.072-24.005s-.436-4.459-1.311-4.79c-4.378-1.652-12.122 4.072-10.969 10.874.768 4.548 4.807 16.898 6.142 21.269z" class="cls-2" data-name="Path 9536" transform="translate(-387.665 -54.079)"/>
        <path id="Path_9537" d="M616 336.94c1.727-4.869-3.885-5.731-7.068-2.731-7.454 7.025-7.743 23.578-9.57 32.122a6.538 6.538 0 0 0 3.259.933 1.165 1.165 0 0 0 .888-.455c3.025-10.236 10.639-24.662 12.491-29.869z" class="cls-2" data-name="Path 9537" transform="translate(-428.345 -55.473)"/>
        <path id="Path_9538" d="M592.23 333.92c-.2 2.2 5.761 6.732 8.105-.6 1.04-3.25 5.491-22.457 6.049-24.185s.405-5.3-.282-5.932c-3.437-3.176-11.2-.383-12.682 6.353-.995 4.508-.786 19.812-1.19 24.364z" class="cls-2" data-name="Path 9538" transform="translate(-411.951 -54.156)"/>
        <g id="Group_2176" data-name="Group 2176" transform="translate(177.687 180.265)">
            <path id="Path_9539" d="M584.258 246.79c-.2-.214-.406-.429-.587-.662-1.412-1.805-1.618-3.406-2.925-5.5a16.354 16.354 0 0 0-.95-1.819 7.607 7.607 0 0 0-2.123-1.74c-.611-.32-.086 1.027-.086 1.027s-.519-.752-1.02-.7c-.2.021-.23 1.17-.233 1.366a9.645 9.645 0 0 0 1.071 4.56 2.35 2.35 0 0 1 .365 1.036 2.316 2.316 0 0 1-1.232-.606 1.488 1.488 0 0 0-1.289-.376 3.535 3.535 0 0 0 .248.539 5.644 5.644 0 0 0 2.255 2.67c.641.3 1.381.357 2.006.69 1.13.6 1.679 1.99 2.825 2.557" class="cls-3" data-name="Path 9539" transform="translate(-550.991 -231.681)"/>
            <rect id="Rectangle_3241" width="4.879" height="8.983" class="cls-4" data-name="Rectangle 3241" rx=".646" transform="rotate(157.301 13.856 9.995)"/>
            <path id="Rectangle_3242" d="M0 0h4.091v8.019H0z" class="cls-5" data-name="Rectangle 3242" transform="rotate(157.302 13.544 9.806)"/>
            <path id="Path_9540" d="M559.793 254.539a26.674 26.674 0 0 1 5.452.921c3.88 1.165 5.214 2.962 6.554 3.7-2.6-3.308-5.506-10.322-5.506-10.322s3.5-2.875 3.9-2.194 15.092 17.869 14.631 20.653c-.19 1.148-1.89 2.282-3.393 2.23-4.165-.143-9-1.659-14.073-3.318-2.229-.729-2.917.843-2.917.843" class="cls-6" data-name="Path 9540" transform="translate(-536.838 -232.127)"/>
            <path id="Path_9541" d="M573.3 259.7s1.85 3.729 2.406 3.972-1.349-.777-2.391-1.853a22.082 22.082 0 0 1-2.468-3.9 21.425 21.425 0 0 1 2.453 1.781z" class="cls-7" data-name="Path 9541" transform="translate(-538.335 -232.659)"/>
            <path id="Path_9542" d="M577.523 240.829a.843.843 0 0 0-.262.587 4.63 4.63 0 0 0 .072 2.473 3.565 3.565 0 0 0 1 1.266 7.787 7.787 0 0 0 1.515 1.035" class="cls-3" data-name="Path 9542" transform="translate(-548.365 -231.859)"/>
            <path id="Path_9543" d="M585.589 234.32c.982.283 1.5 1.55 1.834 2.417a13.451 13.451 0 0 1 .733 3.261 4.477 4.477 0 0 1-.159 2.294 4.817 4.817 0 0 1-.641 1 2.112 2.112 0 0 1-.461.486.712.712 0 0 1-.639.109c-.306-.117-.429-.477-.516-.792a20.875 20.875 0 0 0-2.347-5.936" class="cls-8" data-name="Path 9543" transform="translate(-562.725 -231.555)"/>
            <path id="Path_9544" d="M582.961 241.126c.02-.656.71-1.084 1.308-.4a4.184 4.184 0 0 1 .655 2.417c.034.945-.7 1.13-1.3 1.262" class="cls-3" data-name="Path 9544" transform="translate(-559.008 -231.838)"/>
            <path id="Path_9545" d="M602.865 258.31c-1.212-1.389-5.055-3.679-10.193-3.516-3.539.112-13.179.7-14.256 3.064-.551 1.211-1.142 13.606-.336 17.879.606 3.214 2.157 11.175 2.157 13.1s-1.032 2.745-.551 3.3c1.079 1.25 8.455 1.774 11.918 1.774 3.082 0 8.328-.822 8.594-1.809.395-1.465-.6-1.411-.737-2.947s-.523-11.51.042-13.142c1.021-2.947 1.517-7.753 2.327-9.933.617-1.655 2.246-6.38 1.035-7.77z" class="cls-9" data-name="Path 9545" transform="translate(-572.357 -232.513)"/>
            <path id="Path_9546" d="M590.632 269c-.367.764-2.861 4.775-2.861 4.775l-.1.48a19.842 19.842 0 0 0 .254 2.143c.606 3.214 2.157 11.175 2.157 13.1s-.988 2.71-.551 3.3c.85 1.152 14.758 3.744 14.074.526-.062-.291-11.673-9.15-11.735-9.447-.535-2.542-1-4.374-1.236-6.228-.566-4.463.366-9.414-.002-8.649z" class="cls-7" data-name="Path 9546" transform="translate(-582.198 -233.174)"/>
            <path id="Path_9547" d="M591.658 250.017a38.058 38.058 0 0 0 .195 4.195 6.358 6.358 0 0 0 .96.539s-.568 3.5-1.446 3.244-6.677-3.188-6.677-3.188.823-.335.823-.66-.781-6.667-.781-6.667" class="cls-10" data-name="Path 9547" transform="translate(-568.542 -232.171)"/>
            <path id="Path_9548" d="M589.7 234.777c.846.231 3.072-.231 3.687.691a20.963 20.963 0 0 1 1.383 3.764c.458 1.223.758 2.531 1.091 3.792.435 1.643 1.15 4.653-.458 6.028a2.14 2.14 0 0 1-1.24.63c-.762.137-1.518.294-2.28.43a7.655 7.655 0 0 1-3.658.078c-1.565-.508-2.423-2.66-2.826-4.122l-2.3-8.373z" class="cls-10" data-name="Path 9548" transform="translate(-570.613 -231.576)"/>
            <path id="Path_9549" d="M587.744 260.162s.339 15.733.98 25.3l-2.314 3.19-1.59-4a121.668 121.668 0 0 1 1.5-24.389z" class="cls-11" data-name="Path 9549" transform="translate(-564.486 -232.764)"/>
            <path id="Path_9550" d="M588.243 258.663l-.054.216a4.4 4.4 0 0 1-.478 1.166l-1.42.11s-.965-.506-1.092-1.049 1.584-1.434 1.584-1.434l.208.081a3.1 3.1 0 0 1 1.236.889z" class="cls-12" data-name="Path 9550" transform="translate(-564.452 -232.648)"/>
            <g class="cls-29" transform="translate(-7.69 -54.01)">
                <path id="Path_9551-2" d="M588.344 253.446a5.928 5.928 0 0 0-1.62 1.641c.73 1.67 2.38 4.637 4.2 5.989a8.206 8.206 0 0 1 2.882-3.6s-4.954-.884-5.462-4.03z" class="cls-13" data-name="Path 9551" transform="translate(-563.79 -178.44)"/>
            </g>
            <g class="cls-28" transform="translate(-7.69 -54.01)">
                <path id="Path_9552-2" d="M583.678 257.485a6.1 6.1 0 0 1 2.823 2.683 13.5 13.5 0 0 0-.383-4.98s-1.163-1.488-1.565-1.518a7.818 7.818 0 0 1-.875 3.815z" class="cls-13" data-name="Path 9552" transform="translate(-553.66 -178.45)"/>
            </g>
            <g id="Group_2175" data-name="Group 2175" transform="translate(0 23.88)">
                <path id="Path_9553" d="M583.267 294.522a5.237 5.237 0 0 1 3.4 1.9.367.367 0 0 1 .148.293c-.023.14-.188.2-.328.225-.817.132-.949-.391-1.713-.709-.516-.215-1.027-.439-1.54-.662" class="cls-3" data-name="Path 9553" transform="translate(-561.16 -258.253)"/>
                <g id="Group_2174" data-name="Group 2174" transform="translate(21.8 20.073)">
                    <g id="Group_2171" data-name="Group 2171" transform="translate(0 2.541)">
                        <path id="Path_9554" d="M570.977 281.037l-6.232 19.973a.715.715 0 0 0 .661 1l13 1.141a1.205 1.205 0 0 0 1.089-.84l6.7-19.669c.168-.536-.606-1.3-1.129-1.306l-13-1.141a1.2 1.2 0 0 0-1.089.842z" class="cls-13" data-name="Path 9554" transform="translate(-564.7 -280.197)"/>
                    </g>
                    <g id="Group_2172" data-name="Group 2172" transform="translate(.514 3.063)">
                        <path id="Path_9555" d="M570.911 281.584l-6.145 19.665a.715.715 0 0 0 .661 1l13 1.141a1.206 1.206 0 0 0 1.089-.841l6.145-19.664a.715.715 0 0 0-.661-1l-13-1.141a1.207 1.207 0 0 0-1.089.84z" class="cls-14" data-name="Path 9555" transform="translate(-564.72 -280.744)"/>
                    </g>
                    <g id="Group_2173" data-name="Group 2173" transform="translate(10.549)">
                        <path id="Path_9556" d="M575.891 280.929l-.461 1.724-6.082-.537.5-1.717z" class="cls-13" data-name="Path 9556" transform="translate(-569.348 -277.665)"/>
                        <path id="Path_9557" d="M573.989 279.193c-.126.4-.609 1.95-.609 1.95l-2.9-.269.609-1.95a1.974 1.974 0 0 1 1.926-1.388 1.188 1.188 0 0 1 .974 1.657zm-.643-.04a.667.667 0 0 0-.548-.929 1.11 1.11 0 0 0-1.081.779.666.666 0 0 0 .548.929 1.107 1.107 0 0 0 1.08-.779z" class="cls-13" data-name="Path 9557" transform="translate(-568.597 -277.531)"/>
                    </g>
                </g>
                <path id="Path_9558" d="M584.442 293.059c1.364.284 5 1.369 5.382 1.549a16.1 16.1 0 0 1 2.318 1.714c1.368 1.373.668 2.012 1.208 3.874a1.086 1.086 0 0 1 .033.295c0 .194-.262.361-.526.18-.143.24-.565.092-.77-.17 0 .186-.256.3-.675.071-.226-.125-.186-.113-.708-.58a5.5 5.5 0 0 0-1.479-.9 10.751 10.751 0 0 1-1.444-.66c-.552-.363-1.537-.45-2.023-2.026a1.571 1.571 0 0 0-.759-.758l-2.223-1.394" class="cls-10" data-name="Path 9558" transform="translate(-567.29 -258.185)"/>
                <path id="Path_9559" d="M598.632 265.761c-.578 2.063-2.984 16.356-2.984 16.356l13.553 9.816-1.128 2.964s-16.217-5.445-17.494-9.167-1.218-20.535 3.286-26.433a10.276 10.276 0 0 1 4.306-2.825" class="cls-9" data-name="Path 9559" transform="translate(-589.862 -256.472)"/>
            </g>
            <path id="Path_9563" d="M588.536 244.46c.531-.311.938-.639 1.284-.13.183.27.294.642.607.735a.627.627 0 0 0 .711-.5 1.822 1.822 0 0 0-.117-.956l-.639-2.06a3.1 3.1 0 0 1-.15-2.063 2.269 2.269 0 0 1 .65-.833 6.885 6.885 0 0 1 3.163-1.353 33.6 33.6 0 0 0 3.4-.7 3.686 3.686 0 0 0 1.3-.652 2.8 2.8 0 0 0 .919-2.1 4.325 4.325 0 0 0-.665-2.233 3.721 3.721 0 0 1-.339.775 2.88 2.88 0 0 0-.621-.972c-.331 1.844-8.1 1.228-9.91 2.042-1.258.563-2.3.932-2.26 2.97a.746.746 0 0 1-.246.324 5.67 5.67 0 0 0-1.737 4.118c-.172 2.263 1.146 4.712 2.437 6.577a4.2 4.2 0 0 0 .959 1.147 2.545 2.545 0 0 0 1.8.408c.56-.107 1.663-.059 1.674-.629.008-.408-.865-1.135-1.106-1.464" class="cls-15" data-name="Path 9563" transform="translate(-574.613 -231.419)"/>
            <path id="Path_9564" d="M596.044 247.2a.712.712 0 0 1-1.065.807 2.454 2.454 0 0 1-1.55-1.9c-.183-.979.343-1.957 1.238-1.7a1.321 1.321 0 0 1 .845 1.288" class="cls-10" data-name="Path 9564" transform="translate(-580.088 -232.025)"/>
            <path id="Path_9565" d="M588.362 250.5l-2.492.459a3.474 3.474 0 0 0 2.524.931" class="cls-3" data-name="Path 9565" transform="translate(-565.25 -232.312)"/>
        </g>
        <g class="cls-27" transform="translate(170 126.25)">
            <path id="Path_9825-2" d="M135.692 0L6.2 14.449C3.256 14.8 0 17.1 0 22.639v87.493c0 2.974 1.973 6.091 4.947 6.091L135.692 126a5.385 5.385 0 0 0 5.385-5.385V5.385A5.385 5.385 0 0 0 135.692 0z" class="cls-16" data-name="Path 9825" transform="translate(67.62 33.75)"/>
        </g>
        <g id="Group_2208" data-name="Group 2208" transform="translate(229 167.471)">
            <g class="cls-26" transform="translate(-59 -41.22)">
                <path id="Path_9826-2" d="M5.342 5.135A5.67 5.67 0 0 0 0 10.851v70.384c0 2.974 2.728 6.259 5.661 6.259l66.444 5.1s76.283 5.632 76.318 5.6l-.084-108.475-76.227 8.214z" class="cls-17" data-name="Path 9826" transform="translate(59 51.51)"/>
            </g>
            <path id="Path_9619" d="M403.76 221.852l-22.294.764V221l22.294-.83z" class="cls-18" data-name="Path 9619" transform="translate(-359.911 -177.819)"/>
            <path id="Path_9620" d="M403.76 224.632l-22.294.647v-1.618l22.294-.713z" class="cls-18" data-name="Path 9620" transform="translate(-359.911 -177.605)"/>
            <path id="Path_9621" d="M402.858 227.688l-9.666.23V226.3l9.666-.258z" class="cls-18" data-name="Path 9621" transform="translate(-371.637 -177.367)"/>
            <path id="Path_9609" d="M406.748 211.048l-53.389 2.977c-.65.037-1.176-.642-1.176-1.514V201.53a1.572 1.572 0 0 1 1.176-1.678l53.389-4.419a1.465 1.465 0 0 1 1.435 1.629v12.156a1.728 1.728 0 0 1-1.435 1.83z" class="cls-19" data-name="Path 9609" transform="translate(-339.197 -179.722)"/>
            <path id="Path_9610" d="M406.748 230.167l-53.389 1.074c-.65.013-1.176-.683-1.176-1.555V218.7a1.5 1.5 0 0 1 1.176-1.635l53.389-2.517a1.528 1.528 0 0 1 1.435 1.681v12.155a1.656 1.656 0 0 1-1.435 1.783z" class="cls-19" data-name="Path 9610" transform="translate(-339.197 -178.251)"/>
            <path id="Path_9612" d="M406.748 249.286l-53.389-.828c-.65-.01-1.176-.725-1.176-1.6V235.88c0-.872.526-1.585 1.176-1.593l53.389-.615a1.6 1.6 0 0 1 1.435 1.733v12.155a1.586 1.586 0 0 1-1.435 1.726z" class="cls-19" data-name="Path 9612" transform="translate(-339.197 -176.78)"/>
            <path id="Path_9614" d="M406.748 268.5l-53.389-2.73a1.513 1.513 0 0 1-1.176-1.64v-10.98c0-.872.526-1.567 1.176-1.551l53.389 1.287a1.664 1.664 0 0 1 1.435 1.783v12.155a1.52 1.52 0 0 1-1.435 1.676z" class="cls-19" data-name="Path 9614" transform="translate(-339.197 -175.401)"/>
            <path id="Path_9631" d="M402.588 240.213l-22.634-.009v-2.182l22.634-.081z" class="cls-18" data-name="Path 9631" transform="translate(-357.11 -176.452)"/>
            <path id="Path_9632" d="M402.046 243.912l-15.036-.112v-2.182l15.036.053z" class="cls-18" data-name="Path 9632" transform="translate(-364.166 -176.169)"/>
            <path id="Path_9633" d="M385.618 243.951l-3.907-.03v-2.248l3.907.014z" class="cls-18" data-name="Path 9633" transform="translate(-342.032 -176.164)"/>
            <path id="Path_9634" d="M402.588 204.225l-22.634 1.527v-2.182l22.634-1.618z" class="cls-18" data-name="Path 9634" transform="translate(-357.11 -179.22)"/>
            <path id="Path_9635" d="M401.918 208.5l-13.248.8v-2.182l13.248-.853z" class="cls-18" data-name="Path 9635" transform="translate(-365.826 -178.888)"/>
            <path id="Path_9636" d="M388.07 207.571l-14.837.9v-2.242l14.837-.955z" class="cls-18" data-name="Path 9636" transform="translate(-335.353 -178.965)"/>
            <path id="Path_9637" d="M401.6 258l-8.82-.306v-2.182l8.82.271z" class="cls-18" data-name="Path 9637" transform="translate(-369.938 -175.1)"/>
            <path id="Path_9638" d="M391.884 258.349l-9.163-.319v-2.223l9.163.282z" class="cls-18" data-name="Path 9638" transform="translate(-349.385 -175.077)"/>
            <path id="Path_9639" d="M402.046 261.92l-15.036-.629v-2.182l15.036.569z" class="cls-18" data-name="Path 9639" transform="translate(-364.166 -174.823)"/>
            <path id="Path_9640" d="M386.463 262.608l-15.744-.658v-2.25l15.744.6z" class="cls-18" data-name="Path 9640" transform="translate(-331.041 -174.778)"/>
        </g>
        <ellipse id="Ellipse_442" cx="38.317" cy="38.317" class="cls-20" data-name="Ellipse 442" rx="38.317" ry="38.317" transform="rotate(-67.67 326.19 -98.122)"/>
        <ellipse id="Ellipse_443" cx="38.317" cy="34.347" class="cls-21" data-name="Ellipse 443" rx="38.317" ry="34.347" transform="rotate(-19.017 732.668 -780.311)"/>
        <ellipse id="Ellipse_444" cx="29.687" cy="26.611" class="cls-22" data-name="Ellipse 444" rx="29.687" ry="26.611" transform="rotate(-19.016 751.476 -809.991)"/>
        <ellipse id="Ellipse_445" cx="28.824" cy="25.838" class="cls-23" data-name="Ellipse 445" rx="28.824" ry="25.838" transform="rotate(-19.017 757.773 -813.54)"/>
        <path id="Path_10830" d="M341.891 286.99l1.446 4.2-4.538 1.564-1.394-4.044a21.449 21.449 0 0 1-10.552.423l.555-6.364a17.663 17.663 0 0 0 9.631-.4c3.1-1.068 4.008-2.353 3.566-3.639-1.446-4.2-15.435 4.052-18.822-5.776-1.434-4.159.341-8.7 6.2-11.571l-1.433-4.156 4.537-1.565 1.407 4.081a19.436 19.436 0 0 1 8.441-.414l-.39 6.352a16.533 16.533 0 0 0-8.037.487c-3.137 1.082-3.906 2.53-3.451 3.853 1.394 4.043 15.358-4.151 18.72 5.6 1.383 4-.289 8.466-5.886 11.369z" class="cls-24" data-name="Path 10830" transform="translate(7.223 -57.739)"/>
        <path id="Path_10831" d="M341.39 285.538l1.446 4.2-4.536 1.562-1.394-4.044a21.449 21.449 0 0 1-10.552.423l.554-6.364a17.654 17.654 0 0 0 9.631-.4c3.1-1.068 4.01-2.352 3.567-3.638-1.446-4.2-15.435 4.052-18.823-5.776-1.433-4.159.342-8.7 6.2-11.571l-1.432-4.157 4.536-1.564 1.413 4.075a19.444 19.444 0 0 1 8.442-.414l-.392 6.352a16.515 16.515 0 0 0-8.035.487c-3.138 1.08-3.907 2.53-3.451 3.852 1.393 4.044 15.358-4.151 18.719 5.6 1.377 4.007-.297 8.474-5.893 11.377z" class="cls-25" data-name="Path 10831" transform="translate(7.104 -58.088)"/>
    </g>
</svg>
