<svg xmlns="http://www.w3.org/2000/svg" xmlns:xlink="http://www.w3.org/1999/xlink" width="237.996" height="233.904" viewBox="0 0 237.996 233.904">
    <defs>
        <style>
            .cls-1{fill:url(#linear-gradient)}.cls-2{fill:url(#linear-gradient-2)}.cls-11,.cls-12,.cls-3{fill:none}.cls-3{stroke:#2f2e41}.cls-3,.cls-7{stroke-miterlimit:10}.cls-11,.cls-12,.cls-3,.cls-7{stroke-width:2px}.cls-4{fill:#2f2e41}.cls-5{opacity:.7;fill:url(#linear-gradient-3)}.cls-6{fill:url(#linear-gradient-4)}.cls-7{fill:#4f2da7;stroke:#4f2da7}.cls-8{opacity:.2}.cls-9{fill:url(#linear-gradient-5)}.cls-10{fill:url(#linear-gradient-6)}.cls-11,.cls-12{stroke:#aacffc;stroke-linecap:round}.cls-12{stroke:#9fbefb}.cls-13{fill:url(#linear-gradient-7)}.cls-14{fill:url(#linear-gradient-15)}.cls-15{fill:url(#linear-gradient-16)}.cls-16{fill:url(#linear-gradient-17)}.cls-17{fill:url(#linear-gradient-18)}.cls-18{fill:#e59974}.cls-19{fill:url(#linear-gradient-19)}.cls-20{fill:url(#linear-gradient-20)}.cls-21{fill:#180728}.cls-22{fill:url(#linear-gradient-21)}.cls-23{filter:url(#features)}.cls-24{filter:url(#Path_10523)}.cls-25{filter:url(#Path_10583)}.cls-26{filter:url(#Path_9411)}
        </style>
        <linearGradient id="linear-gradient" x1=".5" x2=".5" y2="1" gradientUnits="objectBoundingBox">
            <stop offset="0" stop-color="#3f3d56"/>
            <stop offset="1" stop-color="#0d0c11"/>
        </linearGradient>
        <filter id="Path_9411" width="168.348" height="188.129" x="0" y="11.902" filterUnits="userSpaceOnUse">
            <feOffset dy="10"/>
            <feGaussianBlur result="blur" stdDeviation="10"/>
            <feFlood flood-opacity=".502"/>
            <feComposite in2="blur" operator="in"/>
            <feComposite in="SourceGraphic"/>
        </filter>
        <linearGradient id="linear-gradient-2" x1=".431" x2=".5" y1=".015" y2="1" gradientUnits="objectBoundingBox">
            <stop offset="0" stop-color="#0fe"/>
            <stop offset="1" stop-color="#4a3ad9"/>
        </linearGradient>
        <linearGradient id="linear-gradient-3" x1=".025" x2=".537" y1=".098" y2=".413" gradientUnits="objectBoundingBox">
            <stop offset="0" stop-color="#fff"/>
            <stop offset="1" stop-color="#9cfcff" stop-opacity="0"/>
        </linearGradient>
        <filter id="Path_10583" width="229.023" height="233.904" x="8.973" y="0" filterUnits="userSpaceOnUse">
            <feOffset dy="5"/>
            <feGaussianBlur result="blur-2" stdDeviation="15"/>
            <feFlood flood-color="#fff" flood-opacity=".8"/>
            <feComposite in2="blur-2" operator="in"/>
            <feComposite in="SourceGraphic"/>
        </filter>
        <linearGradient id="linear-gradient-4" x1=".237" x2=".748" y1=".035" y2=".912" gradientUnits="objectBoundingBox">
            <stop offset="0" stop-color="#fff"/>
            <stop offset="1" stop-color="#9cfcff"/>
        </linearGradient>
        <filter id="Path_10523" width="195.322" height="200.768" x="21.716" y="8.766" filterUnits="userSpaceOnUse">
            <feOffset dy="5"/>
            <feGaussianBlur result="blur-3" stdDeviation="15"/>
            <feFlood flood-color="#fff" flood-opacity=".8"/>
            <feComposite in2="blur-3" operator="in"/>
            <feComposite in="SourceGraphic"/>
        </filter>
        <linearGradient id="linear-gradient-5" x1=".224" x2=".733" y1=".105" y2="1" gradientUnits="objectBoundingBox">
            <stop offset="0" stop-color="#be95ff"/>
            <stop offset="1" stop-color="#6353f4"/>
        </linearGradient>
        <linearGradient id="linear-gradient-6" x1=".596" x2=".5" y1=".03" y2="1" gradientUnits="objectBoundingBox">
            <stop offset="0" stop-color="#fff"/>
            <stop offset="1" stop-color="#9669f6"/>
        </linearGradient>
        <filter id="features" width="40.97" height="41.936" x="91.412" y="66.633" filterUnits="userSpaceOnUse">
            <feOffset dy="3"/>
            <feGaussianBlur result="blur-4" stdDeviation="3"/>
            <feFlood flood-opacity=".161"/>
            <feComposite in2="blur-4" operator="in"/>
            <feComposite in="SourceGraphic"/>
        </filter>
        <linearGradient id="linear-gradient-7" x1=".5" x2=".5" y2="1" gradientUnits="objectBoundingBox">
            <stop offset="0" stop-color="#35e7c1"/>
            <stop offset="1" stop-color="#6353f4"/>
        </linearGradient>
        <linearGradient id="linear-gradient-15" x2="1.591" y1=".152" y2="1.969" gradientUnits="objectBoundingBox">
            <stop offset="0" stop-color="#fff"/>
            <stop offset="1" stop-color="#cbabff"/>
        </linearGradient>
        <linearGradient id="linear-gradient-16" x1="-2.056" x2=".5" y1=".073" y2="1" gradientUnits="objectBoundingBox">
            <stop offset="0" stop-color="#c5cfd6"/>
            <stop offset="1" stop-color="#63686b"/>
        </linearGradient>
        <linearGradient id="linear-gradient-17" x1="-1.949" y1=".053" xlink:href="#linear-gradient-16"/>
        <linearGradient id="linear-gradient-18" x1="-1.721" xlink:href="#linear-gradient-16"/>
        <linearGradient id="linear-gradient-19" x1=".5" x2="1.726" y2="1.19" gradientUnits="objectBoundingBox">
            <stop offset="0" stop-color="#ee95ff"/>
            <stop offset="1" stop-color="#f0a"/>
        </linearGradient>
        <linearGradient id="linear-gradient-20" x1=".5" x2=".5" y2="1" gradientUnits="objectBoundingBox">
            <stop offset="0" stop-color="#ef89f8"/>
            <stop offset="1" stop-color="#d168e5"/>
        </linearGradient>
        <linearGradient id="linear-gradient-21" x1=".5" x2=".5" y2="1" gradientUnits="objectBoundingBox">
            <stop offset="0" stop-color="#ee92fd"/>
            <stop offset="1" stop-color="#d167e5"/>
        </linearGradient>
    </defs>
    <g id="ill_features" transform="translate(-1.484 -16.992)">
        <g id="phone" transform="translate(0 .158)">
            <g class="cls-26" transform="translate(1.48 16.83)">
                <path id="Path_9411-2" d="M286.569 308.257l-39.132 8.1a7.58 7.58 0 0 0-5.2 3.986 7.763 7.763 0 0 0-.212 6.607l44.611 103.168a9.9 9.9 0 0 0 12.019 5.588l45.088-14.069a8.537 8.537 0 0 0 5.351-4.941 8.713 8.713 0 0 0-.351-7.328l-50.3-95.859a11.191 11.191 0 0 0-11.874-5.252z" class="cls-1" data-name="Path 9411" transform="translate(-211.39 -276.12)"/>
            </g>
            <path id="Path_9412" d="M254.435 320.105l6.434-1.286c.89 1.872 3.072 3.55 5.091 3.183l23.081-4.865a1.631 1.631 0 0 0 1.114-.783 1.672 1.672 0 0 0 .145-1.366l-.632-1.923 6.4-1.28a6.317 6.317 0 0 1 6.8 3.238l52.09 97.144a6.484 6.484 0 0 1 .3 5.488 6.354 6.354 0 0 1-4.011 3.7l-44.393 13.685a7.918 7.918 0 0 1-9.565-4.4l-46.177-104.01a4.743 4.743 0 0 1 .108-4.074 4.632 4.632 0 0 1 3.215-2.451z" class="cls-2" data-name="Path 9412" transform="translate(-216.949 -262.029)"/>
            <path id="Line_37" d="M9.507 0L0 1.976" class="cls-3" data-name="Line 37" transform="translate(55.664 53.783)"/>
            <ellipse id="Ellipse_232" cx=".975" cy=".865" class="cls-4" data-name="Ellipse 232" rx=".975" ry=".865" transform="translate(52.252 55.266)"/>
            <g class="cls-25" transform="translate(1.48 16.83)">
                <path id="Path_10583-2" d="M53.664.525L8.719 11.222c-2.8.482-6.12 1.883-7.434 4.023A7.455 7.455 0 0 0 .649 22.4l56.716 110.524c2.532 4.875 8.264 7.487 14.292 5.928l55.1-17.717A10.148 10.148 0 0 0 133.44 116a7.716 7.716 0 0 0-.441-7.625L68.292 3.887C65.211-.4 59.48-.477 53.664.525z" class="cls-5" data-name="Path 10583" transform="translate(58.83 40)"/>
            </g>
            <g class="cls-24" transform="translate(1.48 16.83)">
                <path id="Path_10523-2" d="M41.146.406L5.674 8.905A7.059 7.059 0 0 0 .795 12.1a5.411 5.411 0 0 0-.2 5.294l43.339 84.98a9.154 9.154 0 0 0 10.729 4.567L96.021 93.3a7.647 7.647 0 0 0 5.017-3.957 6.076 6.076 0 0 0-.332-5.872L52.126 3C49.813-.3 45.511-.365 41.146.406z" class="cls-6" data-name="Path 10523" transform="translate(70.46 48.76)"/>
            </g>
            <path id="Path_9417" d="M496.186 424.427c-3.607-9.525-13.567-14.983-21.563-12.411-7.329 2.357-10.34 10.723-7.26 18.857s11.462 13.952 19.293 12.919c8.544-1.127 13.137-9.84 9.53-19.365z" class="cls-7" data-name="Path 9417" transform="translate(-370.306 -324.577)"/>
            <path id="Path_9418" d="M496.186 424.427c-3.607-9.525-13.567-14.983-21.563-12.411-7.329 2.357-10.34 10.723-7.26 18.857s11.462 13.952 19.293 12.919c8.544-1.127 13.137-9.84 9.53-19.365z" class="cls-8" data-name="Path 9418" transform="translate(-370.306 -324.577)"/>
            <path id="Path_9419" d="M501.186 419.427c-3.607-9.525-13.567-14.983-21.563-12.411-7.329 2.357-10.34 10.723-7.26 18.857s11.462 13.952 19.293 12.919c8.544-1.128 13.137-9.84 9.53-19.365z" class="cls-9" data-name="Path 9419" transform="translate(-373.727 -321.167)"/>
            <g class="cls-23" transform="translate(1.48 16.83)">
                <path id="features-2" d="M7.614 18.8a.874.874 0 0 1-.653-.294.834.834 0 0 1-.195-.666l.751-5.874-6.672.025A.832.832 0 0 1 .08 11.5a.853.853 0 0 1 .12-.909L8.718.312A.83.83 0 0 1 9.36 0a.875.875 0 0 1 .653.294.834.834 0 0 1 .2.666l-.755 5.873 6.671-.025a.833.833 0 0 1 .771.492.853.853 0 0 1-.12.91L8.257 18.484a.831.831 0 0 1-.643.316zm.543-15.155l-5.494 6.629 5.821-.022a.84.84 0 0 1 .635.287.853.853 0 0 1 .2.67l-.5 3.943 5.494-6.629-5.823.022a.839.839 0 0 1-.634-.286.853.853 0 0 1-.2-.67z" class="cls-10" data-name="features" transform="rotate(-23 245.705 -207.06)"/>
            </g>
            <path id="Line_213" d="M0 9l33.5-9" class="cls-11" data-name="Line 213" transform="translate(113.417 134.028)"/>
            <path id="Line_214" d="M0 9l33.5-9" class="cls-12" data-name="Line 214" transform="translate(116.958 140.931)"/>
            <path id="Line_216" d="M0 8l29.5-8" class="cls-12" data-name="Line 216" transform="translate(128.279 146.585)"/>
        </g>
        <g id="plant" transform="translate(197.484 109.895)">
            <g id="Succulents" transform="translate(3.279)">
                <path id="Thi_Succs_" d="M.1.053c2.224 5.294 6.012 8.973 8.018 14.478a31.262 31.262 0 0 1 1.716 10.45c.016 1.975-.018 3.951-.027 5.925-.009 1.926-.061 3.839-.225 5.753s-.348 3.824-.429 5.76a15.886 15.886 0 0 1-.6 4.638c-.406 1.094-1.44 1.254-1.714-.073a10.606 10.606 0 0 1-.116-2.319c.022-.972.078-1.944.107-2.916.116-3.9-.034-7.8.044-11.708.077-3.814.567-7.623.025-11.411A26.612 26.612 0 0 0 4 10.24 46.709 46.709 0 0 1 .523 2.526 13.581 13.581 0 0 1 0 .008Q.059-.02.1.053z" class="cls-13" data-name="Thi Succs!" transform="translate(.757)"/>
                <path id="Thi_Succs_2" d="M.246.156A4.243 4.243 0 0 1 1.232 1.4c.371.572.807 1.088 1.178 1.66.773 1.193 1.452 2.459 2.157 3.7a24.232 24.232 0 0 1 2.857 7.592 81.721 81.721 0 0 1 .876 8.606c.232 3.038.466 6.1.5 9.148a32.677 32.677 0 0 1-.076 4.174c-.1.845-.483 1.565-1.343 1.558-1.825-.015-2.681-2.038-3.04-3.695a31.135 31.135 0 0 1-.549-7.532c.1-3.011.623-5.976.85-8.976a21.88 21.88 0 0 0-.987-9.284C3.1 6.841 2.463 5.366 1.888 3.866a14.5 14.5 0 0 0-.776-1.89A18.143 18.143 0 0 1 0 0z" class="cls-13" data-name="Thi Succs!" transform="translate(0 10.342)"/>
                <path id="Thi_Succs_3" d="M4.373.131L4.541 0a16.69 16.69 0 0 1-.675 1.852 15.112 15.112 0 0 0-.436 1.8c-.316 1.433-.682 2.834-.981 4.279a28.338 28.338 0 0 0-.092 9.113c.366 3 .946 5.99 1.222 8.986a41.256 41.256 0 0 1 .109 7.419c-.148 1.61-.635 3.533-1.96 3.37-.628-.076-.95-.827-1.081-1.675C.436 33.782.392 32.35.31 31c-.183-3.026-.22-6.039-.256-9.031-.034-2.822-.129-5.7.06-8.452a25.9 25.9 0 0 1 1.564-7.254C2.107 5.1 2.515 3.91 3 2.8c.231-.532.513-1 .744-1.533A3.279 3.279 0 0 1 4.373.131z" class="cls-13" data-name="Thi Succs!" transform="translate(16.901 4.036)"/>
                <path id="Thi_Succs_4" d="M.053.076c.241-.405.773.931.854 1.1L.8.925a11.123 11.123 0 0 1 1.19 2.54c.27.9.5 1.827.754 2.738.478 1.708 1.091 3.368 1.521 5.097a16.573 16.573 0 0 1 .423 5.07 43.308 43.308 0 0 0-.047 5.445 15.858 15.858 0 0 0 .531 2.5c.192.831.344 1.673.571 2.493.052-.107.059.25.059.278a1.723 1.723 0 0 1-.1.571 1.538 1.538 0 0 1-.969 1.062c-.872.249-1.681-.544-1.963-1.381a22.919 22.919 0 0 1-.818-3.793 17.88 17.88 0 0 1-.166-3.5c.1-2.315.522-4.6.635-6.915a33.418 33.418 0 0 0-.794-7.341A21.436 21.436 0 0 0 .847 2.3a9.778 9.778 0 0 0-.583-1.275C.141.785-.109.358.053.076z" class="cls-13" data-name="Thi Succs!" transform="translate(.757 19.171)"/>
                <path id="Thi_Succs_5" d="M2.586 9c-.1 2.887-.272 5.752-.657 8.609-.393 2.915-.844 5.82-1.222 8.738A59.1 59.1 0 0 0 0 34.958c.038 2.121-.314 5.71 2.042 6.756 2.386 1.06 2.9-3.467 3.054-4.962a55.968 55.968 0 0 0 .057-8.647c-.15-2.959-.4-5.9-.709-8.85a255.71 255.71 0 0 1-.83-9.847 56.53 56.53 0 0 1-.1-4.87A12.169 12.169 0 0 0 2.94 0l-.085.062" class="cls-13" data-name="Thi Succs!" transform="translate(5.297 6.306)"/>
                <path id="Thi_Succs_6" d="M3.048 1.5c-.429.625-.862 1.244-1.267 1.906A10.053 10.053 0 0 0 .2 7.6a82.356 82.356 0 0 0 0 11.027 5.769 5.769 0 0 0 .216 2.181c.267.644.766 1.135 1.241 1.133 1.018-.006.863-2.5.864-3.6 0-1.923-.213-3.865-.194-5.787a40.177 40.177 0 0 1 .41-5.62 32.378 32.378 0 0 1 1.231-5.216c.075-.228.613-1.986.1-1.683" class="cls-13" data-name="Thi Succs!" transform="translate(17.153 22.955)"/>
                <path id="Thi_Succs_7" d="M3.6 0c-.669 0-.665 3.336-.685 3.765-.073 1.546-.056 3.093-.1 4.64a84.111 84.111 0 0 1-.731 10.117c-.273 1.8-.589 3.584-.93 5.367S.35 27.462.125 29.272a37.7 37.7 0 0 0-.064 5.264A46.08 46.08 0 0 0 .374 39.8c.057.431.124.859.195 1.287a10.205 10.205 0 0 0 .125 1.138 1.154 1.154 0 0 0 1.318.635c1.259-.23 2.064-1.811 2.494-2.967a27.774 27.774 0 0 0 1.129-4.63 40.469 40.469 0 0 0 .607-5.343A89.907 89.907 0 0 0 5.929 19c-.145-2.02-.313-4.032-.57-6.04s-.584-3.99-.8-5.995a116.558 116.558 0 0 1-.408-4.379C4.13 2.235 4.109 0 3.6 0" class="cls-13" data-name="Thi Succs!" transform="translate(12.108 5.55)"/>
                <path id="Thi_Succs_8" d="M6.8 29.8c-.113-3.5-1.521-18.888-1.842-23.124C4.878 5.616 4.107 1.2 4.007 0c-.271.34-.248 5.628-.245 6.843s-.146 2.384-.223 3.579c-.078 1.22-1.881 16.973-2.115 18.145C.958 30.9.647 33.291.406 35.675a30.944 30.944 0 0 0-.285 7.111 7.14 7.14 0 0 0 .371 1.561c.2.534.338 1.027.5 1.586a3.225 3.225 0 0 0 1.447 2.061c1.476.762 2.268-.962 2.669-2.463a40.164 40.164 0 0 0 1.246-7.35A77.905 77.905 0 0 0 6.8 29.8" class="cls-13" data-name="Thi Succs!" transform="translate(8.072)"/>
            </g>
            <g id="Planter" transform="translate(0 39.973)">
                <rect id="Vase" width="22.955" height="22.955" class="cls-14" rx="2" transform="translate(2.523)"/>
                <rect id="Leg" width="2.523" height="28.504" class="cls-15" rx="1.261" transform="translate(0 2.523)"/>
                <rect id="Leg-2" width="2.523" height="28.504" class="cls-16" data-name="Leg" rx="1.261" transform="translate(12.613 2.523)"/>
                <rect id="Leg-3" width="2.523" height="28.504" class="cls-17" data-name="Leg" rx="1.261" transform="translate(25.477 2.523)"/>
            </g>
        </g>
        <g id="woman" transform="translate(.081)">
            <ellipse id="Ellipse_237" cx="8.971" cy="9.091" class="cls-4" data-name="Ellipse 237" rx="8.971" ry="9.091" transform="translate(158.117 46.863)"/>
            <path id="Path_9420" d="M719.8 693.052l1.706 7.411h-4.146l-1.706-8.4z" class="cls-18" data-name="Path 9420" transform="translate(-543.193 -523.869)"/>
            <path id="Path_9421" d="M637.8 696.064v6.917l-4.144.494v-7.411z" class="cls-18" data-name="Path 9421" transform="translate(-480.861 -526.88)"/>
            <path id="Path_9422" d="M827.622 450.705s-.488 10.622-.975 11.363-4.875 11.363-4.875 11.363l-2.194-6.917s3.413-5.682 2.925-8.893a37.4 37.4 0 0 1-.18-7.163z" class="cls-18" data-name="Path 9422" transform="translate(-649.684 -359.698)"/>
            <ellipse id="Ellipse_238" cx="6.326" cy="6.917" class="cls-18" data-name="Ellipse 238" rx="6.326" ry="6.917" transform="translate(158.309 51.791)"/>
            <path id="Path_9423" d="M792.865 322.456s-.244 9.881 1.463 11.363-9.751.247-9.751.247 2.438-6.917.488-8.4 7.8-3.21 7.8-3.21z" class="cls-18" data-name="Path 9423" transform="translate(-623.138 -263.135)"/>
            <path id="Path_9424" d="M736.307 359.878s1.463-2.717 3.413-2.47 8.288.741 8.532 1.235a14.825 14.825 0 0 0 1.463 2.717c.488.494 4.144 1.235 4.388 4.2s-8.776 21-8.776 21 1.219 4.2.975 5.188 1.219 3.952.975 5.188 3.657 8.646 1.706 18.28v15.563s6.582 26.926 4.632 28.9-8.532.741-9.751 0-6.338-38.043-6.338-38.043l-2.438-12.6-.244 27.667s.488 23.221-1.219 23.962-8.288.988-8.776-.494c-.38-1.156-2.243-31.914-3.045-45.4a51.029 51.029 0 0 1 1.073-13.877c1.015-4.663 2.487-10.142 4.165-12.366 3.169-4.2 5.119-17.539 5.119-17.539l-4.144-7.658s2.438-2.47 3.9-2.47a19.863 19.863 0 0 0 4.39-.983z" class="cls-19" data-name="Path 9424" transform="translate(-575.791 -290.012)"/>
            <path id="Path_9425" d="M833.821 383.456l1.286.887s.908 15.911.177 16.9-5.816.506-6.2-.365 4.737-17.422 4.737-17.422z" class="cls-20" data-name="Path 9425" transform="translate(-656.972 -309.149)"/>
            <path id="Path_9426" d="M21.942 1.4c.74 5 1.389 9.456-2.252 13.465A67.85 67.85 0 0 1 7.381 25.577C6.938 26.772.388 35.531.036 32.023s1.912-6.246 5.134-9.2 7.719-9.362 10.257-12.88S16.9 4.222 16.8 1.273s4.137.155 5.142.127z" class="cls-18" data-name="Path 9426" transform="rotate(35.02 -50.644 258.553)"/>
            <path id="Path_9427" d="M737.925 781.255s-.244 2.767-.975 3.508-2.682 1.729-2.438 4.447 1.828 2.841 1.828 2.841l-.122-.618.731.247.122.371h6.829a22.57 22.57 0 0 0-.122-3.829c-.244-1.235-.244-7.164-.975-6.917s-2.681.494-3.169 1.482-1.953.642-1.709-1.532z" class="cls-21" data-name="Path 9427" transform="translate(-585.123 -609.157)"/>
            <path id="Path_9428" d="M831.955 781.255s.244 2.767.975 3.508 2.681 1.729 2.438 4.447-1.828 2.841-1.828 2.841l.122-.618-.731.247-.122.371h-6.826a22.572 22.572 0 0 1 .122-3.829c.244-1.235.244-7.164.975-6.917s2.681.494 3.169 1.482 1.951.642 1.706-1.532z" class="cls-21" data-name="Path 9428" transform="translate(-654.52 -609.157)"/>
            <path id="Path_9429" d="M741.365 378.456l-3.413.741s0 5.435-.975 7.658-2.682 7.411-1.95 7.658 7.557 3.705 8.044 1.729 1.707-17.786-1.706-17.786z" class="cls-22" data-name="Path 9429" transform="translate(-585.393 -305.377)"/>
            <ellipse id="Ellipse_239" cx="8.971" cy="9.091" class="cls-4" data-name="Ellipse 239" rx="8.971" ry="9.091" transform="translate(167.675 34.894)"/>
            <path id="Path_9430" d="M836.51 264.415a8.874 8.874 0 0 1-8.143 1.239 9.039 9.039 0 0 1-5.71-6.012 9.067 9.067 0 0 0 5.878 7.425 8.884 8.884 0 0 0 9.192-1.958 9.173 9.173 0 0 0 2.43-9.195 9.141 9.141 0 0 1-3.647 8.501z" class="cls-4" data-name="Path 9430" transform="translate(-652.126 -212.903)"/>
            <ellipse id="Ellipse_240" cx="6.579" cy="6.667" class="cls-4" data-name="Ellipse 240" rx="6.579" ry="6.667" transform="translate(162.888 50.802)"/>
            <ellipse id="Ellipse_241" cx="5.831" cy="4.621" class="cls-4" data-name="Ellipse 241" rx="5.831" ry="4.621" transform="translate(158.172 50.348)"/>
            <ellipse id="Ellipse_242" cx="1.107" cy="1.984" class="cls-18" data-name="Ellipse 242" rx="1.107" ry="1.984" transform="translate(161.372 57.72)"/>
        </g>
    </g>
</svg>
