<svg xmlns="http://www.w3.org/2000/svg" width="68" height="148" viewBox="0 0 68 148">
    <defs>
        <style>
            .cls-1{fill:#2f2e41}.cls-2{fill:#e59974}.cls-3{fill:url(#linear-gradient)}.cls-4{fill:url(#linear-gradient-2)}.cls-5{fill:#180728}.cls-6{fill:url(#linear-gradient-3)}
        </style>
        <linearGradient id="linear-gradient" x1=".5" x2="1.726" y2="1.19" gradientUnits="objectBoundingBox">
            <stop offset="0" stop-color="#ee95ff"/>
            <stop offset="1" stop-color="#f0a"/>
        </linearGradient>
        <linearGradient id="linear-gradient-2" x1=".5" x2=".5" y2="1" gradientUnits="objectBoundingBox">
            <stop offset="0" stop-color="#ef89f8"/>
            <stop offset="1" stop-color="#d168e5"/>
        </linearGradient>
        <linearGradient id="linear-gradient-3" x1=".5" x2=".5" y2="1" gradientUnits="objectBoundingBox">
            <stop offset="0" stop-color="#ee92fd"/>
            <stop offset="1" stop-color="#d167e5"/>
        </linearGradient>
    </defs>
    <g id="woman" transform="translate(-120.403 -34.895)">
        <ellipse id="Ellipse_237" cx="8.971" cy="9.091" class="cls-1" data-name="Ellipse 237" rx="8.971" ry="9.091" transform="translate(158.117 46.863)"/>
        <path id="Path_9420" d="M719.8 693.052l1.706 7.411h-4.146l-1.706-8.4z" class="cls-2" data-name="Path 9420" transform="translate(-543.193 -523.869)"/>
        <path id="Path_9421" d="M637.8 696.064v6.917l-4.144.494v-7.411z" class="cls-2" data-name="Path 9421" transform="translate(-480.861 -526.88)"/>
        <path id="Path_9422" d="M827.622 450.705s-.488 10.622-.975 11.363-4.875 11.363-4.875 11.363l-2.194-6.917s3.413-5.682 2.925-8.893a37.4 37.4 0 0 1-.18-7.163z" class="cls-2" data-name="Path 9422" transform="translate(-649.684 -359.698)"/>
        <ellipse id="Ellipse_238" cx="6.326" cy="6.917" class="cls-2" data-name="Ellipse 238" rx="6.326" ry="6.917" transform="translate(158.309 51.791)"/>
        <path id="Path_9423" d="M792.865 322.456s-.244 9.881 1.463 11.363-9.751.247-9.751.247 2.438-6.917.488-8.4 7.8-3.21 7.8-3.21z" class="cls-2" data-name="Path 9423" transform="translate(-623.138 -263.135)"/>
        <path id="Path_9424" d="M736.307 359.878s1.463-2.717 3.413-2.47 8.288.741 8.532 1.235a14.825 14.825 0 0 0 1.463 2.717c.488.494 4.144 1.235 4.388 4.2s-8.776 21-8.776 21 1.219 4.2.975 5.188 1.219 3.952.975 5.188 3.657 8.646 1.706 18.28v15.563s6.582 26.926 4.632 28.9-8.532.741-9.751 0-6.338-38.043-6.338-38.043l-2.438-12.6-.244 27.667s.488 23.221-1.219 23.962-8.288.988-8.776-.494c-.38-1.156-2.243-31.914-3.045-45.4a51.029 51.029 0 0 1 1.073-13.877c1.015-4.663 2.487-10.142 4.165-12.366 3.169-4.2 5.119-17.539 5.119-17.539l-4.144-7.658s2.438-2.47 3.9-2.47a19.863 19.863 0 0 0 4.39-.983z" class="cls-3" data-name="Path 9424" transform="translate(-575.791 -290.012)"/>
        <path id="Path_9425" d="M833.821 383.456l1.286.887s.908 15.911.177 16.9-5.816.506-6.2-.365 4.737-17.422 4.737-17.422z" class="cls-4" data-name="Path 9425" transform="translate(-656.972 -309.149)"/>
        <path id="Path_9426" d="M21.942 1.4c.74 5 1.389 9.456-2.252 13.465A67.85 67.85 0 0 1 7.381 25.577C6.938 26.772.388 35.531.036 32.023s1.912-6.246 5.134-9.2 7.719-9.362 10.257-12.88S16.9 4.222 16.8 1.273s4.137.155 5.142.127z" class="cls-2" data-name="Path 9426" transform="rotate(35.02 -50.644 258.553)"/>
        <path id="Path_9427" d="M737.925 781.255s-.244 2.767-.975 3.508-2.682 1.729-2.438 4.447 1.828 2.841 1.828 2.841l-.122-.618.731.247.122.371h6.829a22.57 22.57 0 0 0-.122-3.829c-.244-1.235-.244-7.164-.975-6.917s-2.681.494-3.169 1.482-1.953.642-1.709-1.532z" class="cls-5" data-name="Path 9427" transform="translate(-585.123 -609.157)"/>
        <path id="Path_9428" d="M831.955 781.255s.244 2.767.975 3.508 2.681 1.729 2.438 4.447-1.828 2.841-1.828 2.841l.122-.618-.731.247-.122.371h-6.826a22.572 22.572 0 0 1 .122-3.829c.244-1.235.244-7.164.975-6.917s2.681.494 3.169 1.482 1.951.642 1.706-1.532z" class="cls-5" data-name="Path 9428" transform="translate(-654.52 -609.157)"/>
        <path id="Path_9429" d="M741.365 378.456l-3.413.741s0 5.435-.975 7.658-2.682 7.411-1.95 7.658 7.557 3.705 8.044 1.729 1.707-17.786-1.706-17.786z" class="cls-6" data-name="Path 9429" transform="translate(-585.393 -305.377)"/>
        <ellipse id="Ellipse_239" cx="8.971" cy="9.091" class="cls-1" data-name="Ellipse 239" rx="8.971" ry="9.091" transform="translate(167.675 34.894)"/>
        <path id="Path_9430" d="M836.51 264.415a8.874 8.874 0 0 1-8.143 1.239 9.039 9.039 0 0 1-5.71-6.012 9.067 9.067 0 0 0 5.878 7.425 8.884 8.884 0 0 0 9.192-1.958 9.173 9.173 0 0 0 2.43-9.195 9.141 9.141 0 0 1-3.647 8.501z" class="cls-1" data-name="Path 9430" transform="translate(-652.126 -212.903)"/>
        <ellipse id="Ellipse_240" cx="6.579" cy="6.667" class="cls-1" data-name="Ellipse 240" rx="6.579" ry="6.667" transform="translate(162.888 50.802)"/>
        <ellipse id="Ellipse_241" cx="5.831" cy="4.621" class="cls-1" data-name="Ellipse 241" rx="5.831" ry="4.621" transform="translate(158.172 50.348)"/>
        <ellipse id="Ellipse_242" cx="1.107" cy="1.984" class="cls-2" data-name="Ellipse 242" rx="1.107" ry="1.984" transform="translate(161.372 57.72)"/>
    </g>
</svg>
