<svg xmlns="http://www.w3.org/2000/svg" id="ic_calendar" width="34" height="34" viewBox="0 0 34 34">
    <defs>
        <style>
            .cls-1{fill:#fff}
        </style>
    </defs>
    <g id="Group_2652" data-name="Group 2652" transform="translate(24.039 20.055)">
        <g id="Group_2651" data-name="Group 2651">
            <path id="Path_10182" d="M366.98 305.984h-2.988V303a1 1 0 0 0-1.992 0v3.984a1 1 0 0 0 1 1h3.984a1 1 0 0 0 0-1.992z" class="cls-1" data-name="Path 10182" transform="translate(-362 -302)"/>
        </g>
    </g>
    <g id="Group_2654" data-name="Group 2654" transform="translate(3.984 18.063)">
        <g id="Group_2653" data-name="Group 2653">
            <path id="Path_10183" d="M64.98 272H61a1 1 0 0 0 0 1.992h3.98a1 1 0 0 0 0-1.992z" class="cls-1" data-name="Path 10183" transform="translate(-60 -272)"/>
        </g>
    </g>
    <g id="Group_2656" data-name="Group 2656" transform="translate(3.984 24.039)">
        <g id="Group_2655" data-name="Group 2655">
            <path id="Path_10184" d="M64.98 362H61a1 1 0 0 0 0 1.992h3.98a1 1 0 0 0 0-1.992z" class="cls-1" data-name="Path 10184" transform="translate(-60 -362)"/>
        </g>
    </g>
    <g id="Group_2658" data-name="Group 2658">
        <g id="Group_2657" data-name="Group 2657">
            <path id="Path_10185" d="M31.012 3.984h-1v-1a2.988 2.988 0 1 0-5.977 0v1h-3.98v-1a2.988 2.988 0 1 0-5.977 0v1H9.961v-1a2.988 2.988 0 1 0-5.977 0v1h-1A2.992 2.992 0 0 0 0 6.973V29.02a2.992 2.992 0 0 0 2.988 2.988h16.419A8.96 8.96 0 0 0 34 25.035V6.973a2.992 2.992 0 0 0-2.988-2.989zm-4.98-1a1 1 0 1 1 1.992 0v3.989a1 1 0 0 1-1.992 0zM16.07 4.981V2.988a1 1 0 1 1 1.992 0v3.985a1 1 0 0 1-1.992 0zM5.977 2.988a1 1 0 1 1 1.992 0v3.985a1 1 0 0 1-1.992 0zm19.059 29.02a6.973 6.973 0 1 1 6.973-6.973 6.981 6.981 0 0 1-6.974 6.973zm6.973-12.6a8.951 8.951 0 0 0-12.655-1.3 1 1 0 0 0-.294-.044h-3.986a.993.993 0 1 0 0 1.986h2.511a8.936 8.936 0 0 0-1.459 3.991h-1.052a1 1 0 0 0 0 1.992h1.052a8.909 8.909 0 0 0 1.459 3.984H2.988a1 1 0 0 1-1-1V14.078h30.02zm0-7.321H1.992V6.973a1 1 0 0 1 1-1h1v1a2.988 2.988 0 0 0 5.977 0v-1h4.117v1a2.988 2.988 0 1 0 5.977 0v-1h3.984v1a2.988 2.988 0 0 0 5.977 0v-1h1a1 1 0 0 1 1 1z" class="cls-1" data-name="Path 10185"/>
        </g>
    </g>
</svg>
