<svg xmlns="http://www.w3.org/2000/svg" width="22" height="22" viewBox="0 0 22 22">
    <defs>
        <style>
            .cls-1{fill:none;opacity:0}.cls-2{fill:#717b83}
        </style>
    </defs>
    <g id="ic_pricing" transform="translate(-241 -554)">
        <path id="border" d="M0 0h22v22H0z" class="cls-1" transform="translate(241 554)"/>
        <g id="ic_pricing-2" data-name="ic_pricing" transform="translate(44 16)">
            <path id="Union_25" d="M14.546 20H5.455A5.461 5.461 0 0 1 0 14.546V5.455A5.461 5.461 0 0 1 5.455 0h9.091A5.461 5.461 0 0 1 20 5.455v9.091A5.46 5.46 0 0 1 14.546 20zM5.455 1.818a3.641 3.641 0 0 0-3.637 3.637v9.091a3.641 3.641 0 0 0 3.637 3.636h9.091a3.64 3.64 0 0 0 3.636-3.636V5.455a3.641 3.641 0 0 0-3.636-3.637z" class="cls-2" data-name="Union 25" transform="translate(198 539)"/>
            <g id="dollar-symbol" transform="translate(88.348 543)">
                <path id="Path_10872" d="M121.262 5.451a13.709 13.709 0 0 0-1.416-.664 3.15 3.15 0 0 1-.777-.451.711.711 0 0 1 .167-1.247 1.323 1.323 0 0 1 .476-.1 3.5 3.5 0 0 1 1.789.367c.282.141.375.1.471-.208.1-.322.184-.649.277-.974a.343.343 0 0 0-.213-.454 4.429 4.429 0 0 0-1.129-.349c-.512-.082-.512-.084-.514-.617 0-.751 0-.751-.729-.751h-.316c-.34.01-.4.072-.407.426v.478c0 .471 0 .463-.44.627a2.5 2.5 0 0 0-1.772 2.33 2.4 2.4 0 0 0 1.3 2.283 14.165 14.165 0 0 0 1.629.758 2.4 2.4 0 0 1 .593.362.856.856 0 0 1-.194 1.477 1.888 1.888 0 0 1-1.045.141 4.545 4.545 0 0 1-1.593-.493c-.294-.159-.38-.116-.481.213-.086.285-.163.573-.239.86-.1.387-.065.478.292.659a4.95 4.95 0 0 0 1.435.426c.387.064.4.082.4.5v.568c0 .238.112.377.349.382h.806a.313.313 0 0 0 .332-.359c0-.258.012-.518 0-.776a.407.407 0 0 1 .342-.466 2.686 2.686 0 0 0 .593-4.942z" class="cls-2" data-name="Path 10872"/>
            </g>
        </g>
    </g>
</svg>
