<svg xmlns="http://www.w3.org/2000/svg" width="22" height="22" viewBox="0 0 22 22">
    <defs>
        <style>
            .cls-1{fill:none;opacity:0}.cls-2{fill:#717b83}.cls-3{fill:#9a7bfb}
        </style>
    </defs>
    <g id="ic_smartphone" transform="translate(-25 -554)">
        <path id="border" d="M0 0h22v22H0z" class="cls-1" transform="translate(25 554)"/>
        <g id="ic_smartphone-2" data-name="ic_smartphone" transform="translate(-14 6)">
            <path id="Path_10155" d="M0 0h12.5v4H0z" class="cls-2" data-name="Path 10155" transform="translate(44 564)"/>
            <path id="Rectangle-path" d="M11.818 20H2.727A2.73 2.73 0 0 1 0 17.273V2.727A2.73 2.73 0 0 1 2.727 0h9.091a2.731 2.731 0 0 1 2.728 2.727v14.546A2.731 2.731 0 0 1 11.818 20zM2.727 1.818a.91.91 0 0 0-.909.909v14.546a.91.91 0 0 0 .909.909h9.091a.91.91 0 0 0 .91-.909V2.727a.91.91 0 0 0-.91-.909z" class="cls-2" transform="translate(43 549)"/>
            <path id="Path_10154" d="M1.25 0A1.25 1.25 0 1 1 0 1.25 1.25 1.25 0 0 1 1.25 0z" class="cls-3" data-name="Path 10154" transform="translate(49 565)"/>
        </g>
    </g>
</svg>
