<svg xmlns="http://www.w3.org/2000/svg" width="46.999" height="132" viewBox="0 0 46.999 132">
    <defs>
        <style>
            .cls-1{fill:#ffca55}.cls-2{fill:#eea886}.cls-3{fill:#eddad3}.cls-4{fill:#2f4563}.cls-5{fill:#3b3b40}.cls-6{fill:#c2b2ad}.cls-7{fill:#02137f}.cls-8{fill:#292c47}.cls-9{fill:#eb4747}.cls-10{fill:url(#linear-gradient)}.cls-11{fill:#dbcac3}.cls-12{fill:#b38761}.cls-13{fill:#151624}.cls-14{fill:#eea987}.cls-15{fill:#a87860}.cls-16{fill:url(#linear-gradient-2)}.cls-17{fill:url(#linear-gradient-3)}.cls-18{fill:#fdb541}.cls-19{fill:url(#linear-gradient-4)}.cls-20{fill:#fdb942}.cls-21{fill:url(#linear-gradient-5)}
        </style>
        <linearGradient id="linear-gradient" x1=".403" x2=".412" y1=".395" y2="1.097" gradientUnits="objectBoundingBox">
            <stop offset="0" stop-color="#fed475"/>
            <stop offset="1" stop-color="#fa742b"/>
        </linearGradient>
        <linearGradient id="linear-gradient-2" x1=".5" x2=".5" y2="1" gradientUnits="objectBoundingBox">
            <stop offset="0" stop-color="#02137f"/>
            <stop offset="1" stop-color="#071828"/>
        </linearGradient>
        <linearGradient id="linear-gradient-3" x1=".133" x2=".838" y1=".167" y2="1.628" gradientUnits="objectBoundingBox">
            <stop offset="0" stop-color="#ffea53"/>
            <stop offset="1" stop-color="#fa742b"/>
        </linearGradient>
        <linearGradient id="linear-gradient-4" x1=".515" x2=".5" y1=".174" y2="1" gradientUnits="objectBoundingBox">
            <stop offset="0" stop-color="#eb4747"/>
            <stop offset="1" stop-color="#d21d00"/>
        </linearGradient>
        <linearGradient id="linear-gradient-5" x1=".5" x2=".5" y2="1" gradientUnits="objectBoundingBox">
            <stop offset="0" stop-color="#ffe985"/>
            <stop offset="1" stop-color="#fa742b"/>
        </linearGradient>
    </defs>
    <g id="woman" transform="translate(-.025 .001)">
        <g id="Group_2404" data-name="Group 2404" transform="translate(2.475 121.539)">
            <g id="Group_2403" data-name="Group 2403">
                <g id="Group_2402" data-name="Group 2402">
                    <g id="Group_2401" data-name="Group 2401">
                        <path id="Path_9900" d="M485.2 425.282s-.749 1.981-1.791 2.452-3.4 2.646-4.352 2.8-3.231 3.8 1.351 3.173a33.938 33.938 0 0 0 8.909-2.729s.925-4.608-.564-6.884-3.553 1.188-3.553 1.188z" class="cls-1" data-name="Path 9900" transform="translate(-477.643 -423.321)"/>
                    </g>
                </g>
            </g>
        </g>
        <g id="Group_2407" data-name="Group 2407" transform="translate(9.939 120.658)">
            <g id="Group_2406" data-name="Group 2406">
                <g id="Group_2405" data-name="Group 2405">
                    <path id="Path_9901" d="M475.55 425.015l.858-2.842h3.272v3.03s-4.951 1.846-4.13-.188z" class="cls-2" data-name="Path 9901" transform="translate(-475.458 -422.173)"/>
                </g>
            </g>
        </g>
        <g id="Group_2411" data-name="Group 2411" transform="translate(14.997 21.176)">
            <g id="Group_2410" data-name="Group 2410">
                <g id="Group_2409" data-name="Group 2409">
                    <g id="Group_2408" data-name="Group 2408">
                        <path id="Path_9902" d="M472.716 292.605l-2.947 4.611-2.721 4.256c.006-.022.188-.667.495-2.533.059-.355.121-.753.189-1.2a3.152 3.152 0 0 1 .085-.393c1.165-2.664 4.764-4.674 4.9-4.741z" class="cls-3" data-name="Path 9902" transform="translate(-467.048 -292.605)"/>
                    </g>
                </g>
            </g>
        </g>
        <g id="Group_2414" data-name="Group 2414" transform="translate(15.492 21.176)">
            <g id="Group_2413" data-name="Group 2413">
                <g id="Group_2412" data-name="Group 2412">
                    <path id="Path_9903" d="M467.339 297.316a6.007 6.007 0 0 0-.286 1.624l1.066-1.6s1.9-2.71 2.555-3.414a10.83 10.83 0 0 1 1.548-1.322s-3.745 1.789-4.883 4.712z" class="cls-1" data-name="Path 9903" transform="translate(-467.053 -292.606)"/>
                </g>
            </g>
        </g>
        <g id="Group_2417" data-name="Group 2417" transform="translate(15.204 38.698)">
            <g id="Group_2416" data-name="Group 2416">
                <g id="Group_2415" data-name="Group 2415">
                    <path id="Path_9904" d="M474.105 315.544a2.635 2.635 0 0 1-.012-.118.311.311 0 0 1 .005.033c.002.019.002.048.007.085z" class="cls-4" data-name="Path 9904" transform="translate(-474.094 -315.426)"/>
                </g>
            </g>
        </g>
        <g id="Group_2503" data-name="Group 2503" transform="translate(9.555)">
            <g id="Group_2420" data-name="Group 2420" transform="translate(5.276)">
                <g id="Group_2419" data-name="Group 2419">
                    <g id="Group_2418" data-name="Group 2418">
                        <path id="Path_9905" d="M462.674 265.057s4.454-.148 5.876 3.477a10.637 10.637 0 0 1-.056 7.723c-1.059 3.449-1.147 4.7-.634 6.781.454 1.845.872 2.8 1.4 4.521s-.35 1.533-.426 1.658-17.044 3.756-17.044 3.756.538-4.313 1.662-6.011c.824-1.248 2.059-1.671 1.129-5.368s-1.52-5.411-1-8.091c.6-3.1.984-5.046 3.925-7.082a7.951 7.951 0 0 1 5.168-1.364z" class="cls-5" data-name="Path 9905" transform="translate(-451.786 -265.025)"/>
                    </g>
                </g>
            </g>
            <g id="Group_2427" data-name="Group 2427" transform="translate(6.022 19.235)">
                <g id="Group_2426" data-name="Group 2426">
                    <g id="Group_2425" data-name="Group 2425">
                        <path id="Path_9908" d="M471.637 290.078s-4.965 3.552-6.619 12.025c0 0 4.659-9.06 6.178-10.675a1.51 1.51 0 0 0 .441-1.35z" class="cls-1" data-name="Path 9908" transform="translate(-465.018 -290.078)"/>
                    </g>
                </g>
            </g>
            <g id="Group_2430" data-name="Group 2430" transform="translate(5.613 69.438)">
                <g id="Group_2429" data-name="Group 2429">
                    <g id="Group_2428" data-name="Group 2428">
                        <path id="Path_9909" d="M466.734 366.68s-14.171-1.535-22.835 3.4 8.1-14.62 8.1-14.62 14.541 5.687 14.735 11.22z" class="cls-6" data-name="Path 9909" transform="translate(-441.413 -355.463)"/>
                    </g>
                </g>
            </g>
            <g id="Group_2434" data-name="Group 2434" transform="translate(25.443 116.53)">
                <g id="Group_2433" data-name="Group 2433">
                    <g id="Group_2432" data-name="Group 2432">
                        <g id="Group_2431" data-name="Group 2431">
                            <path id="Path_9910" d="M437.609 424.961s-2.769 3.228.269 3.654 5.3-3.654 5.3-3.654 1.85-2.588 1.635-3.358c-.245-.9-2.089-4.33-2.047-4.748s-2.564 1.557-2.564 1.557a8.355 8.355 0 0 1-.832 2.677 35.857 35.857 0 0 0-1.761 3.872z" class="cls-7" data-name="Path 9910" transform="translate(-436.454 -416.798)"/>
                        </g>
                    </g>
                </g>
            </g>
            <g id="Group_2437" data-name="Group 2437" transform="translate(28.401 114.215)">
                <g id="Group_2436" data-name="Group 2436">
                    <g id="Group_2435" data-name="Group 2435">
                        <path id="Path_9911" d="M440.342 416.235a5.372 5.372 0 0 1 .793 1.477c.138.545 1.34.761 2.3-.422a1.892 1.892 0 0 0 .259-1.135 10.2 10.2 0 0 0-.854-2.373z" class="cls-2" data-name="Path 9911" transform="translate(-440.342 -413.782)"/>
                    </g>
                </g>
            </g>
            <g id="Group_2441" data-name="Group 2441" transform="translate(0 54.775)">
                <g id="Group_2440" data-name="Group 2440">
                    <g id="Group_2439" data-name="Group 2439">
                        <g id="Group_2438" data-name="Group 2438">
                            <path id="Path_9912" d="M475.324 351.544c-.172.82-1.264 4.25-2.489 8.06l-1.067 3.318c-.772 2.4-1.506 4.707-2.009 6.365-.275.9-.48 1.614-.587 2.047-.705 2.864.087 7.356.343 11.111s-3.82 22.225-3.82 22.225c-.961.445-5.227-.733-5.227-.733.705-1.336 1.653-24.331 1.268-25.794a22.062 22.062 0 0 1-.256-7.127 6.215 6.215 0 0 0 .126-1.277c.033-2.008-.384-5.328-.638-8.969-.322-4.581 1.473-15.973 1.73-16.991.022-.094.061-.225.107-.386.473-1.6 1.994-6.134 1.994-6.134a15.212 15.212 0 0 1 7.137-.725 5.3 5.3 0 0 1 4.187 3.566c1.507 4.144-.577 10.381-.799 11.444z" class="cls-8" data-name="Path 9912" transform="translate(-460.468 -336.365)"/>
                        </g>
                    </g>
                </g>
            </g>
            <g id="Group_2445" data-name="Group 2445" transform="translate(11.3 51.608)">
                <g id="Group_2444" data-name="Group 2444">
                    <g id="Group_2443" data-name="Group 2443">
                        <g id="Group_2442" data-name="Group 2442">
                            <path id="Path_9913" d="M460.624 396.721l-4.209 1.774c-.53-2.545-12.286-20.225-13.059-22.2a28.638 28.638 0 0 1-1.6-7.191c0-.25-.019-.672-.054-1.219-.136-2.123-.528-6.125-1.09-9.24a28.36 28.36 0 0 0-.331-1.632c-.62-2.686-.728-11.865-.735-17.263 0-2.4.013-4.056.013-4.056s.053-.042.155-.117c1.169-.878 8.666-6.232 11.28-1.228a14.925 14.925 0 0 1 1.415 4.221c.838 4.536 1.462 10.341.786 15-.578 3.982-1.834 8.486-2.687 12.587-.466 2.237-.879 4.656-.355 5.559 1.474 2.546 2.916 4.7 5.9 13.683.966 2.919 4.571 11.322 4.571 11.322z" class="cls-8" data-name="Path 9913" transform="translate(-439.546 -332.241)"/>
                        </g>
                    </g>
                </g>
            </g>
            <g id="Group_2453" data-name="Group 2453" transform="translate(11.969 13.221)">
                <g id="Group_2452" data-name="Group 2452">
                    <g id="Group_2451" data-name="Group 2451">
                        <g id="Group_2450" data-name="Group 2450">
                            <path id="Path_9915" d="M463.5 289.308s-.145-5.979.369-6.941-6.211 4-6.211 4 .024.235.033.4v.086a6.378 6.378 0 0 1-.042 1.122l-.021.194a7.221 7.221 0 0 1-.627 2.313c-.731 1.542 6.499-1.174 6.499-1.174z" class="cls-2" data-name="Path 9915" transform="translate(-456.956 -282.244)"/>
                        </g>
                    </g>
                </g>
            </g>
            <g id="Group_2456" data-name="Group 2456" transform="translate(9.828 19.717)">
                <g id="Group_2455" data-name="Group 2455">
                    <g id="Group_2454" data-name="Group 2454">
                        <path id="Path_9916" d="M457.887 291.528s-3.411 5.206-2.256 5.66 7.4-.607 10.057-5.55c0 0-3.971-2.022-7.801-.11z" class="cls-2" data-name="Path 9916" transform="translate(-455.392 -290.706)"/>
                    </g>
                </g>
            </g>
            <g id="Group_2459" data-name="Group 2459" transform="translate(18.54 21.039)">
                <g id="Group_2458" data-name="Group 2458">
                    <g id="Group_2457" data-name="Group 2457">
                        <path id="Path_9917" d="M449.532 301.027a41.619 41.619 0 0 1 5.7-1.638s-1.013-7.68-5.5-6.908-.2 8.546-.2 8.546z" class="cls-3" data-name="Path 9917" transform="translate(-447.684 -292.427)"/>
                    </g>
                </g>
            </g>
            <g id="Group_2462" data-name="Group 2462" transform="translate(9.469 18.867)">
                <g id="Group_2461" data-name="Group 2461">
                    <g id="Group_2460" data-name="Group 2460">
                        <path id="Path_9918" d="M456.667 290.333s.262.987 5.911-.735l.266 1.272a14.917 14.917 0 0 1 2.785.938s-10.185 9.528-11.723 5.639 2.373-6.131 2.373-6.131z" class="cls-9" data-name="Path 9918" transform="translate(-453.547 -289.598)"/>
                    </g>
                </g>
            </g>
            <g id="Group_2465" data-name="Group 2465" transform="translate(4.499 20.585)">
                <g id="Group_2464" data-name="Group 2464">
                    <g id="Group_2463" data-name="Group 2463">
                        <path id="Path_9919" d="M473.339 291.836l-7.7 9.457a17.817 17.817 0 0 1 1.438-2.532c.343-.531.705-1.072 1.066-1.6a30.323 30.323 0 0 1 2.926-3.8 9.4 9.4 0 0 1 1.177-.934 6.26 6.26 0 0 1 1.09-.59z" class="cls-9" data-name="Path 9919" transform="translate(-465.638 -291.836)"/>
                    </g>
                </g>
            </g>
            <g id="Group_2468" data-name="Group 2468" transform="translate(3.91 20.585)">
                <g id="Group_2467" data-name="Group 2467">
                    <g id="Group_2466" data-name="Group 2466">
                        <path id="Path_9920" d="M467.377 309.948c-.5-1.519-1.831-5.009-1.734-6.489a6.567 6.567 0 0 1 .584-2.166 18.5 18.5 0 0 1 1.438-2.617c.343-.531.963-1.427 1.324-1.953a22.658 22.658 0 0 1 2.668-3.378 9.713 9.713 0 0 1 1.181-.961 5.188 5.188 0 0 1 1.09-.547s-8.114 7.271-6.551 18.111z" class="cls-1" data-name="Path 9920" transform="translate(-465.638 -291.836)"/>
                    </g>
                </g>
            </g>
            <g id="Group_2471" data-name="Group 2471" transform="translate(21.478 52.892)">
                <g id="Group_2470" data-name="Group 2470">
                    <g id="Group_2469" data-name="Group 2469">
                        <path id="Path_9921" d="M449.848 333.913a4.07 4.07 0 0 1-.9 1.022c-.343.169-.737.968-.737.968l2.2 1.6a6.407 6.407 0 0 1 1.812-2.48c1.007-.588-2.375-1.11-2.375-1.11z" class="cls-2" data-name="Path 9921" transform="translate(-448.21 -333.913)"/>
                    </g>
                </g>
            </g>
            <g id="Group_2475" data-name="Group 2475" transform="translate(19.596 21.795)">
                <g id="Group_2474" data-name="Group 2474">
                    <g id="Group_2473" data-name="Group 2473">
                        <g id="Group_2472" data-name="Group 2472">
                            <path id="Path_9922" d="M445.283 297.251s-1.8-5.135-5.533-3.53c-3.589 1.543 1.249 7.809 1.681 8.578s4.489 6.946 4.9 7.779c1.292 2.633.858 3.939.42 5.2a30.247 30.247 0 0 1-5.052 8.877c-.7.683 2.161 3.136 3.292 2.366 1.506-1.025 4.205-6.36 4.946-7.573.906-1.486 3.2-4.16 1.574-8.806-1.094-3.127-6.228-12.891-6.228-12.891z" class="cls-10" data-name="Path 9922" transform="translate(-438.434 -293.411)"/>
                        </g>
                    </g>
                </g>
            </g>
            <g id="Group_2478" data-name="Group 2478" transform="translate(19.514 53.311)">
                <g id="Group_2477" data-name="Group 2477">
                    <g id="Group_2476" data-name="Group 2476">
                        <path id="Path_9923" d="M449.663 334.459l4.725 3.765s-3.706 5.53-5.483 3.206.758-6.971.758-6.971z" class="cls-11" data-name="Path 9923" transform="translate(-448.273 -334.459)"/>
                    </g>
                </g>
            </g>
            <g id="Group_2483" data-name="Group 2483" transform="translate(20.875 27.948)">
                <g id="Group_2482" data-name="Group 2482">
                    <g id="Group_2481" data-name="Group 2481">
                        <path id="Path_9925" d="M452.375 311.183c-2.134-2.485-3.389-9.757-3.389-9.757a22.094 22.094 0 0 0 4.2 6.642c-.255 1.017-.538 2.065-.811 3.115z" class="cls-12" data-name="Path 9925" transform="translate(-448.985 -301.425)"/>
                    </g>
                </g>
            </g>
            <g id="Group_2486" data-name="Group 2486" transform="translate(9.288 67.427)">
                <g id="Group_2485" data-name="Group 2485">
                    <g id="Group_2484" data-name="Group 2484">
                        <path id="Path_9926" d="M468.5 363.431l-1.067 3.318a75.945 75.945 0 0 1-2.012-13.906c.521 4.088 3.079 10.588 3.079 10.588z" class="cls-13" data-name="Path 9926" transform="translate(-465.422 -352.844)"/>
                    </g>
                </g>
            </g>
            <g id="Group_2494" data-name="Group 2494" transform="translate(9.056 1.534)">
                <g id="Group_2493" data-name="Group 2493">
                    <g id="Group_2492" data-name="Group 2492">
                        <path id="Path_9929" d="M459.016 267.841s-4.912 3.184-3.316 10.883 7.4 3.464 8.028 3.028 2.577-5.254 2.653-7.355c.071-1.979 1.111-9.912-7.365-6.556z" class="cls-14" data-name="Path 9929" transform="translate(-455.381 -267.023)"/>
                    </g>
                </g>
            </g>
            <g id="Group_2497" data-name="Group 2497" transform="translate(8.278 .817)">
                <g id="Group_2496" data-name="Group 2496">
                    <g id="Group_2495" data-name="Group 2495">
                        <path id="Path_9930" d="M459.566 269.17c.513-.151 2.242 3.168 3.172 3.986a8.54 8.54 0 0 1 2.81 5.127c.168 2.252 2.082-4.921 1.42-7.584s-1.547-6.565-7.534-3.47-4.44 8.631-4.44 8.631 1.983-5.932 4.572-6.69z" class="cls-5" data-name="Path 9930" transform="translate(-454.815 -266.089)"/>
                    </g>
                </g>
            </g>
            <g id="Group_2500" data-name="Group 2500" transform="translate(17.064 8.153)">
                <g id="Group_2499" data-name="Group 2499">
                    <g id="Group_2498" data-name="Group 2498">
                        <path id="Path_9931" d="M456.53 276.7c.159-.911 2.182-1.681 2.153-.313s-1.147 2.948-1.779 2.848-.521-1.694-.374-2.535z" class="cls-14" data-name="Path 9931" transform="translate(-456.416 -275.644)"/>
                    </g>
                </g>
            </g>
            <g id="Group_2502" data-name="Group 2502" transform="translate(12.67 16.262)">
                <g id="Group_2501" data-name="Group 2501">
                    <path id="Path_9932" d="M458.91 288.9h.01a5.119 5.119 0 0 0 4.723-2.7 6.2 6.2 0 0 1-4.694 1.488v.086a6.392 6.392 0 0 1-.039 1.126z" class="cls-15" data-name="Path 9932" transform="translate(-458.91 -286.206)"/>
                </g>
            </g>
        </g>
        <g id="Group_2599" data-name="Group 2599" transform="translate(.024)">
            <g id="Group_2517" data-name="Group 2517" transform="translate(14.807)">
                <g id="Group_2516" data-name="Group 2516">
                    <g id="Group_2515" data-name="Group 2515">
                        <path id="Path_9938" d="M457.787 292.974s5.484-1.172 10.227-2.209c.086-1.512.232-3.02.438-4.475a34.748 34.748 0 0 1 .955-4.659c.154-.54.323-1.057.5-1.547a13.955 13.955 0 0 0 .8-3.615c.029-.3.046-.6.06-.9a19.9 19.9 0 0 0-.05-2.312 27.021 27.021 0 0 0-1.452-6.673c-.1-.283-.193-.531-.272-.738-.193-.507-.322-.791-.322-.791a7.967 7.967 0 0 0-5.17 1.364c-2.942 2.038-3.323 3.977-3.926 7.081-.52 2.681.07 4.4 1 8.093s-.3 4.12-1.127 5.368c-1.124 1.7-1.661 6.013-1.661 6.013z" class="cls-5" data-name="Path 9938" transform="translate(-457.787 -265.025)"/>
                    </g>
                </g>
            </g>
            <g id="Group_2520" data-name="Group 2520" transform="rotate(-150 12.71 36.195)">
                <g id="Group_2519" data-name="Group 2519">
                    <g id="Group_2518" data-name="Group 2518">
                        <path id="Path_9939" d="M.967 2.692S.3 1.051.047.676.581-.513 1.067.461s.784 1.6.784 1.6z" class="cls-2" data-name="Path 9939"/>
                    </g>
                </g>
            </g>
            <g id="Group_2523" data-name="Group 2523" transform="rotate(-150 13.024 36.8)">
                <g id="Group_2522" data-name="Group 2522">
                    <g id="Group_2521" data-name="Group 2521">
                        <path id="Path_9940" d="M2.309 8.831L.039 1.76A.825.825 0 0 1 .666.7L4.117.015a.816.816 0 0 1 .956.61l1.72 7.262a.825.825 0 0 1-.666 1l-2.9.5a.815.815 0 0 1-.918-.556z" class="cls-16" data-name="Path 9940"/>
                    </g>
                </g>
            </g>
            <g id="Group_2526" data-name="Group 2526" transform="rotate(-150 12.905 34.704)">
                <g id="Group_2525" data-name="Group 2525">
                    <g id="Group_2524" data-name="Group 2524">
                        <path id="Path_9941" d="M.037 4.524s-.288-.612.722-1.641C2.1 1.516 3.984-.064 4.427 0c.639.095.512.6-.392 1.313l-1.2.946A9.183 9.183 0 0 1 5.309 1.4c.538.074.765.616.468.827a9.045 9.045 0 0 1-1.052.552s.863-.279 1.075.032c.155.229.318.578-.434 1.023 0 0 .768.4.088 1.09a1.99 1.99 0 0 0-.666 2 6.184 6.184 0 0 1-.472 2.307L1.7 8.949A16.4 16.4 0 0 0 .891 6.07a29.35 29.35 0 0 1-.854-1.546z" class="cls-2" data-name="Path 9941"/>
                    </g>
                </g>
            </g>
            <g id="Group_2528" data-name="Group 2528" transform="translate(6.017 21.507)">
                <g id="Group_2527" data-name="Group 2527">
                    <path id="Path_9942" d="M9.141 20.307c-1.2 1.782-1.923 7.392-1.947 7.4 0-.033-3.442 14.623-3.44 14.658C3.789 42.4 0 40.543 0 40.543s2.627-12.976 2.624-12.979 1.52-7.053 1.476-7.081 2.491-10.048 2.491-10.048a32.036 32.036 0 0 1 2.554-6.806A9.541 9.541 0 0 1 13.834 0c6.316 2.815-3.526 13.361-3.526 13.361s-.595 6.132-1.167 6.946z" class="cls-17" data-name="Path 9942" transform="rotate(2 .74 42.244)"/>
                </g>
            </g>
            <g id="Group_2531" data-name="Group 2531" transform="translate(15.553 19.235)">
                <g id="Group_2530" data-name="Group 2530">
                    <g id="Group_2529" data-name="Group 2529">
                        <path id="Path_9943" d="M471.637 290.078s-4.965 3.552-6.619 12.025c0 0 4.659-9.06 6.178-10.675a1.51 1.51 0 0 0 .441-1.35z" class="cls-18" data-name="Path 9943" transform="translate(-465.018 -290.078)"/>
                    </g>
                </g>
            </g>
            <g id="Group_2534" data-name="Group 2534" transform="translate(14.441 33.43)">
                <g id="Group_2533" data-name="Group 2533">
                    <g id="Group_2532" data-name="Group 2532">
                        <path id="Path_9944" d="M467.582 308.565s.065 19.657 0 24.191 5.786-10.894 5.786-10.894-3.12-9.618-5.786-13.297z" class="cls-18" data-name="Path 9944" transform="translate(-467.582 -308.565)"/>
                    </g>
                </g>
            </g>
            <g id="Group_2537" data-name="Group 2537" transform="translate(15.144 69.436)">
                <g id="Group_2536" data-name="Group 2536">
                    <g id="Group_2535" data-name="Group 2535">
                        <path id="Path_9945" d="M460.173 370.083a29.01 29.01 0 0 1 10.177-3.138 41.834 41.834 0 0 1 0-3.115c.082-1.9.093-4.493.043-7.463-1.28-.576-2.119-.906-2.119-.906s-16.764 19.561-8.101 14.622z" class="cls-6" data-name="Path 9945" transform="translate(-457.688 -355.461)"/>
                    </g>
                </g>
            </g>
            <g id="Group_2541" data-name="Group 2541" transform="translate(2.451 121.539)">
                <g id="Group_2540" data-name="Group 2540">
                    <g id="Group_2539" data-name="Group 2539">
                        <g id="Group_2538" data-name="Group 2538">
                            <path id="Path_9946" d="M485.2 425.282s-.749 1.981-1.791 2.452-3.4 2.646-4.352 2.8-3.231 3.8 1.351 3.173a33.938 33.938 0 0 0 8.909-2.729s.925-4.608-.564-6.884-3.553 1.188-3.553 1.188z" class="cls-7" data-name="Path 9946" transform="translate(-477.643 -423.321)"/>
                        </g>
                    </g>
                </g>
            </g>
            <g id="Group_2544" data-name="Group 2544" transform="translate(9.915 120.658)">
                <g id="Group_2543" data-name="Group 2543">
                    <g id="Group_2542" data-name="Group 2542">
                        <path id="Path_9947" d="M475.55 425.015l.858-2.842h3.272v3.03s-4.951 1.846-4.13-.188z" class="cls-2" data-name="Path 9947" transform="translate(-475.458 -422.173)"/>
                    </g>
                </g>
            </g>
            <g id="Group_2548" data-name="Group 2548" transform="translate(9.531 54.775)">
                <g id="Group_2547" data-name="Group 2547">
                    <g id="Group_2546" data-name="Group 2546">
                        <g id="Group_2545" data-name="Group 2545">
                            <path id="Path_9948" d="M475.324 351.544c-.172.82-1.264 4.25-2.489 8.06l-1.067 3.318c-.772 2.4-1.506 4.707-2.009 6.365-.275.9-.48 1.614-.587 2.047-.705 2.864.087 7.356.343 11.111s-3.82 22.225-3.82 22.225c-.961.445-5.227-.733-5.227-.733.705-1.336 1.653-24.331 1.268-25.794a22.062 22.062 0 0 1-.256-7.127 6.215 6.215 0 0 0 .126-1.277c.033-2.008-.384-5.328-.638-8.969-.322-4.581 1.473-15.973 1.73-16.991.022-.094.061-.225.107-.386.473-1.6 1.994-6.134 1.994-6.134a15.212 15.212 0 0 1 7.137-.725 5.3 5.3 0 0 1 4.187 3.566c1.507 4.144-.577 10.381-.799 11.444z" class="cls-8" data-name="Path 9948" transform="translate(-460.468 -336.365)"/>
                        </g>
                    </g>
                </g>
            </g>
            <g id="Group_2552" data-name="Group 2552" transform="translate(20.832 51.835)">
                <g id="Group_2551" data-name="Group 2551">
                    <g id="Group_2550" data-name="Group 2550">
                        <g id="Group_2549" data-name="Group 2549">
                            <path id="Path_9949" d="M454.943 339.821c.007 5.4.114 14.575.736 17.262.117.5.226 1.053.332 1.633.561 3.115.953 7.118 1.088 9.238.036.551.053.972.053 1.222a28.677 28.677 0 0 0 1.6 7.19c.331.852 2.716 4.635 5.362 8.867a220.271 220.271 0 0 1-1.125-27.3c.136-3.065-.995-7.385-1.177-12.712a489.24 489.24 0 0 0-.185-4.583c-.126-2.749-.28-5.512-.445-8.1a19.186 19.186 0 0 0-6.072 3.111l-.152.115s-.018 1.656-.015 4.057z" class="cls-8" data-name="Path 9949" transform="translate(-454.943 -332.537)"/>
                        </g>
                    </g>
                </g>
            </g>
            <g id="Group_2556" data-name="Group 2556" transform="translate(11.868 19.931)">
                <g id="Group_2555" data-name="Group 2555">
                    <g id="Group_2554" data-name="Group 2554">
                        <g id="Group_2553" data-name="Group 2553">
                            <path id="Path_9950" d="M457.676 332.854c2.557 1.534 10.015 3.687 15.832 2.713 1.469-.14 1.057-.383-.185-4.583-.415-9.121-1.121-18.34-1.785-21.118a51.337 51.337 0 0 1-.7-12.942c0-.047 0-.09.007-.135.012-.253.029-.507.049-.761.087-1.255.216-2.5.388-3.714 0-.033.01-.069.013-.1.06-.415.122-.826.2-1.232l-3.829.609s-.043.014-.123.047a6.036 6.036 0 0 0-1.091.589 9.416 9.416 0 0 0-1.176.935 30.066 30.066 0 0 0-2.926 3.8 61.74 61.74 0 0 0-1.067 1.6 17.967 17.967 0 0 0-1.437 2.532 6 6 0 0 0-.521 2.167v.079a17.45 17.45 0 0 0 1.085 4.132 11.671 11.671 0 0 1 .589 2.312c.131 1.567.7 7.135.442 8.619s-3.708 14.251-3.765 14.451z" class="cls-19" data-name="Path 9950" transform="translate(-457.676 -290.984)"/>
                        </g>
                    </g>
                </g>
            </g>
            <g id="Group_2560" data-name="Group 2560" transform="translate(14.973 21.176)">
                <g id="Group_2559" data-name="Group 2559">
                    <g id="Group_2558" data-name="Group 2558">
                        <g id="Group_2557" data-name="Group 2557">
                            <path id="Path_9951" d="M472.716 292.605l-2.947 4.611-2.721 4.256c.006-.022.188-.667.495-2.533.059-.355.121-.753.189-1.2a3.152 3.152 0 0 1 .085-.393c1.165-2.664 4.764-4.674 4.9-4.741z" class="cls-3" data-name="Path 9951" transform="translate(-467.048 -292.605)"/>
                        </g>
                    </g>
                </g>
            </g>
            <g id="Group_2564" data-name="Group 2564" transform="translate(21.5 13.765)">
                <g id="Group_2563" data-name="Group 2563">
                    <g id="Group_2562" data-name="Group 2562">
                        <g id="Group_2561" data-name="Group 2561">
                            <path id="Path_9952" d="M462.377 290.351c.064-.446-1.737-1.159-.758-1.195a5.4 5.4 0 0 0 2.054-1.224l-.538-1.458.184-.681a7.527 7.527 0 0 0 .726-1.484 12.32 12.32 0 0 0 .179-1.356c-1.79 1.119-5.129 3.582-5.129 3.582a6.27 6.27 0 0 0 .039.49 6.359 6.359 0 0 1-.043 1.119 6.267 6.267 0 0 0-.02.194 7.231 7.231 0 0 1-.629 2.314c-.435.913 1.936.327 3.935-.301z" class="cls-2" data-name="Path 9952" transform="translate(-458.392 -282.953)"/>
                        </g>
                    </g>
                </g>
            </g>
            <g id="Group_2567" data-name="Group 2567" transform="translate(15.468 21.176)">
                <g id="Group_2566" data-name="Group 2566">
                    <g id="Group_2565" data-name="Group 2565">
                        <path id="Path_9953" d="M467.339 297.316a6.007 6.007 0 0 0-.286 1.624l1.066-1.6s1.9-2.71 2.555-3.414a10.83 10.83 0 0 1 1.548-1.322s-3.745 1.789-4.883 4.712z" class="cls-18" data-name="Path 9953" transform="translate(-467.053 -292.606)"/>
                    </g>
                </g>
            </g>
            <g id="Group_2570" data-name="Group 2570" transform="translate(19.36 19.717)">
                <g id="Group_2569" data-name="Group 2569">
                    <g id="Group_2568" data-name="Group 2568">
                        <path id="Path_9954" d="M460.717 297.187c.673.264 3.074.017 5.485-1.221.087-1.255.216-2.5.388-3.714 0-.033.01-.069.013-.1.07-.488.145-.968.236-1.442a8.061 8.061 0 0 0-3.867.819s-3.409 5.205-2.255 5.658z" class="cls-2" data-name="Path 9954" transform="translate(-460.479 -290.705)"/>
                    </g>
                </g>
            </g>
            <g id="Group_2573" data-name="Group 2573" transform="translate(15.18 38.697)">
                <g id="Group_2572" data-name="Group 2572">
                    <g id="Group_2571" data-name="Group 2571">
                        <path id="Path_9955" d="M474.105 315.544a2.635 2.635 0 0 1-.012-.118.311.311 0 0 1 .005.033c.002.019.002.048.007.085z" class="cls-4" data-name="Path 9955" transform="translate(-474.094 -315.426)"/>
                    </g>
                </g>
            </g>
            <g id="Group_2576" data-name="Group 2576" transform="translate(19.002 19.328)">
                <g id="Group_2575" data-name="Group 2575">
                    <g id="Group_2574" data-name="Group 2574">
                        <path id="Path_9956" d="M459.8 297.587c.7 1.761 3.171.77 5.667-.842 0-.047 0-.09.007-.135.086-1.512.232-3.02.438-4.475 0-.033 1.04-1.738 1.043-1.771.079-.566-.857.547-.755 0-3.451.813-3.641.109-3.641.109l-.387.984s-3.906 2.243-2.372 6.13z" class="cls-9" data-name="Path 9956" transform="translate(-459.446 -290.199)"/>
                    </g>
                </g>
            </g>
            <g id="Group_2579" data-name="Group 2579" transform="translate(14.03 20.585)">
                <g id="Group_2578" data-name="Group 2578">
                    <g id="Group_2577" data-name="Group 2577">
                        <path id="Path_9957" d="M473.339 291.836l-7.7 9.457a17.817 17.817 0 0 1 1.438-2.532c.343-.531.705-1.072 1.066-1.6a30.323 30.323 0 0 1 2.926-3.8 9.4 9.4 0 0 1 1.177-.934 6.26 6.26 0 0 1 1.09-.59z" class="cls-9" data-name="Path 9957" transform="translate(-465.638 -291.836)"/>
                    </g>
                </g>
            </g>
            <g id="Group_2582" data-name="Group 2582" transform="translate(13.442 20.585)">
                <g id="Group_2581" data-name="Group 2581">
                    <g id="Group_2580" data-name="Group 2580">
                        <path id="Path_9958" d="M467.377 309.948c-.5-1.519-1.831-5.009-1.734-6.489a6.567 6.567 0 0 1 .584-2.166 18.5 18.5 0 0 1 1.438-2.617c.343-.531.963-1.427 1.324-1.953a22.658 22.658 0 0 1 2.668-3.378 9.713 9.713 0 0 1 1.181-.961 5.188 5.188 0 0 1 1.09-.547s-8.114 7.271-6.551 18.111z" class="cls-20" data-name="Path 9958" transform="translate(-465.638 -291.836)"/>
                    </g>
                </g>
            </g>
            <g id="Group_2587" data-name="Group 2587" transform="translate(18.819 67.427)">
                <g id="Group_2586" data-name="Group 2586">
                    <g id="Group_2585" data-name="Group 2585">
                        <path id="Path_9960" d="M468.5 363.431l-1.067 3.318a75.945 75.945 0 0 1-2.012-13.906c.521 4.088 3.079 10.588 3.079 10.588z" class="cls-13" data-name="Path 9960" transform="translate(-465.422 -352.844)"/>
                    </g>
                </g>
            </g>
            <g id="Group_2590" data-name="Group 2590" transform="translate(18.587 1.534)">
                <g id="Group_2589" data-name="Group 2589">
                    <g id="Group_2588" data-name="Group 2588">
                        <path id="Path_9961" d="M458.1 278.724c1.386 6.667 5.922 4.383 7.521 3.371.154-.54.322-1.057.5-1.547a14.564 14.564 0 0 0 .855-4.514 25.275 25.275 0 0 0-1.5-8.985 8.864 8.864 0 0 0-4.066.793s-4.9 3.184-3.31 10.882z" class="cls-14" data-name="Path 9961" transform="translate(-457.786 -267.024)"/>
                    </g>
                </g>
            </g>
            <g id="Group_2593" data-name="Group 2593" transform="translate(17.81 .748)">
                <g id="Group_2592" data-name="Group 2592">
                    <g id="Group_2591" data-name="Group 2591">
                        <path id="Path_9962" d="M457.037 275.839s1.98-5.934 4.57-6.691c.514-.152 2.242 3.168 3.173 3.987a9.778 9.778 0 0 1 2.056 2.66c.429-4.157 1.106-8.166.476-9.8a19.51 19.51 0 0 0-5.838 1.209c-5.986 3.096-4.437 8.635-4.437 8.635z" class="cls-5" data-name="Path 9962" transform="translate(-456.857 -266)"/>
                    </g>
                </g>
            </g>
            <g id="Group_2596" data-name="Group 2596" transform="translate(26.611 8.19)">
                <g id="Group_2595" data-name="Group 2595">
                    <g id="Group_2594" data-name="Group 2594">
                        <path id="Path_9963" d="M457.424 279.684c.186.029-.233 3.453 0 3.239a15.23 15.23 0 0 0 .725-4.763c.029-.784 1.474-2.783-.116-2.426a1.506 1.506 0 0 0-1.031.978c-.147.841-.211 2.873.422 2.972z" class="cls-14" data-name="Path 9963" transform="translate(-456.904 -275.693)"/>
                    </g>
                </g>
            </g>
            <g id="Group_2598" data-name="Group 2598" transform="translate(22.202 16.619)">
                <g id="Group_2597" data-name="Group 2597">
                    <path id="Path_9964" d="M459.535 289.008h.009a5.315 5.315 0 0 0 4.043-1.712c.053-.21.273-.228.169-.626a5.958 5.958 0 0 1-4.185 1.133c0 .029 0 .059.006.085a6.371 6.371 0 0 1-.042 1.12z" class="cls-15" data-name="Path 9964" transform="translate(-459.535 -286.67)"/>
                </g>
            </g>
            <g id="Group_2480" data-name="Group 2480" transform="translate(20.541 18.788)">
                <g id="Group_2479" data-name="Group 2479">
                    <path id="Path_9924" d="M433.02 302.756c.779-8.266 7.434-13.262 7.434-13.262l.257 1.228c6.847 1.921 7.01 3.432 7.328 7.985a23.242 23.242 0 0 1-1.006 6.588c-.258 1.018-.541 2.066-.814 3.116-.809 3.1-1.547 6.228-1.4 8.673.315 5.31 14.607 28.675 14.607 28.675 0 4.938-12.386 12.006-12.386 12.006.576-6.508-15.135-48.452-14.02-55.009z" class="cls-21" data-name="Path 9924" transform="translate(-432.963 -289.495)"/>
                </g>
            </g>
        </g>
    </g>
</svg>
