<svg xmlns="http://www.w3.org/2000/svg" xmlns:xlink="http://www.w3.org/1999/xlink" width="203" height="164" viewBox="0 0 203 164">
    <defs>
        <style>
            .cls-1{fill:#741a1f}.cls-2{fill:url(#linear-gradient)}.cls-14,.cls-3{fill:#fffcff}.cls-3,.cls-64{opacity:.25}.cls-4{fill:url(#linear-gradient-2)}.cls-5{fill:#d8fff2}.cls-6{fill:#b0cbff}.cls-7{fill:#fffce6;opacity:.38}.cls-8{fill:url(#linear-gradient-3)}.cls-9{fill:url(#linear-gradient-4)}.cls-10{fill:url(#linear-gradient-5)}.cls-11{fill:#400020}.cls-12{fill:#4fffae}.cls-13{fill:url(#linear-gradient-6)}.cls-14{opacity:.3}.cls-15{fill:url(#linear-gradient-7)}.cls-16{fill:url(#linear-gradient-8)}.cls-17{fill:url(#linear-gradient-9)}.cls-18{fill:url(#linear-gradient-10)}.cls-19{fill:url(#linear-gradient-11)}.cls-20{fill:url(#linear-gradient-12)}.cls-21{fill:url(#linear-gradient-13)}.cls-22{fill:url(#linear-gradient-14)}.cls-23{fill:url(#linear-gradient-15)}.cls-24{fill:url(#linear-gradient-16)}.cls-25{fill:url(#linear-gradient-17)}.cls-26{fill:url(#linear-gradient-18)}.cls-27{fill:url(#linear-gradient-19)}.cls-28{fill:#590800}.cls-28,.cls-46{opacity:.2}.cls-29{fill:url(#linear-gradient-20)}.cls-30{fill:url(#linear-gradient-21)}.cls-31{fill:url(#linear-gradient-22)}.cls-32{fill:url(#linear-gradient-23)}.cls-33{fill:url(#linear-gradient-24)}.cls-34{fill:url(#linear-gradient-25)}.cls-35{fill:url(#linear-gradient-26)}.cls-36{fill:url(#linear-gradient-27)}.cls-37{fill:url(#linear-gradient-28)}.cls-38{fill:url(#linear-gradient-31)}.cls-39{fill:#83b7a1}.cls-40{fill:url(#linear-gradient-33)}.cls-41{fill:url(#linear-gradient-34)}.cls-42{fill:url(#linear-gradient-35)}.cls-43{fill:url(#linear-gradient-36)}.cls-44{fill:#ffe2e6}.cls-45{fill:url(#linear-gradient-37)}.cls-46{fill:#212649}.cls-47{fill:url(#linear-gradient-38)}.cls-48{fill:url(#linear-gradient-40)}.cls-49{fill:url(#linear-gradient-41)}.cls-50{fill:url(#linear-gradient-44)}.cls-51{fill:url(#linear-gradient-45)}.cls-52{fill:url(#linear-gradient-46)}.cls-53{fill:url(#linear-gradient-47)}.cls-54{fill:url(#linear-gradient-48)}.cls-55{fill:url(#linear-gradient-49)}.cls-56{fill:url(#linear-gradient-50)}.cls-57{fill:url(#linear-gradient-51)}.cls-58{fill:url(#linear-gradient-52)}.cls-59{fill:url(#linear-gradient-53)}.cls-60{fill:url(#linear-gradient-54)}.cls-61{fill:url(#linear-gradient-55)}.cls-62{fill:url(#linear-gradient-56)}.cls-63,.cls-64{fill:#000623}.cls-63{opacity:.13}.cls-65{fill:url(#linear-gradient-57)}.cls-66{fill:url(#linear-gradient-58)}.cls-67{fill:#ff664e}.cls-68{fill:url(#linear-gradient-59)}
        </style>
        <linearGradient id="linear-gradient" x1="8.8" x2="8.8" y1=".995" y2="-.009" gradientUnits="objectBoundingBox">
            <stop offset="0" stop-color="#ffd648"/>
            <stop offset=".673" stop-color="#ec7854"/>
        </linearGradient>
        <linearGradient id="linear-gradient-2" x1=".578" x2=".408" y1="1.009" y2=".01" xlink:href="#linear-gradient"/>
        <linearGradient id="linear-gradient-3" x1=".5" x2=".5" y1="1" xlink:href="#linear-gradient"/>
        <linearGradient id="linear-gradient-4" x1="-.23" x2="1.434" y1=".952" y2=".115" gradientUnits="objectBoundingBox">
            <stop offset="0" stop-color="#05466d"/>
            <stop offset="1" stop-color="#54008e"/>
        </linearGradient>
        <linearGradient id="linear-gradient-5" x1=".5" x2=".5" y1="1" gradientUnits="objectBoundingBox">
            <stop offset="0" stop-color="#6d0063"/>
            <stop offset="1" stop-color="#050000"/>
        </linearGradient>
        <linearGradient id="linear-gradient-6" x1=".5" x2=".5" y1="1" gradientUnits="objectBoundingBox">
            <stop offset="0" stop-color="#4f2da7"/>
            <stop offset="1" stop-color="#00edff"/>
        </linearGradient>
        <linearGradient id="linear-gradient-7" x1="-.082" x2="1.077" y1=".5" y2=".5" gradientUnits="objectBoundingBox">
            <stop offset="0" stop-color="#402fc0"/>
            <stop offset="1" stop-color="#bb00d4"/>
        </linearGradient>
        <linearGradient id="linear-gradient-8" x1="-.193" x2=".894" y1=".499" y2=".499" gradientUnits="objectBoundingBox">
            <stop offset="0" stop-color="#1c0063"/>
            <stop offset="1" stop-color="#05002a"/>
        </linearGradient>
        <linearGradient id="linear-gradient-9" x1=".079" x2="1.075" y1=".614" y2=".614" xlink:href="#linear-gradient-8"/>
        <linearGradient id="linear-gradient-10" x1=".039" x2="1.04" y1=".623" y2=".623" xlink:href="#linear-gradient-8"/>
        <linearGradient id="linear-gradient-11" x1=".002" x2=".997" y1=".672" y2=".672" xlink:href="#linear-gradient-8"/>
        <linearGradient id="linear-gradient-12" x1="-.048" x2=".954" y1=".669" y2=".669" xlink:href="#linear-gradient-8"/>
        <linearGradient id="linear-gradient-13" x1="-.099" x2=".905" y1=".622" y2=".622" xlink:href="#linear-gradient-8"/>
        <linearGradient id="linear-gradient-14" x1="-3.074" x2="4.37" y1=".505" y2=".505" xlink:href="#linear-gradient-8"/>
        <linearGradient id="linear-gradient-15" x1="-.097" x2="1.17" y1=".504" y2=".504" xlink:href="#linear-gradient-8"/>
        <linearGradient id="linear-gradient-16" x1=".38" x2=".685" y1=".503" y2=".503" xlink:href="#linear-gradient-8"/>
        <linearGradient id="linear-gradient-17" x1=".429" x2=".564" y1=".501" y2=".501" xlink:href="#linear-gradient-8"/>
        <linearGradient id="linear-gradient-18" x1=".107" x2="1.1" y1=".556" y2=".556" xlink:href="#linear-gradient-7"/>
        <linearGradient id="linear-gradient-19" x1=".4" x2="1.425" y1=".463" y2=".463" gradientUnits="objectBoundingBox">
            <stop offset="0" stop-color="#050000"/>
            <stop offset="1" stop-color="#1c0063"/>
        </linearGradient>
        <linearGradient id="linear-gradient-20" x1="5.838" x2="6.809" y1=".463" y2=".463" gradientUnits="objectBoundingBox">
            <stop offset="0" stop-color="#050000"/>
            <stop offset="1" stop-color="#6d0063"/>
        </linearGradient>
        <linearGradient id="linear-gradient-21" x1="17.242" x2="18.364" y1=".463" y2=".463" xlink:href="#linear-gradient-7"/>
        <linearGradient id="linear-gradient-22" x1="4.539" x2="5.542" y1=".517" y2=".517" xlink:href="#linear-gradient-19"/>
        <linearGradient id="linear-gradient-23" x1="6.048" x2="7.056" y1=".498" y2=".498" xlink:href="#linear-gradient-19"/>
        <linearGradient id="linear-gradient-24" x1="85.037" x2="85.037" y1=".924" y2=".031" gradientUnits="objectBoundingBox">
            <stop offset="0" stop-color="#056eb0"/>
            <stop offset="1" stop-color="#54008e"/>
        </linearGradient>
        <linearGradient id="linear-gradient-25" x1="129.78" x2="129.78" y1=".923" y2=".03" xlink:href="#linear-gradient-24"/>
        <linearGradient id="linear-gradient-26" x1="135.235" x2="135.235" y1=".922" y2=".029" xlink:href="#linear-gradient-24"/>
        <linearGradient id="linear-gradient-27" x1=".5" x2=".5" y1="1" xlink:href="#linear-gradient-20"/>
        <linearGradient id="linear-gradient-28" x1=".5" x2=".5" y1="1" xlink:href="#linear-gradient-7"/>
        <linearGradient id="linear-gradient-31" x1=".5" x2=".5" y1="1" gradientUnits="objectBoundingBox">
            <stop offset="0" stop-color="#058286"/>
            <stop offset="1" stop-color="#00cd8e"/>
        </linearGradient>
        <linearGradient id="linear-gradient-33" x1="-.104" x2=".898" y1=".503" y2=".503" xlink:href="#linear-gradient-8"/>
        <linearGradient id="linear-gradient-34" x1="-.286" x2=".907" y1=".51" y2=".51" xlink:href="#linear-gradient-7"/>
        <linearGradient id="linear-gradient-35" x1="-.103" x2=".902" y1=".492" y2=".492" xlink:href="#linear-gradient-8"/>
        <linearGradient id="linear-gradient-36" x1="-.703" x2="1.131" y1=".514" y2=".514" xlink:href="#linear-gradient-8"/>
        <linearGradient id="linear-gradient-37" x1="-.27" x2=".645" y1=".512" y2=".512" xlink:href="#linear-gradient-8"/>
        <linearGradient id="linear-gradient-38" x2="1" y1=".5" y2=".5" xlink:href="#linear-gradient-20"/>
        <linearGradient id="linear-gradient-40" x1=".5" x2=".5" y1="1" xlink:href="#linear-gradient-24"/>
        <linearGradient id="linear-gradient-41" x2="1" y1=".5" y2=".5" xlink:href="#linear-gradient-4"/>
        <linearGradient id="linear-gradient-44" x1=".056" x2="1.108" y1=".539" y2=".539" xlink:href="#linear-gradient-20"/>
        <linearGradient id="linear-gradient-45" x1="-.088" x2=".886" y1=".55" y2=".55" xlink:href="#linear-gradient-4"/>
        <linearGradient id="linear-gradient-46" x1="-.056" x2=".955" y1=".772" y2=".772" xlink:href="#linear-gradient-7"/>
        <linearGradient id="linear-gradient-47" x1="-.001" x2="1.009" y1=".863" y2=".863" xlink:href="#linear-gradient-7"/>
        <linearGradient id="linear-gradient-48" x1=".026" x2="1.031" y1="1.179" y2="1.179" xlink:href="#linear-gradient-7"/>
        <linearGradient id="linear-gradient-49" x1=".056" x2="1.06" y1="1.23" y2="1.23" xlink:href="#linear-gradient-7"/>
        <linearGradient id="linear-gradient-50" x1="-.042" x2=".963" y1=".875" y2=".875" xlink:href="#linear-gradient-7"/>
        <linearGradient id="linear-gradient-51" x1="-.015" x2=".995" y1=".947" y2=".947" xlink:href="#linear-gradient-7"/>
        <linearGradient id="linear-gradient-52" x1=".015" x2="1.024" y1=".897" y2=".897" xlink:href="#linear-gradient-7"/>
        <linearGradient id="linear-gradient-53" x1=".043" x2="1.048" y1="1.159" y2="1.159" xlink:href="#linear-gradient-7"/>
        <linearGradient id="linear-gradient-54" x1=".072" x2="1.075" y1="1.315" y2="1.315" xlink:href="#linear-gradient-7"/>
        <linearGradient id="linear-gradient-55" x1="-.068" x2=".947" y1=".671" y2=".671" xlink:href="#linear-gradient-19"/>
        <linearGradient id="linear-gradient-56" x1=".078" x2="1.085" y1=".974" y2=".974" xlink:href="#linear-gradient-8"/>
        <linearGradient id="linear-gradient-57" x1=".498" x2=".498" y1="1.014" y2=".012" gradientUnits="objectBoundingBox">
            <stop offset="0" stop-color="#2d004b"/>
            <stop offset="1" stop-color="#ff424b"/>
        </linearGradient>
        <linearGradient id="linear-gradient-58" x1=".08" x2=".998" y1=".513" y2=".513" xlink:href="#linear-gradient-20"/>
        <linearGradient id="linear-gradient-59" x1=".5" x2=".5" y1="1" xlink:href="#linear-gradient-57"/>
    </defs>
    <g id="city" transform="translate(-236.045 -104.5)">
        <g id="Group_2607" data-name="Group 2607" transform="translate(405.959 193.895)">
            <path id="Path_9977" d="M637.716 323.039l6.982-74.605-22.662 17.155 2.306 55.9z" class="cls-1" data-name="Path 9977" transform="translate(-622.036 -248.433)"/>
            <path id="Path_9978" d="M667.825 248.433l10.424 5.457-9.936 62.524-7.47 6.625z" class="cls-2" data-name="Path 9978" transform="translate(-645.163 -248.433)"/>
            <path id="Path_9979" d="M664.262 311.123l.067-.719 2.539-.272.737-6.275-2.643-.208.059-.631 2.648.3 1.026-8.742-2.866.118.032-.648 2.915-.157.974-8.293-3.067-.333.049-.517 3.073.385 1.055-8.981-3.242-.871.025-.27 3.258.784.791-6.735-3.417-.532.027-.56 3.453.558 1.089-9.274-3.633-.993.08-.848 3.637 1.128.625-5.321.47.246-.614 5.225 3.88 1.2.637-4.384.431.226-.636 4.293 1.949.6-.075.469-1.954-.534-1.289 8.7 1.9.306-.078.495-1.893-.3-1.046 7.063 1.795.432-.082.517-1.782-.479-1.235 8.343 1.733.217-.059.367-1.733-.188-1.13 7.631 1.7-.092-.12.759-1.684.07-1.378 9.307 1.544.174-.059.372-1.548-.122-.832 5.62 1.532-.164-.017.353-1.579.244-1.555 10.5-.322.287 1.56-10.74-2.669.413-1.483 12.625-.554.492 1.531-13.039zm12.945-50.684l-3.882-1.061-1.083 9.221 3.693.6zm-1.346 9.265l-3.681-.574-.8 6.775 3.455.832zm-1.089 7.494l-3.432-.922-1.047 8.913 3.258.409zm-1.279 8.8l-3.254-.354-.964 8.213 3.1-.167zm-1.223 8.424l-3.076.127-1.036 8.818 2.767.311zm-2.232 15.369l.825-5.679-2.763-.212-.726 6.183z" class="cls-1" data-name="Path 9979" transform="translate(-647.201 -251.279)"/>
            <path id="Path_9980" d="M681.122 281.073l-8.369-9.451 2.17-23.189 10.424 5.457z" class="cls-3" data-name="Path 9980" transform="translate(-652.261 -248.433)"/>
            <path id="Path_9981" d="M669.013 328.066l7.829 8.55-1.272 8.006-7.678-4.573z" class="cls-3" data-name="Path 9981" transform="translate(-649.365 -295.876)"/>
        </g>
        <g id="Group_2608" data-name="Group 2608" transform="translate(360.547 168.143)">
            <path id="Path_9982" d="M509.64 278.359l.068-84.669 16.065-2.364 9.5 87.959z" class="cls-4" data-name="Path 9982" transform="translate(-509.64 -188.659)"/>
            <path id="Path_9983" d="M564.264 199.25l-19.909-7.924-3.534 87.452 16.245.421z" class="cls-1" data-name="Path 9983" transform="translate(-528.222 -188.659)"/>
            <path id="Path_9984" d="M525.246 205.387l.052-1.295-3.2.312.619-11.961-.453.067-.6 11.937-2.479.243.517-11.8-.486.072-.481 11.775-2.327.228.326-11.637-.464.068-.3 11.611-2.472.242.155-11.468-.379.056-.125 11.446-3.438.336v.75l3.43-.216-.149 13.656-3.291-.1v.365l3.287.162-.168 15.418-3.131.248-.014.277 3.141-.158-.169 15.547-2.971-.247v.462l2.966.268-.163 15-2.815-.371v.366l2.81.407-.127 11.665.151.008.158-11.646 1.708.247-.293 11.454.259.013.32-11.425 1.5.218-.459 11.253.229.008.492-11.224 2.034.294-.554 11 .334.012.567-10.963 3.881.562.026-.532-3.882-.511.787-15.209 3.712.335.027-.555-3.712-.309.854-16.513 3.539-.177.035-.7-3.543.281.744-14.4 3.362.166.027-.667-3.358-.1.748-14.459zm-6.554.413l-.578 14.156-2.123-.062.39-13.948zm-3.136 29.639l.421-15.054 2.115.1-.6 14.8zm1.911.352l-.659 16.126-1.71-.142.445-15.888zm-1.519-29.818l-.357 13.909-2.288-.067.185-13.687zm-2.651 14.28l2.282.113-.387 15.1-2.1.167zm-.214 15.758l2.1-.105-.406 15.842-1.9-.158zm1.293 31.294l-1.714-.226.2-15.006 1.9.171zm1.794.237l-1.507-.2.422-15.069 1.7.154zm2.3.3l-2.038-.268.662-15.121 2.142.193zm.792-15.723l-2.146-.179.708-16.17 2.267-.114zm.859-17.045l-2.274.18.646-14.747 2.356.116zm.758-15.041l-2.363-.069.622-14.2 2.468-.156z" class="cls-1" data-name="Path 9984" transform="translate(-509.654 -189.325)"/>
            <path id="Path_9985" d="M509.808 189.76l.976-2.507 14.81-2.524.278 2.667z" class="cls-5" data-name="Path 9985" transform="translate(-509.74 -184.729)"/>
            <path id="Path_9986" d="M548.879 184.729l20.248 9.38-.06 1.211-19.909-7.92z" class="cls-6" data-name="Path 9986" transform="translate(-533.025 -184.729)"/>
            <path id="Path_9987" d="M510.772 187.253l-.976 2.507-.008 10.339 15.11 11.127.963-23.83-.279-2.667z" class="cls-7" data-name="Path 9987" transform="translate(-509.728 -184.729)"/>
        </g>
        <g id="Group_2610" data-name="Group 2610" transform="translate(264.468 114.803)">
            <path id="Path_9994" d="M284.539 298.316l-6.267-.73-6.427-74.493 9.321-8.652z" class="cls-1" data-name="Path 9994" transform="translate(-271.845 -149.09)"/>
            <path id="Path_9995" d="M276.428 193.378l-1.746-17.345 8.175-6.963 1.081 18.494z" class="cls-1" data-name="Path 9995" transform="translate(-273.536 -122.06)"/>
            <path id="Path_9996" d="M278.882 166.19l-.66-5.672 8.911-6.945v6.309z" class="cls-1" data-name="Path 9996" transform="translate(-275.645 -112.827)"/>
            <path id="Path_9997" d="M281.217 154.834v-2.315l9.791-8.716h2.53l-4.621 5.515z" class="cls-1" data-name="Path 9997" transform="translate(-277.43 -107.007)"/>
            <path id="Path_9998" d="M318.385 120.1l.74-15.018-1.98-2.86v-5.308l-5.725-6.583-5.107-13.042V52.776h-.99l-.99 24.513-3.8 12.284-4.621 5.515v4.742l-2.071 1.583.986 16.867-1.877 1.02 4.168 82.7h17.555l5.716-80.086z" class="cls-8" data-name="Path 9998" transform="translate(-284.421 -52.776)"/>
            <path id="Path_9999" d="M305.45 89.572l5.427-12.386 1.9-24.411-.99 24.513-3.8 12.284z" class="cls-1" data-name="Path 9999" transform="translate(-291.872 -52.776)"/>
            <path id="Path_10000" d="M311.712 143.059l10.892.759-.407-1.038-10.329-.225z" class="cls-1" data-name="Path 10000" transform="translate(-295.604 -106.262)"/>
            <path id="Path_10001" d="M313.045 138.863l9.687.8-.156-.4-9.4-.832z" class="cls-1" data-name="Path 10001" transform="translate(-296.398 -103.805)"/>
            <path id="Path_10002" d="M316.882 256.232l-.663-112.3.663-.127.908 112.429z" class="cls-1" data-name="Path 10002" transform="translate(-298.29 -107.007)"/>
            <path id="Path_10003" d="M332.972 256.419l.322-111.808.888-.494-.055 112.3z" class="cls-1" data-name="Path 10003" transform="translate(-308.274 -107.194)"/>
            <path id="Path_10004" d="M295.193 218.084l3.261-1.328 2.1 75.547h-1.32z" class="cls-1" data-name="Path 10004" transform="translate(-285.759 -150.469)"/>
            <path id="Path_10005" d="M305.471 216.756h2.521l1 75.547h-1.21z" class="cls-1" data-name="Path 10005" transform="translate(-291.885 -150.469)"/>
            <path id="Path_10006" d="M348.448 221.682l-3.19-2.315-3.3 74.491h1.155z" class="cls-1" data-name="Path 10006" transform="translate(-313.629 -152.025)"/>
            <path id="Path_10007" d="M341.507 216.432l-3.548-1.991-.495 76.006h1.155z" class="cls-1" data-name="Path 10007" transform="translate(-310.951 -149.09)"/>
        </g>
        <g id="Group_2616" data-name="Group 2616" transform="translate(293.287 104.5)">
            <path id="Path_10030" d="M343.172 233.434l11.356-125.589 16.642-2.257 9.47 129.091z" class="cls-9" data-name="Path 10030" transform="translate(-343.172 -73.937)"/>
            <path id="Path_10031" d="M360.035 237.321l-5.507-126.15-11.356 125.589z" class="cls-10" data-name="Path 10031" transform="translate(-343.172 -77.263)"/>
            <path id="Path_10032" d="M388.231 60.268V27.289h.528l.852 32.792z" class="cls-11" data-name="Path 10032" transform="translate(-370.025 -27.289)"/>
            <path id="Rectangle_3251" d="M0 0h4.186v1.037H0z" class="cls-11" data-name="Rectangle 3251" transform="translate(16.863 22.038)"/>
            <path id="Path_10033" d="M374.3 93.51l4.286-11.705.623 1.037-3.938 10.536z" class="cls-11" data-name="Path 10033" transform="translate(-361.723 -59.768)"/>
            <path id="Path_10034" d="M394.31 81.805l4.784 9.908-.518.07-4.916-8.941z" class="cls-11" data-name="Path 10034" transform="translate(-373.261 -59.768)"/>
            <path id="Path_10035" d="M388.231 31.778h.576l.053 2.041h-.629z" class="cls-12" data-name="Path 10035" transform="translate(-370.025 -29.963)"/>
            <path id="Path_10036" d="M388.231 41.479h.677l.073 2.528h-.751z" class="cls-12" data-name="Path 10036" transform="translate(-370.025 -35.743)"/>
            <path id="Path_10037" d="M388.231 52.7h.8l.06 2.3h-.855z" class="cls-12" data-name="Path 10037" transform="translate(-370.025 -42.43)"/>
            <path id="Path_10038" d="M388.231 66.332h.938l.059 2.269h-1z" class="cls-12" data-name="Path 10038" transform="translate(-370.025 -50.549)"/>
            <path id="Path_10039" d="M370.986 107.845l-.2 2.2h17.167l-.327-4.453z" class="cls-11" data-name="Path 10039" transform="translate(-359.63 -73.937)"/>
            <path id="Path_10040" d="M376.9 110.915l-4.613.48v-.474l4.577-.555z" class="cls-12" data-name="Path 10040" transform="translate(-360.524 -76.783)"/>
            <path id="Path_10041" d="M397.712 107.031v.744l-9.14.949v-.586z" class="cls-12" data-name="Path 10041" transform="translate(-370.229 -74.796)"/>
            <path id="Path_10042" d="M376.968 114.355l.031.513-4.711.114v-.389z" class="cls-12" data-name="Path 10042" transform="translate(-360.524 -79.16)"/>
            <path id="Path_10043" d="M389.138 113.752l.054.64-4.411.109.036-.526z" class="cls-12" data-name="Path 10043" transform="translate(-367.97 -78.801)"/>
            <path id="Path_10044" d="M407.107 112.912l-.049.822-3.244.078-.047-.729z" class="cls-12" data-name="Path 10044" transform="translate(-379.284 -78.3)"/>
            <path id="Path_10045" d="M374.3 144.874v2.074h13.256v-1.469z" class="cls-12" data-name="Path 10045" transform="translate(-361.723 -97.342)"/>
            <path id="Path_10046" d="M374.7 128.174v2.074h13.256v-1.469z" class="cls-12" data-name="Path 10046" transform="translate(-361.959 -87.392)"/>
            <path id="Path_10047" d="M374.942 152.022v1.34H388.2v-2.074z" class="cls-12" data-name="Path 10047" transform="translate(-362.105 -101.163)"/>
            <path id="Rectangle_3252" d="M0 0h1.731v2.787H0z" class="cls-12" data-name="Rectangle 3252" transform="translate(14.07 60.798)"/>
            <path id="Path_10048" d="M384.909 178.653v1.858l8.526-.173v-1.361z" class="cls-12" data-name="Path 10048" transform="translate(-368.045 -117.466)"/>
            <path id="Rectangle_3270" d="M0 0h1.919v1.92H0z" class="cls-12" data-name="Rectangle 3270" transform="translate(19.787 94.126)"/>
            <path id="Rectangle_3271" d="M0 0h1.919v1.92H0z" class="cls-12" data-name="Rectangle 3271" transform="translate(27.974 95.951)"/>
            <path id="Rectangle_3272" d="M0 0h1.919v1.92H0z" class="cls-12" data-name="Rectangle 3272" transform="translate(11.618 99.645)"/>
            <path id="Rectangle_3273" d="M0 0h1.919v1.92H0z" class="cls-12" data-name="Rectangle 3273" transform="translate(19.44 120.031)"/>
            <path id="Rectangle_3274" d="M0 0h1.919v1.92H0z" class="cls-12" data-name="Rectangle 3274" transform="translate(16.591 120.031)"/>
            <path id="Rectangle_3275" d="M0 0h1.919v1.92H0z" class="cls-12" data-name="Rectangle 3275" transform="translate(14.842 76.172)"/>
            <path id="Rectangle_3276" d="M0 0h1.919v1.92H0z" class="cls-12" data-name="Rectangle 3276" transform="translate(20.49 86.076)"/>
            <path id="Rectangle_3277" d="M0 0h1.919v1.92H0z" class="cls-12" data-name="Rectangle 3277" transform="translate(13.546 44.234)"/>
            <path id="Rectangle_3278" d="M0 0h1.919v1.92H0z" class="cls-12" data-name="Rectangle 3278" transform="translate(20.399 44.234)"/>
            <path id="Rectangle_3279" d="M0 0h1.919v1.92H0z" class="cls-12" data-name="Rectangle 3279" transform="translate(5.227 129.451)"/>
            <path id="Rectangle_3280" d="M0 0h1.919v1.92H0z" class="cls-12" data-name="Rectangle 3280" transform="translate(8.379 121.793)"/>
            <path id="Rectangle_3281" d="M0 0h1.919v1.92H0z" class="cls-12" data-name="Rectangle 3281" transform="translate(8.379 88.357)"/>
            <path id="Rectangle_3282" d="M0 0h1.919v1.92H0z" class="cls-12" data-name="Rectangle 3282" transform="translate(8.379 80.968)"/>
            <path id="Rectangle_3283" d="M0 0h1.919v1.92H0z" class="cls-12" data-name="Rectangle 3283" transform="translate(14.842 73.243)"/>
            <path id="Path_10152" d="M362.191 236.721l-9.25-125.989-9.768 125.989z" class="cls-13" data-name="Path 10152" transform="translate(-324.928 -79.046)"/>
            <path id="Path_10051" d="M410.364 255.9l-8.264-10.925-1.441 24.363 11.755 14.494z" class="cls-14" data-name="Path 10051" transform="translate(-377.431 -156.978)"/>
            <path id="Rectangle_3253" d="M0 0h11.319v1.08H0z" class="cls-12" data-name="Rectangle 3253" transform="translate(14.07 65.076)"/>
            <path id="Rectangle_3254" d="M0 0h11.319v1.08H0z" class="cls-12" data-name="Rectangle 3254" transform="translate(13.805 56.52)"/>
            <path id="Rectangle_3255" d="M0 0h2.615v1.037H0z" class="cls-12" data-name="Rectangle 3255" transform="translate(14.936 67.625)"/>
            <path id="Rectangle_3256" d="M0 0h4.751v1.037H0z" class="cls-12" data-name="Rectangle 3256" transform="translate(18.371 67.625)"/>
            <path id="Rectangle_3257" d="M0 0h4.751v1.037H0z" class="cls-12" data-name="Rectangle 3257" transform="translate(25.599 85.039)"/>
            <path id="Path_10049" d="M379.5 265.734l-.43-5.466h1.62l-.346 5.466z" class="cls-12" data-name="Path 10049" transform="translate(-364.568 -166.089)"/>
            <path id="Rectangle_3258" d="M0 0h5.431v1.361H0z" class="cls-12" data-name="Rectangle 3258" transform="translate(15.316 100.984)"/>
            <path id="Rectangle_3259" d="M0 0h5.431v1.361H0z" class="cls-12" data-name="Rectangle 3259" transform="translate(16.018 110.318)"/>
            <path id="Rectangle_3260" d="M0 0h5.431v1.361H0z" class="cls-12" data-name="Rectangle 3260" transform="translate(24.918 126.853)"/>
            <path id="Rectangle_3261" d="M0 0h5.431v1.361H0z" class="cls-12" data-name="Rectangle 3261" transform="translate(26.218 105.014)"/>
            <path id="Rectangle_3262" d="M0 0h5.431v1.361H0z" class="cls-12" data-name="Rectangle 3262" transform="translate(28.137 129.73)"/>
            <path id="Rectangle_3263" d="M0 0h5.431v1.361H0z" class="cls-12" data-name="Rectangle 3263" transform="translate(8.902 131.371)"/>
            <path id="Rectangle_3264" d="M0 0h5.431v1.361H0z" class="cls-12" data-name="Rectangle 3264" transform="translate(7.146 110.998)"/>
            <path id="Rectangle_3265" d="M0 0h1.36v1.361H0z" class="cls-12" data-name="Rectangle 3265" transform="translate(21.438 100.984)"/>
            <path id="Rectangle_3266" d="M0 0h1.36v1.361H0z" class="cls-12" data-name="Rectangle 3266" transform="translate(16.183 114.001)"/>
            <path id="Rectangle_3267" d="M0 0h6.479v1.037H0z" class="cls-12" data-name="Rectangle 3267" transform="translate(16.125 104.657)"/>
            <path id="Rectangle_3268" d="M0 0h1.814v1.815H0z" class="cls-12" data-name="Rectangle 3268" transform="translate(17.551 94.178)"/>
            <path id="Rectangle_3269" d="M0 0h1.814v1.815H0z" class="cls-12" data-name="Rectangle 3269" transform="translate(7.525 107.595)"/>
            <path id="Path_10050" d="M392.105 167.268l-6.652-14.432-12.626-6.179-1.311-30.057h16.873z" class="cls-3" data-name="Path 10050" transform="translate(-360.064 -80.5)"/>
            <path id="Rectangle_3284" d="M0 0h1.919v1.92H0z" class="cls-12" data-name="Rectangle 3284" transform="translate(28.934 88.357)"/>
            <path id="Rectangle_3285" d="M0 0h1.919v1.92H0z" class="cls-12" data-name="Rectangle 3285" transform="translate(25.258 90.277)"/>
        </g>
        <g id="Group_2617" data-name="Group 2617" transform="translate(253.485 170.757)">
            <path id="Path_10052" d="M269.159 288.909l.806-88.209-16.712-2.63-5.159 91.39z" class="cls-15" data-name="Path 10052" transform="translate(-246.707 -195.291)"/>
            <path id="Path_10053" d="M247.053 198.234l4.155-.164 2.777 91.145-9.322.149z" class="cls-16" data-name="Path 10053" transform="translate(-244.662 -195.291)"/>
            <path id="Path_10054" d="M278.034 231.016l-16.22-1.748.041 1.35 16.172 1.18z" class="cls-17" data-name="Path 10054" transform="translate(-254.884 -213.877)"/>
            <path id="Path_10055" d="M278.38 269.919l-15.577.3-.184.7 15.757-.621z" class="cls-18" data-name="Path 10055" transform="translate(-255.364 -238.096)"/>
            <path id="Path_10056" d="M279.182 309.687l-14.958-1.336.029.727 14.941.9z" class="cls-19" data-name="Path 10056" transform="translate(-256.32 -260.992)"/>
            <path id="Path_10057" d="M279.864 351.4l-14.25 1.043.023.579 14.222-1.141z" class="cls-20" data-name="Path 10057" transform="translate(-257.149 -286.637)"/>
            <path id="Path_10058" d="M280.465 390.985l-13.6 1.654.022.554 13.572-1.826z" class="cls-21" data-name="Path 10058" transform="translate(-257.896 -310.222)"/>
            <path id="Path_10059" d="M292.492 203.044l.085 88.865-.157.006-.323-88.933z" class="cls-22" data-name="Path 10059" transform="translate(-272.931 -198.217)"/>
            <path id="Path_10060" d="M284.654 201.812l1.4 89.4-.27.011-1.615-89.488z" class="cls-23" data-name="Path 10060" transform="translate(-268.208 -197.475)"/>
            <path id="Path_10061" d="M277.036 200.614l2.779 89.928-.239.006-3.045-90.014z" class="cls-24" data-name="Path 10061" transform="translate(-263.654 -196.759)"/>
            <path id="Path_10062" d="M269.234 199.387l3.658 90.487-.348.009-3.782-90.571z" class="cls-25" data-name="Path 10062" transform="translate(-259.025 -196.031)"/>
            <path id="Path_10063" d="M277.574 196.61l-.991-2.622-15.4-2.783-.318 2.775z" class="cls-26" data-name="Path 10063" transform="translate(-254.317 -191.201)"/>
            <path id="Path_10064" d="M255.052 191.205l-4.411.6-.061 2.336 4.155-.164z" class="cls-27" data-name="Path 10064" transform="translate(-248.189 -191.201)"/>
            <path id="Path_10065" d="M267.714 260.246L252.5 277.415l-7.21 25.189-.624 23.8 22.452-.455z" class="cls-28" data-name="Path 10065" transform="translate(-244.663 -232.333)"/>
            <path id="Path_10066" d="M276.857 193.977l.991 2.621-.136 14.891-15.819 7.316-.757-24.836.318-2.775z" class="cls-7" data-name="Path 10066" transform="translate(-254.48 -191.194)"/>
        </g>
        <g id="Group_2620" data-name="Group 2620" transform="translate(329.388 182.668)">
            <g id="Group_2619" data-name="Group 2619">
                <g id="Group_2618" data-name="Group 2618">
                    <path id="Path_10067" d="M484.137 230.371l-25.758-9.712-1.079 79.774 22.5-.236z" class="cls-29" data-name="Path 10067" transform="translate(-447.291 -220.659)"/>
                    <path id="Path_10068" d="M443.611 220.659l-11.089 5.709 1.9 73.821 8.117.244z" class="cls-30" data-name="Path 10068" transform="translate(-432.523 -220.659)"/>
                    <path id="Path_10069" d="M432.523 226.368l.108 4.2 10.876-2.15 25.564 5.851.195-3.861-25.654-9.75z" class="cls-31" data-name="Path 10069" transform="translate(-432.523 -220.659)"/>
                    <path id="Path_10070" d="M459.813 220.659l-.1 7.761 25.316 10.77.444-8.781z" class="cls-32" data-name="Path 10070" transform="translate(-448.724 -220.659)"/>
                </g>
                <path id="Path_10071" d="M443.611 220.659l-.161 12.027-10.517 9.673-.411-15.99z" class="cls-7" data-name="Path 10071" transform="translate(-432.523 -220.659)"/>
            </g>
            <path id="Path_10072" d="M451.435 265.473l-.719-41.19-1.5.771.657 40.48z" class="cls-33" data-name="Path 10072" transform="translate(-442.473 -222.818)"/>
            <path id="Path_10073" d="M442.69 268.108l-.068-39.614-1.437.74.109 38.957z" class="cls-34" data-name="Path 10073" transform="translate(-437.685 -225.327)"/>
            <path id="Path_10074" d="M435.812 270.675l-.48-38.1-1.005.639.344 37.507z" class="cls-35" data-name="Path 10074" transform="translate(-433.598 -227.757)"/>
        </g>
        <g id="Group_2621" data-name="Group 2621" transform="translate(320.801 197.772)">
            <path id="Path_10075" d="M413.661 300.094l-.688-5.759 14.164-7.417v6.742z" class="cls-36" data-name="Path 10075" transform="translate(-412.285 -275.238)"/>
            <path id="Path_10076" d="M466.643 297.152l.959-6.736-19.573-3.5v6.742z" class="cls-37" data-name="Path 10076" transform="translate(-433.176 -275.238)"/>
            <path id="Path_10077" d="M446.933 350.986h15.492l5.536-43.651-21.027-3.945z" class="cls-37" data-name="Path 10077" transform="translate(-432.523 -285.051)"/>
            <path id="Path_10078" d="M416.891 276.292v-1.471l14.494-16.8-.251 11.979-1.662-.3z" class="cls-36" data-name="Path 10078" transform="translate(-414.62 -258.024)"/>
            <path id="Path_10079" d="M452.393 258.024l15.471 13.325.543 1.558L452.142 270z" class="cls-38" data-name="Path 10079" transform="translate(-435.628 -258.024)"/>
            <path id="Path_10080" d="M446.048 312.522l.1-.814-20.473-4.743v-3.576l-14.41 7.206 4.377 40.391h10.033v-3.943l15.8 1.48.073-.578-15.877-1.8V342.1H442.3l.221-1.742-16.84.343v-5.45l17.39.767.1-.767-17.487-.565v-5.648h18.275l.094-.746-18.37-1.1v-4.928l18.917 1.719.082-.651-19-2.788v-4.862l19.768 1.584.1-.819-19.871-2.347v-4.834z" class="cls-36" data-name="Path 10080" transform="translate(-411.269 -285.051)"/>
            <path id="Path_10081" d="M446.933 303.389v14.465l17.867 14.395 3.159-24.914z" class="cls-14" data-name="Path 10081" transform="translate(-432.523 -285.051)"/>
            <path id="Path_10082" d="M449.407 322.167v1l18.554 2.65v-1.074z" class="cls-12" data-name="Path 10082" transform="translate(-433.998 -296.238)"/>
            <path id="Path_10083" d="M449.959 335.719l17.8 1.361v.465l-17.8-.913z" class="cls-12" data-name="Path 10083" transform="translate(-434.327 -304.312)"/>
            <path id="Path_10084" d="M452.142 340.237l8.687.591v.7l-8.687-.644z" class="cls-12" data-name="Path 10084" transform="translate(-435.628 -307.004)"/>
            <path id="Path_10085" d="M449.959 352.46l16.659 1.5v.358l-16.659-.931z" class="cls-12" data-name="Path 10085" transform="translate(-434.327 -314.286)"/>
            <path id="Path_10086" d="M448.028 384.614l16.381.824v.573l-16.381-.886z" class="cls-12" data-name="Path 10086" transform="translate(-433.176 -333.442)"/>
            <path id="Path_10087" d="M448.028 387.337l8.3.161-.111.349h-8.077z" class="cls-12" data-name="Path 10087" transform="translate(-433.176 -335.065)"/>
            <path id="Path_10088" d="M469.206 376.78l-13.456-.537v.537l13.261.591z" class="cls-12" data-name="Path 10088" transform="translate(-437.778 -328.455)"/>
            <path id="Path_10089" d="M463.406 400.827l-15.378-.358.167.358 15.211.824z" class="cls-12" data-name="Path 10089" transform="translate(-433.176 -342.888)"/>
            <path id="Path_10090" d="M476.7 404.564l-6.129-.286.111.573 5.739.215z" class="cls-12" data-name="Path 10090" transform="translate(-446.613 -345.157)"/>
            <path id="Path_10091" d="M448.511 305.293l16.047 2.806-.251.739-15.434-2.793z" class="cls-12" data-name="Path 10091" transform="translate(-433.464 -286.185)"/>
        </g>
        <g id="Group_2622" data-name="Group 2622" transform="translate(380.403 203.763)">
            <path id="Path_10092" d="M575.122 298.382s.475-14.022 1.62-14.278.232 13.921.232 13.921z" class="cls-39" data-name="Path 10092" transform="translate(-568.521 -279.55)"/>
            <path id="Path_10093" d="M577.278 333.935l-9.522-.751-6-6.85-.905-50.75 9.552-1.293 16.655 3.219z" class="cls-40" data-name="Path 10093" transform="translate(-560.019 -273.706)"/>
            <path id="Path_10094" d="M560.855 275.583l9.552-1.293-2.652 58.894-6-6.85z" class="cls-41" data-name="Path 10094" transform="translate(-560.019 -273.706)"/>
            <path id="Path_10095" d="M585.828 276.648l-16.7-3.8-10.345 1.22.836.657 9.552-1.293z" class="cls-42" data-name="Path 10095" transform="translate(-558.785 -272.845)"/>
            <path id="Path_10096" d="M569.374 275.553l-1.061 55.891-2.544-2.907-.319-52.453z" class="cls-43" data-name="Path 10096" transform="translate(-562.758 -274.458)"/>
            <path id="Path_10097" d="M566.733 331.136l.5.568 2.11-56.668-1.546.209-.068 3.613-3.836-.033-.019-3.048-1.071.145.938 51.792.452.516-.116-19.077 3.067.539zm.78-41.059l-.085 4.489-3.443-.194-.031-5.031zm-3.562-1.2l-.027-4.393 3.692.186-.084 4.415zm3.463 6.42l-.057 3-3.352-.479-.019-3.055zm-.067 3.541l-.1 5.056-3.213-.614-.027-4.485zm.359-18.908l-.079 4.156-3.706-.165-.028-4.655zm-3.637 28.451l-.027-4.435 3.2.252-.081 4.308z" class="cls-12" data-name="Path 10097" transform="translate(-561.178 -274.15)"/>
            <path id="Path_10098" d="M565.2 365.513l3.723.668-.037.474-3.558-.587z" class="cls-44" data-name="Path 10098" transform="translate(-562.607 -328.053)"/>
            <path id="Path_10099" d="M575.875 274.921l-2.109 56.668.1.118 2.58-56.864z" class="cls-45" data-name="Path 10099" transform="translate(-567.713 -274.035)"/>
            <path id="Path_10100" d="M577.934 419.982l7.031 2.039-.461-.649.071-.867z" class="cls-46" data-name="Path 10100" transform="translate(-570.197 -360.504)"/>
            <path id="Path_10101" d="M586.74 277.634l14.746 3.409-.3.585-14.5-3.319z" class="cls-12" data-name="Path 10101" transform="translate(-575.414 -275.698)"/>
            <path id="Path_10102" d="M586.344 283l13.579 2.743-.05.635-13.564-2.931z" class="cls-12" data-name="Path 10102" transform="translate(-575.188 -278.895)"/>
            <path id="Path_10103" d="M586.961 285.9l10.941 2.018-.025.319-10.67-1.8z" class="cls-12" data-name="Path 10103" transform="translate(-575.577 -280.624)"/>
            <path id="Path_10104" d="M586.885 315.089l10.865 1.354-.063.8-10.6-1.487z" class="cls-12" data-name="Path 10104" transform="translate(-575.531 -298.012)"/>
            <path id="Path_10105" d="M561.169 293.17l8.648-5.768.59-13.112-9.552 1.293z" class="cls-3" data-name="Path 10105" transform="translate(-560.019 -273.706)"/>
        </g>
        <g id="Group_2624" data-name="Group 2624" transform="translate(236.045 183.234)">
            <path id="Path_10106" d="M221.775 247.619l.356-25.559h.423l.524 25.56-.7-.56z" class="cls-47" data-name="Path 10106" transform="translate(-213.583 -222.06)"/>
            <g id="Group_2623" data-name="Group 2623" transform="translate(0 35.329)">
                <path id="Path_10107" d="M220.55 357.365l-2.138-47.908 13.952 11.673-3.216 35.66z" class="cls-47" data-name="Path 10107" transform="translate(-211.578 -309.457)"/>
                <path id="Path_10108" d="M208.333 309.457l-6.833 3.163 4.4 40.277 4.569 4.468z" class="cls-48" data-name="Path 10108" transform="translate(-201.499 -309.457)"/>
                <path id="Path_10109" d="M210.452 349.536l-.021-.462-1.614-.253-.276-4.034 1.7-.051-.018-.4-1.7.108-.384-5.621 1.828.165v-.415l-1.858-.192-.364-5.331 1.971-.118-.015-.332-1.977.15-.394-5.774 2.1-.456-.008-.173-2.107.4-.3-4.33 2.2-.234v-.358l-2.224.249-.407-5.962 2.353-.521-.024-.545-2.36.608-.234-3.421-.307.142.229 3.359-2.518.648-.271-2.822-.282.131.273 2.764-1.265.326.033.3 1.266-.281.553 5.605-1.222.137.035.319 1.219-.129.448 4.547-1.161.22.036.333 1.154-.251.53 5.372-1.115.085.026.236 1.114-.066.484 4.913L204.5 338l.053.489 1.074.1.591 5.992-.993.063.026.24.993-.03.357 3.618-.975-.152v.225l1 .205.667 6.762.2.194-.663-6.914 1.694.347.554 8.116.339.332-.572-8.383zm-6.695-32.8l2.514-.557.4 5.928-2.379.266zm.571 5.965l2.371-.252.3 4.356-2.234.424zm.462 4.825l2.223-.482.391 5.73-2.1.159zm.543 5.667l2.091-.125.36 5.28-1.977-.2zm.52 5.423l1.962.177.387 5.669-1.778.112zm.948 9.894l-.35-3.656 1.775-.053.271 3.974z" class="cls-49" data-name="Path 10109" transform="translate(-201.903 -311.107)"/>
            </g>
            <path id="Path_10110" d="M203.353 330.128l5.647-5.78-.665-14.891-6.835 3.163z" class="cls-3" data-name="Path 10110" transform="translate(-201.499 -274.128)"/>
            <path id="Path_10111" d="M212.92 360.594l-5.271 5.221.564 5.158 5.051-2.684z" class="cls-3" data-name="Path 10111" transform="translate(-205.164 -304.594)"/>
            <path id="Path_10112" d="M223.08 295.724l-.423-12.321 2.871 2.313 7.1 18z" class="cls-47" data-name="Path 10112" transform="translate(-214.108 -258.606)"/>
            <path id="Path_10113" d="M214.934 283.4l-1.715 1.611-3.52 10.55 3.52-1.63 2.138 1.789z" class="cls-48" data-name="Path 10113" transform="translate(-206.386 -258.606)"/>
            <path id="Path_10114" d="M222.537 229.2h.523l.024 1.186-.56-.224z" class="cls-12" data-name="Path 10114" transform="translate(-214.029 -226.316)"/>
            <path id="Path_10115" d="M222.448 235.747l.614-.068.019.949-.644-.1z" class="cls-12" data-name="Path 10115" transform="translate(-213.978 -230.174)"/>
            <path id="Path_10116" d="M222.351 242.541l.708-.079.025 1.2-.745-.212z" class="cls-12" data-name="Path 10116" transform="translate(-213.918 -234.215)"/>
            <path id="Path_10117" d="M222.271 248.374l.789-.14.022 1.074-.822-.174z" class="cls-12" data-name="Path 10117" transform="translate(-213.872 -237.654)"/>
            <path id="Path_10118" d="M222.154 256.253l.9-.1.034 1.678-.95-.419z" class="cls-12" data-name="Path 10118" transform="translate(-213.799 -242.371)"/>
            <path id="Path_10119" d="M221.994 266.684l1.044-.151.052 2.517-1.121-.553z" class="cls-12" data-name="Path 10119" transform="translate(-213.698 -248.555)"/>
        </g>
        <g id="Group_2626" data-name="Group 2626" transform="translate(398.591 218.719)">
            <g id="Group_2625" data-name="Group 2625">
                <path id="Path_10120" d="M637.207 316.583l-16.763-6.739L617.337 357l19.955.975z" class="cls-50" data-name="Path 10120" transform="translate(-611.867 -309.844)"/>
                <path id="Path_10121" d="M612.527 309.844l-7.513 2.95-.96 43.749 5.367.457z" class="cls-51" data-name="Path 10121" transform="translate(-603.95 -309.844)"/>
                <path id="Path_10122" d="M606.2 324.813l7.107-1.178 17.142 4.459-.017 1.3-17.1-4.223-7.147.459z" class="cls-52" data-name="Path 10122" transform="translate(-605.217 -318.06)"/>
                <path id="Path_10123" d="M605.422 364.251l6.475-.145 18.244 1.944v2.289l-18.354-2.628-6.37-.514z" class="cls-53" data-name="Path 10123" transform="translate(-604.766 -342.171)"/>
                <path id="Path_10124" d="M604.947 382.92l6.154-.084 18.758 1.907v.818l-18.776-1.01-6.162-.541z" class="cls-54" data-name="Path 10124" transform="translate(-604.469 -353.33)"/>
                <path id="Path_10125" d="M604.477 404.315l5.728.65 19.39.631v1.3l-19.482-.57-5.665-.821z" class="cls-55" data-name="Path 10125" transform="translate(-604.188 -366.126)"/>
                <path id="Path_10126" d="M605.981 334.022l7.079-1.5 17.216 3.913v.242l-17.254-3.812-7.058 1.383z" class="cls-56" data-name="Path 10126" transform="translate(-605.088 -323.354)"/>
                <path id="Path_10127" d="M605.59 354.92l6.63.278 18.012 2.777v.7L612.2 355.5l-6.617-.286z" class="cls-57" data-name="Path 10127" transform="translate(-604.863 -336.698)"/>
                <path id="Path_10128" d="M605.139 375.356l6.28.078 18.557 1.787v2.1l-18.571-3.712-6.279.142z" class="cls-58" data-name="Path 10128" transform="translate(-604.592 -348.874)"/>
                <path id="Path_10129" d="M604.678 395.522l25.035 2.2v.509l-19.155-1.989-5.9-.482z" class="cls-59" data-name="Path 10129" transform="translate(-604.31 -360.888)"/>
                <path id="Path_10130" d="M604.244 416.327l5.526.486 19.709 1.051v.541l-19.737-1.193-5.5-.64z" class="cls-60" data-name="Path 10130" transform="translate(-604.061 -373.283)"/>
                <path id="Path_10131" d="M606.349 312.794l-.055 2.49 7.266-.853 16.967 4.505.029-2.334-16.694-6.758z" class="cls-61" data-name="Path 10131" transform="translate(-605.286 -309.844)"/>
                <path id="Path_10132" d="M603.945 417.374l25.275 2.726v1.937l-25.42-1.327z" class="cls-62" data-name="Path 10132" transform="translate(-603.799 -373.907)"/>
                <path id="Path_10133" d="M604.947 344.779l6.371 6.942 2.6 4.344.185 21.983-4.5-.228-5.367-.458.075-3.409z" class="cls-63" data-name="Path 10133" transform="translate(-604.057 -330.657)"/>
                <path id="Path_10134" d="M624.579 309.844l-.3 4.588L641.2 322l.07-5.443z" class="cls-64" data-name="Path 10134" transform="translate(-616.003 -309.844)"/>
            </g>
            <path id="Path_10135" d="M613.636 309.844l-.467 7.109-7.254 5.317.208-9.477z" class="cls-7" data-name="Path 10135" transform="translate(-605.06 -309.844)"/>
        </g>
        <g id="Group_2627" data-name="Group 2627" transform="translate(350.078 239.827)">
            <path id="Path_10136" d="M486.443 387.236l-2.713-23.728 25.492-1.447-2.5 25.72z" class="cls-65" data-name="Path 10136" transform="translate(-483.73 -362.061)"/>
            <path id="Path_10137" d="M540.631 387.781l4.16-.029 3.54-23.531-5.2-2.161z" class="cls-66" data-name="Path 10137" transform="translate(-517.64 -362.061)"/>
            <path id="Path_10138" d="M485.018 375.5l24.48-.949-.078.8-24.319.878z" class="cls-67" data-name="Path 10138" transform="translate(-484.497 -369.502)"/>
            <path id="Path_10139" d="M486.689 391.51l23.108.311-.088.91-22.981-.884z" class="cls-67" data-name="Path 10139" transform="translate(-485.494 -379.606)"/>
            <path id="Path_10140" d="M488.465 407.028l21.754.585-.07.717-21.643-.942z" class="cls-67" data-name="Path 10140" transform="translate(-486.551 -388.851)"/>
            <path id="Path_10141" d="M493.461 365.043l1.478 24.024.251.007-1.19-24.061z" class="cls-67" data-name="Path 10141" transform="translate(-489.529 -363.819)"/>
            <path id="Path_10142" d="M508.068 364.181l-.437 24.487.279.008.659-24.524z" class="cls-67" data-name="Path 10142" transform="translate(-497.974 -363.307)"/>
            <path id="Path_10143" d="M520.721 363.427l-.67 24.921.29.008 1.081-24.968z" class="cls-67" data-name="Path 10143" transform="translate(-505.376 -362.851)"/>
            <path id="Path_10144" d="M531.762 362.722l-2 25.324h.112l2.195-25.345z" class="cls-67" data-name="Path 10144" transform="translate(-511.161 -362.445)"/>
        </g>
        <g id="Group_2628" data-name="Group 2628" transform="translate(374.701 244.952)">
            <path id="Path_10145" d="M546.139 374.74l23.094 11.944.628 8.956h-25.189z" class="cls-68" data-name="Path 10145" transform="translate(-544.672 -374.74)"/>
            <path id="Path_10146" d="M572.024 395.64h5.952l1.287-7.624-24.188-11.134-6.775-2.142 23.1 11.944z" class="cls-47" data-name="Path 10146" transform="translate(-546.836 -374.74)"/>
            <path id="Path_10147" d="M559.155 403.957l-1.793-15.257 18.289 7.628-.954 7.629-.572-.151.811-7.155-16.973-6.678 1.783 13.984z" class="cls-67" data-name="Path 10147" transform="translate(-552.235 -383.057)"/>
        </g>
    </g>
</svg>
