<svg xmlns="http://www.w3.org/2000/svg" id="business_people" width="119.003" height="136" data-name="business people" viewBox="0 0 119.003 136">
    <defs>
        <style>
            .cls-1{fill:#eea886}.cls-2{fill:#0e1e2b}.cls-3{fill:url(#linear-gradient)}.cls-4{fill:url(#linear-gradient-2)}.cls-5{fill:#db9c7c}.cls-14,.cls-6{fill:#1d3b54}.cls-7{fill:url(#linear-gradient-3)}.cls-8{fill:url(#linear-gradient-4)}.cls-9{fill:#e5beff}.cls-10{fill:#252e3b}.cls-11{fill:url(#linear-gradient-5)}.cls-12{fill:#fff}.cls-13{fill:#a77860}.cls-14{opacity:.5}.cls-15{fill:#8e4f3a}.cls-16{fill:#ad9f9a}.cls-17{fill:#202338}.cls-18{fill:#071828}.cls-19{fill:#1d2033}.cls-20{fill:url(#linear-gradient-8)}.cls-21{fill:#eea987}.cls-22{fill:#e8734d}.cls-23{fill:url(#linear-gradient-10)}.cls-24{fill:url(#linear-gradient-11)}.cls-25{fill:#3a4066}.cls-26{fill:#efaa88}.cls-27{fill:#1c1f32}.cls-28{fill:#16202e}.cls-29{filter:url(#Path_55)}.cls-30{filter:url(#Path_54)}.cls-31{filter:url(#Path_33)}.cls-32{filter:url(#Path_32)}
        </style>
        <linearGradient id="linear-gradient" x1=".5" x2=".5" y2="1" gradientUnits="objectBoundingBox">
            <stop offset="0" stop-color="#973c1f"/>
            <stop offset="1" stop-color="#401a0d"/>
        </linearGradient>
        <linearGradient id="linear-gradient-2" x1=".5" x2=".5" y2="1" gradientUnits="objectBoundingBox">
            <stop offset="0" stop-color="#0d65bb"/>
            <stop offset="1" stop-color="#14293a"/>
        </linearGradient>
        <linearGradient id="linear-gradient-3" x1=".5" x2=".5" y2="1" gradientUnits="objectBoundingBox">
            <stop offset="0" stop-color="#004e9a"/>
            <stop offset="1" stop-color="#003365"/>
        </linearGradient>
        <linearGradient id="linear-gradient-4" x1=".5" x2=".5" y2="1" gradientUnits="objectBoundingBox">
            <stop offset="0" stop-color="#fff"/>
            <stop offset=".102" stop-color="#fcf8ff"/>
            <stop offset="1" stop-color="#e5beff"/>
        </linearGradient>
        <linearGradient id="linear-gradient-5" x1=".5" x2=".5" y2="1" gradientUnits="objectBoundingBox">
            <stop offset="0" stop-color="#0d65bb"/>
            <stop offset="1" stop-color="#003365"/>
        </linearGradient>
        <filter id="Path_32" width="6.672" height="8.904" x="17.638" y="19.748" filterUnits="userSpaceOnUse">
            <feOffset dy="1"/>
            <feGaussianBlur result="blur" stdDeviation=".5"/>
            <feFlood flood-opacity=".2"/>
            <feComposite in2="blur" operator="in"/>
            <feComposite in="SourceGraphic"/>
        </filter>
        <filter id="Path_33" width="9.042" height="10.318" x="9.958" y="20.607" filterUnits="userSpaceOnUse">
            <feOffset dy="1"/>
            <feGaussianBlur result="blur-2" stdDeviation=".5"/>
            <feFlood flood-opacity=".2"/>
            <feComposite in2="blur-2" operator="in"/>
            <feComposite in="SourceGraphic"/>
        </filter>
        <linearGradient id="linear-gradient-8" x1=".5" x2=".5" y2="1" gradientUnits="objectBoundingBox">
            <stop offset="0" stop-color="#323657"/>
            <stop offset="1" stop-color="#0a0b11"/>
        </linearGradient>
        <linearGradient id="linear-gradient-10" x1=".5" x2=".5" y2="1" gradientUnits="objectBoundingBox">
            <stop offset="0" stop-color="#e8734d"/>
            <stop offset="1" stop-color="#ff2300"/>
        </linearGradient>
        <filter id="Path_54" width="5.518" height="8.145" x="90.133" y="21.234" filterUnits="userSpaceOnUse">
            <feOffset dy="1"/>
            <feGaussianBlur result="blur-3" stdDeviation=".5"/>
            <feFlood flood-opacity=".2"/>
            <feComposite in2="blur-3" operator="in"/>
            <feComposite in="SourceGraphic"/>
        </filter>
        <filter id="Path_55" width="8.652" height="9.793" x="92.65" y="19.9" filterUnits="userSpaceOnUse">
            <feOffset dy="1"/>
            <feGaussianBlur result="blur-4" stdDeviation=".5"/>
            <feFlood flood-opacity=".2"/>
            <feComposite in2="blur-4" operator="in"/>
            <feComposite in="SourceGraphic"/>
        </filter>
        <linearGradient id="linear-gradient-11" x1=".993" x2="-.186" y1=".091" y2="1.131" gradientUnits="objectBoundingBox">
            <stop offset="0" stop-color="#2d314f"/>
            <stop offset="1" stop-color="#0a0b11"/>
        </linearGradient>
    </defs>
    <g id="Group_3088" data-name="Group 3088">
        <g id="Group_5" data-name="Group 5" transform="translate(30.128 66.259)">
            <g id="Group_4" data-name="Group 4">
                <g id="Group_3" data-name="Group 3">
                    <path id="Path_8" d="M1198.467 1463.224a3.83 3.83 0 0 1 .8 1.094 6.333 6.333 0 0 0 .961 1.287 14.662 14.662 0 0 1 1.351 2.206 11.126 11.126 0 0 0 .133 1.66c.151.33.542.962.246 1.08s-.8-.355-.8-.355a.452.452 0 0 1-.108.491.784.784 0 0 1-.767.213s-.088.391-.309.494a1 1 0 0 1-.8.08.915.915 0 0 1-.532.327.836.836 0 0 1-.765-.249s-.546.255-.791.025a2.806 2.806 0 0 1-.437-.753 9.618 9.618 0 0 1-.42-4.22 3.814 3.814 0 0 0-1.088-3.1z" class="cls-1" data-name="Path 8" transform="translate(-1195.135 -1463.224)"/>
                </g>
            </g>
        </g>
        <g id="Group_6" data-name="Group 6" transform="translate(29.286 72.233)">
            <path id="Path_9" d="M1198.949 1508.232h-7.658a1.41 1.41 0 0 1-1.41-1.408v-4.818a1.41 1.41 0 0 1 1.41-1.407h7.658a1.41 1.41 0 0 1 1.41 1.407v4.818a1.41 1.41 0 0 1-1.41 1.408zm-7.658-6.688a.464.464 0 0 0-.464.463v4.818a.464.464 0 0 0 .464.463h7.658a.464.464 0 0 0 .464-.463v-4.818a.464.464 0 0 0-.464-.463z" class="cls-2" data-name="Path 9" transform="translate(-1189.881 -1500.599)"/>
        </g>
        <g id="Group_7" data-name="Group 7" transform="translate(20.16 77.797)">
            <rect id="Rectangle_37" width="28.732" height="20.539" class="cls-3" data-name="Rectangle 37" rx="2"/>
        </g>
        <g id="Group_8" data-name="Group 8" transform="translate(20.041 22.837)">
            <path id="Path_10" d="M1134.446 1191.54s-1.472.021-2.1 4.412.562 6.225.7 8.052 2.29 13.628 2.348 14.15.347 6.8 1.184 8.469 7 11.111 7.077 11.583 2.99-1.646 2.99-1.646-4.837-10.1-5.118-11.256-2.228-7.039-1.92-8.836-.862-11.709-.749-12.812-1.592-11.445-4.412-12.116z" class="cls-1" data-name="Path 10" transform="translate(-1132.165 -1191.54)"/>
        </g>
        <g id="Group_9" data-name="Group 9" transform="translate(19.942 22.837)">
            <path id="Path_11" d="M1133.926 1191.54s-1.472.021-2.1 4.412a17.917 17.917 0 0 0 .319 7.875c.359 1.8 1.579 12.792 1.638 13.313s1.519 7.151 2.279 9.483c.578 1.772 6.068 11.055 6.151 11.527s4.268-2.169 4.268-2.169-5.368-10.45-5.649-11.6a45.787 45.787 0 0 1-1.219-6.966c-.035-2.141-1.384-12.652-1.271-13.755s-.31-10.618-4.416-12.12z" class="cls-4" data-name="Path 11" transform="translate(-1131.545 -1191.54)"/>
        </g>
        <g id="Group_11" data-name="Group 11" transform="translate(31.344 70.46)">
            <g id="Group_10" data-name="Group 10">
                <path id="Path_12" d="M1207.548 1492.052s-.514-1.994-1.157-2.292-.5.432-.5.432-.131-.724-.729-.683-.382.886-.382.886a.6.6 0 0 0-.816-.269c-.568.255-.226.917-.226.917s-.767-.546-.952.2a3.12 3.12 0 0 0 .628 2.417.662.662 0 0 0 .823.037.854.854 0 0 0 1.319-.082s1.036.269 1.135-.576c.001-.002 1.167.135.857-.987z" class="cls-5" data-name="Path 12" transform="translate(-1202.724 -1489.507)"/>
            </g>
        </g>
        <g id="Group_12" data-name="Group 12" transform="translate(34.017 123.839)">
            <path id="Path_13" d="M1225.536 1830.207s3.153 4.235 2.72 4.905-3.748.768-5.766 0-2.066-5.73-2.979-7.862c-.382-.892.436-3.528 1.585-3.719a4.855 4.855 0 0 1 2.4.37s-1.196 2.999 2.04 6.306z" class="cls-6" data-name="Path 13" transform="translate(-1219.416 -1823.491)"/>
        </g>
        <g id="Group_14" data-name="Group 14" transform="translate(34.968 123.779)">
            <g id="Group_13" data-name="Group 13">
                <path id="Path_14" d="M1228.5 1823.549a19.944 19.944 0 0 1 .906 3.525c.2 1.428 2.246 4.461 2.15 4.844s-2.691.731-3.748-.258-1.737-3.865-1.97-5.584a13.815 13.815 0 0 0-.49-2.393s2.144-1.189 3.152-.134z" class="cls-1" data-name="Path 14" transform="translate(-1225.348 -1823.112)"/>
            </g>
        </g>
        <g id="Group_15" data-name="Group 15" transform="translate(6.462 123.842)">
            <path id="Path_15" d="M1053.63 1830.288s3.039 4.165 2.607 4.835-3.748.767-5.766 0-2.066-5.73-2.979-7.862c-.382-.893.436-3.528 1.585-3.719a5.174 5.174 0 0 1 2.5.411s-1.177 3.033 2.053 6.335z" class="cls-6" data-name="Path 15" transform="translate(-1047.396 -1823.505)"/>
        </g>
        <g id="Group_17" data-name="Group 17" transform="translate(7.885 123.685)">
            <g id="Group_16" data-name="Group 16">
                <path id="Path_16" d="M1059.037 1823.128a28.312 28.312 0 0 0 .625 3.356c.384 1.39 2.451 4.554 2.354 4.938s-2.691.731-3.748-.258-1.874-3.851-1.97-5.584a9.194 9.194 0 0 1 .24-2.863 2.351 2.351 0 0 1 2.499.411z" class="cls-1" data-name="Path 16" transform="translate(-1056.281 -1822.523)"/>
            </g>
        </g>
        <g id="Group_19" data-name="Group 19" transform="translate(3.284 46.193)">
            <g id="Group_18" data-name="Group 18">
                <path id="Path_17" d="M1050.1 1346.827s2.705 12.557 3.327 15.719 2.361 18.473 2.547 21.078 2.823 12.414 2.7 13.344 3.909 19.61 3.909 19.61a2.43 2.43 0 0 1-2.829.1c-.747-.518-8.849-17.488-8.849-22.137 0-6.427-4.859-14.609-5.473-16.047-5.71-13.357-4.49-17.648-5.235-18.516s-.811.536-1.246 2.458-1.366 18.536-1.925 20.643-.125 9.238-.435 12.832-1.675 19.86-1.675 19.86a1.482 1.482 0 0 1-2.538.043c-.319-.346-2.559-18.117-2.621-22.394s-.128-10.177-.248-12.027c-1.152-17.725-3.98-20.257.475-32.8 8.345-23.493 20.116-1.766 20.116-1.766z" class="cls-1" data-name="Path 17" transform="translate(-1027.561 -1337.673)"/>
            </g>
        </g>
        <g id="Group_20" data-name="Group 20" transform="translate(2.441 51.837)">
            <path id="Path_18" d="M1027.515 1372.987s-7.707 10.762-4.389 33.657c0 0 18.281 2.48 28.075-2.87 0 0-4.05-23.6-5.517-27.278s-18.169-3.509-18.169-3.509z" class="cls-7" data-name="Path 18" transform="translate(-1022.296 -1372.986)"/>
        </g>
        <g id="Group_21" data-name="Group 21" transform="translate(34.028 127.225)">
            <path id="Path_19" d="M1219.483 1844.677v4.433h.577v-3.426z" class="cls-6" data-name="Path 19" transform="translate(-1219.483 -1844.677)"/>
        </g>
        <g id="Group_22" data-name="Group 22" transform="translate(6.473 127.225)">
            <path id="Path_20" d="M1047.463 1844.677v4.433h.577v-3.426z" class="cls-6" data-name="Path 20" transform="translate(-1047.463 -1844.677)"/>
        </g>
        <g id="Group_23" data-name="Group 23" transform="translate(3.899 21.108)">
            <path id="Path_21" d="M1045.5 1180.865a29.874 29.874 0 0 0 3.825 1.535c.986.2 4.811 5.154 5.482 6.964s0 4.525-1.38 7.712-.079 4.25-.71 7.437a74.009 74.009 0 0 0-1.065 11.706c.118 1.771-15.952 2.1-19.619-1.122 0 0 3.686-5.508 4.159-6.295s.079-5.076-.355-6.178-3.321-10.471-3.321-10.471-2.362-7.2-.229-8.849c1.854-1.436 6.905-1.948 7.812-2.263a15.52 15.52 0 0 1 5.401-.176z" class="cls-8" data-name="Path 21" transform="translate(-1031.399 -1180.716)"/>
        </g>
        <g id="Group_24" data-name="Group 24" transform="translate(18.828 20.248)">
            <path id="Path_22" d="M1124.674 1182.664l1.725-2.016-1.5-5.307a34.946 34.946 0 0 0-.225 7.323z" class="cls-9" data-name="Path 22" transform="translate(-1124.591 -1175.341)"/>
        </g>
        <g id="Group_25" data-name="Group 25" transform="translate(10.066 .647)">
            <path id="Path_23" d="M1074.249 1053.2c1.687-.592 7.888-2.046 9.347 5.863s-2.918 13.536-6.941 12.041-6.507-6.965-6.744-11.136a6.233 6.233 0 0 1 4.338-6.768z" class="cls-1" data-name="Path 23" transform="translate(-1069.895 -1052.701)"/>
        </g>
        <g id="Group_26" data-name="Group 26" transform="translate(9.228)">
            <path id="Path_24" d="M1079.2 1055.662s.3-6.768-6.44-7-8.558 5.3-8.006 9.341a9.881 9.881 0 0 0 3.343 6.167s-.242-3.267 1.066-4.115 6.554-2.54 8.841-6.474a6.027 6.027 0 0 1 1.196 2.081z" class="cls-10" data-name="Path 24" transform="translate(-1064.664 -1048.651)"/>
        </g>
        <g id="Group_27" data-name="Group 27" transform="translate(5.261 1.9)">
            <path id="Path_25" d="M1048.9 1065.476c.125 2.835-1.787 5.221-4.271 5.329s-4.6-2.1-4.722-4.935 1.788-5.22 4.271-5.329 4.598 2.1 4.722 4.935z" class="cls-10" data-name="Path 25" transform="translate(-1039.902 -1060.536)"/>
        </g>
        <g id="Group_28" data-name="Group 28" transform="translate(12.604 14.109)">
            <path id="Path_26" d="M1092.494 1140.8a67.43 67.43 0 0 0-.448 6.889s-2.95 2.951-6.306-3.443a8.76 8.76 0 0 0 .349-6.226c-1.063-3.588 6.405 2.78 6.405 2.78z" class="cls-1" data-name="Path 26" transform="translate(-1085.74 -1136.925)"/>
        </g>
        <g id="Group_29" data-name="Group 29" transform="translate(15.515 24.875)">
            <path id="Path_27" d="M1107.306 1204.29v2.7l-3.4-2.531z" class="cls-1" data-name="Path 27" transform="translate(-1103.91 -1204.29)"/>
        </g>
        <g id="Group_30" data-name="Group 30" transform="translate(11.215 21.107)">
            <path id="Path_28" d="M1084.765 1187.18l-1.41-1.741-4.749-4.722-1.536 1.476z" class="cls-9" data-name="Path 28" transform="translate(-1077.07 -1180.716)"/>
        </g>
        <g id="Group_31" data-name="Group 31" transform="translate(2.438 21.559)">
            <path id="Path_29" d="M1031.93 1183.54s3.985 6.035 4.176 8.691-1.482 22.524-2.82 28.911-11.011-.72-11.011-.72 6.5-10.5 4-18.9-3.4-11.765-3.4-11.765.859-4.68 3.9-5.339c2.67-.578 5.155-.878 5.155-.878z" class="cls-11" data-name="Path 29" transform="translate(-1022.275 -1183.54)"/>
        </g>
        <g id="Group_32" data-name="Group 32" transform="translate(20.11 22.188)">
            <path id="Path_30" d="M1140.061 1195.847s.719 2.538-2.082 8.148c0 0 .044 7.179.123 9.422s1.668 10.307 1.668 10.307l-3.826 2.034a.781.781 0 0 1-1.171-.767c.784-6.454 3.336-30.937-2.176-37.517l2.212.65a17.867 17.867 0 0 1 5.252 7.723z" class="cls-11" data-name="Path 30" transform="translate(-1132.598 -1187.474)"/>
        </g>
        <g id="Group_33" data-name="Group 33" transform="translate(12.406 9.348)">
            <path id="Path_31" d="M1086.505 1107.764a1.04 1.04 0 0 0-1.538-.44c-.473.354-.749 1.417 0 2.794s3.392 2.336 1.538-2.354z" class="cls-1" data-name="Path 31" transform="translate(-1084.503 -1107.142)"/>
        </g>
        <g id="Group_34" class="cls-32" data-name="Group 34" transform="translate(-.002 -.002)">
            <path id="Path_32-2" d="M1128.025 1180.648l2.174.6-3.672-5.906z" class="cls-12" data-name="Path 32" transform="translate(-1107.39 -1155.09)"/>
        </g>
        <g id="Group_35" class="cls-31" data-name="Group 35" transform="translate(-.002 -.003)">
            <path id="Path_33-2" d="M1084.628 1185.438l-1.986 2.6-4.057-6.784 1.293-.536z" class="cls-12" data-name="Path 33" transform="translate(-1067.13 -1159.61)"/>
        </g>
        <g id="Group_36" data-name="Group 36" transform="translate(13.731 16.876)">
            <path id="Path_34" d="M1098.283 1156.5l-.1 1.024s-2.339.457-5.407-3.277a6.666 6.666 0 0 0 5.507 2.253z" class="cls-13" data-name="Path 34" transform="translate(-1092.772 -1154.243)"/>
        </g>
        <path id="Path_35" d="M1166.85 1282.036s.132 8.962-.416 13.284l-.243-11.876z" class="cls-14" data-name="Path 35" transform="translate(-1140.7 -1244.735)"/>
        <g id="Group_38" data-name="Group 38" transform="translate(21.375 43.831)">
            <g id="Group_37" data-name="Group 37">
                <path id="Path_36" d="M1140.5 1326.133a14.8 14.8 0 0 0 .391-2.761c-.1-.518.618-.885.709.39s.134 2.084.134 2.084z" class="cls-1" data-name="Path 36" transform="translate(-1140.496 -1322.895)"/>
            </g>
        </g>
        <path id="Path_37" d="M1141.236 1324.963h-4.69l-.733-10.364h6.084z" class="cls-15" data-name="Path 37" transform="translate(-1115.188 -1272.094)"/>
        <g id="Group_40" data-name="Group 40" transform="translate(16.105 45.328)">
            <g id="Group_39" data-name="Group 39">
                <path id="Path_38" d="M1111.358 1335.237s-.039-.793 1.51-1.454c2.058-.879 4.792-1.746 5.242-1.474.647.39.286.878-1.008 1.246s-1.719.485-1.719.485a10.709 10.709 0 0 1 3.053.185c.548.321.551 1.01.137 1.106a10.316 10.316 0 0 1-1.381.126s1.057.083 1.145.512c.066.317.086.768-.924.914 0 0 .65.78-.389 1.221a17.776 17.776 0 0 1-3.835.919 26.388 26.388 0 0 1-5.6-.4l1.225-2.724a3.256 3.256 0 0 0 1.741.035c.913-.352.803-.697.803-.697z" class="cls-1" data-name="Path 38" transform="translate(-1107.592 -1332.258)"/>
            </g>
        </g>
        <path id="Path_39" d="M1014.532 1191.175a3.955 3.955 0 0 0-4.4 3.42c-.5 3-.694 6.327-1.156 7.942s-2.659 9.826-1.668 10.418 3.018 1.231 5.349 2.452c2.231 1.168 13.08 5.713 13.08 5.713l.844-4.776a21.76 21.76 0 0 1-3.964-1.417c-1.883-.923-6.432-3.55-9.9-5.692 0 0 2.171-5.81 2.633-7.062s3.674-9.548-.818-10.998z" class="cls-11" data-name="Path 39" transform="translate(-1007.057 -1168.338)"/>
        <path id="Rectangle_38" d="M0 0h6.486v1.236H0z" class="cls-16" data-name="Rectangle 38" transform="translate(20.424 41.887)"/>
    </g>
    <g id="Group_3089" data-name="Group 3089" transform="translate(70.76 1)">
        <path id="Path_41" d="M1631.031 1843.122a19.5 19.5 0 0 0 1.665 2.624c.658.745 3.177 2.078 3.191 4.293.015 2.4-9.817-2.213-9.948-3.309a12.95 12.95 0 0 1 .679-3.608z" class="cls-17" data-name="Path 41" transform="translate(-1597.548 -1715.857)"/>
        <g id="Group_42" data-name="Group 42" transform="translate(.415 126.641)">
            <path id="Path_42" d="M1459.074 1839.632s-2.054 2.292-4.139 2.773-3.543 1.094-3.559 2.409 12.309-.527 12.7-1.516-.474-3.636-.448-3.951c.035-.389-4.554.285-4.554.285z" class="cls-17" data-name="Path 42" transform="translate(-1451.377 -1839.226)"/>
        </g>
        <g id="Group_43" data-name="Group 43" transform="translate(8.108 125.303)">
            <path id="Path_43" d="M1499.64 1831.522a9.5 9.5 0 0 0-.231 1.1c.041.022 4.7.577 4.558-.285-.114-.7-.278-1.458-.278-1.458z" class="cls-17" data-name="Path 43" transform="translate(-1499.405 -1830.876)"/>
        </g>
        <g id="Group_44" data-name="Group 44" transform="translate(28.965 126.137)">
            <path id="Path_44" d="M1629.766 1836.482a9.041 9.041 0 0 0-.156 1.05c.037.025 4.723.861 4.7.01a4.1 4.1 0 0 0-.432-1.463z" class="cls-17" data-name="Path 44" transform="translate(-1629.604 -1836.079)"/>
        </g>
        <g id="Group_45" data-name="Group 45" transform="translate(7.645 56.704)">
            <path id="Path_45" d="M1501.445 1407.58s-1.694 16.452-2.575 22.083c-1.03 6.585-1.379 12.025-1.666 15.434-.361 4.287-.431 25.373-.684 26.627s5.611.347 5.611.347 2.885-27.552 3.961-32.118c1-4.251 4.721-22.552 5.635-21.392s2.048 21.357 2.725 24.71 2.737 29.6 2.737 29.6 4.667.929 5.908-.121c0 0 .565-22.62.134-28.9-.164-2.4 2.807-28.722-1-39.321-2.017-5.607-20.786 3.051-20.786 3.051z" class="cls-18" data-name="Path 45" transform="translate(-1496.511 -1402.637)"/>
        </g>
        <g id="Group_46" data-name="Group 46" transform="translate(11.155 20.514)">
            <path id="Path_46" d="M1535.051 1214.2s-1.13-1.708-2.326-1.928 16.487-8.769 16.44-11.823c-.036-2.477-6.368-6.587-6.368-6.587a.056.056 0 0 1 0 .01.009.009 0 0 0 0 .008v.011c-.134.491-1.963 7.277-2.026 10.538-.067 3.385.2 15.027.2 15.027l-4.533 1.214-14.478.135-3.3-1.349s.361-3.743.5-6.373c.083-1.672.408-4.664.325-7.578a26.806 26.806 0 0 0-.252-4.4c-.032-5.839-.386-11.623-.386-11.623q-.294-3.971-.41-7.433a55.893 55.893 0 0 1 2.021-1.025c1.9-.906 4.551-2.126 6.252-2.905 1-.458 1.971-.792 1.971-.792s6.8-.651 7.348-.617a17.294 17.294 0 0 1 2.137.731 78.158 78.158 0 0 1 7.8 3.308c1.085.777 8.188 19.57 8.292 20.862.168 2.336-19.207 12.589-19.207 12.589z" class="cls-12" data-name="Path 46" transform="translate(-1518.422 -1176.716)"/>
        </g>
        <path id="Path_47" d="M1520.286 1435.825a120.443 120.443 0 0 0 18.656 0v2.859s-12.971 1.238-19.092-.545z" class="cls-19" data-name="Path 47" transform="translate(-1508.466 -1373.804)"/>
        <g id="Group_47" data-name="Group 47" transform="translate(8.51 21.547)">
            <path id="Path_48" d="M1504.4 1187.429c.076 2.348.19 4.867.39 7.564 0 0 .188 6.585.567 12.832a12.405 12.405 0 0 1 .122 2.746 109.22 109.22 0 0 1-.386 3.947c0 .018 0 .036-.005.052q-.057.5-.118 1v.015a146.115 146.115 0 0 1-3.025 17.359c-.158.5.387.971.775 1.33l2.72 1.715s1.121-10.323 1.493-13.828c.36-3.383 1.49-7.917 1.985-12.337.628-5.606 1.492-11.1 1.959-14.361 1.214-8.5 2.831-12.3 2.831-12.3-.778.237-9.308 4.266-9.308 4.266z" class="cls-20" data-name="Path 48" transform="translate(-1501.911 -1183.165)"/>
        </g>
        <g id="Group_48" data-name="Group 48" transform="translate(24.838 20.868)">
            <path id="Path_49" d="M1618.875 1201.445c1.179 2.586-10.825 7.2-10.554 7.834a29.118 29.118 0 0 0 3.3 4.649s15.805-7.817 15.628-9.59c-.128-1.291-7.534-20.8-8.618-21.578-.626-.45-5.268-2.1-7.546-2.994-.416-.164-1.837-.7-2.211-.84-.483.537-3.813 4.213-4.99 18.1-.2 2.34.428 7.3.846 11.341.446 4.316.94 7.684 1.3 11.293.714 7.11 1.213 12.768 1.213 12.768l7.077-3.15c1.145-.573 3.125-2.068 2.7-3.274-1.636-4.582-4.091-13.266-4.094-17.287 0 0 1.158-11.095 1.783-13.259a28 28 0 0 1 4.166 5.987z" class="cls-20" data-name="Path 49" transform="translate(-1603.845 -1178.927)"/>
        </g>
        <g id="Group_49" data-name="Group 49" transform="translate(21.454 13.965)">
            <path id="Path_50" d="M1589.384 1143.106a47.607 47.607 0 0 1 .946-7.052c.24-1.264-7.336 3.324-7.336 3.324s.023.443.039 1.04c.008.316.013.673.011 1.033 0 .126 0 .253-.005.377-.007.334-.022.654-.051.925a4.308 4.308 0 0 1-.253.911c-.312.72 4.098 1.268 6.649-.558z" class="cls-21" data-name="Path 50" transform="translate(-1582.72 -1135.833)"/>
        </g>
        <path id="Path_51" d="M1588.219 1196.5l-1.256 1.687a1.523 1.523 0 0 0 2.042.258z" class="cls-22" data-name="Path 51" transform="translate(-1564.829 -1172.814)"/>
        <path id="Path_52" d="M1568.54 1207.221s-4.763 18.338-3.781 32.611l1.6 2.824 1.5-2.958s.411-25.532 1.716-32.521z" class="cls-23" data-name="Path 52" transform="translate(-1546.069 -1181.783)"/>
        <path id="Path_53" d="M1586.408 1184.158l1.345 1.573s2.158-.419 2.792-1.546-4.137-.027-4.137-.027z" class="cls-21" data-name="Path 53" transform="translate(-1564.363 -1162.048)"/>
        <g class="cls-30" transform="translate(-70.76 -1)">
            <path id="Path_54-2" d="M1579.949 1178.079a6.484 6.484 0 0 0 1.653 2.95l-1.634 2.2-.884-4.554z" class="cls-12" data-name="Path 54" transform="translate(-1487.45 -1156.35)"/>
        </g>
        <g class="cls-29" transform="translate(-70.76 -1)">
            <path id="Path_55-2" d="M1599.677 1169.755s-2.691 3.421-4.873 4.284l1.015 2.51 4.637-5.6z" class="cls-12" data-name="Path 55" transform="translate(-1500.65 -1149.36)"/>
        </g>
        <g id="Group_50" data-name="Group 50" transform="rotate(-77 44.097 35.077)">
            <path id="Path_56" d="M2.724 0A14.919 14.919 0 0 0 .057 1.454c-.156.32.052.649.313.614s2.261-1.034 2.261-1.034A24.291 24.291 0 0 0 .053 2.322c-.095.122-.06.709.082.714s2.616-.788 2.616-.788a13.582 13.582 0 0 0-2.672.984c-.09.218.021.663.246.572s2.644-.4 2.644-.4-2.328.23-2.342.543c-.009.191.685.352.668.359s1.98 0 1.98 0z" class="cls-1" data-name="Path 56"/>
        </g>
        <g id="Group_52" data-name="Group 52" transform="rotate(-77 43.193 34)">
            <g id="Group_51" data-name="Group 51">
                <path id="Path_57" d="M6.465.422S2.132.106 2.155.094c.009.031.021.008 0 0S.5-.224.192.3 2.176.1 2.155.094A4.59 4.59 0 0 0 .192.3c-.437.313-.2 4.276 1.443 4.2s3.384-.448 3.68-.4S6.4 3.268 6.4 3.268z" class="cls-1" data-name="Path 57"/>
            </g>
        </g>
        <g id="Group_53" data-name="Group 53" transform="translate(1.217 25.27)">
            <path id="Path_58" d="M1389.3 1246.121s2.327-9.385 2.272-9.43c.061.1 0 .007 0 0 .013.036 4.312-14.918 4.284-14.905l.491-5.726s5.7-6.68 1.126-9.657a7.64 7.64 0 0 0-3.036.541c-1.105.6-2.465 8.245-2.865 9.116s-3.633 14.816-3.662 14.894-1.338 4.627-1.377 4.6-1.874 9.058-1.874 9.058z" class="cls-24" data-name="Path 58" transform="translate(-1384.662 -1206.403)"/>
        </g>
        <path id="Rectangle_39" d="M0 0h4.652v3.528H0z" class="cls-25" data-name="Rectangle 39" transform="rotate(180 11.902 32.85)"/>
        <path id="Path_59" d="M1603.317 1375.4a2.629 2.629 0 0 0 .827-.157s.433-.277.752-.456a2.355 2.355 0 0 1 .253-.127 4.825 4.825 0 0 0 1.391-.663c.545-.415 2.32-2.076 2.32-2.076l-1.147-1.764-.53-1.747a31.387 31.387 0 0 0-4.691.74 1.479 1.479 0 0 0-.152.1 6.093 6.093 0 0 0-.845.944c-.078.073-.8.844-.759 1.157a1.033 1.033 0 0 0 .54.846 2.459 2.459 0 0 0 .583 1.223 1.534 1.534 0 0 0 .788 1.1s.2.78.67.88z" class="cls-26" data-name="Path 59" transform="translate(-1576.394 -1317.186)"/>
        <path id="Path_60" d="M1633.77 1352.776a14.479 14.479 0 0 1-3.548-4.649l7.064-3.868 2.622 5.338z" class="cls-27" data-name="Path 60" transform="translate(-1601.157 -1296.906)"/>
        <g id="Group_54" data-name="Group 54" transform="translate(16.895 2.126)">
            <path id="Path_61" d="M1549.833 1065.692a8.662 8.662 0 0 0-.839 3.566 26.051 26.051 0 0 0 .546 5.092c0 .008 1.2 4.237 2.379 4.355s6.477-1.725 7.92-3.226 2.628-8.279 1.664-11.137-8.732-4.042-11.67 1.35z" class="cls-1" data-name="Path 61" transform="translate(-1548.988 -1061.922)"/>
        </g>
        <g id="Group_55" data-name="Group 55" transform="translate(16.941)">
            <path id="Path_62" d="M1555.012 1055.216a4.74 4.74 0 0 1 1.387-5.8c3.086-2.472 8.776 1.866 9.418 2.032s4.28.416 2.443 6.8c-1.578 5.486-1.8 5.717-1.8 5.717s-1.177-3.178-1.845-3.663a46.338 46.338 0 0 1-3.939-3.874 5.936 5.936 0 0 0-5.664-1.212z" class="cls-28" data-name="Path 62" transform="translate(-1554.546 -1048.653)"/>
        </g>
        <g id="Group_56" data-name="Group 56" transform="translate(25.075 8.01)">
            <path id="Path_63" d="M1605.744 1100.068c.15-.4.635-2.1 2.1-1.1s-.911 4.212-1.166 4.254-2.198.178-.934-3.154z" class="cls-1" data-name="Path 63" transform="translate(-1605.32 -1098.658)"/>
        </g>
        <path id="Path_64" d="M1584.689 1153.783c0 .126 0 .253-.005.377 4.334-1.454 5.172-3.643 5.172-3.643a29.559 29.559 0 0 1-5.178 2.232c.008.317.013.674.011 1.034z" class="cls-13" data-name="Path 64" transform="translate(-1562.91 -1134.199)"/>
    </g>
</svg>
