<svg xmlns="http://www.w3.org/2000/svg" width="15" height="12" viewBox="0 0 15 12">
    <g id="prefix__ic__arrow_right" data-name="ic_ arrow_right" transform="translate(-3 -5)">
        <path id="prefix__ic__arrow_right-2" d="M8.578 11.749a.874.874 0 0 1 0-1.212l3.577-3.68H.833a.857.857 0 0 1 0-1.714h11.322l-3.577-3.68a.875.875 0 0 1 0-1.213.818.818 0 0 1 1.178 0l5 5.143a.856.856 0 0 1 .143.2l.008.017.006.012v.017l.007.015a.882.882 0 0 1-.008.7l-.006.013v.017L14.9 6.4v.007l-.007.013-.008.014-.009.015-.01.015-.01.015-.01.014-.009.012v.005l-.008.01-.007.009-.005.006-.012.015-.034.036-5 5.139a.817.817 0 0 1-1.178 0z" data-name="ic_ arrow_right" transform="translate(3 5)" style="fill:#5333ed"/>
    </g>
</svg>
