<svg xmlns="http://www.w3.org/2000/svg" id="ic_phone_message" width="34" height="34" viewBox="0 0 34 34">
    <defs>
        <style>
            .cls-1{fill:#fff}
        </style>
    </defs>
    <g id="Group_2660" data-name="Group 2660">
        <g id="Group_2659" data-name="Group 2659">
            <path id="Path_10186" d="M31.012 8.035h-6.973V2.988A2.992 2.992 0 0 0 21.051 0H2.988A2.992 2.992 0 0 0 0 2.988v28.024A2.992 2.992 0 0 0 2.988 34h18.063a2.992 2.992 0 0 0 2.988-2.989v-7.039h6.975A2.992 2.992 0 0 0 34 20.984v-9.961a2.993 2.993 0 0 0-2.988-2.988zm-.412 1.992l-6.852 6.852a1 1 0 0 1-1.409 0l-6.852-6.852zM18.645 16l-4.567 4.567v-9.131zM1.992 2.988a1 1 0 0 1 1-1h18.059a1 1 0 0 1 1 1v1H1.992zm0 2.988h20.055v2.059h-6.973a2.993 2.993 0 0 0-2.988 2.988H4.98a1 1 0 1 0 0 1.992h7.105v7.969a2.992 2.992 0 0 0 2.988 2.988h6.984v2.059H1.992zm19.059 26.032H2.988a1 1 0 0 1-1-1v-2.985h20.071v2.988a1.009 1.009 0 0 1-1.008.997zM23.04 21.98h-7.556l4.569-4.569.877.877a2.992 2.992 0 0 0 4.226 0l.877-.877L30.6 21.98zm8.968-1.411L27.441 16l4.567-4.567z" class="cls-1" data-name="Path 10186"/>
        </g>
    </g>
    <g id="Group_2662" data-name="Group 2662" transform="translate(3.984 15.008)">
        <g id="Group_2661" data-name="Group 2661">
            <path id="Path_10187" d="M65.047 226H61a1 1 0 1 0 0 1.992h4.051a1 1 0 0 0 0-1.992z" class="cls-1" data-name="Path 10187" transform="translate(-60 -226)"/>
        </g>
    </g>
    <g id="Group_2664" data-name="Group 2664" transform="translate(3.984 18.992)">
        <g id="Group_2663" data-name="Group 2663">
            <path id="Path_10188" d="M63.055 286H61a1 1 0 0 0 0 1.992h2.059a1 1 0 0 0 0-1.992z" class="cls-1" data-name="Path 10188" transform="translate(-60 -286)"/>
        </g>
    </g>
</svg>
