<svg xmlns="http://www.w3.org/2000/svg" id="ic_group" width="34" height="34" viewBox="0 0 34 34">
    <defs>
        <style>
            .cls-1{fill:#fff}
        </style>
    </defs>
    <g id="Group_2646" data-name="Group 2646" transform="translate(0 18.063)">
        <g id="Group_2645" data-name="Group 2645">
            <path id="Path_10179" d="M30.26 280.765A4.977 4.977 0 0 0 27.027 272a5.034 5.034 0 0 0-5.047 4.98 4.919 4.919 0 0 0 1.785 3.786 7.093 7.093 0 0 0-1.783 1.3 7.013 7.013 0 0 0-1.75-1.3 4.98 4.98 0 1 0-6.465 0 7.014 7.014 0 0 0-1.745 1.3 6.96 6.96 0 0 0-1.749-1.3 4.98 4.98 0 1 0-6.478-.008A6.972 6.972 0 0 0 0 286.941a1 1 0 0 0 1 1h32a1 1 0 0 0 1-1 6.979 6.979 0 0 0-3.74-6.176zm-23.221-6.773a2.988 2.988 0 1 1-2.988 2.988 2.992 2.992 0 0 1 2.988-2.988zm3.06 11.953H2.094a5.04 5.04 0 0 1 4.945-3.984 4.972 4.972 0 0 1 3.786 1.744 6.918 6.918 0 0 0-.725 2.24zM17 273.992a2.988 2.988 0 1 1-2.988 2.988A2.992 2.992 0 0 1 17 273.992zm-4.88 11.953a4.981 4.981 0 0 1 9.761 0zm14.908-11.953a2.988 2.988 0 1 1 0 5.977 2.989 2.989 0 1 1 0-5.977zM23.9 285.945a6.917 6.917 0 0 0-.725-2.238 5.138 5.138 0 0 1 3.851-1.747 4.989 4.989 0 0 1 4.88 3.984z" class="cls-1" data-name="Path 10179" transform="translate(0 -272)"/>
        </g>
    </g>
    <g id="Group_2648" data-name="Group 2648" transform="translate(14.012 5.047)">
        <g id="Group_2647" data-name="Group 2647">
            <path id="Path_10180" d="M218.676 76.292a1 1 0 0 0-1.409 0l-3.28 3.28-1.287-1.288a1 1 0 1 0-1.409 1.409l1.992 1.992a1 1 0 0 0 1.409 0l3.984-3.984a1 1 0 0 0 0-1.409z" class="cls-1" data-name="Path 10180" transform="translate(-210.999 -76)"/>
        </g>
    </g>
    <g id="Group_2650" data-name="Group 2650" transform="translate(10.027)">
        <g id="Group_2649" data-name="Group 2649">
            <path id="Path_10181" d="M158.969 0A8.035 8.035 0 1 0 167 8.035 8.011 8.011 0 0 0 158.969 0zm0 14.078a6.043 6.043 0 0 1 0-12.086 6.124 6.124 0 0 1 6.043 6.043 6.124 6.124 0 0 1-6.043 6.043z" class="cls-1" data-name="Path 10181" transform="translate(-151)"/>
        </g>
    </g>
</svg>
