<svg xmlns="http://www.w3.org/2000/svg" width="14" height="16" viewBox="0 0 14 16">
    <defs>
        <linearGradient id="prefix__linear-gradient" x2="1" y1=".084" y2="1" gradientUnits="objectBoundingBox">
            <stop offset="0" stop-color="#fff"/>
            <stop offset="1" stop-color="#fff" stop-opacity=".361"/>
        </linearGradient>
    </defs>
    <path id="prefix__ic_file" fill="url(#prefix__linear-gradient)" d="M17.772 6.264l-3.885-4A.913.913 0 0 0 13.24 2h-7A2.131 2.131 0 0 0 4 4v12a2.131 2.131 0 0 0 2.24 2h9.52A2.131 2.131 0 0 0 18 16V6.8a.763.763 0 0 0-.228-.536zM12.75 3.6l3.273 3.2H13.4a.717.717 0 0 1-.48-.216.6.6 0 0 1-.168-.464z" transform="translate(-4 -2)"/>
</svg>
