<svg xmlns="http://www.w3.org/2000/svg" width="22" height="22" viewBox="0 0 22 22">
    <defs>
        <style>
            .cls-1{fill:none;opacity:0}.cls-2{fill:#717b83}
        </style>
    </defs>
    <g id="ic_business" transform="translate(-169 -548)">
        <path id="border" d="M0 0h22v22H0z" class="cls-1" transform="translate(169 548)"/>
        <g id="ic_business-2" data-name="ic_business" transform="translate(-53 -8)">
            <path id="business" d="M14.877 20H2.975A2.991 2.991 0 0 1 0 17V7a2.991 2.991 0 0 1 2.975-3h2.976V3a2.987 2.987 0 0 1 2.975-3h3.967a2.988 2.988 0 0 1 2.976 3v1h2.975a2.991 2.991 0 0 1 2.975 3v10a2.991 2.991 0 0 1-2.975 3zm3.967-2a1 1 0 0 0 .992-1V7a1 1 0 0 0-.992-1h-2.976v12zm-4.958 0V6H7.934v12zM1.983 7v10a1 1 0 0 0 .992 1h2.976V6H2.975a1 1 0 0 0-.992 1zm11.9-3V3a1 1 0 0 0-.993-1H8.926a1 1 0 0 0-.992 1v1z" class="cls-2" transform="translate(222 557)"/>
        </g>
    </g>
</svg>
