<svg xmlns="http://www.w3.org/2000/svg" width="9.5" height="12.5" viewBox="0 0 9.5 12.5">
    <defs>
        <style>
            .cls-1{fill:#fff;stroke:#fff;stroke-width:.5px}
        </style>
    </defs>
    <g id="ic_lock" transform="translate(-236.75 -100.75)">
        <g id="lock" transform="translate(237 101)">
            <path id="Path_10839" d="M7.875 199.5h-6.75A1.126 1.126 0 0 1 0 198.375v-5.25A1.126 1.126 0 0 1 1.125 192h6.75A1.126 1.126 0 0 1 9 193.125v5.25a1.126 1.126 0 0 1-1.125 1.125zm-6.75-6.75a.375.375 0 0 0-.375.375v5.25a.375.375 0 0 0 .375.375h6.75a.375.375 0 0 0 .375-.375v-5.25a.375.375 0 0 0-.375-.375zm0 0" class="cls-1" data-name="Path 10839" transform="translate(0 -187.5)"/>
            <path id="Path_10840" d="M69.625 5.25a.375.375 0 0 1-.375-.375V3a2.25 2.25 0 1 0-4.5 0v1.875a.375.375 0 0 1-.75 0V3a3 3 0 0 1 6 0v1.875a.375.375 0 0 1-.375.375zm0 0" class="cls-1" data-name="Path 10840" transform="translate(-62.5)"/>
        </g>
    </g>
</svg>
