<svg xmlns="http://www.w3.org/2000/svg" id="ic_language" width="18" height="18" viewBox="0 0 18 18">
    <defs>
        <style>
            .cls-1{fill:#fff}
        </style>
    </defs>
    <path id="Combined_Shape" d="M9 18h-.026A9 9 0 0 1 2.636 2.636 8.939 8.939 0 0 1 8.981 0h.038a9 9 0 0 1 6.345 15.364A8.939 8.939 0 0 1 9.026 18zm1.862-1.875a7.37 7.37 0 0 0 5.456-6.307h-3.267a13.318 13.318 0 0 1-2.189 6.307zm-3.724 0a13.355 13.355 0 0 1-2.186-6.307h-3.27a7.369 7.369 0 0 0 5.456 6.307zM9 15.913a11.758 11.758 0 0 0 2.409-6.095H6.593A11.787 11.787 0 0 0 9 15.913zm7.318-7.731a7.369 7.369 0 0 0-5.457-6.307 13.362 13.362 0 0 1 2.187 6.307zm-4.911 0A11.789 11.789 0 0 0 9 2.087a11.761 11.761 0 0 0-2.409 6.095zm-6.457 0a13.308 13.308 0 0 1 2.188-6.307 7.369 7.369 0 0 0-5.456 6.307z" class="cls-1" data-name="Combined Shape"/>
</svg>
