<svg xmlns="http://www.w3.org/2000/svg" width="20" height="16" viewBox="0 0 20 16">
    <defs>
        <style>
            .cls-1{fill:#fff}.cls-2{clip-path:url(#clip-path)}
        </style>
        <clipPath id="clip-path">
            <path id="Combined_Shape" d="M2.727 16A2.7 2.7 0 0 1 0 13.334V2.675v-.026A2.7 2.7 0 0 1 2.727 0h14.545A2.7 2.7 0 0 1 20 2.666v10.668A2.7 2.7 0 0 1 17.272 16zm-.909-2.666a.9.9 0 0 0 .909.889h14.545a.9.9 0 0 0 .909-.889v-8.96l-7.66 5.242a.925.925 0 0 1-1.042 0L1.818 4.374zM10 7.8l8.086-5.535a.912.912 0 0 0-.813-.492H2.727a.912.912 0 0 0-.813.492z" class="cls-1" data-name="Combined Shape"/>
        </clipPath>
    </defs>
    <g id="ic_mail" transform="translate(-1 -3)">
        <path id="Combined_Shape-2" d="M2.727 16A2.7 2.7 0 0 1 0 13.334V2.675v-.026A2.7 2.7 0 0 1 2.727 0h14.545A2.7 2.7 0 0 1 20 2.666v10.668A2.7 2.7 0 0 1 17.272 16zm-.909-2.666a.9.9 0 0 0 .909.889h14.545a.9.9 0 0 0 .909-.889v-8.96l-7.66 5.242a.925.925 0 0 1-1.042 0L1.818 4.374zM10 7.8l8.086-5.535a.912.912 0 0 0-.813-.492H2.727a.912.912 0 0 0-.813.492z" class="cls-1" data-name="Combined Shape" transform="translate(1 3)"/>
        <g id="Mask_Group_175" class="cls-2" data-name="Mask Group 175" transform="translate(1 3)">
            <g id="COLOR_black" data-name="COLOR/ black" transform="translate(-.909 -2.667)">
                <path id="Rectangle" d="M0 0h21.818v21.333H0z" class="cls-1"/>
            </g>
        </g>
    </g>
</svg>
