<svg xmlns="http://www.w3.org/2000/svg" width="20" height="20" viewBox="0 0 20 20">
    <defs>
        <style>
            .cls-1{fill:#fff}
        </style>
    </defs>
    <g id="ic_reviews" transform="translate(-286 -557)">
        <path id="feedback" d="M15.455 20H2.727A2.73 2.73 0 0 1 0 17.273V4.546a2.731 2.731 0 0 1 2.727-2.728h4.855a.909.909 0 1 1 0 1.818H2.727a.91.91 0 0 0-.909.91v12.727a.91.91 0 0 0 .909.909h12.728a.91.91 0 0 0 .909-.909v-4.854a.909.909 0 1 1 1.818 0v4.854A2.73 2.73 0 0 1 15.455 20zM10 14.546H6.364a.91.91 0 0 1-.909-.909V10a.915.915 0 0 1 .266-.642L14.812.266a.911.911 0 0 1 1.286 0L19.734 3.9a.91.91 0 0 1 0 1.285l-9.091 9.091a.913.913 0 0 1-.643.27zm5.455-12.352l-8.182 8.182v2.352h2.351l8.182-8.182-2.351-2.352z" class="cls-1" transform="translate(286 557)"/>
    </g>
</svg>
