<svg xmlns="http://www.w3.org/2000/svg" width="24.5" height="24.5" viewBox="0 0 24.5 24.5">
    <defs>
        <style>
            .cls-1{fill:#591ec0;stroke:#591ec0;stroke-width:.5px}
        </style>
    </defs>
    <g id="ic_selected" transform="translate(-319.75 -351.75)">
        <path id="check-mark" d="M17.3 8.192a.937.937 0 0 1 0 1.326l-6.289 6.289a.938.938 0 0 1-1.326 0L6.7 12.814a.937.937 0 0 1 1.326-1.326l2.331 2.331 5.626-5.627a.938.938 0 0 1 1.317 0zM24 12A12 12 0 1 1 12 0a11.993 11.993 0 0 1 12 12zm-1.875 0A10.125 10.125 0 1 0 12 22.125 10.119 10.119 0 0 0 22.125 12zm0 0" class="cls-1" transform="translate(320 352)"/>
    </g>
</svg>
