<svg xmlns="http://www.w3.org/2000/svg" width="18.66" height="18.506" viewBox="0 0 18.66 18.506">
    <defs>
        <style>
            .cls-1{fill:#fff;stroke:#fff;stroke-width:.5px}
        </style>
    </defs>
    <g id="ic_send" transform="translate(.321 .256)">
        <path id="Path_8124" d="M17.811 14.353a1.911 1.911 0 0 0-.875-.9L2.708 6.391a1.865 1.865 0 0 0-2.519.9 1.981 1.981 0 0 0-.054 1.56L2.609 15.2.135 21.541a1.956 1.956 0 0 0 1.059 2.519A1.831 1.831 0 0 0 2.708 24l14.228-7.066a1.958 1.958 0 0 0 .875-2.581zM2.16 22.84a.622.622 0 0 1-.84-.3.66.66 0 0 1-.02-.52l2.409-6.179h12.55zm1.551-8.289L1.3 8.372a.64.64 0 0 1 .155-.709.6.6 0 0 1 .7-.109l14.1 7H3.712z" class="cls-1" data-name="Path 8124" transform="translate(0 -6.197)"/>
    </g>
</svg>
