<svg xmlns="http://www.w3.org/2000/svg" width="22" height="21" viewBox="0 0 22 21">
    <defs>
        <style>
            .cls-1{fill:none;stroke:#b0bdc4;stroke-width:2px}
        </style>
    </defs>
    <path id="ic_star" d="M9.035 1.643L6.779 6.184a1.076 1.076 0 0 1-.811.585L.924 7.5a1.068 1.068 0 0 0-.6 1.825l3.65 3.534a1.066 1.066 0 0 1 .31.947l-.861 4.991a1.076 1.076 0 0 0 1.563 1.128l4.514-2.36a1.085 1.085 0 0 1 1 0l4.511 2.356a1.076 1.076 0 0 0 1.563-1.128l-.859-4.993a1.066 1.066 0 0 1 .31-.947l3.65-3.534a1.068 1.068 0 0 0-.6-1.825l-5.044-.728a1.076 1.076 0 0 1-.811-.585l-2.256-4.54a1.08 1.08 0 0 0-1.929.002z" class="cls-1" transform="translate(1.017 -.047)"/>
</svg>
