<svg xmlns="http://www.w3.org/2000/svg" id="ic_sync" width="34" height="34" viewBox="0 0 34 34">
    <defs>
        <style>
            .cls-1{fill:#6353f4}
        </style>
    </defs>
    <path id="Path_10219" d="M123.285 186.684a1 1 0 0 0 1.409 0l3.984-3.984a1 1 0 0 0-1.409-1.409l-3.28 3.28-1.288-1.288a1 1 0 0 0-1.409 1.409zm0 0" class="cls-1" data-name="Path 10219" transform="translate(-112.965 -168.98)"/>
    <path id="Path_10220" d="M332.292 274.692l1.992 1.992a1 1 0 0 0 1.409 0l3.984-3.984a1 1 0 0 0-1.409-1.409l-3.28 3.28-1.288-1.288a1 1 0 0 0-1.409 1.409zm0 0" class="cls-1" data-name="Path 10220" transform="translate(-309.954 -253.004)"/>
    <path id="Path_10221" d="M2.988 30.016h15.075v1A2.992 2.992 0 0 0 21.051 34h9.961A2.992 2.992 0 0 0 34 31.012V11.023a2.992 2.992 0 0 0-2.988-2.988h-6.973V2.988A2.992 2.992 0 0 0 21.051 0H2.988A2.992 2.992 0 0 0 0 2.988v24.039a2.992 2.992 0 0 0 2.988 2.989zm-1-2.988v-1.063h16.07v2.059H2.988a1 1 0 0 1-.996-.997zm30.016 1H20.055V14.012h11.953zm-1 3.984h-9.953a1 1 0 0 1-1-1v-1h11.957v1a1 1 0 0 1-.996.996zm1-20.984v1H20.055v-1a1 1 0 0 1 1-1h9.961a1 1 0 0 1 .992.995zM2.988 1.992h18.063a1 1 0 0 1 1 1v5.043h-1a2.992 2.992 0 0 0-2.988 2.988v12.95H1.992V2.988a1 1 0 0 1 .996-.996zm0 0" class="cls-1" data-name="Path 10221"/>
</svg>
