<svg xmlns="http://www.w3.org/2000/svg" width="15" height="21" viewBox="0 0 15 21">
    <defs>
        <style>
            .cls-1{fill:#fff}
        </style>
    </defs>
    <g id="ic_tap" transform="translate(-33 -257)">
        <path id="ic_tap-2" d="M18.107 14.44l-3.237-1.62a5.451 5.451 0 0 0 2.119-4.32A5.495 5.495 0 1 0 9 13.39v3.26l-1.838-.39-.1-.02a1.579 1.579 0 0 0-.32-.03 1.98 1.98 0 0 0-1.409.59s-1.119.573-.2 2.2a26.259 26.259 0 0 0 3.884 4.31 2.311 2.311 0 0 0 1.648.69h6.294a1.987 1.987 0 0 0 1.968-1.67l.8-4.71a2.993 2.993 0 0 0-1.618-3.18zm-.35 2.85l-.8 4.71h-6.293a.368.368 0 0 1-.24-.1l-3.676-3.68 4.246.89V8.5a.5.5 0 1 1 1 0v6h1.758l3.457 1.73a1.007 1.007 0 0 1 .549 1.06zM8 8.5a3.5 3.5 0 1 1 6.993 0 3.466 3.466 0 0 1-1 2.44V8.5a2.5 2.5 0 1 0-5 0v2.44A3.466 3.466 0 0 1 8 8.5z" class="cls-1" data-name="ic_tap" transform="translate(28.231 254)"/>
    </g>
</svg>
