<svg xmlns="http://www.w3.org/2000/svg" id="ic_upload_photo" width="24" height="24" viewBox="0 0 24 24">
    <defs>
        <style>
            .cls-1{fill:none}.cls-2{fill:#7438d9}
        </style>
    </defs>
    <path id="Path_10875" d="M0 0h24v24H0z" class="cls-1" data-name="Path 10875"/>
    <circle id="Ellipse_462" cx="3" cy="3" r="3" class="cls-2" data-name="Ellipse 462" transform="translate(9 9)"/>
    <path id="Path_10876" d="M20 4h-3.17l-1.24-1.35A1.991 1.991 0 0 0 14.12 2H9.88a2.029 2.029 0 0 0-1.48.65L7.17 4H4a2.006 2.006 0 0 0-2 2v12a2.006 2.006 0 0 0 2 2h16a2.006 2.006 0 0 0 2-2V6a2.006 2.006 0 0 0-2-2zm-8 13a5 5 0 1 1 5-5 5 5 0 0 1-5 5z" class="cls-2" data-name="Path 10876"/>
</svg>
