<svg xmlns="http://www.w3.org/2000/svg" xmlns:xlink="http://www.w3.org/1999/xlink" width="233.961" height="198.895" viewBox="0 0 233.961 198.895">
    <defs>
        <style>
            .cls-1{fill:url(#linear-gradient)}.cls-10,.cls-11,.cls-12,.cls-13,.cls-2,.cls-5,.cls-6,.cls-7,.cls-8,.cls-9{opacity:0}.cls-2{fill:url(#linear-gradient-2)}.cls-11,.cls-12,.cls-3{fill:none}.cls-3{stroke:#2f2e41}.cls-3,.cls-7{stroke-miterlimit:10}.cls-11,.cls-12,.cls-3,.cls-7{stroke-width:2px}.cls-4{fill:#2f2e41}.cls-5{fill:url(#linear-gradient-3)}.cls-6{fill:url(#linear-gradient-4)}.cls-7{fill:#4f2da7;stroke:#4f2da7}.cls-9{fill:url(#linear-gradient-5)}.cls-10{fill:url(#linear-gradient-6)}.cls-11,.cls-12{stroke:#aacffc;stroke-linecap:round}.cls-12{stroke:#9fbefb}.cls-14{fill:url(#linear-gradient-7)}.cls-15{fill:url(#linear-gradient-15)}.cls-16{fill:url(#linear-gradient-16)}.cls-17{fill:url(#linear-gradient-17)}.cls-18{fill:url(#linear-gradient-18)}.cls-19{fill:#e59974}.cls-20{fill:url(#linear-gradient-19)}.cls-21{fill:url(#linear-gradient-20)}.cls-22{fill:#180728}.cls-23{fill:url(#linear-gradient-21)}.cls-24{filter:url(#features)}.cls-25{filter:url(#Path_10523)}.cls-26{filter:url(#Path_10583)}.cls-27{filter:url(#Path_9411)}
        </style>
        <linearGradient id="linear-gradient" x1=".5" x2=".5" y2="1" gradientUnits="objectBoundingBox">
            <stop offset="0" stop-color="#3f3d56"/>
            <stop offset="1" stop-color="#0d0c11"/>
        </linearGradient>
        <filter id="Path_9411" width="168.82" height="186.785" x="5.961" y=".896" filterUnits="userSpaceOnUse">
            <feOffset dy="10"/>
            <feGaussianBlur result="blur" stdDeviation="10"/>
            <feFlood flood-opacity=".502"/>
            <feComposite in2="blur" operator="in"/>
            <feComposite in="SourceGraphic"/>
        </filter>
        <linearGradient id="linear-gradient-2" x1=".431" x2=".5" y1=".015" y2="1" gradientUnits="objectBoundingBox">
            <stop offset="0" stop-color="#0fe"/>
            <stop offset="1" stop-color="#4a3ad9"/>
        </linearGradient>
        <linearGradient id="linear-gradient-3" x1=".025" x2=".537" y1=".098" y2=".413" gradientUnits="objectBoundingBox">
            <stop offset="0" stop-color="#fff"/>
            <stop offset="1" stop-color="#9cfcff" stop-opacity="0"/>
        </linearGradient>
        <filter id="Path_10583" width="193.961" height="196.543" x="0" y="2.352" filterUnits="userSpaceOnUse">
            <feOffset dy="5"/>
            <feGaussianBlur result="blur-2" stdDeviation="15"/>
            <feFlood flood-color="#fff" flood-opacity=".8"/>
            <feComposite in2="blur-2" operator="in"/>
            <feComposite in="SourceGraphic"/>
        </filter>
        <linearGradient id="linear-gradient-4" x1=".237" x2=".748" y1=".035" y2=".912" gradientUnits="objectBoundingBox">
            <stop offset="0" stop-color="#fff"/>
            <stop offset="1" stop-color="#9cfcff"/>
        </linearGradient>
        <filter id="Path_10523" width="173.208" height="176.346" x="5.958" y="0" filterUnits="userSpaceOnUse">
            <feOffset dy="5"/>
            <feGaussianBlur result="blur-3" stdDeviation="15"/>
            <feFlood flood-color="#fff" flood-opacity=".8"/>
            <feComposite in2="blur-3" operator="in"/>
            <feComposite in="SourceGraphic"/>
        </filter>
        <linearGradient id="linear-gradient-5" x1=".224" x2=".733" y1=".105" y2="1" gradientUnits="objectBoundingBox">
            <stop offset="0" stop-color="#be95ff"/>
            <stop offset="1" stop-color="#6353f4"/>
        </linearGradient>
        <linearGradient id="linear-gradient-6" x1=".596" x2=".5" y1=".97" gradientUnits="objectBoundingBox">
            <stop offset="0" stop-color="#fff"/>
            <stop offset="1" stop-color="#9669f6"/>
        </linearGradient>
        <filter id="features" width="40.923" height="41.795" x="68.199" y="57.656" filterUnits="userSpaceOnUse">
            <feOffset dy="3"/>
            <feGaussianBlur result="blur-4" stdDeviation="3"/>
            <feFlood flood-opacity=".161"/>
            <feComposite in2="blur-4" operator="in"/>
            <feComposite in="SourceGraphic"/>
        </filter>
        <linearGradient id="linear-gradient-7" x1=".5" x2=".5" y2="1" gradientUnits="objectBoundingBox">
            <stop offset="0" stop-color="#35e7c1"/>
            <stop offset="1" stop-color="#6353f4"/>
        </linearGradient>
        <linearGradient id="linear-gradient-15" x2="1.591" y1=".152" y2="1.969" gradientUnits="objectBoundingBox">
            <stop offset="0" stop-color="#fff"/>
            <stop offset="1" stop-color="#cbabff"/>
        </linearGradient>
        <linearGradient id="linear-gradient-16" x1="-2.056" x2=".5" y1=".073" y2="1" gradientUnits="objectBoundingBox">
            <stop offset="0" stop-color="#c5cfd6"/>
            <stop offset="1" stop-color="#63686b"/>
        </linearGradient>
        <linearGradient id="linear-gradient-17" x1="-1.949" y1=".053" xlink:href="#linear-gradient-16"/>
        <linearGradient id="linear-gradient-18" x1="-1.721" xlink:href="#linear-gradient-16"/>
        <linearGradient id="linear-gradient-19" x1=".5" x2="1.726" y2="1.19" gradientUnits="objectBoundingBox">
            <stop offset="0" stop-color="#ee95ff"/>
            <stop offset="1" stop-color="#f0a"/>
        </linearGradient>
        <linearGradient id="linear-gradient-20" x1=".5" x2=".5" y2="1" gradientUnits="objectBoundingBox">
            <stop offset="0" stop-color="#ef89f8"/>
            <stop offset="1" stop-color="#d168e5"/>
        </linearGradient>
        <linearGradient id="linear-gradient-21" x1=".5" x2=".5" y2="1" gradientUnits="objectBoundingBox">
            <stop offset="0" stop-color="#ee92fd"/>
            <stop offset="1" stop-color="#d167e5"/>
        </linearGradient>
    </defs>
    <g id="ill_features" transform="translate(8.245 -16.998)">
        <g id="phone" transform="translate(0 -.234)">
            <g class="cls-27" transform="translate(-8.24 17.23)">
                <path id="Path_9411-2" d="M286.766 308.254l-39.3 8.02a7.587 7.587 0 0 0-5.439 10.482l44.803 102.085a9.988 9.988 0 0 0 12.071 5.53l45.285-13.921a8.514 8.514 0 0 0 5.021-12.14l-50.518-94.853a11.306 11.306 0 0 0-11.923-5.203z" class="cls-1" data-name="Path 9411" transform="translate(-205.42 -287.13)"/>
            </g>
            <path id="Path_9412" d="M254.451 320.018l6.462-1.272c.894 1.853 3.085 3.514 5.113 3.15l23.182-4.815a1.636 1.636 0 0 0 1.265-2.127l-.635-1.9 6.432-1.266a6.375 6.375 0 0 1 6.832 3.2l52.317 96.142a6.338 6.338 0 0 1-3.732 9.094L307.1 433.768a7.99 7.99 0 0 1-9.607-4.358l-46.379-102.937a4.638 4.638 0 0 1 3.338-6.454z" class="cls-2" data-name="Path 9412" transform="translate(-220.706 -272.646)"/>
            <path id="Line_37" d="M9.549 0L0 1.956" class="cls-3" data-name="Line 37" transform="translate(52.002 43.124)"/>
            <ellipse id="Ellipse_232" cx=".979" cy=".856" class="cls-4" data-name="Ellipse 232" rx=".979" ry=".856" transform="translate(48.344 45.05)"/>
            <g class="cls-26" transform="translate(-8.24 17.23)">
                <path id="Path_10583-2" d="M40.162.392L6.527 8.322c-2.094.357-4.58 1.4-5.564 2.98A5.468 5.468 0 0 0 .486 16.6l42.407 81.784a9.247 9.247 0 0 0 10.693 4.384l41.233-13.129a7.59 7.59 0 0 0 5-3.806 5.656 5.656 0 0 0-.319-5.643L51.106 2.876C48.8-.294 44.514-.351 40.162.392z" class="cls-5" data-name="Path 10583" transform="translate(48.6 42.35)"/>
            </g>
            <g class="cls-25" transform="translate(-8.24 17.23)">
                <path id="Path_10523-2" d="M32.54.318L4.489 6.955a5.594 5.594 0 0 0-3.86 2.489 4.163 4.163 0 0 0-.158 4.126l34.235 66.2a7.272 7.272 0 0 0 8.481 3.554l32.707-10.646a6.04 6.04 0 0 0 3.969-3.086 4.674 4.674 0 0 0-.26-4.575L41.221 2.332C39.394-.239 35.993-.285 32.54.318z" class="cls-6" data-name="Path 10523" transform="translate(53.88 40)"/>
            </g>
            <path id="Path_9417" d="M496.317 424.293c-3.623-9.427-13.626-14.829-21.657-12.284-7.361 2.333-10.385 10.612-7.291 18.663s11.512 13.808 19.377 12.786c8.58-1.116 13.193-9.739 9.571-19.165z" class="cls-7" data-name="Path 9417" transform="translate(-403.341 -333.074)"/>
            <path id="Path_9418" d="M496.317 424.293c-3.623-9.427-13.626-14.829-21.657-12.284-7.361 2.333-10.385 10.612-7.291 18.663s11.512 13.808 19.377 12.786c8.58-1.116 13.193-9.739 9.571-19.165z" class="cls-8" data-name="Path 9418" transform="translate(-403.341 -333.074)"/>
            <path id="Path_9419" d="M501.317 419.293c-3.623-9.426-13.626-14.828-21.657-12.283-7.361 2.333-10.385 10.612-7.291 18.663s11.512 13.808 19.377 12.786c8.58-1.117 13.193-9.74 9.571-19.166z" class="cls-9" data-name="Path 9419" transform="translate(-406.76 -329.649)"/>
            <g class="cls-24" transform="translate(-8.24 17.23)">
                <path id="features-2" d="M7.671 0a.89.89 0 0 0-.655.3.828.828 0 0 0-.2.661l.721 5.823-6.686.01a.845.845 0 0 0-.77.489.836.836 0 0 0 .115.9L8.679 18.33a.825.825 0 0 0 .642.306.891.891 0 0 0 .656-.3.829.829 0 0 0 .2-.661l-.721-5.822 6.685-.01a.846.846 0 0 0 .77-.489.837.837 0 0 0-.115-.9L8.313.307A.827.827 0 0 0 7.671 0zm.464 15.027L2.664 8.48 8.5 8.471a.851.851 0 0 0 .845-.953l-.487-3.909 5.47 6.546-5.834.009a.851.851 0 0 0-.844.953z" class="cls-10" data-name="features" transform="rotate(-157 55.323 34.31)"/>
            </g>
            <path id="Line_213" d="M0 9l33.5-9" class="cls-11" data-name="Line 213" transform="translate(84.509 132.026)"/>
            <path id="Line_214" d="M0 9l33.5-9" class="cls-12" data-name="Line 214" transform="translate(84.037 131.86)"/>
            <path id="Line_216" d="M0 8l29.5-8" class="cls-12" data-name="Line 216" transform="translate(86.332 132.465)"/>
        </g>
        <g id="plant" class="cls-13" transform="translate(197.717 109.894)">
            <g id="Succulents" transform="translate(3.279)">
                <path id="Thi_Succs_" d="M.1.052C2.324 5.337 6.112 9.009 8.118 14.5a31.149 31.149 0 0 1 1.716 10.43c.016 1.971-.018 3.943-.027 5.914-.009 1.922-.061 3.832-.225 5.742s-.348 3.817-.429 5.749a15.827 15.827 0 0 1-.6 4.629c-.406 1.092-1.44 1.252-1.714-.072a10.566 10.566 0 0 1-.116-2.315c.022-.971.078-1.94.107-2.91.116-3.894-.034-7.789.044-11.685.077-3.806.567-7.609.025-11.39A26.528 26.528 0 0 0 4 10.22a46.577 46.577 0 0 1-3.478-7.7A13.533 13.533 0 0 1 0 .008Q.059-.02.1.052z" class="cls-14" data-name="Thi Succs!" transform="translate(.757)"/>
                <path id="Thi_Succs_2" d="M.246.155A4.236 4.236 0 0 1 1.232 1.4c.371.571.807 1.086 1.178 1.657.773 1.191 1.452 2.454 2.157 3.693a24.158 24.158 0 0 1 2.857 7.577 81.417 81.417 0 0 1 .881 8.59c.232 3.032.466 6.087.5 9.131a32.553 32.553 0 0 1-.076 4.166c-.1.843-.483 1.562-1.343 1.555-1.825-.014-2.682-2.032-3.04-3.687a31.018 31.018 0 0 1-.549-7.518c.1-3.005.623-5.965.85-8.959a21.8 21.8 0 0 0-.987-9.266C3.1 6.828 2.463 5.356 1.888 3.858a14.459 14.459 0 0 0-.776-1.887A18.1 18.1 0 0 1 0 0z" class="cls-14" data-name="Thi Succs!" transform="translate(0 10.323)"/>
                <path id="Thi_Succs_3" d="M4.373.13L4.541 0a16.638 16.638 0 0 1-.675 1.848 15.06 15.06 0 0 0-.436 1.8c-.316 1.43-.682 2.828-.981 4.271a28.232 28.232 0 0 0-.092 9.1C2.723 20 3.3 22.99 3.579 25.981a41.1 41.1 0 0 1 .109 7.4c-.148 1.607-.635 3.526-1.96 3.364-.628-.072-.95-.822-1.081-1.668-.211-1.359-.255-2.788-.337-4.14-.183-3.017-.22-6.024-.256-9.01-.034-2.817-.129-5.69.06-8.436a25.812 25.812 0 0 1 1.564-7.24C2.107 5.091 2.515 3.9 3 2.8c.231-.531.513-1 .744-1.53A3.271 3.271 0 0 1 4.373.13z" class="cls-14" data-name="Thi Succs!" transform="translate(16.901 4.028)"/>
                <path id="Thi_Succs_4" d="M.053.076c.241-.4.773.929.854 1.1L.8.923a11.092 11.092 0 0 1 1.19 2.535c.27.9.5 1.823.754 2.732.478 1.71 1.091 3.363 1.521 5.084a16.512 16.512 0 0 1 .423 5.06 43.144 43.144 0 0 0-.047 5.435 15.8 15.8 0 0 0 .531 2.491c.192.829.344 1.67.571 2.489.052-.107.059.25.059.277a1.717 1.717 0 0 1-.1.57 1.537 1.537 0 0 1-.969 1.06c-.872.249-1.681-.543-1.963-1.379a22.838 22.838 0 0 1-.818-3.785A17.812 17.812 0 0 1 1.791 20c.1-2.311.522-4.592.635-6.9a33.294 33.294 0 0 0-.794-7.327A21.361 21.361 0 0 0 .847 2.3a9.75 9.75 0 0 0-.583-1.277C.141.783-.109.357.053.076z" class="cls-14" data-name="Thi Succs!" transform="translate(.757 19.135)"/>
                <path id="Thi_Succs_5" d="M2.586 8.988c-.1 2.881-.272 5.741-.657 8.592-.393 2.91-.844 5.809-1.222 8.721A58.878 58.878 0 0 0 0 34.892c.038 2.117-.314 5.7 2.042 6.744 2.386 1.058 2.9-3.461 3.054-4.952a55.756 55.756 0 0 0 .057-8.631c-.15-2.953-.4-5.891-.709-8.833a254.616 254.616 0 0 1-.83-9.829 56.322 56.322 0 0 1-.1-4.861A12.125 12.125 0 0 0 2.94 0l-.085.062" class="cls-14" data-name="Thi Succs!" transform="translate(5.297 6.294)"/>
                <path id="Thi_Succs_6" d="M3.048 1.5c-.429.624-.862 1.242-1.267 1.9A10.022 10.022 0 0 0 .2 7.59a82.044 82.044 0 0 0 0 11.01 5.748 5.748 0 0 0 .216 2.177c.267.643.766 1.133 1.241 1.131 1.018-.006.863-2.494.864-3.589 0-1.919-.213-3.858-.194-5.776a40.025 40.025 0 0 1 .41-5.609 32.265 32.265 0 0 1 1.231-5.22c.075-.227.613-1.982.1-1.68" class="cls-14" data-name="Thi Succs!" transform="translate(17.153 22.911)"/>
                <path id="Thi_Succs_7" d="M3.6 0c-.669 0-.665 3.33-.685 3.758-.073 1.544-.056 3.087-.1 4.631a83.8 83.8 0 0 1-.731 10.1c-.273 1.793-.589 3.578-.93 5.357S.35 27.41.125 29.217a37.558 37.558 0 0 0-.064 5.253 45.906 45.906 0 0 0 .313 5.256c.057.43.124.858.195 1.285a10.167 10.167 0 0 0 .125 1.135 1.155 1.155 0 0 0 1.318.634c1.259-.229 2.064-1.808 2.494-2.961A27.678 27.678 0 0 0 5.635 35.2a40.319 40.319 0 0 0 .607-5.333 89.567 89.567 0 0 0-.313-10.905c-.145-2.017-.313-4.024-.57-6.028s-.584-3.982-.8-5.983a116.136 116.136 0 0 1-.408-4.371C4.13 2.23 4.109 0 3.6 0" class="cls-14" data-name="Thi Succs!" transform="translate(12.108 5.539)"/>
                <path id="Thi_Succs_8" d="M6.8 29.744c-.109-3.5-1.517-18.853-1.837-23.08C4.878 5.606 4.107 1.2 4.007 0c-.271.339-.248 5.617-.245 6.83s-.146 2.379-.223 3.57c-.078 1.217-1.881 16.941-2.115 18.11-.466 2.33-.777 4.718-1.018 7.098a30.827 30.827 0 0 0-.285 7.1 7.115 7.115 0 0 0 .371 1.558c.2.533.338 1.025.5 1.583A3.219 3.219 0 0 0 2.439 47.9c1.476.76 2.268-.961 2.669-2.459a40.018 40.018 0 0 0 1.246-7.336 77.611 77.611 0 0 0 .446-8.361" class="cls-14" data-name="Thi Succs!" transform="translate(8.072)"/>
            </g>
            <g id="Planter" transform="translate(0 40.032)">
                <rect id="Vase" width="22.955" height="22.911" class="cls-15" rx="2" transform="translate(2.523)"/>
                <rect id="Leg" width="2.523" height="28.45" class="cls-16" rx="1.261" transform="translate(0 2.518)"/>
                <rect id="Leg-2" width="2.523" height="28.45" class="cls-17" data-name="Leg" rx="1.261" transform="translate(12.613 2.518)"/>
                <rect id="Leg-3" width="2.523" height="28.45" class="cls-18" data-name="Leg" rx="1.261" transform="translate(25.477 2.518)"/>
            </g>
        </g>
        <g id="woman" transform="translate(-.159)">
            <ellipse id="Ellipse_237" cx="8.92" cy="8.988" class="cls-4" data-name="Ellipse 237" rx="8.92" ry="8.988" transform="translate(158.6 46.727)"/>
            <path id="Path_9420" d="M719.775 693.041l1.7 7.327h-4.121l-1.7-8.3z" class="cls-19" data-name="Path 9420" transform="translate(-542.63 -524.702)"/>
            <path id="Path_9421" d="M637.775 696.064v6.836l-4.121.488v-7.327z" class="cls-19" data-name="Path 9421" transform="translate(-480.507 -527.725)"/>
            <path id="Path_9422" d="M827.576 450.7s-.485 10.5-.97 11.234-4.848 11.234-4.848 11.234l-2.182-6.838s3.394-5.617 2.909-8.792a36.764 36.764 0 0 1-.179-7.082z" class="cls-19" data-name="Path 9422" transform="translate(-649.22 -360.027)"/>
            <ellipse id="Ellipse_238" cx="6.29" cy="6.838" class="cls-19" data-name="Ellipse 238" rx="6.29" ry="6.838" transform="translate(158.747 51.599)"/>
            <path id="Path_9423" d="M792.819 322.456s-.242 9.769 1.454 11.234-9.7.244-9.7.244 2.424-6.838.485-8.3 7.761-3.178 7.761-3.178z" class="cls-19" data-name="Path 9423" transform="translate(-622.704 -263.286)"/>
            <path id="Path_9424" d="M736.225 359.85s1.454-2.686 3.394-2.442 8.242.733 8.484 1.221a14.628 14.628 0 0 0 1.454 2.686c.485.488 4.121 1.221 4.363 4.152s-8.727 20.759-8.727 20.759 1.212 4.152.97 5.129 1.212 3.908.97 5.129 3.636 8.548 1.7 18.073v15.386s6.545 26.621 4.606 28.575-8.484.733-9.7 0-6.3-37.611-6.3-37.611l-2.424-12.456-.242 27.353s.485 22.957-1.212 23.69-8.242.977-8.727-.488c-.378-1.143-2.231-31.551-3.028-44.881a50.166 50.166 0 0 1 1.067-13.72c1.009-4.61 2.473-10.027 4.142-12.226 3.151-4.152 5.091-17.34 5.091-17.34l-4.121-7.571s2.424-2.442 3.878-2.442a19.848 19.848 0 0 0 4.362-.976z" class="cls-20" data-name="Path 9424" transform="translate(-575.08 -289.69)"/>
            <path id="Path_9425" d="M833.794 383.456l1.278.877s.9 15.731.176 16.708-5.783.5-6.164-.36 4.71-17.225 4.71-17.225z" class="cls-21" data-name="Path 9425" transform="translate(-656.407 -309.388)"/>
            <path id="Path_9426" d="M690.99 437.794c.709 4.959 1.331 9.374-2.3 13.368a68.235 68.235 0 0 1-12.249 10.69c-.445 1.188-6.978 9.909-7.31 6.43s1.925-6.206 5.132-9.148 7.694-9.325 10.226-12.827 1.49-5.686 1.4-8.612 4.106.135 5.101.099z" class="cls-19" data-name="Path 9426" transform="translate(-534.226 -355.418)"/>
            <path id="Path_9427" d="M737.906 781.255s-.242 2.736-.97 3.468-2.666 1.71-2.424 4.4 1.818 2.809 1.818 2.809l-.121-.611.727.244.121.366h6.787a22.185 22.185 0 0 0-.121-3.786c-.242-1.221-.242-7.083-.97-6.839s-2.666.489-3.151 1.465-1.939.629-1.696-1.516z" class="cls-22" data-name="Path 9427" transform="translate(-584.759 -610.034)"/>
            <path id="Path_9428" d="M831.921 781.255s.242 2.736.97 3.468 2.666 1.71 2.424 4.4-1.818 2.809-1.818 2.809l.121-.611-.727.244-.121.366h-6.787a22.185 22.185 0 0 1 .121-3.786c.242-1.221.242-7.083.97-6.839s2.666.489 3.151 1.465 1.938.629 1.696-1.516z" class="cls-22" data-name="Path 9428" transform="translate(-653.952 -610.034)"/>
            <path id="Path_9429" d="M741.329 378.456l-3.394.733s0 5.373-.969 7.571-2.667 7.327-1.939 7.571 7.515 3.663 8 1.71 1.695-17.585-1.698-17.585z" class="cls-23" data-name="Path 9429" transform="translate(-585.031 -305.61)"/>
            <ellipse id="Ellipse_239" cx="8.92" cy="8.988" class="cls-4" data-name="Ellipse 239" rx="8.92" ry="8.988" transform="translate(168.264 34.894)"/>
            <path id="Path_9430" d="M836.432 264.319a8.866 8.866 0 0 1-8.1 1.225 8.959 8.959 0 0 1-5.678-5.944 8.974 8.974 0 0 0 5.845 7.341 8.872 8.872 0 0 0 9.143-1.941 9.034 9.034 0 0 0 2.416-9.091 9.014 9.014 0 0 1-3.626 8.41z" class="cls-4" data-name="Path 9430" transform="translate(-651.553 -212.995)"/>
            <ellipse id="Ellipse_240" cx="6.542" cy="6.591" class="cls-4" data-name="Ellipse 240" rx="6.542" ry="6.591" transform="translate(163.358 50.622)"/>
            <ellipse id="Ellipse_241" cx="5.798" cy="4.569" class="cls-4" data-name="Ellipse 241" rx="5.798" ry="4.569" transform="translate(158.601 50.172)"/>
            <ellipse id="Ellipse_242" cx="1.1" cy="1.962" class="cls-19" data-name="Ellipse 242" rx="1.1" ry="1.962" transform="translate(161.752 57.461)"/>
        </g>
    </g>
</svg>
