<svg xmlns="http://www.w3.org/2000/svg" xmlns:xlink="http://www.w3.org/1999/xlink" width="237.577" height="232.346" viewBox="0 0 237.577 232.346">
    <defs>
        <style>
            .cls-1{fill:url(#linear-gradient)}.cls-2{fill:url(#linear-gradient-2)}.cls-11,.cls-12,.cls-3{fill:none}.cls-3{stroke:#2f2e41}.cls-3,.cls-7{stroke-miterlimit:10}.cls-11,.cls-12,.cls-3,.cls-7{stroke-width:2px}.cls-4{fill:#2f2e41}.cls-5{opacity:.7;fill:url(#linear-gradient-3)}.cls-6{fill:url(#linear-gradient-4)}.cls-7{fill:#4f2da7;stroke:#4f2da7}.cls-8{opacity:.2}.cls-9{fill:url(#linear-gradient-5)}.cls-10{fill:url(#linear-gradient-6)}.cls-11,.cls-12{stroke:#aacffc;stroke-linecap:round}.cls-12{stroke:#9fbefb}.cls-13{fill:#e59974}.cls-14{fill:url(#linear-gradient-7)}.cls-15{fill:url(#linear-gradient-8)}.cls-16{fill:#180728}.cls-17{fill:url(#linear-gradient-9)}.cls-18{fill:url(#linear-gradient-10)}.cls-19{fill:url(#linear-gradient-18)}.cls-20{fill:url(#linear-gradient-19)}.cls-21{fill:url(#linear-gradient-20)}.cls-22{fill:url(#linear-gradient-21)}.cls-23{filter:url(#features)}.cls-24{filter:url(#Path_10523)}.cls-25{filter:url(#Path_10583)}.cls-26{filter:url(#Path_9411)}
        </style>
        <linearGradient id="linear-gradient" x1=".5" x2=".5" y2="1" gradientUnits="objectBoundingBox">
            <stop offset="0" stop-color="#3f3d56"/>
            <stop offset="1" stop-color="#0d0c11"/>
        </linearGradient>
        <filter id="Path_9411" width="168.348" height="186.563" x="0" y="12.02" filterUnits="userSpaceOnUse">
            <feOffset dy="10"/>
            <feGaussianBlur result="blur" stdDeviation="10"/>
            <feFlood flood-opacity=".502"/>
            <feComposite in2="blur" operator="in"/>
            <feComposite in="SourceGraphic"/>
        </filter>
        <linearGradient id="linear-gradient-2" x1=".431" x2=".5" y1=".015" y2="1" gradientUnits="objectBoundingBox">
            <stop offset="0" stop-color="#0fe"/>
            <stop offset="1" stop-color="#4a3ad9"/>
        </linearGradient>
        <linearGradient id="linear-gradient-3" x1=".025" x2=".537" y1=".098" y2=".413" gradientUnits="objectBoundingBox">
            <stop offset="0" stop-color="#fff"/>
            <stop offset="1" stop-color="#9cfcff" stop-opacity="0"/>
        </linearGradient>
        <filter id="Path_10583" width="228.57" height="232.346" x="9.008" y="0" filterUnits="userSpaceOnUse">
            <feOffset dy="5"/>
            <feGaussianBlur result="blur-2" stdDeviation="15"/>
            <feFlood flood-color="#fff" flood-opacity=".8"/>
            <feComposite in2="blur-2" operator="in"/>
            <feComposite in="SourceGraphic"/>
        </filter>
        <linearGradient id="linear-gradient-4" x1=".237" x2=".748" y1=".035" y2=".912" gradientUnits="objectBoundingBox">
            <stop offset="0" stop-color="#fff"/>
            <stop offset="1" stop-color="#9cfcff"/>
        </linearGradient>
        <filter id="Path_10523" width="195.245" height="199.473" x="21.371" y="8.635" filterUnits="userSpaceOnUse">
            <feOffset dy="5"/>
            <feGaussianBlur result="blur-3" stdDeviation="15"/>
            <feFlood flood-color="#fff" flood-opacity=".8"/>
            <feComposite in2="blur-3" operator="in"/>
            <feComposite in="SourceGraphic"/>
        </filter>
        <linearGradient id="linear-gradient-5" x1=".224" x2=".733" y1=".105" y2="1" gradientUnits="objectBoundingBox">
            <stop offset="0" stop-color="#be95ff"/>
            <stop offset="1" stop-color="#6353f4"/>
        </linearGradient>
        <linearGradient id="linear-gradient-6" x1=".596" x2=".5" y1=".03" y2="1" gradientUnits="objectBoundingBox">
            <stop offset="0" stop-color="#fff"/>
            <stop offset="1" stop-color="#9669f6"/>
        </linearGradient>
        <filter id="features" width="40.85" height="41.732" x="91.278" y="66.258" filterUnits="userSpaceOnUse">
            <feOffset dy="3"/>
            <feGaussianBlur result="blur-4" stdDeviation="3"/>
            <feFlood flood-opacity=".161"/>
            <feComposite in2="blur-4" operator="in"/>
            <feComposite in="SourceGraphic"/>
        </filter>
        <linearGradient id="linear-gradient-7" x1=".5" x2="1.726" y2="1.19" gradientUnits="objectBoundingBox">
            <stop offset="0" stop-color="#ee95ff"/>
            <stop offset="1" stop-color="#f0a"/>
        </linearGradient>
        <linearGradient id="linear-gradient-8" x1=".5" x2=".5" y2="1" gradientUnits="objectBoundingBox">
            <stop offset="0" stop-color="#ef89f8"/>
            <stop offset="1" stop-color="#d168e5"/>
        </linearGradient>
        <linearGradient id="linear-gradient-9" x1=".5" x2=".5" y2="1" gradientUnits="objectBoundingBox">
            <stop offset="0" stop-color="#ee92fd"/>
            <stop offset="1" stop-color="#d167e5"/>
        </linearGradient>
        <linearGradient id="linear-gradient-10" x1=".5" x2=".5" y2="1" gradientUnits="objectBoundingBox">
            <stop offset="0" stop-color="#35e7c1"/>
            <stop offset="1" stop-color="#6353f4"/>
        </linearGradient>
        <linearGradient id="linear-gradient-18" x2="1.591" y1=".152" y2="1.969" gradientUnits="objectBoundingBox">
            <stop offset="0" stop-color="#fff"/>
            <stop offset="1" stop-color="#cbabff"/>
        </linearGradient>
        <linearGradient id="linear-gradient-19" x1="-2.056" x2=".5" y1=".073" y2="1" gradientUnits="objectBoundingBox">
            <stop offset="0" stop-color="#c5cfd6"/>
            <stop offset="1" stop-color="#63686b"/>
        </linearGradient>
        <linearGradient id="linear-gradient-20" x1="-1.949" y1=".053" xlink:href="#linear-gradient-19"/>
        <linearGradient id="linear-gradient-21" x1="-1.721" xlink:href="#linear-gradient-19"/>
    </defs>
    <g id="ill_features" transform="translate(-1.484 -16.551)">
        <g class="cls-26" transform="translate(1.48 16.55)">
            <path id="Path_9411-2" d="M286.57 308.254l-39.132 8.006a7.577 7.577 0 0 0-5.416 10.463l44.611 101.906a9.937 9.937 0 0 0 12.019 5.52l45.088-13.9a8.506 8.506 0 0 0 5-12.119l-50.3-94.686a11.245 11.245 0 0 0-11.87-5.19z" class="cls-1" data-name="Path 9411" transform="translate(-211.39 -276.01)"/>
        </g>
        <path id="Path_9412" d="M254.435 320l6.434-1.27c.89 1.85 3.072 3.508 5.091 3.145l23.081-4.807a1.633 1.633 0 0 0 1.259-2.124l-.632-1.9 6.4-1.264a6.342 6.342 0 0 1 6.8 3.2l52.09 95.973a6.332 6.332 0 0 1-3.716 9.078l-44.394 13.519a7.949 7.949 0 0 1-9.565-4.35l-46.171-102.753a4.631 4.631 0 0 1 3.323-6.447z" class="cls-2" data-name="Path 9412" transform="translate(-216.949 -262.206)"/>
        <path id="Line_37" d="M9.507 0L0 1.952" class="cls-3" data-name="Line 37" transform="translate(55.664 53.556)"/>
        <ellipse id="Ellipse_232" cx=".975" cy=".854" class="cls-4" data-name="Ellipse 232" rx=".975" ry=".854" transform="translate(52.252 55.02)"/>
        <g class="cls-25" transform="translate(1.48 16.55)">
            <path id="Path_10583-2" d="M53.521.519L8.7 11.111c-2.79.477-6.1 1.864-7.414 3.98a7.321 7.321 0 0 0-.636 7.073L57.172 131.45c2.524 4.82 8.239 7.4 14.251 5.858l54.95-17.536a10.116 10.116 0 0 0 6.667-5.084 7.575 7.575 0 0 0-.437-7.54L68.107 3.84C65.036-.4 59.321-.473 53.521.519z" class="cls-5" data-name="Path 10583" transform="translate(58.82 40)"/>
        </g>
        <g class="cls-24" transform="translate(1.48 16.55)">
            <path id="Path_10523-2" d="M41.15.4L5.675 8.812a7.072 7.072 0 0 0-4.88 3.156A5.291 5.291 0 0 0 .6 17.2l43.3 83.939a9.189 9.189 0 0 0 10.726 4.507l41.36-13.492A7.64 7.64 0 0 0 101 88.241a5.939 5.939 0 0 0-.329-5.8L52.129 2.954C49.818-.3 45.516-.364 41.15.4z" class="cls-6" data-name="Path 10523" transform="translate(70.07 48.64)"/>
        </g>
        <path id="Path_9417" d="M496.186 424.27c-3.607-9.41-13.567-14.8-21.563-12.262-7.329 2.329-10.34 10.594-7.26 18.63s11.462 13.784 19.293 12.763c8.544-1.113 13.137-9.721 9.53-19.131z" class="cls-7" data-name="Path 9417" transform="translate(-370.493 -325.16)"/>
        <path id="Path_9418" d="M496.186 424.27c-3.607-9.41-13.567-14.8-21.563-12.262-7.329 2.329-10.34 10.594-7.26 18.63s11.462 13.784 19.293 12.763c8.544-1.113 13.137-9.721 9.53-19.131z" class="cls-8" data-name="Path 9418" transform="translate(-370.493 -325.16)"/>
        <path id="Path_9419" d="M501.186 419.27c-3.607-9.41-13.567-14.8-21.563-12.262-7.329 2.329-10.34 10.594-7.26 18.63s11.462 13.784 19.293 12.763c8.544-1.114 13.137-9.721 9.53-19.131z" class="cls-9" data-name="Path 9419" transform="translate(-373.919 -321.733)"/>
        <g class="cls-23" transform="translate(1.48 16.55)">
            <path id="features-2" d="M7.64 18.6a.884.884 0 0 1-.653-.294.826.826 0 0 1-.2-.66l.724-5.811H.851A.845.845 0 0 1 .2 10.449L8.662.312A.823.823 0 0 1 9.3.006.885.885 0 0 1 9.955.3a.827.827 0 0 1 .2.66l-.724 5.81h6.659a.846.846 0 0 1 .651 1.387L8.281 18.3a.825.825 0 0 1-.641.3zm.476-15l-5.455 6.546h5.81a.847.847 0 0 1 .841.951L8.827 15l5.455-6.537H8.471a.847.847 0 0 1-.84-.951z" class="cls-10" data-name="features" transform="rotate(-23 244.674 -206.913)"/>
        </g>
        <path id="Line_213" d="M0 9l33.5-9" class="cls-11" data-name="Line 213" transform="translate(113.174 132.846)"/>
        <path id="Line_214" d="M0 9l33.5-9" class="cls-12" data-name="Line 214" transform="translate(116.704 139.668)"/>
        <path id="Line_216" d="M0 8l29.5-8" class="cls-12" data-name="Line 216" transform="translate(128.001 145.264)"/>
        <ellipse id="Ellipse_237" cx="8.971" cy="8.981" class="cls-4" data-name="Ellipse 237" rx="8.971" ry="8.981" transform="translate(158.609 44.719)"/>
        <path id="Path_9420" d="M719.8 693.04l1.706 7.322h-4.146l-1.706-8.3z" class="cls-13" data-name="Path 9420" transform="translate(-542.54 -526.796)"/>
        <path id="Path_9421" d="M637.8 696.064v6.836l-4.144.488v-7.322z" class="cls-13" data-name="Path 9421" transform="translate(-480.53 -529.819)"/>
        <path id="Path_9422" d="M827.622 450.7s-.488 10.494-.975 11.226-4.875 11.227-4.875 11.227l-2.194-6.833s3.413-5.613 2.925-8.786a36.507 36.507 0 0 1-.18-7.077z" class="cls-13" data-name="Path 9422" transform="translate(-649.145 -362.067)"/>
        <ellipse id="Ellipse_238" cx="6.326" cy="6.834" class="cls-13" data-name="Ellipse 238" rx="6.326" ry="6.834" transform="translate(158.756 49.587)"/>
        <path id="Path_9423" d="M792.865 322.456s-.244 9.762 1.463 11.227-9.751.244-9.751.244 2.438-6.833.488-8.3 7.8-3.171 7.8-3.171z" class="cls-13" data-name="Path 9423" transform="translate(-622.677 -265.303)"/>
        <path id="Path_9424" d="M736.307 359.848s1.463-2.685 3.413-2.441 8.288.732 8.532 1.22a14.59 14.59 0 0 0 1.463 2.685c.488.488 4.144 1.22 4.388 4.149s-8.776 20.745-8.776 20.745 1.219 4.149.975 5.125 1.219 3.9.975 5.125 3.657 8.542 1.706 18.06v15.375s6.582 26.6 4.632 28.554-8.532.732-9.751 0-6.338-37.584-6.338-37.584l-2.438-12.447-.244 27.334s.488 22.941-1.219 23.673-8.288.976-8.776-.488c-.38-1.142-2.243-31.529-3.045-44.849a49.821 49.821 0 0 1 1.073-13.71c1.015-4.607 2.487-10.02 4.166-12.217 3.169-4.149 5.119-17.328 5.119-17.328l-4.144-7.566s2.438-2.441 3.9-2.441a20.067 20.067 0 0 0 4.389-.974z" class="cls-14" data-name="Path 9424" transform="translate(-575.139 -291.713)"/>
        <path id="Path_9425" d="M833.821 383.456l1.286.876s.908 15.72.177 16.7-5.816.5-6.2-.36 4.737-17.216 4.737-17.216z" class="cls-15" data-name="Path 9425" transform="translate(-656.32 -311.416)"/>
        <path id="Path_9426" d="M22 1.347c.709 4.958 1.33 9.372-2.319 13.368a68.644 68.644 0 0 1-12.32 10.7C6.911 26.6.338 35.328.006 31.85s1.94-6.207 5.165-9.151 7.741-9.33 10.289-12.834 1.5-5.687 1.416-8.612S21 1.384 22 1.347z" class="cls-13" data-name="Path 9426" transform="rotate(35.02 -46.89 257.24)"/>
        <path id="Path_9427" d="M737.925 781.255s-.244 2.734-.975 3.466-2.682 1.708-2.438 4.393 1.828 2.807 1.828 2.807l-.122-.61.731.244.122.366h6.829a22.026 22.026 0 0 0-.122-3.783c-.244-1.22-.244-7.078-.975-6.834s-2.681.488-3.169 1.464-1.953.632-1.709-1.513z" class="cls-16" data-name="Path 9427" transform="translate(-584.801 -612.131)"/>
        <path id="Path_9428" d="M831.955 781.255s.244 2.734.975 3.466 2.681 1.708 2.438 4.393-1.828 2.807-1.828 2.807l.122-.61-.731.244-.122.366h-6.826a22.033 22.033 0 0 1 .122-3.783c.244-1.22.244-7.078.975-6.834s2.681.488 3.169 1.464 1.951.632 1.706-1.513z" class="cls-16" data-name="Path 9428" transform="translate(-653.868 -612.131)"/>
        <path id="Path_9429" d="M741.365 378.456l-3.413.732s0 5.369-.975 7.566-2.682 7.322-1.95 7.566 7.557 3.661 8.044 1.708 1.707-17.572-1.706-17.572z" class="cls-17" data-name="Path 9429" transform="translate(-585.072 -307.636)"/>
        <ellipse id="Ellipse_239" cx="8.971" cy="8.981" class="cls-4" data-name="Ellipse 239" rx="8.971" ry="8.981" transform="translate(168.327 32.894)"/>
        <path id="Path_9430" d="M836.51 264.313a8.968 8.968 0 0 1-13.853-4.716 8.972 8.972 0 1 0 17.5-3.683 8.983 8.983 0 0 1-3.647 8.399z" class="cls-4" data-name="Path 9430" transform="translate(-651.474 -215.001)"/>
        <ellipse id="Ellipse_240" cx="6.579" cy="6.586" class="cls-4" data-name="Ellipse 240" rx="6.579" ry="6.586" transform="translate(163.393 48.611)"/>
        <ellipse id="Ellipse_241" cx="5.831" cy="4.565" class="cls-4" data-name="Ellipse 241" rx="5.831" ry="4.565" transform="translate(158.609 48.162)"/>
        <ellipse id="Ellipse_242" cx="1.107" cy="1.96" class="cls-13" data-name="Ellipse 242" rx="1.107" ry="1.96" transform="translate(161.778 55.445)"/>
        <g id="Plant" transform="translate(197.484 107.395)">
            <g id="Succulents" transform="translate(3.279)">
                <path id="Thi_Succs_" d="M.1.053c2.224 5.294 6.012 8.973 8.018 14.478a31.263 31.263 0 0 1 1.716 10.45c.016 1.975-.018 3.951-.027 5.925-.009 1.926-.061 3.839-.225 5.753s-.348 3.824-.429 5.76a15.886 15.886 0 0 1-.6 4.638c-.406 1.094-1.44 1.254-1.714-.073a10.606 10.606 0 0 1-.116-2.319c.022-.972.078-1.944.107-2.916.116-3.9-.034-7.8.044-11.708.077-3.814.567-7.623.025-11.411A26.612 26.612 0 0 0 4 10.24 46.709 46.709 0 0 1 .523 2.526 13.581 13.581 0 0 1 0 .008Q.059-.02.1.053z" class="cls-18" data-name="Thi Succs!" transform="translate(.757)"/>
                <path id="Thi_Succs_2" d="M.246.156A4.243 4.243 0 0 1 1.232 1.4c.371.572.807 1.088 1.178 1.66.773 1.193 1.452 2.459 2.157 3.7a24.233 24.233 0 0 1 2.857 7.592 81.722 81.722 0 0 1 .876 8.606c.232 3.038.466 6.1.5 9.148a32.677 32.677 0 0 1-.076 4.174c-.1.845-.483 1.565-1.343 1.558-1.825-.015-2.681-2.038-3.04-3.695a31.135 31.135 0 0 1-.549-7.532c.1-3.011.623-5.976.85-8.976a21.88 21.88 0 0 0-.987-9.284C3.1 6.841 2.463 5.366 1.888 3.866a14.5 14.5 0 0 0-.776-1.89A18.143 18.143 0 0 1 0 0z" class="cls-18" data-name="Thi Succs!" transform="translate(0 10.342)"/>
                <path id="Thi_Succs_3" d="M4.373.131L4.541 0a16.69 16.69 0 0 1-.675 1.852 15.112 15.112 0 0 0-.436 1.8c-.316 1.433-.682 2.834-.981 4.279a28.338 28.338 0 0 0-.092 9.113c.366 3 .946 5.99 1.222 8.986a41.256 41.256 0 0 1 .109 7.419c-.148 1.61-.635 3.533-1.96 3.37-.628-.076-.95-.827-1.081-1.675C.436 33.782.392 32.35.31 31c-.183-3.026-.22-6.039-.256-9.031-.034-2.822-.129-5.7.06-8.452a25.9 25.9 0 0 1 1.564-7.254C2.107 5.1 2.515 3.91 3 2.8c.231-.532.513-1 .744-1.533A3.279 3.279 0 0 1 4.373.131z" class="cls-18" data-name="Thi Succs!" transform="translate(16.901 4.036)"/>
                <path id="Thi_Succs_4" d="M.053.076c.241-.405.773.931.854 1.1L.8.925a11.123 11.123 0 0 1 1.19 2.54c.27.9.5 1.827.754 2.738.478 1.708 1.091 3.368 1.521 5.097a16.574 16.574 0 0 1 .423 5.07 43.308 43.308 0 0 0-.047 5.445 15.859 15.859 0 0 0 .531 2.5c.192.831.344 1.673.571 2.493.052-.107.059.25.059.278a1.723 1.723 0 0 1-.1.571 1.538 1.538 0 0 1-.969 1.062c-.872.249-1.681-.544-1.963-1.381a22.919 22.919 0 0 1-.818-3.793 17.88 17.88 0 0 1-.166-3.5c.1-2.315.522-4.6.635-6.915a33.418 33.418 0 0 0-.794-7.341A21.436 21.436 0 0 0 .847 2.3a9.778 9.778 0 0 0-.583-1.275C.141.785-.109.358.053.076z" class="cls-18" data-name="Thi Succs!" transform="translate(.757 19.171)"/>
                <path id="Thi_Succs_5" d="M2.586 9c-.1 2.887-.272 5.752-.657 8.609-.393 2.915-.844 5.82-1.222 8.738A59.1 59.1 0 0 0 0 34.958c.038 2.121-.314 5.71 2.042 6.756 2.386 1.06 2.9-3.467 3.054-4.962a55.968 55.968 0 0 0 .057-8.647c-.15-2.959-.4-5.9-.709-8.85a255.71 255.71 0 0 1-.83-9.847 56.53 56.53 0 0 1-.1-4.87A12.169 12.169 0 0 0 2.94 0l-.085.062" class="cls-18" data-name="Thi Succs!" transform="translate(5.297 6.306)"/>
                <path id="Thi_Succs_6" d="M3.048 1.5c-.429.625-.862 1.244-1.267 1.906A10.053 10.053 0 0 0 .2 7.6a82.356 82.356 0 0 0 0 11.027 5.769 5.769 0 0 0 .216 2.181c.267.644.766 1.135 1.241 1.133 1.018-.006.863-2.5.864-3.6 0-1.923-.213-3.865-.194-5.787a40.177 40.177 0 0 1 .41-5.62 32.378 32.378 0 0 1 1.231-5.216c.075-.228.613-1.986.1-1.683" class="cls-18" data-name="Thi Succs!" transform="translate(17.153 22.955)"/>
                <path id="Thi_Succs_7" d="M3.6 0c-.669 0-.665 3.336-.685 3.765-.073 1.546-.056 3.093-.1 4.64a84.111 84.111 0 0 1-.731 10.117c-.273 1.8-.589 3.584-.93 5.367S.35 27.462.125 29.272a37.7 37.7 0 0 0-.064 5.264A46.08 46.08 0 0 0 .374 39.8c.057.431.124.859.195 1.287a10.205 10.205 0 0 0 .125 1.138 1.154 1.154 0 0 0 1.318.635c1.259-.23 2.064-1.811 2.494-2.967a27.774 27.774 0 0 0 1.129-4.63 40.469 40.469 0 0 0 .607-5.343A89.907 89.907 0 0 0 5.929 19c-.145-2.02-.313-4.032-.57-6.04s-.584-3.99-.8-5.995a116.558 116.558 0 0 1-.408-4.379C4.13 2.235 4.109 0 3.6 0" class="cls-18" data-name="Thi Succs!" transform="translate(12.108 5.55)"/>
                <path id="Thi_Succs_8" d="M6.8 29.8c-.113-3.5-1.521-18.888-1.842-23.124C4.878 5.616 4.107 1.2 4.007 0c-.271.34-.248 5.628-.245 6.843s-.146 2.384-.223 3.579c-.078 1.22-1.881 16.973-2.115 18.145C.958 30.9.647 33.291.406 35.675a30.944 30.944 0 0 0-.285 7.111 7.14 7.14 0 0 0 .371 1.561c.2.534.338 1.027.5 1.586a3.225 3.225 0 0 0 1.447 2.061c1.476.762 2.268-.962 2.669-2.463a40.164 40.164 0 0 0 1.246-7.35A77.905 77.905 0 0 0 6.8 29.8" class="cls-18" data-name="Thi Succs!" transform="translate(8.072)"/>
            </g>
            <g id="Planter" transform="translate(0 40.108)">
                <rect id="Vase" width="22.955" height="22.955" class="cls-19" rx="2" transform="translate(2.523)"/>
                <rect id="Leg" width="2.523" height="28.505" class="cls-20" rx="1.261" transform="translate(0 2.523)"/>
                <rect id="Leg-2" width="2.523" height="28.505" class="cls-21" data-name="Leg" rx="1.261" transform="translate(12.613 2.523)"/>
                <rect id="Leg-3" width="2.523" height="28.505" class="cls-22" data-name="Leg" rx="1.261" transform="translate(25.477 2.523)"/>
            </g>
        </g>
    </g>
</svg>
