<svg xmlns="http://www.w3.org/2000/svg" xmlns:xlink="http://www.w3.org/1999/xlink" width="180" height="382.111" viewBox="0 0 180 382.111"><defs><style>.a{fill:#e8e8e8;}.b{clip-path:url(#a);}.c{fill:url(#b);}.d{fill:#272727;}.d,.e{opacity:0;}.e{fill:rgba(0,0,0,0);}.f{fill:url(#c);}.g{fill:#020000;}.h{filter:url(#f);}</style><clipPath id="a"><path class="a" d="M16.988,0H163.012A16.979,16.979,0,0,1,180,16.97V363.826A18.183,18.183,0,0,1,161.807,382H18.193A18.183,18.183,0,0,1,0,363.826V16.97A16.979,16.979,0,0,1,16.988,0Z"/></clipPath><linearGradient id="b" x1="0.207" y1="0.33" x2="0.888" y2="0.444" gradientUnits="objectBoundingBox"><stop offset="0" stop-color="#e8e8e8"/><stop offset="0.468" stop-color="#323232"/><stop offset="1" stop-color="#e8e8e8"/></linearGradient><linearGradient id="c" x1="0.207" y1="0.67" x2="0.888" y2="0.556" xlink:href="#b"/><filter id="f" x="1.205" y="2.888" width="177.59" height="379.223" filterUnits="userSpaceOnUse"><feOffset dy="3" input="SourceAlpha"/><feGaussianBlur result="g"/><feFlood flood-opacity="0.243"/><feComposite operator="in" in2="g"/><feComposite in="SourceGraphic"/></filter></defs><g transform="translate(-9)"><g transform="translate(9)"><path class="a" d="M16.988,0H163.012A16.979,16.979,0,0,1,180,16.97V363.826A18.183,18.183,0,0,1,161.807,382H18.193A18.183,18.183,0,0,1,0,363.826V16.97A16.979,16.979,0,0,1,16.988,0Z" transform="translate(0)"/><g class="b" transform="translate(0 0)"><path class="c" d="M.773,0,34.34,2.823,33.317,18.36h0L0,14.452H0Z" transform="matrix(0.777, 0.629, -0.629, 0.777, 166.541, -12.065)"/><path class="d" d="M8.622,0,0,.607l.154.02C1.23.765,1.286,3.7.216,3.878h0l7.016-.823h0C6.347,2.75,6.491.45,7.406.257Z" transform="translate(169.304 376.593) rotate(-39)"/><path class="e" d="M8.622,0,0,.607l.154.02C1.23.765,1.286,3.7.216,3.878h0l7.016-.823h0C6.347,2.75,6.491.45,7.406.257Z" transform="translate(0.868 6.87) rotate(-39)"/><path class="d" d="M0,0,8.622.607l-.154.02C7.391.765,7.336,3.7,8.406,3.878h0L1.39,3.056h0c.884-.306.741-2.606-.175-2.8Z" transform="translate(3.309 371.168) rotate(39)"/><path class="f" d="M.773,18.36l33.568-2.823L33.317,0h0L0,3.908H0Z" transform="translate(24.229 2.203) rotate(141)"/><path class="f" d="M.773,18.36l33.568-2.823L33.317,0h0L0,3.908H0Z" transform="translate(-2.459 357.935) rotate(39)"/><path class="c" d="M.773,0,34.341,2.823,33.317,18.36h0L0,14.452H0Z" transform="translate(193.228 372.203) rotate(141)"/></g><g class="h" transform="matrix(1, 0, 0, 1, 0, 0)"><path class="g" d="M14.94,0H162.65a14.932,14.932,0,0,1,14.94,14.924V359.975a16.256,16.256,0,0,1-16.265,16.248H16.265A16.256,16.256,0,0,1,0,359.975V14.924A14.932,14.932,0,0,1,14.94,0Z" transform="translate(1.21 2.89)"/></g></g></g></svg>