<svg xmlns="http://www.w3.org/2000/svg" width="193.961" height="198.895" viewBox="0 0 193.961 198.895">
    <defs>
        <style>
            .cls-1{fill:url(#linear-gradient)}.cls-10,.cls-11,.cls-12,.cls-2,.cls-5,.cls-6,.cls-7,.cls-8,.cls-9{opacity:0}.cls-2{fill:url(#linear-gradient-2)}.cls-11,.cls-12,.cls-3{fill:none}.cls-3{stroke:#2f2e41}.cls-3,.cls-7{stroke-miterlimit:10}.cls-11,.cls-12,.cls-3,.cls-7{stroke-width:2px}.cls-4{fill:#2f2e41}.cls-5{fill:url(#linear-gradient-3)}.cls-6{fill:url(#linear-gradient-4)}.cls-7{fill:#4f2da7;stroke:#4f2da7}.cls-9{fill:url(#linear-gradient-5)}.cls-10{fill:url(#linear-gradient-6)}.cls-11,.cls-12{stroke:#aacffc;stroke-linecap:round}.cls-12{stroke:#9fbefb}.cls-13{filter:url(#features)}.cls-14{filter:url(#Path_10523)}.cls-15{filter:url(#Path_10583)}.cls-16{filter:url(#Path_9411)}
        </style>
        <linearGradient id="linear-gradient" x1=".5" x2=".5" y2="1" gradientUnits="objectBoundingBox">
            <stop offset="0" stop-color="#3f3d56"/>
            <stop offset="1" stop-color="#0d0c11"/>
        </linearGradient>
        <filter id="Path_9411" width="168.82" height="186.785" x="5.961" y=".896" filterUnits="userSpaceOnUse">
            <feOffset dy="10"/>
            <feGaussianBlur result="blur" stdDeviation="10"/>
            <feFlood flood-opacity=".502"/>
            <feComposite in2="blur" operator="in"/>
            <feComposite in="SourceGraphic"/>
        </filter>
        <linearGradient id="linear-gradient-2" x1=".431" x2=".5" y1=".015" y2="1" gradientUnits="objectBoundingBox">
            <stop offset="0" stop-color="#0fe"/>
            <stop offset="1" stop-color="#4a3ad9"/>
        </linearGradient>
        <linearGradient id="linear-gradient-3" x1=".025" x2=".537" y1=".098" y2=".413" gradientUnits="objectBoundingBox">
            <stop offset="0" stop-color="#fff"/>
            <stop offset="1" stop-color="#9cfcff" stop-opacity="0"/>
        </linearGradient>
        <filter id="Path_10583" width="193.961" height="196.543" x="0" y="2.352" filterUnits="userSpaceOnUse">
            <feOffset dy="5"/>
            <feGaussianBlur result="blur-2" stdDeviation="15"/>
            <feFlood flood-color="#fff" flood-opacity=".8"/>
            <feComposite in2="blur-2" operator="in"/>
            <feComposite in="SourceGraphic"/>
        </filter>
        <linearGradient id="linear-gradient-4" x1=".237" x2=".748" y1=".035" y2=".912" gradientUnits="objectBoundingBox">
            <stop offset="0" stop-color="#fff"/>
            <stop offset="1" stop-color="#9cfcff"/>
        </linearGradient>
        <filter id="Path_10523" width="173.208" height="176.346" x="5.958" y="0" filterUnits="userSpaceOnUse">
            <feOffset dy="5"/>
            <feGaussianBlur result="blur-3" stdDeviation="15"/>
            <feFlood flood-color="#fff" flood-opacity=".8"/>
            <feComposite in2="blur-3" operator="in"/>
            <feComposite in="SourceGraphic"/>
        </filter>
        <linearGradient id="linear-gradient-5" x1=".224" x2=".733" y1=".105" y2="1" gradientUnits="objectBoundingBox">
            <stop offset="0" stop-color="#be95ff"/>
            <stop offset="1" stop-color="#6353f4"/>
        </linearGradient>
        <linearGradient id="linear-gradient-6" x1=".596" x2=".5" y1=".97" gradientUnits="objectBoundingBox">
            <stop offset="0" stop-color="#fff"/>
            <stop offset="1" stop-color="#9669f6"/>
        </linearGradient>
        <filter id="features" width="40.923" height="41.795" x="68.199" y="57.656" filterUnits="userSpaceOnUse">
            <feOffset dy="3"/>
            <feGaussianBlur result="blur-4" stdDeviation="3"/>
            <feFlood flood-opacity=".161"/>
            <feComposite in2="blur-4" operator="in"/>
            <feComposite in="SourceGraphic"/>
        </filter>
    </defs>
    <g id="phone" transform="translate(8.245 -17.232)">
        <g class="cls-16" transform="translate(-8.24 17.23)">
            <path id="Path_9411-2" d="M286.766 308.254l-39.3 8.02a7.587 7.587 0 0 0-5.439 10.482l44.803 102.085a9.988 9.988 0 0 0 12.071 5.53l45.285-13.921a8.514 8.514 0 0 0 5.021-12.14l-50.518-94.853a11.306 11.306 0 0 0-11.923-5.203z" class="cls-1" data-name="Path 9411" transform="translate(-205.42 -287.13)"/>
        </g>
        <path id="Path_9412" d="M254.451 320.018l6.462-1.272c.894 1.853 3.085 3.514 5.113 3.15l23.182-4.815a1.636 1.636 0 0 0 1.265-2.127l-.635-1.9 6.432-1.266a6.375 6.375 0 0 1 6.832 3.2l52.317 96.142a6.338 6.338 0 0 1-3.732 9.094L307.1 433.768a7.99 7.99 0 0 1-9.607-4.358l-46.379-102.937a4.638 4.638 0 0 1 3.338-6.454z" class="cls-2" data-name="Path 9412" transform="translate(-220.706 -272.646)"/>
        <path id="Line_37" d="M9.549 0L0 1.956" class="cls-3" data-name="Line 37" transform="translate(52.002 43.124)"/>
        <ellipse id="Ellipse_232" cx=".979" cy=".856" class="cls-4" data-name="Ellipse 232" rx=".979" ry=".856" transform="translate(48.344 45.05)"/>
        <g class="cls-15" transform="translate(-8.24 17.23)">
            <path id="Path_10583-2" d="M40.162.392L6.527 8.322c-2.094.357-4.58 1.4-5.564 2.98A5.468 5.468 0 0 0 .486 16.6l42.407 81.784a9.247 9.247 0 0 0 10.693 4.384l41.233-13.129a7.59 7.59 0 0 0 5-3.806 5.656 5.656 0 0 0-.319-5.643L51.106 2.876C48.8-.294 44.514-.351 40.162.392z" class="cls-5" data-name="Path 10583" transform="translate(48.6 42.35)"/>
        </g>
        <g class="cls-14" transform="translate(-8.24 17.23)">
            <path id="Path_10523-2" d="M32.54.318L4.489 6.955a5.594 5.594 0 0 0-3.86 2.489 4.163 4.163 0 0 0-.158 4.126l34.235 66.2a7.272 7.272 0 0 0 8.481 3.554l32.707-10.646a6.04 6.04 0 0 0 3.969-3.086 4.674 4.674 0 0 0-.26-4.575L41.221 2.332C39.394-.239 35.993-.285 32.54.318z" class="cls-6" data-name="Path 10523" transform="translate(53.88 40)"/>
        </g>
        <path id="Path_9417" d="M496.317 424.293c-3.623-9.427-13.626-14.829-21.657-12.284-7.361 2.333-10.385 10.612-7.291 18.663s11.512 13.808 19.377 12.786c8.58-1.116 13.193-9.739 9.571-19.165z" class="cls-7" data-name="Path 9417" transform="translate(-403.341 -333.074)"/>
        <path id="Path_9418" d="M496.317 424.293c-3.623-9.427-13.626-14.829-21.657-12.284-7.361 2.333-10.385 10.612-7.291 18.663s11.512 13.808 19.377 12.786c8.58-1.116 13.193-9.739 9.571-19.165z" class="cls-8" data-name="Path 9418" transform="translate(-403.341 -333.074)"/>
        <path id="Path_9419" d="M501.317 419.293c-3.623-9.426-13.626-14.828-21.657-12.283-7.361 2.333-10.385 10.612-7.291 18.663s11.512 13.808 19.377 12.786c8.58-1.117 13.193-9.74 9.571-19.166z" class="cls-9" data-name="Path 9419" transform="translate(-406.76 -329.649)"/>
        <g class="cls-13" transform="translate(-8.24 17.23)">
            <path id="features-2" d="M7.671 0a.89.89 0 0 0-.655.3.828.828 0 0 0-.2.661l.721 5.823-6.686.01a.845.845 0 0 0-.77.489.836.836 0 0 0 .115.9L8.679 18.33a.825.825 0 0 0 .642.306.891.891 0 0 0 .656-.3.829.829 0 0 0 .2-.661l-.721-5.822 6.685-.01a.846.846 0 0 0 .77-.489.837.837 0 0 0-.115-.9L8.313.307A.827.827 0 0 0 7.671 0zm.464 15.027L2.664 8.48 8.5 8.471a.851.851 0 0 0 .845-.953l-.487-3.909 5.47 6.546-5.834.009a.851.851 0 0 0-.844.953z" class="cls-10" data-name="features" transform="rotate(-157 55.323 34.31)"/>
        </g>
        <path id="Line_213" d="M0 9l33.5-9" class="cls-11" data-name="Line 213" transform="translate(84.509 132.026)"/>
        <path id="Line_214" d="M0 9l33.5-9" class="cls-12" data-name="Line 214" transform="translate(84.037 131.86)"/>
        <path id="Line_216" d="M0 8l29.5-8" class="cls-12" data-name="Line 216" transform="translate(86.332 132.465)"/>
    </g>
</svg>
