<svg xmlns="http://www.w3.org/2000/svg" xmlns:xlink="http://www.w3.org/1999/xlink" width="28" height="71" viewBox="0 0 28 71">
    <defs>
        <style>
            .cls-1{fill:url(#linear-gradient)}.cls-2{fill:url(#linear-gradient-9)}.cls-3{fill:url(#linear-gradient-10)}.cls-4{fill:url(#linear-gradient-11)}.cls-5{fill:url(#linear-gradient-12)}
        </style>
        <linearGradient id="linear-gradient" x1=".5" x2=".5" y2="1" gradientUnits="objectBoundingBox">
            <stop offset="0" stop-color="#35e7c1"/>
            <stop offset="1" stop-color="#6353f4"/>
        </linearGradient>
        <linearGradient id="linear-gradient-9" x2="1.591" y1=".152" y2="1.969" gradientUnits="objectBoundingBox">
            <stop offset="0" stop-color="#fff"/>
            <stop offset="1" stop-color="#cbabff"/>
        </linearGradient>
        <linearGradient id="linear-gradient-10" x1="-2.056" x2=".5" y1=".073" y2="1" gradientUnits="objectBoundingBox">
            <stop offset="0" stop-color="#c5cfd6"/>
            <stop offset="1" stop-color="#63686b"/>
        </linearGradient>
        <linearGradient id="linear-gradient-11" x1="-1.949" y1=".053" xlink:href="#linear-gradient-10"/>
        <linearGradient id="linear-gradient-12" x1="-1.721" xlink:href="#linear-gradient-10"/>
    </defs>
    <g id="plant" transform="translate(0 .001)">
        <g id="Succulents" transform="translate(3.279)">
            <path id="Thi_Succs_" d="M.1.053c2.224 5.294 6.012 8.973 8.018 14.478a31.262 31.262 0 0 1 1.716 10.45c.016 1.975-.018 3.951-.027 5.925-.009 1.926-.061 3.839-.225 5.753s-.348 3.824-.429 5.76a15.886 15.886 0 0 1-.6 4.638c-.406 1.094-1.44 1.254-1.714-.073a10.606 10.606 0 0 1-.116-2.319c.022-.972.078-1.944.107-2.916.116-3.9-.034-7.8.044-11.708.077-3.814.567-7.623.025-11.411A26.612 26.612 0 0 0 4 10.24 46.709 46.709 0 0 1 .523 2.526 13.581 13.581 0 0 1 0 .008Q.059-.02.1.053z" class="cls-1" data-name="Thi Succs!" transform="translate(.757)"/>
            <path id="Thi_Succs_2" d="M.246.156A4.243 4.243 0 0 1 1.232 1.4c.371.572.807 1.088 1.178 1.66.773 1.193 1.452 2.459 2.157 3.7a24.232 24.232 0 0 1 2.857 7.592 81.721 81.721 0 0 1 .876 8.606c.232 3.038.466 6.1.5 9.148a32.677 32.677 0 0 1-.076 4.174c-.1.845-.483 1.565-1.343 1.558-1.825-.015-2.681-2.038-3.04-3.695a31.135 31.135 0 0 1-.549-7.532c.1-3.011.623-5.976.85-8.976a21.88 21.88 0 0 0-.987-9.284C3.1 6.841 2.463 5.366 1.888 3.866a14.5 14.5 0 0 0-.776-1.89A18.143 18.143 0 0 1 0 0z" class="cls-1" data-name="Thi Succs!" transform="translate(0 10.342)"/>
            <path id="Thi_Succs_3" d="M4.373.131L4.541 0a16.69 16.69 0 0 1-.675 1.852 15.112 15.112 0 0 0-.436 1.8c-.316 1.433-.682 2.834-.981 4.279a28.338 28.338 0 0 0-.092 9.113c.366 3 .946 5.99 1.222 8.986a41.256 41.256 0 0 1 .109 7.419c-.148 1.61-.635 3.533-1.96 3.37-.628-.076-.95-.827-1.081-1.675C.436 33.782.392 32.35.31 31c-.183-3.026-.22-6.039-.256-9.031-.034-2.822-.129-5.7.06-8.452a25.9 25.9 0 0 1 1.564-7.254C2.107 5.1 2.515 3.91 3 2.8c.231-.532.513-1 .744-1.533A3.279 3.279 0 0 1 4.373.131z" class="cls-1" data-name="Thi Succs!" transform="translate(16.901 4.036)"/>
            <path id="Thi_Succs_4" d="M.053.076c.241-.405.773.931.854 1.1L.8.925a11.123 11.123 0 0 1 1.19 2.54c.27.9.5 1.827.754 2.738.478 1.708 1.091 3.368 1.521 5.097a16.573 16.573 0 0 1 .423 5.07 43.308 43.308 0 0 0-.047 5.445 15.858 15.858 0 0 0 .531 2.5c.192.831.344 1.673.571 2.493.052-.107.059.25.059.278a1.723 1.723 0 0 1-.1.571 1.538 1.538 0 0 1-.969 1.062c-.872.249-1.681-.544-1.963-1.381a22.919 22.919 0 0 1-.818-3.793 17.88 17.88 0 0 1-.166-3.5c.1-2.315.522-4.6.635-6.915a33.418 33.418 0 0 0-.794-7.341A21.436 21.436 0 0 0 .847 2.3a9.778 9.778 0 0 0-.583-1.275C.141.785-.109.358.053.076z" class="cls-1" data-name="Thi Succs!" transform="translate(.757 19.171)"/>
            <path id="Thi_Succs_5" d="M2.586 9c-.1 2.887-.272 5.752-.657 8.609-.393 2.915-.844 5.82-1.222 8.738A59.1 59.1 0 0 0 0 34.958c.038 2.121-.314 5.71 2.042 6.756 2.386 1.06 2.9-3.467 3.054-4.962a55.968 55.968 0 0 0 .057-8.647c-.15-2.959-.4-5.9-.709-8.85a255.71 255.71 0 0 1-.83-9.847 56.53 56.53 0 0 1-.1-4.87A12.169 12.169 0 0 0 2.94 0l-.085.062" class="cls-1" data-name="Thi Succs!" transform="translate(5.297 6.306)"/>
            <path id="Thi_Succs_6" d="M3.048 1.5c-.429.625-.862 1.244-1.267 1.906A10.053 10.053 0 0 0 .2 7.6a82.356 82.356 0 0 0 0 11.027 5.769 5.769 0 0 0 .216 2.181c.267.644.766 1.135 1.241 1.133 1.018-.006.863-2.5.864-3.6 0-1.923-.213-3.865-.194-5.787a40.177 40.177 0 0 1 .41-5.62 32.378 32.378 0 0 1 1.231-5.216c.075-.228.613-1.986.1-1.683" class="cls-1" data-name="Thi Succs!" transform="translate(17.153 22.955)"/>
            <path id="Thi_Succs_7" d="M3.6 0c-.669 0-.665 3.336-.685 3.765-.073 1.546-.056 3.093-.1 4.64a84.111 84.111 0 0 1-.731 10.117c-.273 1.8-.589 3.584-.93 5.367S.35 27.462.125 29.272a37.7 37.7 0 0 0-.064 5.264A46.08 46.08 0 0 0 .374 39.8c.057.431.124.859.195 1.287a10.205 10.205 0 0 0 .125 1.138 1.154 1.154 0 0 0 1.318.635c1.259-.23 2.064-1.811 2.494-2.967a27.774 27.774 0 0 0 1.129-4.63 40.469 40.469 0 0 0 .607-5.343A89.907 89.907 0 0 0 5.929 19c-.145-2.02-.313-4.032-.57-6.04s-.584-3.99-.8-5.995a116.558 116.558 0 0 1-.408-4.379C4.13 2.235 4.109 0 3.6 0" class="cls-1" data-name="Thi Succs!" transform="translate(12.108 5.55)"/>
            <path id="Thi_Succs_8" d="M6.8 29.8c-.113-3.5-1.521-18.888-1.842-23.124C4.878 5.616 4.107 1.2 4.007 0c-.271.34-.248 5.628-.245 6.843s-.146 2.384-.223 3.579c-.078 1.22-1.881 16.973-2.115 18.145C.958 30.9.647 33.291.406 35.675a30.944 30.944 0 0 0-.285 7.111 7.14 7.14 0 0 0 .371 1.561c.2.534.338 1.027.5 1.586a3.225 3.225 0 0 0 1.447 2.061c1.476.762 2.268-.962 2.669-2.463a40.164 40.164 0 0 0 1.246-7.35A77.905 77.905 0 0 0 6.8 29.8" class="cls-1" data-name="Thi Succs!" transform="translate(8.072)"/>
        </g>
        <g id="Planter" transform="translate(0 39.973)">
            <rect id="Vase" width="22.955" height="22.955" class="cls-2" rx="2" transform="translate(2.523)"/>
            <rect id="Leg" width="2.523" height="28.504" class="cls-3" rx="1.261" transform="translate(0 2.523)"/>
            <rect id="Leg-2" width="2.523" height="28.504" class="cls-4" data-name="Leg" rx="1.261" transform="translate(12.613 2.523)"/>
            <rect id="Leg-3" width="2.523" height="28.504" class="cls-5" data-name="Leg" rx="1.261" transform="translate(25.477 2.523)"/>
        </g>
    </g>
</svg>
