<svg xmlns="http://www.w3.org/2000/svg" width="12.548" height="12" viewBox="0 0 12.548 12">
    <defs>
        <style>
            .cls-1{fill:#fb873f}
        </style>
    </defs>
    <path id="star" d="M5.669 1.423L4.253 4.291a.676.676 0 0 1-.509.37l-3.164.46a.676.676 0 0 0-.375 1.152L2.5 8.505a.676.676 0 0 1 .194.6l-.54 3.152a.676.676 0 0 0 .98.712L5.96 11.48a.676.676 0 0 1 .629 0l2.83 1.488a.676.676 0 0 0 .98-.712L9.859 9.1a.676.676 0 0 1 .194-.6l2.29-2.232a.676.676 0 0 0-.375-1.152L8.8 4.661a.675.675 0 0 1-.509-.37L6.88 1.423a.675.675 0 0 0-1.211 0z" class="cls-1" transform="translate(-.001 -1.047)"/>
</svg>
