<svg xmlns="http://www.w3.org/2000/svg" width="49" height="132" viewBox="0 0 49 132">
    <defs>
        <style>
            .cls-1{fill:#ffca55}.cls-2{fill:#eea886}.cls-3{fill:#eddad3}.cls-4{fill:#2f4563}.cls-5{fill:#3b3b40}.cls-6{fill:#c2b2ad}.cls-7{fill:#02137f}.cls-8{fill:#292c47}.cls-9{fill:#eb4747}.cls-10{fill:url(#linear-gradient)}.cls-11{fill:#dbcac3}.cls-12{fill:#b38761}.cls-13{fill:#151624}.cls-14{fill:#eea987}.cls-15{fill:#a87860}.cls-16{fill:url(#linear-gradient-2)}.cls-17{fill:url(#linear-gradient-3)}.cls-18{fill:#fdb541}.cls-19{fill:url(#linear-gradient-4)}.cls-20{fill:#fdb942}.cls-21{fill:url(#linear-gradient-5)}
        </style>
        <linearGradient id="linear-gradient" x1=".403" x2=".412" y1=".395" y2="1.097" gradientUnits="objectBoundingBox">
            <stop offset="0" stop-color="#fed475"/>
            <stop offset="1" stop-color="#fa742b"/>
        </linearGradient>
        <linearGradient id="linear-gradient-2" x1=".5" x2=".5" y2="1" gradientUnits="objectBoundingBox">
            <stop offset="0" stop-color="#02137f"/>
            <stop offset="1" stop-color="#071828"/>
        </linearGradient>
        <linearGradient id="linear-gradient-3" x1=".133" x2=".838" y1=".167" y2="1.628" gradientUnits="objectBoundingBox">
            <stop offset="0" stop-color="#ffea53"/>
            <stop offset="1" stop-color="#fa742b"/>
        </linearGradient>
        <linearGradient id="linear-gradient-4" x1=".515" x2=".5" y1=".174" y2="1" gradientUnits="objectBoundingBox">
            <stop offset="0" stop-color="#eb4747"/>
            <stop offset="1" stop-color="#d21d00"/>
        </linearGradient>
        <linearGradient id="linear-gradient-5" x1=".5" x2=".5" y2="1" gradientUnits="objectBoundingBox">
            <stop offset="0" stop-color="#ffe985"/>
            <stop offset="1" stop-color="#fa742b"/>
        </linearGradient>
    </defs>
    <g id="woman">
        <g id="Group_2404" data-name="Group 2404" transform="translate(4.968 121.539)">
            <g id="Group_2403" data-name="Group 2403">
                <g id="Group_2402" data-name="Group 2402">
                    <g id="Group_2401" data-name="Group 2401">
                        <path id="Path_9900" d="M485.111 425.282s-.74 1.981-1.77 2.452-3.365 2.646-4.3 2.8-3.194 3.8 1.335 3.173a33.272 33.272 0 0 0 8.806-2.73s.914-4.608-.557-6.884-3.514 1.189-3.514 1.189z" class="cls-1" data-name="Path 9900" transform="translate(-477.643 -423.321)"/>
                    </g>
                </g>
            </g>
        </g>
        <g id="Group_2407" data-name="Group 2407" transform="translate(12.345 120.658)">
            <g id="Group_2406" data-name="Group 2406">
                <g id="Group_2405" data-name="Group 2405">
                    <path id="Path_9901" d="M475.549 425.015l.848-2.842h3.234v3.03s-4.894 1.846-4.082-.188z" class="cls-2" data-name="Path 9901" transform="translate(-475.458 -422.173)"/>
                </g>
            </g>
        </g>
        <g id="Group_2411" data-name="Group 2411" transform="translate(17.345 21.176)">
            <g id="Group_2410" data-name="Group 2410">
                <g id="Group_2409" data-name="Group 2409">
                    <g id="Group_2408" data-name="Group 2408">
                        <path id="Path_9902" d="M472.65 292.605l-2.913 4.611-2.689 4.256c.006-.022.186-.667.489-2.533.058-.355.12-.753.186-1.2a3.193 3.193 0 0 1 .084-.393c1.151-2.664 4.708-4.674 4.838-4.741z" class="cls-3" data-name="Path 9902" transform="translate(-467.048 -292.605)"/>
                    </g>
                </g>
            </g>
        </g>
        <g id="Group_2414" data-name="Group 2414" transform="translate(17.834 21.176)">
            <g id="Group_2413" data-name="Group 2413">
                <g id="Group_2412" data-name="Group 2412">
                    <path id="Path_9903" d="M467.336 297.316a6.069 6.069 0 0 0-.283 1.624l1.053-1.6s1.882-2.71 2.526-3.414a10.735 10.735 0 0 1 1.53-1.322s-3.702 1.789-4.826 4.712z" class="cls-1" data-name="Path 9903" transform="translate(-467.053 -292.606)"/>
                </g>
            </g>
        </g>
        <g id="Group_2417" data-name="Group 2417" transform="translate(17.549 38.698)">
            <g id="Group_2416" data-name="Group 2416">
                <g id="Group_2415" data-name="Group 2415">
                    <path id="Path_9904" d="M474.105 315.544a1.928 1.928 0 0 1-.011-.118.325.325 0 0 1 .005.033c.001.019.001.048.006.085z" class="cls-4" data-name="Path 9904" transform="translate(-474.094 -315.426)"/>
                </g>
            </g>
        </g>
        <g id="Group_2503" data-name="Group 2503" transform="translate(11.966)">
            <g id="Group_2420" data-name="Group 2420" transform="translate(5.214)">
                <g id="Group_2419" data-name="Group 2419">
                    <g id="Group_2418" data-name="Group 2418">
                        <path id="Path_9905" d="M462.548 265.057s4.4-.148 5.808 3.477a10.753 10.753 0 0 1-.056 7.723c-1.047 3.449-1.134 4.7-.627 6.78.449 1.845.862 2.8 1.38 4.521s-.346 1.533-.421 1.658-16.846 3.756-16.846 3.756.532-4.313 1.643-6.011c.815-1.248 2.035-1.671 1.116-5.368s-1.5-5.411-.987-8.091c.6-3.1.973-5.046 3.88-7.082a7.789 7.789 0 0 1 5.11-1.363z" class="cls-5" data-name="Path 9905" transform="translate(-451.786 -265.025)"/>
                    </g>
                </g>
            </g>
            <g id="Group_2427" data-name="Group 2427" transform="translate(5.952 19.235)">
                <g id="Group_2426" data-name="Group 2426">
                    <g id="Group_2425" data-name="Group 2425">
                        <path id="Path_9908" d="M471.56 290.078s-4.907 3.552-6.542 12.025c0 0 4.605-9.06 6.107-10.675a1.519 1.519 0 0 0 .435-1.35z" class="cls-1" data-name="Path 9908" transform="translate(-465.018 -290.078)"/>
                    </g>
                </g>
            </g>
            <g id="Group_2430" data-name="Group 2430" transform="translate(5.548 69.438)">
                <g id="Group_2429" data-name="Group 2429">
                    <g id="Group_2428" data-name="Group 2428">
                        <path id="Path_9909" d="M466.44 366.68s-14.007-1.535-22.57 3.4 8.005-14.62 8.005-14.62 14.374 5.687 14.565 11.22z" class="cls-6" data-name="Path 9909" transform="translate(-441.413 -355.463)"/>
                    </g>
                </g>
            </g>
            <g id="Group_2434" data-name="Group 2434" transform="translate(25.148 116.53)">
                <g id="Group_2433" data-name="Group 2433">
                    <g id="Group_2432" data-name="Group 2432">
                        <g id="Group_2431" data-name="Group 2431">
                            <path id="Path_9910" d="M437.6 424.961s-2.737 3.228.265 3.654 5.243-3.654 5.243-3.654 1.828-2.588 1.616-3.358c-.242-.9-2.065-4.33-2.023-4.748s-2.534 1.557-2.534 1.557a8.429 8.429 0 0 1-.822 2.677 36.061 36.061 0 0 0-1.745 3.872z" class="cls-7" data-name="Path 9910" transform="translate(-436.454 -416.798)"/>
                        </g>
                    </g>
                </g>
            </g>
            <g id="Group_2437" data-name="Group 2437" transform="translate(28.072 114.215)">
                <g id="Group_2436" data-name="Group 2436">
                    <g id="Group_2435" data-name="Group 2435">
                        <path id="Path_9911" d="M440.342 416.235a5.392 5.392 0 0 1 .784 1.477c.137.545 1.325.761 2.278-.422a1.909 1.909 0 0 0 .256-1.135 10.274 10.274 0 0 0-.844-2.373z" class="cls-2" data-name="Path 9911" transform="translate(-440.342 -413.782)"/>
                    </g>
                </g>
            </g>
            <g id="Group_2441" data-name="Group 2441" transform="translate(0 54.775)">
                <g id="Group_2440" data-name="Group 2440">
                    <g id="Group_2439" data-name="Group 2439">
                        <g id="Group_2438" data-name="Group 2438">
                            <path id="Path_9912" d="M475.152 351.544c-.17.82-1.25 4.25-2.461 8.06l-1.055 3.318c-.763 2.4-1.488 4.707-1.986 6.365-.271.9-.475 1.614-.58 2.047-.7 2.864.086 7.356.339 11.111s-3.776 22.225-3.776 22.225c-.95.445-5.166-.733-5.166-.733.7-1.336 1.633-24.331 1.254-25.794a22.317 22.317 0 0 1-.253-7.127 6.285 6.285 0 0 0 .125-1.277c.032-2.008-.38-5.328-.631-8.969-.318-4.581 1.456-15.973 1.71-16.991.022-.094.06-.225.106-.386.467-1.6 1.971-6.134 1.971-6.134a14.871 14.871 0 0 1 7.054-.725 5.253 5.253 0 0 1 4.138 3.566c1.49 4.144-.57 10.381-.789 11.444z" class="cls-8" data-name="Path 9912" transform="translate(-460.468 -336.365)"/>
                        </g>
                    </g>
                </g>
            </g>
            <g id="Group_2445" data-name="Group 2445" transform="translate(11.169 51.608)">
                <g id="Group_2444" data-name="Group 2444">
                    <g id="Group_2443" data-name="Group 2443">
                        <g id="Group_2442" data-name="Group 2442">
                            <path id="Path_9913" d="M460.379 396.72l-4.16 1.774c-.524-2.544-12.143-20.225-12.908-22.2a28.928 28.928 0 0 1-1.58-7.191c0-.25-.018-.672-.054-1.219-.134-2.123-.522-6.125-1.077-9.24-.1-.581-.212-1.131-.327-1.632-.613-2.686-.72-11.865-.727-17.263 0-2.4.013-4.055.013-4.055s.053-.042.153-.117c1.156-.878 8.566-6.232 11.149-1.228a15.048 15.048 0 0 1 1.4 4.221c.829 4.536 1.445 10.341.777 15-.572 3.982-1.812 8.486-2.656 12.587-.46 2.237-.868 4.656-.351 5.559 1.457 2.546 2.882 4.7 5.828 13.683.958 2.919 4.52 11.321 4.52 11.321z" class="cls-8" data-name="Path 9913" transform="translate(-439.546 -332.241)"/>
                        </g>
                    </g>
                </g>
            </g>
            <g id="Group_2453" data-name="Group 2453" transform="translate(11.83 13.221)">
                <g id="Group_2452" data-name="Group 2452">
                    <g id="Group_2451" data-name="Group 2451">
                        <g id="Group_2450" data-name="Group 2450">
                            <path id="Path_9915" d="M463.428 289.308s-.143-5.979.365-6.941-6.139 4-6.139 4 .024.235.033.4v.086a6.452 6.452 0 0 1-.042 1.122l-.021.194a7.288 7.288 0 0 1-.62 2.313c-.726 1.542 6.424-1.174 6.424-1.174z" class="cls-2" data-name="Path 9915" transform="translate(-456.956 -282.244)"/>
                        </g>
                    </g>
                </g>
            </g>
            <g id="Group_2456" data-name="Group 2456" transform="translate(9.714 19.717)">
                <g id="Group_2455" data-name="Group 2455">
                    <g id="Group_2454" data-name="Group 2454">
                        <path id="Path_9916" d="M457.858 291.528s-3.372 5.206-2.23 5.66 7.316-.607 9.941-5.55c0 0-3.925-2.022-7.711-.11z" class="cls-2" data-name="Path 9916" transform="translate(-455.392 -290.706)"/>
                    </g>
                </g>
            </g>
            <g id="Group_2459" data-name="Group 2459" transform="translate(18.325 21.039)">
                <g id="Group_2458" data-name="Group 2458">
                    <g id="Group_2457" data-name="Group 2457">
                        <path id="Path_9917" d="M449.51 301.027a40.776 40.776 0 0 1 5.631-1.638s-1-7.68-5.435-6.908-.196 8.546-.196 8.546z" class="cls-3" data-name="Path 9917" transform="translate(-447.684 -292.427)"/>
                    </g>
                </g>
            </g>
            <g id="Group_2462" data-name="Group 2462" transform="translate(9.359 18.867)">
                <g id="Group_2461" data-name="Group 2461">
                    <g id="Group_2460" data-name="Group 2460">
                        <path id="Path_9918" d="M456.631 290.333s.259.987 5.842-.735l.263 1.272a14.62 14.62 0 0 1 2.753.938s-10.067 9.528-11.587 5.639 2.345-6.131 2.345-6.131z" class="cls-9" data-name="Path 9918" transform="translate(-453.547 -289.598)"/>
                    </g>
                </g>
            </g>
            <g id="Group_2465" data-name="Group 2465" transform="translate(4.447 20.585)">
                <g id="Group_2464" data-name="Group 2464">
                    <g id="Group_2463" data-name="Group 2463">
                        <path id="Path_9919" d="M473.249 291.836l-7.612 9.457a17.876 17.876 0 0 1 1.421-2.532c.339-.531.7-1.072 1.053-1.6a30.278 30.278 0 0 1 2.892-3.8 9.313 9.313 0 0 1 1.163-.934 6.165 6.165 0 0 1 1.078-.59z" class="cls-9" data-name="Path 9919" transform="translate(-465.638 -291.836)"/>
                    </g>
                </g>
            </g>
            <g id="Group_2468" data-name="Group 2468" transform="translate(3.865 20.585)">
                <g id="Group_2467" data-name="Group 2467">
                    <g id="Group_2466" data-name="Group 2466">
                        <path id="Path_9920" d="M467.356 309.948c-.492-1.519-1.81-5.009-1.714-6.489a6.626 6.626 0 0 1 .577-2.166 18.564 18.564 0 0 1 1.421-2.617c.339-.531.952-1.427 1.309-1.953a22.618 22.618 0 0 1 2.637-3.378 9.624 9.624 0 0 1 1.167-.961 5.1 5.1 0 0 1 1.077-.547s-8.018 7.271-6.474 18.111z" class="cls-1" data-name="Path 9920" transform="translate(-465.638 -291.836)"/>
                    </g>
                </g>
            </g>
            <g id="Group_2471" data-name="Group 2471" transform="translate(21.229 52.892)">
                <g id="Group_2470" data-name="Group 2470">
                    <g id="Group_2469" data-name="Group 2469">
                        <path id="Path_9921" d="M449.829 333.913a4.058 4.058 0 0 1-.89 1.022c-.339.169-.728.968-.728.968l2.175 1.6a6.408 6.408 0 0 1 1.791-2.48c.995-.588-2.348-1.11-2.348-1.11z" class="cls-2" data-name="Path 9921" transform="translate(-448.21 -333.913)"/>
                    </g>
                </g>
            </g>
            <g id="Group_2475" data-name="Group 2475" transform="translate(19.369 21.795)">
                <g id="Group_2474" data-name="Group 2474">
                    <g id="Group_2473" data-name="Group 2473">
                        <g id="Group_2472" data-name="Group 2472">
                            <path id="Path_9922" d="M445.2 297.251s-1.779-5.135-5.468-3.53c-3.547 1.543 1.234 7.809 1.662 8.578s4.437 6.946 4.841 7.779c1.277 2.633.848 3.939.415 5.2a30.328 30.328 0 0 1-4.994 8.877c-.692.683 2.136 3.136 3.254 2.366 1.489-1.025 4.157-6.36 4.889-7.573.9-1.486 3.159-4.16 1.555-8.806-1.076-3.127-6.154-12.891-6.154-12.891z" class="cls-10" data-name="Path 9922" transform="translate(-438.434 -293.411)"/>
                        </g>
                    </g>
                </g>
            </g>
            <g id="Group_2478" data-name="Group 2478" transform="translate(19.288 53.311)">
                <g id="Group_2477" data-name="Group 2477">
                    <g id="Group_2476" data-name="Group 2476">
                        <path id="Path_9923" d="M449.647 334.459l4.67 3.765s-3.663 5.53-5.419 3.206.749-6.971.749-6.971z" class="cls-11" data-name="Path 9923" transform="translate(-448.273 -334.459)"/>
                    </g>
                </g>
            </g>
            <g id="Group_2483" data-name="Group 2483" transform="translate(20.633 27.948)">
                <g id="Group_2482" data-name="Group 2482">
                    <g id="Group_2481" data-name="Group 2481">
                        <path id="Path_9925" d="M452.335 311.183c-2.109-2.485-3.35-9.757-3.35-9.757a22.117 22.117 0 0 0 4.154 6.642c-.254 1.017-.534 2.065-.804 3.115z" class="cls-12" data-name="Path 9925" transform="translate(-448.985 -301.425)"/>
                    </g>
                </g>
            </g>
            <g id="Group_2486" data-name="Group 2486" transform="translate(9.18 67.427)">
                <g id="Group_2485" data-name="Group 2485">
                    <g id="Group_2484" data-name="Group 2484">
                        <path id="Path_9926" d="M468.466 363.431l-1.055 3.318a76.787 76.787 0 0 1-1.989-13.906c.514 4.089 3.044 10.588 3.044 10.588z" class="cls-13" data-name="Path 9926" transform="translate(-465.422 -352.844)"/>
                    </g>
                </g>
            </g>
            <g id="Group_2494" data-name="Group 2494" transform="translate(8.951 1.534)">
                <g id="Group_2493" data-name="Group 2493">
                    <g id="Group_2492" data-name="Group 2492">
                        <path id="Path_9929" d="M458.974 267.841s-4.855 3.184-3.278 10.883 7.311 3.464 7.935 3.028 2.547-5.254 2.623-7.355c.07-1.979 1.098-9.912-7.28-6.556z" class="cls-14" data-name="Path 9929" transform="translate(-455.381 -267.023)"/>
                    </g>
                </g>
            </g>
            <g id="Group_2497" data-name="Group 2497" transform="translate(8.182 .817)">
                <g id="Group_2496" data-name="Group 2496">
                    <g id="Group_2495" data-name="Group 2495">
                        <path id="Path_9930" d="M459.511 269.17c.507-.151 2.216 3.168 3.135 3.986a8.564 8.564 0 0 1 2.778 5.127c.166 2.252 2.058-4.921 1.4-7.584s-1.529-6.565-7.446-3.47-4.388 8.631-4.388 8.631 1.962-5.932 4.521-6.69z" class="cls-5" data-name="Path 9930" transform="translate(-454.815 -266.089)"/>
                    </g>
                </g>
            </g>
            <g id="Group_2500" data-name="Group 2500" transform="translate(16.866 8.153)">
                <g id="Group_2499" data-name="Group 2499">
                    <g id="Group_2498" data-name="Group 2498">
                        <path id="Path_9931" d="M456.529 276.7c.157-.911 2.157-1.681 2.128-.313s-1.134 2.948-1.759 2.848-.514-1.694-.369-2.535z" class="cls-14" data-name="Path 9931" transform="translate(-456.416 -275.644)"/>
                    </g>
                </g>
            </g>
            <g id="Group_2502" data-name="Group 2502" transform="translate(12.523 16.262)">
                <g id="Group_2501" data-name="Group 2501">
                    <path id="Path_9932" d="M458.91 288.9h.01a5.06 5.06 0 0 0 4.668-2.7 6.074 6.074 0 0 1-4.64 1.488v.086a6.461 6.461 0 0 1-.038 1.126z" class="cls-15" data-name="Path 9932" transform="translate(-458.91 -286.206)"/>
                </g>
            </g>
        </g>
        <g id="Group_2599" data-name="Group 2599">
            <g id="Group_2517" data-name="Group 2517" transform="translate(17.18)">
                <g id="Group_2516" data-name="Group 2516">
                    <g id="Group_2515" data-name="Group 2515">
                        <path id="Path_9938" d="M457.787 292.974s5.421-1.172 10.109-2.209c.085-1.512.229-3.02.433-4.475a35.092 35.092 0 0 1 .944-4.659c.152-.54.319-1.057.5-1.547a14.1 14.1 0 0 0 .787-3.615c.029-.3.046-.6.059-.9a20.139 20.139 0 0 0-.049-2.312 27.292 27.292 0 0 0-1.435-6.673c-.1-.283-.19-.531-.269-.738-.19-.507-.318-.791-.318-.791a7.8 7.8 0 0 0-5.11 1.364c-2.908 2.038-3.284 3.977-3.881 7.081-.514 2.681.07 4.4.986 8.093s-.3 4.12-1.114 5.368c-1.111 1.7-1.642 6.013-1.642 6.013z" class="cls-5" data-name="Path 9938" transform="translate(-457.787 -265.025)"/>
                    </g>
                </g>
            </g>
            <g id="Group_2520" data-name="Group 2520" transform="translate(.669 19.637)">
                <g id="Group_2519" data-name="Group 2519">
                    <g id="Group_2518" data-name="Group 2518">
                        <path id="Path_9939" d="M494.753 293.29s-.67-1.64-.916-2.015.524-1.185 1.009-.211.781 1.6.781 1.6z" class="cls-2" data-name="Path 9939" transform="translate(-493.789 -290.602)"/>
                    </g>
                </g>
            </g>
            <g id="Group_2523" data-name="Group 2523" transform="translate(0 15.058)">
                <g id="Group_2522" data-name="Group 2522">
                    <g id="Group_2521" data-name="Group 2521">
                        <path id="Path_9940" d="M490.523 293.447l-2.269-7.065a.819.819 0 0 1 .618-1.053l3.415-.676a.814.814 0 0 1 .949.612l1.725 7.254a.818.818 0 0 1-.656 1l-2.872.488a.812.812 0 0 1-.91-.56z" class="cls-16" data-name="Path 9940" transform="translate(-488.214 -284.637)"/>
                    </g>
                </g>
            </g>
            <g id="Group_2526" data-name="Group 2526" transform="translate(1.343 18.891)">
                <g id="Group_2525" data-name="Group 2525">
                    <g id="Group_2524" data-name="Group 2524">
                        <path id="Path_9941" d="M487.673 294.133s-.287-.612.71-1.636c1.325-1.361 3.184-2.932 3.623-2.865.633.1.509.6-.384 1.31s-1.188.941-1.188.941a8.991 8.991 0 0 1 2.449-.847c.533.075.759.617.466.827a8.862 8.862 0 0 1-1.04.548s.854-.278 1.062.031c.154.229.316.577-.427 1.02a.628.628 0 0 1 .091 1.088 1.986 1.986 0 0 0-.654 2 6.192 6.192 0 0 1-.46 2.3l-2.587-.29a16.548 16.548 0 0 0-.811-2.876c-.336-.55-.85-1.551-.85-1.551z" class="cls-2" data-name="Path 9941" transform="translate(-487.635 -289.629)"/>
                    </g>
                </g>
            </g>
            <g id="Group_2528" data-name="Group 2528" transform="translate(2.763 21.776)">
                <g id="Group_2527" data-name="Group 2527">
                    <path id="Path_9942" d="M479.177 309.846c-1.184 1.782-2.733 3.666-3.982 3.649-.806-.011-10.947-13.12-10.943-13.777.005-.743 3.732-1.768 3.732-1.768a19.606 19.606 0 0 0 3.412 4.4c1.633 1.306 3.625 4.095 4.034 4.383s1.894-2.915 1.894-2.915a32.259 32.259 0 0 1 2.523-6.8 9.429 9.429 0 0 1 4.634-3.628c6.243 2.816-3.482 13.36-3.482 13.36s-1.256 2.282-1.822 3.096z" class="cls-17" data-name="Path 9942" transform="translate(-464.252 -293.387)"/>
                </g>
            </g>
            <g id="Group_2531" data-name="Group 2531" transform="translate(17.918 19.235)">
                <g id="Group_2530" data-name="Group 2530">
                    <g id="Group_2529" data-name="Group 2529">
                        <path id="Path_9943" d="M471.56 290.078s-4.907 3.552-6.542 12.025c0 0 4.605-9.06 6.107-10.675a1.519 1.519 0 0 0 .435-1.35z" class="cls-18" data-name="Path 9943" transform="translate(-465.018 -290.078)"/>
                    </g>
                </g>
            </g>
            <g id="Group_2534" data-name="Group 2534" transform="translate(16.819 33.43)">
                <g id="Group_2533" data-name="Group 2533">
                    <g id="Group_2532" data-name="Group 2532">
                        <path id="Path_9944" d="M467.582 308.565s.064 19.657 0 24.191 5.719-10.894 5.719-10.894-3.084-9.618-5.719-13.297z" class="cls-18" data-name="Path 9944" transform="translate(-467.582 -308.565)"/>
                    </g>
                </g>
            </g>
            <g id="Group_2537" data-name="Group 2537" transform="translate(17.514 69.436)">
                <g id="Group_2536" data-name="Group 2536">
                    <g id="Group_2535" data-name="Group 2535">
                        <path id="Path_9945" d="M460.144 370.083a28.433 28.433 0 0 1 10.059-3.138 41.834 41.834 0 0 1 0-3.115c.081-1.9.092-4.493.042-7.463-1.265-.576-2.094-.906-2.094-.906s-16.569 19.561-8.007 14.622z" class="cls-6" data-name="Path 9945" transform="translate(-457.688 -355.461)"/>
                    </g>
                </g>
            </g>
            <g id="Group_2541" data-name="Group 2541" transform="translate(4.968 121.539)">
                <g id="Group_2540" data-name="Group 2540">
                    <g id="Group_2539" data-name="Group 2539">
                        <g id="Group_2538" data-name="Group 2538">
                            <path id="Path_9946" d="M485.111 425.282s-.74 1.981-1.77 2.452-3.365 2.646-4.3 2.8-3.194 3.8 1.335 3.173a33.272 33.272 0 0 0 8.806-2.73s.914-4.608-.557-6.884-3.514 1.189-3.514 1.189z" class="cls-7" data-name="Path 9946" transform="translate(-477.643 -423.321)"/>
                        </g>
                    </g>
                </g>
            </g>
            <g id="Group_2544" data-name="Group 2544" transform="translate(12.345 120.658)">
                <g id="Group_2543" data-name="Group 2543">
                    <g id="Group_2542" data-name="Group 2542">
                        <path id="Path_9947" d="M475.549 425.015l.848-2.842h3.234v3.03s-4.894 1.846-4.082-.188z" class="cls-2" data-name="Path 9947" transform="translate(-475.458 -422.173)"/>
                    </g>
                </g>
            </g>
            <g id="Group_2548" data-name="Group 2548" transform="translate(11.966 54.775)">
                <g id="Group_2547" data-name="Group 2547">
                    <g id="Group_2546" data-name="Group 2546">
                        <g id="Group_2545" data-name="Group 2545">
                            <path id="Path_9948" d="M475.152 351.544c-.17.82-1.25 4.25-2.461 8.06l-1.055 3.318c-.763 2.4-1.488 4.707-1.986 6.365-.271.9-.475 1.614-.58 2.047-.7 2.864.086 7.356.339 11.111s-3.776 22.225-3.776 22.225c-.95.445-5.166-.733-5.166-.733.7-1.336 1.633-24.331 1.254-25.794a22.317 22.317 0 0 1-.253-7.127 6.285 6.285 0 0 0 .125-1.277c.032-2.008-.38-5.328-.631-8.969-.318-4.581 1.456-15.973 1.71-16.991.022-.094.06-.225.106-.386.467-1.6 1.971-6.134 1.971-6.134a14.871 14.871 0 0 1 7.054-.725 5.253 5.253 0 0 1 4.138 3.566c1.49 4.144-.57 10.381-.789 11.444z" class="cls-8" data-name="Path 9948" transform="translate(-460.468 -336.365)"/>
                        </g>
                    </g>
                </g>
            </g>
            <g id="Group_2552" data-name="Group 2552" transform="translate(23.135 51.835)">
                <g id="Group_2551" data-name="Group 2551">
                    <g id="Group_2550" data-name="Group 2550">
                        <g id="Group_2549" data-name="Group 2549">
                            <path id="Path_9949" d="M454.943 339.82c.007 5.4.112 14.575.728 17.262.115.5.223 1.053.328 1.633.554 3.115.942 7.118 1.075 9.238.036.551.053.972.053 1.222a28.965 28.965 0 0 0 1.58 7.19c.327.852 2.684 4.635 5.3 8.867a222.838 222.838 0 0 1-1.112-27.3c.135-3.065-.983-7.385-1.164-12.712-.052-1.5-.115-3.042-.183-4.583-.125-2.75-.277-5.512-.44-8.1a18.891 18.891 0 0 0-6 3.111l-.151.115s-.017 1.657-.014 4.057z" class="cls-8" data-name="Path 9949" transform="translate(-454.943 -332.537)"/>
                        </g>
                    </g>
                </g>
            </g>
            <g id="Group_2556" data-name="Group 2556" transform="translate(14.276 19.931)">
                <g id="Group_2555" data-name="Group 2555">
                    <g id="Group_2554" data-name="Group 2554">
                        <g id="Group_2553" data-name="Group 2553">
                            <path id="Path_9950" d="M457.676 332.854c2.528 1.534 9.9 3.687 15.648 2.713 1.452-.14 1.044-.383-.183-4.583-.41-9.121-1.108-18.34-1.764-21.118a51.928 51.928 0 0 1-.695-12.942c0-.047 0-.09.007-.135.012-.253.029-.507.049-.761.086-1.255.213-2.5.384-3.714 0-.033.01-.069.013-.1.059-.415.121-.826.2-1.232l-3.785.609s-.043.014-.122.047a5.94 5.94 0 0 0-1.078.589 9.326 9.326 0 0 0-1.163.935 30.024 30.024 0 0 0-2.892 3.8 61.333 61.333 0 0 0-1.055 1.6 18.022 18.022 0 0 0-1.42 2.532 6.051 6.051 0 0 0-.514 2.167v.079a17.615 17.615 0 0 0 1.072 4.132 11.78 11.78 0 0 1 .582 2.312c.129 1.567.689 7.135.436 8.619s-3.663 14.251-3.72 14.451z" class="cls-19" data-name="Path 9950" transform="translate(-457.676 -290.984)"/>
                        </g>
                    </g>
                </g>
            </g>
            <g id="Group_2560" data-name="Group 2560" transform="translate(17.345 21.176)">
                <g id="Group_2559" data-name="Group 2559">
                    <g id="Group_2558" data-name="Group 2558">
                        <g id="Group_2557" data-name="Group 2557">
                            <path id="Path_9951" d="M472.65 292.605l-2.913 4.611-2.689 4.256c.006-.022.186-.667.489-2.533.058-.355.12-.753.186-1.2a3.193 3.193 0 0 1 .084-.393c1.151-2.664 4.708-4.674 4.838-4.741z" class="cls-3" data-name="Path 9951" transform="translate(-467.048 -292.605)"/>
                        </g>
                    </g>
                </g>
            </g>
            <g id="Group_2564" data-name="Group 2564" transform="translate(23.796 13.765)">
                <g id="Group_2563" data-name="Group 2563">
                    <g id="Group_2562" data-name="Group 2562">
                        <g id="Group_2561" data-name="Group 2561">
                            <path id="Path_9952" d="M462.331 290.351c.063-.446-1.717-1.159-.75-1.195a5.331 5.331 0 0 0 2.03-1.224l-.532-1.458.182-.681a7.566 7.566 0 0 0 .718-1.484 12.465 12.465 0 0 0 .177-1.356c-1.77 1.119-5.07 3.582-5.07 3.582a6.27 6.27 0 0 0 .039.49 6.433 6.433 0 0 1-.042 1.119 6.267 6.267 0 0 0-.02.194 7.3 7.3 0 0 1-.622 2.314c-.43.913 1.914.327 3.89-.301z" class="cls-2" data-name="Path 9952" transform="translate(-458.392 -282.953)"/>
                        </g>
                    </g>
                </g>
            </g>
            <g id="Group_2567" data-name="Group 2567" transform="translate(17.834 21.176)">
                <g id="Group_2566" data-name="Group 2566">
                    <g id="Group_2565" data-name="Group 2565">
                        <path id="Path_9953" d="M467.336 297.316a6.069 6.069 0 0 0-.283 1.624l1.053-1.6s1.882-2.71 2.526-3.414a10.735 10.735 0 0 1 1.53-1.322s-3.702 1.789-4.826 4.712z" class="cls-18" data-name="Path 9953" transform="translate(-467.053 -292.606)"/>
                    </g>
                </g>
            </g>
            <g id="Group_2570" data-name="Group 2570" transform="translate(21.681 19.717)">
                <g id="Group_2569" data-name="Group 2569">
                    <g id="Group_2568" data-name="Group 2568">
                        <path id="Path_9954" d="M460.715 297.187c.666.264 3.038.017 5.422-1.221.086-1.255.213-2.5.384-3.714 0-.033.01-.069.013-.1.07-.488.144-.968.233-1.442a7.889 7.889 0 0 0-3.822.819s-3.371 5.205-2.23 5.658z" class="cls-2" data-name="Path 9954" transform="translate(-460.479 -290.705)"/>
                    </g>
                </g>
            </g>
            <g id="Group_2573" data-name="Group 2573" transform="translate(17.549 38.697)">
                <g id="Group_2572" data-name="Group 2572">
                    <g id="Group_2571" data-name="Group 2571">
                        <path id="Path_9955" d="M474.105 315.544a1.928 1.928 0 0 1-.011-.118.325.325 0 0 1 .005.033c.001.019.001.048.006.085z" class="cls-4" data-name="Path 9955" transform="translate(-474.094 -315.426)"/>
                    </g>
                </g>
            </g>
            <g id="Group_2576" data-name="Group 2576" transform="translate(21.327 19.328)">
                <g id="Group_2575" data-name="Group 2575">
                    <g id="Group_2574" data-name="Group 2574">
                        <path id="Path_9956" d="M459.8 297.587c.688 1.761 3.134.77 5.6-.842 0-.047 0-.09.007-.135.085-1.512.229-3.02.433-4.475 0-.033 1.028-1.738 1.031-1.771.078-.566-.847.547-.747 0-3.411.813-3.6.109-3.6.109l-.383.984s-3.861 2.243-2.341 6.13z" class="cls-9" data-name="Path 9956" transform="translate(-459.446 -290.199)"/>
                    </g>
                </g>
            </g>
            <g id="Group_2579" data-name="Group 2579" transform="translate(16.413 20.585)">
                <g id="Group_2578" data-name="Group 2578">
                    <g id="Group_2577" data-name="Group 2577">
                        <path id="Path_9957" d="M473.249 291.836l-7.612 9.457a17.876 17.876 0 0 1 1.421-2.532c.339-.531.7-1.072 1.053-1.6a30.278 30.278 0 0 1 2.892-3.8 9.313 9.313 0 0 1 1.163-.934 6.165 6.165 0 0 1 1.078-.59z" class="cls-9" data-name="Path 9957" transform="translate(-465.638 -291.836)"/>
                    </g>
                </g>
            </g>
            <g id="Group_2582" data-name="Group 2582" transform="translate(15.831 20.585)">
                <g id="Group_2581" data-name="Group 2581">
                    <g id="Group_2580" data-name="Group 2580">
                        <path id="Path_9958" d="M467.356 309.948c-.492-1.519-1.81-5.009-1.714-6.489a6.626 6.626 0 0 1 .577-2.166 18.564 18.564 0 0 1 1.421-2.617c.339-.531.952-1.427 1.309-1.953a22.618 22.618 0 0 1 2.637-3.378 9.624 9.624 0 0 1 1.167-.961 5.1 5.1 0 0 1 1.077-.547s-8.018 7.271-6.474 18.111z" class="cls-20" data-name="Path 9958" transform="translate(-465.638 -291.836)"/>
                    </g>
                </g>
            </g>
            <g id="Group_2587" data-name="Group 2587" transform="translate(21.146 67.427)">
                <g id="Group_2586" data-name="Group 2586">
                    <g id="Group_2585" data-name="Group 2585">
                        <path id="Path_9960" d="M468.466 363.431l-1.055 3.318a76.787 76.787 0 0 1-1.989-13.906c.514 4.089 3.044 10.588 3.044 10.588z" class="cls-13" data-name="Path 9960" transform="translate(-465.422 -352.844)"/>
                    </g>
                </g>
            </g>
            <g id="Group_2590" data-name="Group 2590" transform="translate(20.917 1.534)">
                <g id="Group_2589" data-name="Group 2589">
                    <g id="Group_2588" data-name="Group 2588">
                        <path id="Path_9961" d="M458.1 278.724c1.37 6.667 5.853 4.383 7.434 3.371.152-.54.319-1.057.5-1.547a14.717 14.717 0 0 0 .845-4.514 25.544 25.544 0 0 0-1.484-8.985 8.672 8.672 0 0 0-4.019.793s-4.851 3.184-3.276 10.882z" class="cls-14" data-name="Path 9961" transform="translate(-457.786 -267.024)"/>
                    </g>
                </g>
            </g>
            <g id="Group_2593" data-name="Group 2593" transform="translate(20.148 .748)">
                <g id="Group_2592" data-name="Group 2592">
                    <g id="Group_2591" data-name="Group 2591">
                        <path id="Path_9962" d="M457.035 275.839s1.957-5.934 4.517-6.691c.508-.152 2.216 3.168 3.136 3.987a9.763 9.763 0 0 1 2.033 2.66c.424-4.157 1.093-8.166.47-9.8a19.09 19.09 0 0 0-5.771 1.209c-5.92 3.096-4.385 8.635-4.385 8.635z" class="cls-5" data-name="Path 9962" transform="translate(-456.857 -266)"/>
                    </g>
                </g>
            </g>
            <g id="Group_2596" data-name="Group 2596" transform="translate(28.848 8.19)">
                <g id="Group_2595" data-name="Group 2595">
                    <g id="Group_2594" data-name="Group 2594">
                        <path id="Path_9963" d="M457.418 279.684c.184.029-.23 3.453 0 3.239a15.391 15.391 0 0 0 .717-4.763c.029-.784 1.457-2.783-.115-2.426a1.5 1.5 0 0 0-1.019.978c-.146.841-.208 2.873.417 2.972z" class="cls-14" data-name="Path 9963" transform="translate(-456.904 -275.693)"/>
                    </g>
                </g>
            </g>
            <g id="Group_2598" data-name="Group 2598" transform="translate(24.49 16.619)">
                <g id="Group_2597" data-name="Group 2597">
                    <path id="Path_9964" d="M459.535 289.008h.009a5.227 5.227 0 0 0 4-1.712c.052-.21.269-.228.167-.626a5.834 5.834 0 0 1-4.137 1.133c0 .029 0 .059.006.085a6.443 6.443 0 0 1-.045 1.12z" class="cls-15" data-name="Path 9964" transform="translate(-459.535 -286.67)"/>
                </g>
            </g>
            <g id="Group_2480" data-name="Group 2480" transform="translate(22.848 18.788)">
                <g id="Group_2479" data-name="Group 2479">
                    <path id="Path_9924" d="M433.019 302.756c.77-8.266 7.348-13.262 7.348-13.262l.254 1.228c6.768 1.921 6.928 3.432 7.243 7.985a23.493 23.493 0 0 1-.994 6.588c-.255 1.018-.534 2.066-.8 3.116-.8 3.1-1.53 6.228-1.387 8.673.311 5.31 14.437 28.675 14.437 28.675 0 4.938-12.242 12.006-12.242 12.006.568-6.508-14.96-48.452-13.859-55.009z" class="cls-21" data-name="Path 9924" transform="translate(-432.963 -289.495)"/>
                </g>
            </g>
        </g>
    </g>
</svg>
