<svg xmlns="http://www.w3.org/2000/svg" width="26" height="28" viewBox="0 0 26 28">
    <path id="prefix__ic_logo" fill="#fff" d="M-948.8 11160.97a.636.636 0 0 1-.331-1.2l17.479-9.605a.68.68 0 0 1 .936.286l4.65 9.636a.642.642 0 0 1-.6.91zm-3.134-4.108l3.745-7.5a.671.671 0 0 1 .6-.361l9.927-.027a.638.638 0 0 1 .333 1.2L-951 11157.7a.683.683 0 0 1-.331.088.645.645 0 0 1-.601-.927zm6.316-10.541a.642.642 0 0 1-.6-.919l6.005-12.038a.678.678 0 0 1 1.2.008l5.812 12.039a.643.643 0 0 1-.6.91z" transform="translate(952 -11133.001)"/>
</svg>
