<svg xmlns="http://www.w3.org/2000/svg" width="112" height="44" viewBox="0 0 112 44">
    <path id="prefix__logo" fill="#fff" d="M6439.383 15690.226a.555.555 0 0 1-.177-.418 1.879 1.879 0 0 0-.581-1.387 1.918 1.918 0 0 0-1.4-.574h-1.9a.584.584 0 0 1-.422-.174.553.553 0 0 1-.174-.418.561.561 0 0 1 .174-.416.6.6 0 0 1 .422-.17h2.546a1.282 1.282 0 0 0 .943-.391 1.306 1.306 0 0 0 0-1.871 1.286 1.286 0 0 0-.943-.387h-3.906v5.787a.564.564 0 0 1-.169.418.582.582 0 0 1-.42.176.57.57 0 0 1-.422-.176.556.556 0 0 1-.175-.418v-6.379a.6.6 0 0 1 .6-.59h4.5a2.443 2.443 0 0 1 1.786.734 2.4 2.4 0 0 1 .74 1.77 2.488 2.488 0 0 1-.3 1.2 2.521 2.521 0 0 1-.81.881 3 3 0 0 1 1.113 2.389.566.566 0 0 1-.17.418.583.583 0 0 1-.42.176.568.568 0 0 1-.435-.18zm-13.71.176a2.127 2.127 0 0 1-1.562-.645 2.086 2.086 0 0 1-.65-1.547v-1.588a.594.594 0 0 1 .6-.592h4.893a.573.573 0 0 1 .42.172.583.583 0 0 1 0 .836.571.571 0 0 1-.42.17h-4.295v1a.965.965 0 0 0 .3.713 1 1 0 0 0 .721.295h4.816a.588.588 0 0 1 .591.59.559.559 0 0 1-.17.418.578.578 0 0 1-.42.176zm-9.661-.547a3.68 3.68 0 0 1-1.434-1.518 3.61 3.61 0 0 1-.228-2.887 3.661 3.661 0 0 1 1.9-2.2 3.853 3.853 0 0 1 3.906.262.56.56 0 0 1 .245.377.571.571 0 0 1-.1.441.561.561 0 0 1-.384.244.549.549 0 0 1-.441-.1 2.619 2.619 0 0 0-1.322-.453 2.588 2.588 0 0 0-1.365.279 2.494 2.494 0 0 0-1.3 1.508 2.465 2.465 0 0 0 .155 1.986 2.51 2.51 0 0 0 1.528 1.291 2.556 2.556 0 0 0 2-.152 2.5 2.5 0 0 0 1.343-1.652l-2.707.01a.572.572 0 0 1-.421-.174.546.546 0 0 1-.175-.412.577.577 0 0 1 .175-.422.592.592 0 0 1 .421-.174H6421.202a.588.588 0 0 1 .591.6 3.771 3.771 0 0 1-2.082 3.279 3.823 3.823 0 0 1-1.728.412 3.775 3.775 0 0 1-1.971-.546zm-4.716.219l-.878-1.752a7.208 7.208 0 0 0-3.348.992 5.261 5.261 0 0 0-1.2.9.569.569 0 0 1-.437.191.591.591 0 0 1-.34-.107.574.574 0 0 1-.235-.338.537.537 0 0 1 .043-.406l3.2-6.385a.547.547 0 0 1 .532-.326.556.556 0 0 1 .534.326l1.283 2.559a.566.566 0 0 1 .027.449.59.59 0 0 1-.751.373.586.586 0 0 1-.347-.293l-.746-1.5-1.635 3.258a8.438 8.438 0 0 1 3.787-.877h.07s.013.006.026.006H6410.934l.036.014h.018a.126.126 0 0 0 .036.016l.018.01a.243.243 0 0 1 .031.018.04.04 0 0 1 .021.01.1.1 0 0 0 .026.016s.014.01.026.021l.017.016a.182.182 0 0 1 .026.021l.016.016a.088.088 0 0 1 .027.025c.008.014.013.018.016.018s.009.016.016.025a.127.127 0 0 0 .018.021.063.063 0 0 0 .014.021.281.281 0 0 0 .017.029v.008h.006l1.044 2.09a.553.553 0 0 1 .032.449.566.566 0 0 1-.3.338.586.586 0 0 1-.266.064.558.558 0 0 1-.529-.317zm-9.175.152l-5.413-5.365v4.947a.558.558 0 0 1-.172.418.579.579 0 0 1-.42.176.571.571 0 0 1-.421-.176.555.555 0 0 1-.177-.418v-6.371a.543.543 0 0 1 .369-.547.558.558 0 0 1 .649.127l6.428 6.375a.586.586 0 0 1 0 .834.574.574 0 0 1-.422.176.582.582 0 0 1-.421-.176zm-9.453-.152l-.878-1.752a7.191 7.191 0 0 0-3.346.992 5.2 5.2 0 0 0-1.2.9.573.573 0 0 1-.437.191.593.593 0 0 1-.341-.107.57.57 0 0 1-.235-.338.541.541 0 0 1 .043-.406l3.2-6.385a.6.6 0 0 1 1.065 0l1.285 2.559a.594.594 0 0 1-.725.822.578.578 0 0 1-.347-.293l-.746-1.5-1.636 3.258a8.441 8.441 0 0 1 3.79-.877h.068s.013.006.026.006H6392.307l.037.014h.016a.17.17 0 0 0 .037.016l.017.01a.2.2 0 0 1 .032.018.04.04 0 0 1 .021.01.1.1 0 0 0 .026.016l.026.021.017.016a.182.182 0 0 1 .026.021l.017.016a.1.1 0 0 1 .026.025c.007.014.013.018.017.018a.228.228 0 0 0 .016.025.154.154 0 0 0 .016.021.068.068 0 0 0 .016.021l.017.029v.008l1.045 2.09a.551.551 0 0 1 .031.449.559.559 0 0 1-.3.338.59.59 0 0 1-.267.064.556.556 0 0 1-.528-.317zm-9.175.152a.556.556 0 0 1-.175-.418v-6.371a.576.576 0 0 1 .175-.42.6.6 0 0 1 .841 0 .571.571 0 0 1 .177.42v6.371a.552.552 0 0 1-.177.418.591.591 0 0 1-.841 0zm-6.426 0a.555.555 0 0 1-.176-.418v-6.371a.577.577 0 0 1 .106-.34.606.606 0 0 1 .645-.232.644.644 0 0 1 .3.2l2.8 3.334.809-.783a.584.584 0 0 1 .426-.166.565.565 0 0 1 .415.182.536.536 0 0 1 .172.416.566.566 0 0 1-.182.416l-1.274 1.223a.587.587 0 0 1-.874-.047l-2.163-2.57v4.744a.563.563 0 0 1-.17.418.582.582 0 0 1-.421.176.571.571 0 0 1-.413-.182zm-8.824 0a.566.566 0 0 1-.175-.418l.006-3.988a2.885 2.885 0 0 1 .613-1.8h-3.234a.571.571 0 0 1-.421-.17.58.58 0 0 1 0-.834.574.574 0 0 1 .421-.174h6.437a.579.579 0 0 1 .421.174.582.582 0 0 1 0 .834.575.575 0 0 1-.421.17h-.81a1.817 1.817 0 0 0-1.817 1.8v3.988a.554.554 0 0 1-.175.418.585.585 0 0 1-.422.176.572.572 0 0 1-.423-.176zm-6.111 0a.557.557 0 0 1-.176-.418 1.882 1.882 0 0 0-.58-1.387 1.918 1.918 0 0 0-1.4-.574h-1.9a.578.578 0 0 1-.42-.174.555.555 0 0 1-.177-.418.563.563 0 0 1 .177-.416.591.591 0 0 1 .42-.17h2.547a1.282 1.282 0 0 0 .943-.391 1.309 1.309 0 0 0 0-1.871 1.286 1.286 0 0 0-.943-.387h-3.905v5.787a.566.566 0 0 1-.17.418.585.585 0 0 1-.421.176.569.569 0 0 1-.421-.176.555.555 0 0 1-.176-.418v-6.379a.6.6 0 0 1 .6-.59h4.5a2.441 2.441 0 0 1 1.785.734 2.4 2.4 0 0 1 .741 1.77 2.488 2.488 0 0 1-.3 1.2 2.515 2.515 0 0 1-.811.881 3 3 0 0 1 1.114 2.389.558.558 0 0 1-.172.418.58.58 0 0 1-.42.176.572.572 0 0 1-.435-.18zm-9.458-.152l-.878-1.752a7.2 7.2 0 0 0-3.347.992 5.2 5.2 0 0 0-1.2.9.574.574 0 0 1-.437.191.6.6 0 0 1-.341-.107.575.575 0 0 1-.234-.338.539.539 0 0 1 .042-.406l3.2-6.385a.548.548 0 0 1 .533-.326.555.555 0 0 1 .533.326l1.284 2.559a.564.564 0 0 1 .026.449.557.557 0 0 1-.3.344.563.563 0 0 1-.453.029.583.583 0 0 1-.346-.293l-.746-1.5-1.636 3.258a8.443 8.443 0 0 1 3.788-.877h.069a.045.045 0 0 0 .027.006H6352.311l.037.014h.016a.126.126 0 0 0 .037.016l.017.01a.291.291 0 0 1 .032.018.039.039 0 0 1 .021.01.083.083 0 0 0 .028.016.207.207 0 0 0 .025.021l.016.016a.142.142 0 0 1 .027.021l.016.016a.088.088 0 0 1 .027.025c.007.014.012.018.016.018a.228.228 0 0 0 .016.025.252.252 0 0 0 .017.021.055.055 0 0 0 .016.021.281.281 0 0 0 .017.029v.008l1.044 2.09a.547.547 0 0 1 .032.449.562.562 0 0 1-.3.338.581.581 0 0 1-.266.064.556.556 0 0 1-.528-.317zm-9.175.152a.551.551 0 0 1-.176-.418v-6.371a.57.57 0 0 1 .176-.42.6.6 0 0 1 .842 0 .576.576 0 0 1 .175.42v6.371a.556.556 0 0 1-.175.418.592.592 0 0 1-.842 0zm-6.426 0a.557.557 0 0 1-.176-.418v-6.371a.581.581 0 0 1 .107-.34.6.6 0 0 1 .645-.232.639.639 0 0 1 .3.2l2.8 3.334.81-.783a.58.58 0 0 1 .426-.166.57.57 0 0 1 .416.182.536.536 0 0 1 .17.416.568.568 0 0 1-.181.416l-1.273 1.223a.586.586 0 0 1-.873-.047l-2.165-2.57v4.744a.557.557 0 0 1-.17.418.58.58 0 0 1-.42.176.569.569 0 0 1-.416-.182zm-5.307.176a4.311 4.311 0 0 1-.7-.068.594.594 0 0 1-.384-.25.564.564 0 0 1-.091-.443.578.578 0 0 1 .25-.375.6.6 0 0 1 .447-.094 2.677 2.677 0 0 0 .5.047h.005a2.22 2.22 0 0 0 1.22-.32.847.847 0 0 0 .475-.684.836.836 0 0 0-.475-.68 2.174 2.174 0 0 0-1.22-.326h-.005a3.324 3.324 0 0 1-2.057-.633 1.859 1.859 0 0 1 0-3.105 3.323 3.323 0 0 1 2.057-.631h.022a3.682 3.682 0 0 1 2.674 1.107.584.584 0 0 1 0 .834.562.562 0 0 1-.421.174.573.573 0 0 1-.421-.174 2.539 2.539 0 0 0-1.854-.76h-.011a2.256 2.256 0 0 0-1.22.326.726.726 0 0 0 0 1.361 2.267 2.267 0 0 0 1.226.326 3.293 3.293 0 0 1 2.052.635 1.85 1.85 0 0 1 0 3.1 3.306 3.306 0 0 1-2.052.635h-.026zm-2.383-.852a3.816 3.816 0 0 1-.292-.258.584.584 0 0 1 0-.834.6.6 0 0 1 .841 0 2.58 2.58 0 0 0 .2.18.55.55 0 0 1 .212.395.559.559 0 0 1-.129.434.6.6 0 0 1-.836.084zm72.737-2.068a.565.565 0 0 1-.175-.416v-3.629a.574.574 0 0 1 .175-.42.6.6 0 0 1 .843 0 .573.573 0 0 1 .174.42v3.629a.564.564 0 0 1-.174.416.6.6 0 0 1-.843 0zm21.937-3.461a.591.591 0 1 1 0-1.182h6.432a.576.576 0 0 1 .42.174.6.6 0 0 1 0 .834.576.576 0 0 1-.42.174zm-46.71-10.6a10.861 10.861 0 0 1-2.5-.26 2.032 2.032 0 0 1-1.38-.91 1.924 1.924 0 0 1-.328-1.564 1.889 1.889 0 0 1 .919-1.3 1.97 1.97 0 0 1 1.578-.324 8.2 8.2 0 0 0 1.775.2 7.7 7.7 0 0 0 4.338-1.172 2.551 2.551 0 0 0 0-4.816 11.581 11.581 0 0 0-3.419-1.043 13.022 13.022 0 0 0-1.644-.131 11.5 11.5 0 0 1-6.573-2.213 6.7 6.7 0 0 1-2.958-5.531 6.786 6.786 0 0 1 2.958-5.535 11.73 11.73 0 0 1 7.3-2.279h.065a13.02 13.02 0 0 1 9.466 3.906 2.049 2.049 0 0 1 .592 1.5 2.158 2.158 0 0 1-.592 1.5 2.092 2.092 0 0 1-1.511.586 2.207 2.207 0 0 1-1.513-.586 8.926 8.926 0 0 0-6.574-2.668h-.064a7.714 7.714 0 0 0-4.339 1.17 2.554 2.554 0 0 0 0 4.82 9.831 9.831 0 0 0 4.47 1.039 11.725 11.725 0 0 1 7.3 2.279 6.706 6.706 0 0 1 2.958 5.535 6.782 6.782 0 0 1-2.958 5.531 11.725 11.725 0 0 1-7.3 2.279zm-18.866-.715a2.052 2.052 0 0 1-.592-1.5v-22.656a2.061 2.061 0 0 1 .592-1.5 2.249 2.249 0 0 1 3.024 0 2.063 2.063 0 0 1 .592 1.5v22.656a2.162 2.162 0 0 1-.592 1.5 2.249 2.249 0 0 1-3.024 0zm-21.694.584a7.836 7.836 0 0 1-5.587-2.277 7.434 7.434 0 0 1-2.3-5.469v-16.926a2.051 2.051 0 0 1 .592-1.5 2.094 2.094 0 0 1 1.512-.586 2.2 2.2 0 0 1 1.511.586 2.05 2.05 0 0 1 .593 1.5v16.926a3.422 3.422 0 0 0 1.051 2.539 3.49 3.49 0 0 0 2.564 1.041h12.95a2.089 2.089 0 0 1 1.513.588 2.191 2.191 0 0 1 0 2.994 2.1 2.1 0 0 1-1.513.584zm100.119-1.236l-3.091-6.184a25.52 25.52 0 0 0-11.9 3.514 18.907 18.907 0 0 0-4.274 3.191 1.956 1.956 0 0 1-1.577.65 1.849 1.849 0 0 1-1.183-.391 2.1 2.1 0 0 1-.855-1.17 2.136 2.136 0 0 1 .131-1.434l11.374-22.656a1.949 1.949 0 0 1 1.9-1.17 2.011 2.011 0 0 1 1.907 1.17l4.537 9.053a1.855 1.855 0 0 1 .064 1.561 2.178 2.178 0 0 1-1.052 1.236 1.925 1.925 0 0 1-1.577.131 2.192 2.192 0 0 1-1.25-1.043l-2.629-5.338-5.783 11.521a29.83 29.83 0 0 1 13.409-3.123h.461l.13.064h.066l.132.066.065.064a.232.232 0 0 1 .132.066l.065.063.065.066.066.064.065.064.066.066.065.064.066.064.064.066.067.064.065.064.066.064.065.131 3.813 7.619a1.978 1.978 0 0 1-.92 2.732 2.329 2.329 0 0 1-.921.2 2.01 2.01 0 0 1-1.893-1.173zm-34.775.586a2.043 2.043 0 0 1-.594-1.5v-14.127a10.268 10.268 0 0 1 2.17-6.377h-11.5a2.1 2.1 0 0 1-1.512-.586 2.2 2.2 0 0 1 0-3 2.1 2.1 0 0 1 1.512-.584h22.877a2.1 2.1 0 0 1 1.512.584 2.057 2.057 0 0 1 .592 1.5 2.171 2.171 0 0 1-.592 1.5 2.1 2.1 0 0 1-1.512.586h-2.893a6.231 6.231 0 0 0-4.537 1.887 6.121 6.121 0 0 0-1.906 4.49v14.127a2.045 2.045 0 0 1-.592 1.5 2.242 2.242 0 0 1-3.023 0zm-33.264-2.279a6.733 6.733 0 0 1-1.053-.912 2.049 2.049 0 0 1-.591-1.494 2.167 2.167 0 0 1 .591-1.5 2.094 2.094 0 0 1 1.513-.586 2.207 2.207 0 0 1 1.512.586 7.054 7.054 0 0 0 .723.586 1.815 1.815 0 0 1 .722 1.432 1.934 1.934 0 0 1-.46 1.563 2.087 2.087 0 0 1-1.644.781 1.9 1.9 0 0 1-1.312-.461z" transform="translate(-6328.899 -15646.401)"/>
</svg>
