<svg xmlns="http://www.w3.org/2000/svg" width="300" height="160" viewBox="0 0 300 160">
    <defs>
        <clipPath id="prefix__clip-path">
            <path id="prefix__mask" fill="#7534f8" d="M0 0H300V160H0z" transform="translate(7.937 136)"/>
        </clipPath>
        <clipPath id="prefix__clip-path-2">
            <path id="prefix__path574" d="M-42.923-369.182h2857.812v1412.277H-42.923z" transform="translate(42.923 369.182)"/>
        </clipPath>
        <clipPath id="prefix__clip-path-3">
            <path id="prefix__path578" d="M-42.923-182.882h2857.812v759.324H-42.923z" transform="translate(42.923 182.882)"/>
        </clipPath>
        <clipPath id="prefix__clip-path-4">
            <path id="prefix__path582" d="M-42.207-191.718h2805.78v788.412H-42.207z" transform="translate(42.207 191.718)"/>
        </clipPath>
        <clipPath id="prefix__clip-path-5">
            <path id="prefix__path586" d="M-41.488-206.5H2712.26v838.342H-41.488z" transform="translate(41.488 206.501)"/>
        </clipPath>
        <clipPath id="prefix__clip-path-6">
            <path id="prefix__path590" d="M-40.766-221.285h2701.7v888.279h-2701.7z" transform="translate(40.766 221.285)"/>
        </clipPath>
        <clipPath id="prefix__clip-path-7">
            <path id="prefix__path594" d="M-40.043-236.069h2649.664v938.214H-40.043z" transform="translate(40.043 236.069)"/>
        </clipPath>
        <clipPath id="prefix__clip-path-8">
            <path id="prefix__path598" d="M-39.316-250.854h2597.6V737.3h-2597.6z" transform="translate(39.316 250.854)"/>
        </clipPath>
        <clipPath id="prefix__clip-path-9">
            <path id="prefix__path602" d="M-38.586-265.638h2545.54V772.447H-38.586z" transform="translate(38.586 265.638)"/>
        </clipPath>
        <clipPath id="prefix__clip-path-10">
            <path id="prefix__path606" d="M-37.856-280.426h2493.473V807.609H-37.856z" transform="translate(37.856 280.426)"/>
        </clipPath>
        <clipPath id="prefix__clip-path-11">
            <path id="prefix__path610" d="M-37.122-295.214h2441.4v1137.98h-2441.4z" transform="translate(37.122 295.214)"/>
        </clipPath>
        <clipPath id="prefix__clip-path-12">
            <path id="prefix__path614" d="M-36.386-310.006h2389.314V877.942H-36.386z" transform="translate(36.386 310.006)"/>
        </clipPath>
        <clipPath id="prefix__clip-path-13">
            <path id="prefix__path618" d="M-35.648-324.8h2337.23V913.1H-35.648z" transform="translate(35.648 324.798)"/>
        </clipPath>
        <clipPath id="prefix__clip-path-14">
            <path id="prefix__path622" d="M-34.908-339.591h2285.143v1287.87H-34.908z" transform="translate(34.908 339.591)"/>
        </clipPath>
        <clipPath id="prefix__clip-path-15">
            <path id="prefix__path626" d="M-34.167-354.386h2233.049V983.448H-34.167z" transform="translate(34.167 354.386)"/>
        </clipPath>
        <clipPath id="prefix__clip-path-16">
            <path id="prefix__path630" d="M-33.424-369.182h2180.95v1387.807H-33.424z" transform="translate(33.424 369.182)"/>
        </clipPath>
    </defs>
    <g id="prefix__wave" clip-path="url(#prefix__clip-path)" opacity="0.26" transform="translate(-7.937 -136)">
        <g id="prefix__wave-2" data-name="wave" transform="translate(-652.063 -560)">
            <g id="prefix__g802" clip-path="url(#prefix__clip-path-2)" opacity="0.4">
                <g id="prefix__g644" transform="translate(0 652.953)">
                    <g id="prefix__g642">
                        <g id="prefix__g640" clip-path="url(#prefix__clip-path-3)">
                            <g id="prefix__g638" transform="translate(.813 2.334)">
                                <path id="prefix__path636" fill="none" stroke="#fff" stroke-miterlimit="10" stroke-width="1.333px" d="M1832.952 539.92c-1084.6-1588.864-1764.694-70.1-2855.584-734.864" transform="translate(1022.632 215.55)"/>
                            </g>
                        </g>
                    </g>
                </g>
                <g id="prefix__g656" transform="translate(2 621.984)">
                    <g id="prefix__g654">
                        <g id="prefix__g652" clip-path="url(#prefix__clip-path-4)">
                            <g id="prefix__g650" transform="translate(.82 1.95)">
                                <path id="prefix__path648" fill="none" stroke="#fff" stroke-miterlimit="10" stroke-width="1.256px" d="M1799.606 561.043C757.889-956.019 70.822 486.992-1004.028-223.982" transform="translate(1004.028 223.982)"/>
                            </g>
                        </g>
                    </g>
                </g>
                <g id="prefix__g668" transform="translate(4.007 570.173)">
                    <g id="prefix__g666">
                        <g id="prefix__g664" clip-path="url(#prefix__clip-path-5)">
                            <g id="prefix__g662" transform="translate(.816 1.797)">
                                <path id="prefix__path660" fill="none" stroke="#fff" stroke-miterlimit="10" stroke-width="1.18px" d="M1766.263 596.9C767.425-848.363 73.385 518.892-985.425-238.3" transform="translate(985.425 238.295)"/>
                            </g>
                        </g>
                    </g>
                </g>
                <g id="prefix__g680" transform="translate(6.023 518.357)">
                    <g id="prefix__g678">
                        <g id="prefix__g676" clip-path="url(#prefix__clip-path-6)">
                            <g id="prefix__g674" transform="translate(.806 1.648)">
                                <path id="prefix__path672" fill="none" stroke="#fff" stroke-miterlimit="10" stroke-width="1.103px" d="M1732.918 632.748C776.956-740.7 75.949 550.791-966.822-252.609" transform="translate(966.822 252.609)"/>
                            </g>
                        </g>
                    </g>
                </g>
                <g id="prefix__g692" transform="translate(8.043 466.542)">
                    <g id="prefix__g690">
                        <g id="prefix__g688" clip-path="url(#prefix__clip-path-7)">
                            <g id="prefix__g686" transform="translate(.789 1.504)">
                                <path id="prefix__path684" fill="none" stroke="#fff" stroke-miterlimit="10" stroke-width="1.025px" d="M1699.577 668.6C786.491-633.052 78.515 582.686-948.22-266.922" transform="translate(948.22 266.922)"/>
                            </g>
                        </g>
                    </g>
                </g>
                <g id="prefix__g704" transform="translate(10.072 414.721)">
                    <g id="prefix__g702">
                        <g id="prefix__g700" clip-path="url(#prefix__clip-path-8)">
                            <g id="prefix__g698" transform="translate(.763 1.36)">
                                <path id="prefix__path696" fill="none" stroke="#fff" stroke-miterlimit="10" stroke-width="0.949px" d="M1666.234 704.454C796.024-525.4 81.082 614.585-929.618-281.235" transform="translate(929.618 281.235)"/>
                            </g>
                        </g>
                    </g>
                </g>
                <g id="prefix__g716" transform="translate(12.11 362.906)">
                    <g id="prefix__g714">
                        <g id="prefix__g712" clip-path="url(#prefix__clip-path-9)">
                            <g id="prefix__g710" transform="translate(.732 1.217)">
                                <path id="prefix__path708" fill="none" stroke="#fff" stroke-miterlimit="10" stroke-width="0.872px" d="M1632.889 740.3C805.559-417.745 83.647 646.481-911.014-295.547" transform="translate(911.014 295.547)"/>
                            </g>
                        </g>
                    </g>
                </g>
                <g id="prefix__g728" transform="translate(14.149 311.076)">
                    <g id="prefix__g726">
                        <g id="prefix__g724" clip-path="url(#prefix__clip-path-10)">
                            <g id="prefix__g722" transform="translate(.695 1.082)">
                                <path id="prefix__path720" fill="none" stroke="#fff" stroke-miterlimit="10" stroke-width="0.795px" d="M1599.546 776.156C815.1-310.085 86.214 678.38-892.411-309.861" transform="translate(892.411 309.861)"/>
                            </g>
                        </g>
                    </g>
                </g>
                <g id="prefix__g740" transform="translate(16.198 259.247)">
                    <g id="prefix__g738">
                        <g id="prefix__g736" clip-path="url(#prefix__clip-path-11)">
                            <g id="prefix__g734" transform="translate(.652 .953)">
                                <path id="prefix__path732" fill="none" stroke="#fff" stroke-miterlimit="10" stroke-width="0.717px" d="M1566.2 812.005C824.626-202.428 88.778 710.276-873.807-324.173" transform="translate(873.807 324.173)"/>
                            </g>
                        </g>
                    </g>
                </g>
                <g id="prefix__g752" transform="translate(18.254 207.403)">
                    <g id="prefix__g750">
                        <g id="prefix__g748" clip-path="url(#prefix__clip-path-12)">
                            <g id="prefix__g746" transform="translate(.603 .832)">
                                <path id="prefix__path744" fill="none" stroke="#fff" stroke-miterlimit="10" stroke-width="0.641px" d="M1532.854 847.862C834.16-94.774 91.339 742.179-855.2-338.487" transform="translate(855.203 338.487)"/>
                            </g>
                        </g>
                    </g>
                </g>
                <g id="prefix__g764" transform="translate(20.314 155.559)">
                    <g id="prefix__g762">
                        <g id="prefix__g760" clip-path="url(#prefix__clip-path-13)">
                            <g id="prefix__g758" transform="translate(.546 .712)">
                                <path id="prefix__path756" fill="none" stroke="#fff" stroke-miterlimit="10" stroke-width="0.564px" d="M1499.512 883.711C843.693 12.883 93.91 774.075-836.6-352.8" transform="translate(836.601 352.799)"/>
                            </g>
                        </g>
                    </g>
                </g>
                <g id="prefix__g776" transform="translate(22.381 103.711)">
                    <g id="prefix__g774">
                        <g id="prefix__g772" clip-path="url(#prefix__clip-path-14)">
                            <g id="prefix__g770" transform="translate(.486 .6)">
                                <path id="prefix__path768" fill="none" stroke="#fff" stroke-miterlimit="10" stroke-width="0.487px" d="M1466.168 919.564C853.226 120.538 96.469 805.965-818-367.112" transform="translate(817.998 367.112)"/>
                            </g>
                        </g>
                    </g>
                </g>
                <g id="prefix__g788" transform="translate(24.45 51.858)">
                    <g id="prefix__g786">
                        <g id="prefix__g784" clip-path="url(#prefix__clip-path-15)">
                            <g id="prefix__g782" transform="translate(.42 .49)">
                                <path id="prefix__path780" fill="none" stroke="#fff" stroke-miterlimit="10" stroke-width="0.411px" d="M1432.825 955.416C862.763 228.193 99.036 837.868-799.4-381.426" transform="translate(799.395 381.426)"/>
                            </g>
                        </g>
                    </g>
                </g>
                <g id="prefix__g800" transform="translate(26.524)">
                    <g id="prefix__g798">
                        <g id="prefix__g796" clip-path="url(#prefix__clip-path-16)">
                            <g id="prefix__g794" transform="translate(.352 .383)">
                                <path id="prefix__path792" fill="none" stroke="#fff" stroke-miterlimit="10" stroke-width="0.333px" d="M1399.48 991.269C872.293 335.849 101.6 869.768-780.791-395.739" transform="translate(780.791 395.739)"/>
                            </g>
                        </g>
                    </g>
                </g>
            </g>
        </g>
    </g>
</svg>
